<?xml version="1.0" encoding="UTF-8"?>
<!-- Generator: Adobe Illustrator 25.4.1, SVG Export Plug-In . SVG Version: 6.00 Build 0)  -->
<svg xmlns="http://www.w3.org/2000/svg" xmlns:xlink="http://www.w3.org/1999/xlink" version="1.1" id="Layer_1" x="0px" y="0px" width="117px" height="36px" viewBox="0 0 117 36" style="enable-background:new 0 0 117 36;" xml:space="preserve">
<style type="text/css">
	.st0{fill-rule:evenodd;clip-rule:evenodd;}
	.st1{fill:#2954FE;}
</style>
<g transform="matrix(4.34798 0 0 4.33333 97.3825 148)">
	<path class="st0" d="M-7.9-31.4h0.9v3.3h-0.9V-31.4z"></path>
	<g>
		<path d="M-8.5-30c-0.1-0.2-0.2-0.3-0.4-0.5c0.2-0.2,0.3-0.6,0.3-0.9c0-0.7-0.6-1.2-1.3-1.2h-1.9v4.5h2.2c0.7,0,1.3-0.6,1.3-1.3    C-8.3-29.6-8.4-29.9-8.5-30z M-9.7-28.9h-1.1V-30h1.1c0.3,0,0.6,0.2,0.6,0.6C-9.2-29.1-9.5-28.9-9.7-28.9z M-10-30.8h-0.9v-1.1    h0.9c0.3,0,0.6,0.2,0.6,0.6C-9.4-31-9.7-30.8-10-30.8z"></path>
		<path d="M4.1-32.5H3l-0.8,1.3l-0.8-1.3H0.3l1.4,2.2l-1.4,2.2h1.1l0.8-1.3L3-28.1h1.1l-1.4-2.2L4.1-32.5z"></path>
		<path d="M-3.6-29.9v1.8h-0.9v-2c0-0.3-0.2-0.5-0.5-0.5c-0.3,0-0.5,0.3-0.5,0.5v1.9h-0.9v-3.3h0.9v0.2c0.2-0.1,0.4-0.2,0.7-0.2    c0.1,0,0.2,0,0.4,0c0.5,0.1,0.9,0.6,0.9,1.1C-3.6-30.1-3.6-30-3.6-29.9z"></path>
	</g>
	<path class="st0" d="M-7.9-32.7h0.9v0.9h-0.9V-32.7z"></path>
	<path d="M0-31.4h-1.6c0,0,0,0,0,0c-0.9,0-1.6,0.7-1.6,1.6c0,0.9,0.7,1.6,1.6,1.6c0,0,0,0,0,0c0.3,0,0.7,0.1,0.7,0.4   c0,0.3-0.3,0.6-0.7,0.6c-0.4,0-0.7-0.3-0.7-0.7h-0.9c0,0.9,0.7,1.6,1.6,1.6c0.9,0,1.6-0.7,1.6-1.6c0,0,0-0.5-0.4-0.8   C-0.1-29,0-29.3,0-29.7c0-0.3-0.1-0.6-0.2-0.9H0V-31.4z M-1.6-29c-0.4,0-0.7-0.3-0.7-0.7s0.3-0.7,0.7-0.7s0.7,0.3,0.7,0.7   S-1.2-29-1.6-29z"></path>
	<path class="st1" d="M-13.4-33.8c-1,0-2,0.3-2.9,0.7c-0.5,0.3-0.9,0.6-1.3,0.9c-0.1,0.1-0.2,0.2-0.3,0.3c-0.3,0.3-0.5,0.7-0.7,1   c-0.1,0.1-0.2,0.3-0.2,0.4c0,0,0,0,0,0c-0.8,1-2,1.6-3.2,1.6v1.9c1,0,2-0.3,2.9-0.7c0.5-0.3,0.9-0.6,1.3-0.9   c0.1-0.1,0.2-0.2,0.3-0.3c0.3-0.3,0.5-0.7,0.7-1l0,0c0.1-0.1,0.1-0.2,0.2-0.4c0,0,0,0,0,0c0.8-1,2-1.6,3.2-1.6V-33.8z"></path>
	<path class="st1" d="M-13.4-28.8c-1.3,0-2.5-0.6-3.2-1.6c0,0,0,0,0,0c-0.1-0.1-0.2-0.2-0.2-0.4c-0.2-0.4-0.5-0.7-0.7-1   c-0.1-0.1-0.2-0.2-0.3-0.3c-0.4-0.4-0.8-0.7-1.3-0.9c-0.9-0.5-1.9-0.7-2.9-0.7v1.9c1.3,0,2.5,0.6,3.2,1.6c0,0,0,0,0,0   c0.1,0.1,0.2,0.2,0.2,0.4l0,0c0.2,0.4,0.5,0.7,0.7,1c0.1,0.1,0.2,0.2,0.3,0.3c0.4,0.4,0.8,0.7,1.3,0.9c0.9,0.5,1.9,0.7,2.9,0.7   V-28.8z"></path>
</g>
</svg>
