<?xml version="1.0" encoding="UTF-8"?>
<svg xmlns="http://www.w3.org/2000/svg" xmlns:xlink="http://www.w3.org/1999/xlink" id="Layer_1" x="0px" y="0px" width="117px" height="36px" viewBox="0 0 117 36" style="enable-background:new 0 0 117 36;" xml:space="preserve">
  <style type="text/css">	.st0{fill:#16191D;}	.st1{fill:#16B943;}</style>
  <g>	<path class="st0" d="M46.52,25.08V11.35h5.51c1.43,0,2.51,0.33,3.26,1c0.76,0.65,1.14,1.5,1.14,2.53c0,0.86-0.24,1.56-0.71,2.08   c-0.46,0.51-1.02,0.86-1.69,1.04c0.78,0.16,1.43,0.55,1.94,1.18c0.51,0.61,0.76,1.33,0.76,2.16c0,1.09-0.39,1.98-1.18,2.69   s-1.9,1.06-3.33,1.06H46.52z M49.03,17.12h2.63c0.71,0,1.25-0.16,1.63-0.49c0.38-0.33,0.57-0.79,0.57-1.39   c0-0.58-0.19-1.03-0.57-1.35c-0.37-0.34-0.92-0.51-1.67-0.51h-2.59V17.12z M49.03,23.04h2.8c0.75,0,1.32-0.17,1.73-0.51   c0.42-0.35,0.63-0.84,0.63-1.47c0-0.64-0.22-1.14-0.65-1.51C53.11,19.19,52.53,19,51.8,19h-2.77V23.04z M58.65,25.08V11.35h2.51   v13.73H58.65z M63.58,25.08V11.35h2.51l6.45,9.67v-9.67h2.51v13.73h-2.51l-6.45-9.65v9.65H63.58z M83.91,25.32   c-1.37,0-2.58-0.3-3.61-0.9c-1.02-0.6-1.82-1.43-2.41-2.49c-0.58-1.07-0.86-2.31-0.86-3.71s0.29-2.63,0.86-3.69   c0.59-1.07,1.39-1.91,2.41-2.51c1.03-0.6,2.24-0.9,3.61-0.9c1.36,0,2.56,0.3,3.59,0.9c1.03,0.6,1.84,1.44,2.41,2.51   c0.58,1.06,0.86,2.29,0.86,3.69s-0.29,2.63-0.86,3.71c-0.58,1.06-1.38,1.89-2.41,2.49S85.27,25.32,83.91,25.32z M83.91,23.06   c1.31,0,2.35-0.43,3.12-1.29c0.78-0.86,1.18-2.05,1.18-3.55c0-1.5-0.39-2.69-1.18-3.55c-0.77-0.86-1.81-1.29-3.12-1.29   s-2.35,0.43-3.14,1.29c-0.78,0.86-1.18,2.05-1.18,3.55c0,1.5,0.39,2.69,1.18,3.55C81.56,22.63,82.61,23.06,83.91,23.06z    M98.97,25.32c-1.39,0-2.58-0.29-3.57-0.88c-0.99-0.6-1.76-1.43-2.29-2.49c-0.54-1.07-0.8-2.31-0.8-3.71c0-1.4,0.27-2.63,0.8-3.71   c0.54-1.07,1.3-1.91,2.29-2.51c0.99-0.6,2.18-0.9,3.57-0.9c1.65,0,2.99,0.41,4.04,1.24c1.06,0.81,1.72,1.95,1.98,3.43h-2.77   c-0.17-0.75-0.54-1.33-1.1-1.75c-0.55-0.43-1.28-0.65-2.2-0.65c-1.27,0-2.26,0.43-2.98,1.29c-0.72,0.86-1.08,2.05-1.08,3.55   c0,1.5,0.36,2.69,1.08,3.55c0.72,0.85,1.71,1.27,2.98,1.27c0.92,0,1.65-0.2,2.2-0.59c0.56-0.41,0.93-0.96,1.1-1.67H105   c-0.26,1.41-0.92,2.52-1.98,3.31C101.97,24.92,100.62,25.32,98.97,25.32z M111.67,25.32c-1.01,0-1.9-0.17-2.67-0.51   c-0.77-0.35-1.38-0.85-1.82-1.49c-0.44-0.65-0.67-1.44-0.69-2.37h2.65c0.03,0.64,0.25,1.18,0.69,1.63   c0.44,0.43,1.05,0.65,1.82,0.65c0.67,0,1.2-0.16,1.59-0.47c0.39-0.33,0.59-0.76,0.59-1.29c0-0.56-0.18-1-0.53-1.31   c-0.34-0.31-0.8-0.57-1.37-0.76c-0.58-0.2-1.19-0.41-1.84-0.63c-1.06-0.37-1.87-0.84-2.43-1.41c-0.55-0.58-0.82-1.34-0.82-2.29   c-0.01-0.81,0.18-1.5,0.57-2.08c0.41-0.59,0.95-1.04,1.65-1.35c0.69-0.33,1.49-0.49,2.39-0.49c0.92,0,1.72,0.16,2.41,0.49   c0.71,0.33,1.26,0.78,1.65,1.37c0.41,0.59,0.62,1.29,0.65,2.1h-2.69c-0.01-0.48-0.2-0.91-0.57-1.27c-0.35-0.38-0.85-0.57-1.49-0.57   c-0.55-0.01-1.01,0.12-1.39,0.41c-0.37,0.27-0.55,0.68-0.55,1.22c0,0.46,0.14,0.82,0.43,1.1c0.29,0.26,0.68,0.48,1.18,0.67   c0.5,0.18,1.07,0.38,1.71,0.59c0.68,0.24,1.3,0.51,1.86,0.82c0.56,0.31,1.01,0.73,1.35,1.26c0.34,0.51,0.51,1.17,0.51,1.98   c0,0.72-0.18,1.39-0.55,2c-0.37,0.61-0.91,1.11-1.63,1.49C113.6,25.14,112.71,25.32,111.67,25.32z"></path>	<path class="st1" d="M16.16,11.45c0.17,0,0.35,0,0.61,0c4.17,0,7.65,2.97,7.65,6.7c0,2.74-1.91,5.18-4.7,6.17   c-0.17,0-0.26,0-0.43,0c-4.17,0-7.65-2.97-7.65-6.7C11.64,14.88,13.47,12.52,16.16,11.45L0.51,11.53c0,9.29,8.61,16.82,19.22,16.82   v-3.88h15.65c0-9.29-8.61-16.82-19.22-16.82V11.45z"></path></g>
</svg>
