<?xml version="1.0" encoding="UTF-8"?>
<svg xmlns="http://www.w3.org/2000/svg" xmlns:xlink="http://www.w3.org/1999/xlink" id="Layer_1" x="0px" y="0px" width="117px" height="36px" viewBox="0 0 117 36" style="enable-background:new 0 0 117 36;" xml:space="preserve">
  <style type="text/css">	.st0{fill:#070707;}</style>
  <g>	<path class="st0" d="M31.74,0.54c0.35,0,0.69,0.09,1.01,0.27l3.07,1.82l-2.04,1.21l-1.02-0.6l-0.51-0.3c-0.31-0.19-0.7-0.19-1.02,0   l-0.51,0.3l-5.09,3.02l-0.51,0.3c-0.23,0.13-0.23,0.47,0,0.6l0.51,0.3l7.12,4.22l1.02,0.6v10.25c0,0.27,0.28,0.44,0.51,0.3   l0.51-0.3l5.09-3.01l0.51-0.3c0.32-0.19,0.51-0.53,0.51-0.9V16.5l2.04-1.21v3.62c0,0.74-0.39,1.43-1.01,1.81l-9.17,5.43   c-0.31,0.19-0.66,0.28-1.02,0.28l0-12.94l-1.02-0.6l-9.91-5.87c0.17-0.31,0.42-0.57,0.73-0.76l9.19-5.44l0.05-0.03   C31.09,0.62,31.42,0.54,31.74,0.54L31.74,0.54z M20.54,8.05l2.04,1.21v9.04c0,0.36,0.18,0.69,0.47,0.88l0.04,0.03l0.51,0.3   l7.13,4.22v2.41l-9.16-5.43l0,0c-0.63-0.37-1.01-1.06-1.02-1.8V8.05L20.54,8.05z M77.81,9.91c0.84,0,1.62,0.16,2.35,0.48   c0.73,0.32,1.36,0.75,1.9,1.3c0.54,0.55,0.96,1.19,1.27,1.93c0.31,0.73,0.46,1.52,0.46,2.36c0,0.84-0.15,1.64-0.46,2.38   c-0.31,0.74-0.73,1.38-1.27,1.93s-1.17,0.97-1.9,1.29c-0.73,0.32-1.51,0.48-2.35,0.48c-0.84,0-1.62-0.16-2.35-0.48   c-0.73-0.32-1.36-0.75-1.9-1.29c-0.54-0.54-0.96-1.19-1.27-1.93c-0.31-0.74-0.46-1.53-0.46-2.38c0-0.84,0.15-1.63,0.46-2.36   c0.31-0.73,0.73-1.37,1.27-1.93c0.54-0.55,1.17-0.99,1.9-1.3C76.18,10.06,76.97,9.91,77.81,9.91L77.81,9.91z M58.28,4.5   c0.73,0,1.41,0.09,2.03,0.27c0.63,0.18,1.16,0.44,1.62,0.79c0.45,0.35,0.81,0.8,1.07,1.34c0.26,0.54,0.39,1.18,0.39,1.91   c0,0.99-0.27,1.8-0.81,2.42c-0.54,0.63-1.24,1.08-2.09,1.38v0.05c0.51,0.03,0.98,0.17,1.43,0.4c0.44,0.24,0.83,0.54,1.15,0.93   c0.32,0.38,0.58,0.82,0.77,1.33c0.19,0.5,0.29,1.05,0.29,1.63c0,0.78-0.15,1.47-0.46,2.06c-0.31,0.59-0.73,1.09-1.27,1.5   c-0.54,0.41-1.16,0.71-1.88,0.93c-0.71,0.21-1.48,0.32-2.31,0.32h-4.98c-0.44,0-0.79-0.37-0.79-0.82V5.31   c0-0.45,0.36-0.82,0.79-0.82L58.28,4.5L58.28,4.5z M68.97,3.33c0.11,0,0.2,0.09,0.2,0.2v18.02c0,0.11-0.09,0.2-0.2,0.2h-1.74   c-0.11,0-0.2-0.09-0.2-0.2V3.53c0-0.11,0.09-0.2,0.2-0.2C67.23,3.33,68.97,3.33,68.97,3.33z M87.83,10.2   c0.07,0,0.13,0.03,0.16,0.09l2.51,3.76c0.06,0.09,0.19,0.12,0.28,0.05c0.02-0.01,0.04-0.03,0.05-0.05l2.46-3.75   c0.04-0.06,0.1-0.09,0.17-0.09h2.09c0.11,0,0.2,0.09,0.2,0.2c0,0.04-0.01,0.09-0.04,0.12l-3.44,4.82c-0.1,0.15-0.1,0.34,0,0.49   l4.14,5.6c0.07,0.09,0.05,0.22-0.04,0.29c-0.03,0.03-0.08,0.04-0.12,0.04h-2.25c-0.06,0-0.13-0.03-0.16-0.09l-3.1-4.53   c-0.06-0.09-0.19-0.11-0.28-0.05c-0.02,0.01-0.03,0.03-0.05,0.05l-3.1,4.53c-0.04,0.05-0.1,0.09-0.16,0.09h-2.13   c-0.11,0-0.2-0.09-0.2-0.2c0-0.04,0.01-0.09,0.04-0.12l4.14-5.59c0.11-0.15,0.11-0.35,0-0.49l-3.57-4.81   c-0.07-0.09-0.05-0.22,0.04-0.29c0.03-0.03,0.08-0.04,0.12-0.04L87.83,10.2L87.83,10.2z M77.81,11.95c-0.57,0-1.09,0.1-1.54,0.3   c-0.46,0.2-0.85,0.48-1.16,0.83c-0.32,0.35-0.56,0.77-0.74,1.27c-0.17,0.5-0.26,1.04-0.26,1.62c0,0.58,0.09,1.13,0.26,1.62   c0.17,0.5,0.42,0.92,0.74,1.27c0.32,0.35,0.7,0.63,1.16,0.83c0.46,0.2,0.97,0.3,1.54,0.3c0.57,0,1.09-0.1,1.54-0.3   c0.46-0.2,0.85-0.48,1.16-0.83c0.32-0.35,0.56-0.77,0.74-1.27c0.17-0.5,0.26-1.04,0.26-1.62s-0.09-1.12-0.26-1.62   c-0.17-0.5-0.42-0.92-0.74-1.27c-0.32-0.35-0.71-0.63-1.16-0.83C78.89,12.05,78.38,11.95,77.81,11.95z M58.09,13.71h-2.98   c-0.22,0-0.4,0.18-0.4,0.41v5.18c0,0.23,0.18,0.41,0.4,0.41h2.95c0.35,0,0.73-0.04,1.15-0.11c0.42-0.07,0.81-0.22,1.18-0.44   c0.36-0.22,0.67-0.52,0.93-0.89c0.25-0.37,0.38-0.87,0.38-1.49c0-1.02-0.32-1.79-0.97-2.3C60.08,13.96,59.2,13.71,58.09,13.71z    M36.84,3.23l5.1,3.02l0.05,0.03c0.6,0.38,0.96,1.05,0.96,1.77v6.03l-2.04,1.21V9.26c0-0.72-0.37-1.4-0.96-1.78l-0.06-0.03   L34.8,4.44L36.84,3.23L36.84,3.23z M58.31,6.54h-3.19c-0.22,0-0.4,0.18-0.4,0.41v4.3c0,0.23,0.18,0.41,0.4,0.41h2.72   c0.43,0,0.83-0.04,1.21-0.13c0.38-0.09,0.71-0.24,1-0.45c0.29-0.21,0.51-0.48,0.68-0.8c0.17-0.32,0.25-0.72,0.25-1.19   c0-0.68-0.21-1.28-0.64-1.78C59.9,6.8,59.23,6.54,58.31,6.54L58.31,6.54z M52.88,33.81c0.17,0.26,0.39,0.45,0.65,0.58   c0.27,0.12,0.55,0.18,0.83,0.18c0.16,0,0.32-0.02,0.48-0.07c0.16-0.05,0.31-0.13,0.44-0.23c0.14-0.1,0.25-0.22,0.34-0.37   c0.09-0.15,0.13-0.31,0.13-0.51c0-0.27-0.09-0.48-0.26-0.62c-0.17-0.15-0.39-0.26-0.64-0.36c-0.25-0.1-0.53-0.19-0.83-0.28   c-0.3-0.09-0.57-0.22-0.83-0.38c-0.25-0.16-0.46-0.37-0.63-0.64c-0.17-0.27-0.26-0.64-0.26-1.09c0-0.21,0.04-0.42,0.13-0.66   c0.09-0.23,0.23-0.44,0.42-0.64c0.19-0.19,0.43-0.35,0.73-0.48c0.3-0.13,0.67-0.2,1.09-0.2c0.38,0,0.75,0.05,1.1,0.16   c0.35,0.11,0.66,0.32,0.92,0.65l-0.77,0.71c-0.12-0.19-0.29-0.33-0.5-0.45c-0.22-0.11-0.46-0.17-0.74-0.17   c-0.26,0-0.48,0.04-0.66,0.11c-0.17,0.07-0.31,0.16-0.41,0.27c-0.11,0.11-0.18,0.22-0.23,0.35c-0.04,0.13-0.06,0.24-0.06,0.35   c0,0.3,0.09,0.53,0.26,0.69c0.17,0.16,0.38,0.29,0.63,0.39c0.26,0.1,0.53,0.19,0.83,0.27c0.3,0.08,0.58,0.19,0.83,0.34   c0.26,0.14,0.47,0.33,0.64,0.58c0.17,0.24,0.26,0.57,0.26,0.99c0,0.34-0.07,0.64-0.2,0.91c-0.13,0.27-0.3,0.5-0.51,0.69   c-0.22,0.19-0.47,0.33-0.77,0.43c-0.3,0.1-0.61,0.15-0.95,0.15c-0.45,0-0.87-0.08-1.27-0.24c-0.4-0.16-0.72-0.4-0.96-0.74   L52.88,33.81L52.88,33.81z M59.62,29.14h-2.25v-0.89h5.45v0.89h-2.25v6.14h-0.95V29.14z M65.12,28.24h0.86l2.99,7.04h-1.11   l-0.7-1.74h-3.33l-0.69,1.74h-1.11L65.12,28.24z M66.81,32.71l-1.3-3.23h-0.02l-1.32,3.23H66.81z M69.88,28.24h0.95v3.04h0.08   L74,28.24h1.32l-3.38,3.25l3.61,3.79h-1.38l-3.26-3.52h-0.08v3.52h-0.95L69.88,28.24L69.88,28.24z M76.28,28.24h0.95v7.04h-0.95   V28.24z M79.03,28.24h1.24l3.85,5.78h0.02v-5.78h0.95v7.04h-1.2L80,29.5h-0.02v5.78h-0.95V28.24z M92.85,31.35v3.47   c-0.17,0.11-0.37,0.2-0.58,0.28c-0.22,0.08-0.44,0.15-0.68,0.2c-0.23,0.06-0.47,0.1-0.71,0.13c-0.24,0.03-0.46,0.04-0.67,0.04   c-0.59,0-1.12-0.1-1.59-0.3c-0.46-0.2-0.85-0.47-1.18-0.81c-0.32-0.34-0.56-0.73-0.73-1.17c-0.16-0.45-0.25-0.92-0.25-1.42   c0-0.52,0.09-1.01,0.27-1.46c0.18-0.45,0.43-0.84,0.75-1.17c0.32-0.33,0.71-0.59,1.16-0.78c0.45-0.19,0.94-0.29,1.47-0.29   c0.65,0,1.17,0.08,1.58,0.25c0.41,0.16,0.75,0.38,1.03,0.67l-0.67,0.73c-0.29-0.28-0.6-0.47-0.92-0.58   c-0.32-0.11-0.66-0.17-1.02-0.17c-0.4,0-0.76,0.08-1.09,0.23c-0.32,0.15-0.6,0.34-0.83,0.6c-0.23,0.25-0.41,0.55-0.53,0.89   c-0.13,0.34-0.19,0.7-0.19,1.08c0,0.4,0.07,0.77,0.21,1.11c0.14,0.34,0.33,0.63,0.57,0.88c0.24,0.25,0.53,0.45,0.86,0.6   c0.33,0.14,0.69,0.21,1.08,0.21c0.34,0,0.65-0.03,0.95-0.09c0.3-0.07,0.56-0.16,0.77-0.28v-1.96h-1.55v-0.89L92.85,31.35   L92.85,31.35z"></path></g>
</svg>
