<?xml version="1.0" encoding="UTF-8"?>
<!-- Generator: Adobe Illustrator 24.3.0, SVG Export Plug-In . SVG Version: 6.00 Build 0)  -->
<svg xmlns="http://www.w3.org/2000/svg" xmlns:xlink="http://www.w3.org/1999/xlink" version="1.1" id="Layer_1" x="0px" y="0px" width="117px" height="36px" viewBox="0 0 117 36" style="enable-background:new 0 0 117 36;" xml:space="preserve">
<style type="text/css">
	.st0{fill-rule:evenodd;clip-rule:evenodd;fill:url(#SVGID_1_);}
	.st1{fill:#0F0F0F;}
	.st2{opacity:0.6;}
</style>
<g>
	
		<linearGradient id="SVGID_1_" gradientUnits="userSpaceOnUse" x1="18.8177" y1="31.9192" x2="8.9827" y2="8.3152" gradientTransform="matrix(0.9389 0 0 -0.9389 0.1522 35.7407)">
		<stop offset="0" style="stop-color:#FFBE54"></stop>
		<stop offset="1" style="stop-color:#FB6C1C"></stop>
	</linearGradient>
	<path class="st0" d="M15,7.7c-1.26-1.25-3.3-1.25-4.56,0.01l-8,8c-1.26,1.26-1.26,3.3-0.01,4.56l3.47-3.47   c-0.13-0.24-0.2-0.52-0.2-0.81c0-0.96,0.78-1.73,1.73-1.73c0.29,0,0.57,0.07,0.81,0.2L15,7.7z M3.25,21.09l1.7,1.7l5.91-5.91   c-0.1-0.22-0.16-0.46-0.16-0.72c0-0.96,0.78-1.73,1.73-1.73c0.26,0,0.5,0.06,0.72,0.16l4.36-4.36l-1.7-1.7l-6.8,6.8   c0.09,0.21,0.14,0.44,0.14,0.68c0,0.96-0.78,1.73-1.73,1.73c-0.24,0-0.47-0.05-0.68-0.14L3.25,21.09z M18.33,11.04l-4.35,4.35   c0.12,0.23,0.18,0.49,0.18,0.77c0,0.96-0.78,1.73-1.73,1.73c-0.28,0-0.54-0.06-0.77-0.18l-5.9,5.9l1.63,1.63l12.57-12.57   L18.33,11.04z M20.78,13.48L8.21,26.05l1.63,1.63l8.45-8.45c-0.1-0.22-0.16-0.47-0.16-0.73c0-0.96,0.78-1.73,1.73-1.73   c0.26,0,0.51,0.06,0.73,0.16l1.82-1.82L20.78,13.48z M23.22,15.94l-1.8,1.8c0.11,0.23,0.18,0.49,0.18,0.76   c0,0.96-0.78,1.73-1.73,1.73c-0.27,0-0.53-0.06-0.76-0.18l-8.43,8.43c1.27,1.05,3.15,0.98,4.34-0.21l8-8   C24.2,19.1,24.27,17.21,23.22,15.94z"></path>
	<path class="st1" d="M37.86,14.62l1.47,0.16c-0.35,1.53-1.8,3.68-5.02,3.68c-3.06,0-4.97-2.02-4.97-4.99   c0-2.96,1.92-4.99,5.15-4.99c2.42,0,3.96,1.09,4.64,2.9l-1.37,0.26c-0.36-1.06-1.38-2.15-3.29-2.15c-2.32,0-3.63,1.6-3.63,3.91   c0,2.72,1.6,3.99,3.65,3.99C36.07,17.41,37.53,16.55,37.86,14.62z"></path>
	<path class="st1" d="M49.85,18.23h-1.61l-2.78-4.03h-2.62v4.03h-1.33V8.74h4.58c1.95,0,3.3,0.86,3.3,2.77   c0,1.16-0.53,2.33-2.39,2.61L49.85,18.23z M42.83,13.13h3c1.17,0,2.22-0.32,2.22-1.63c0-1.06-0.74-1.72-2.03-1.72h-3.19V13.13z"></path>
	<path class="st1" d="M59.81,18.23h-1.43l-1.51-3.97h-3.04l-1.57,3.97h-1.44l3.88-9.49h1.41L59.81,18.23z M56.87,14.26l-1.48-3.97   l-1.56,3.97H56.87z"></path>
	<path class="st1" d="M60.43,15.19l1.46-0.17c0.01,0.38,0.1,2.46,2.93,2.46c0.85,0,2.54-0.31,2.54-1.9c0-1.06-0.84-1.37-1.93-1.57   l-0.92-0.17c-2.29-0.43-3.57-1.12-3.57-2.7c0-0.75,0.36-1.38,0.97-1.86c0.98-0.75,2.15-0.78,2.64-0.78c1.01,0,1.99,0.12,2.81,0.71   c0.89,0.63,1.12,1.32,1.3,2.2l-1.37,0.08c0-0.54-0.32-2.02-2.62-2.02c-0.97,0-2.32,0.32-2.32,1.49c0,0.91,0.88,1.24,2.03,1.49   l1.86,0.42c0.48,0.11,2.59,0.54,2.59,2.62c0,0.38-0.06,1.22-0.85,1.95c-0.56,0.51-1.48,1.02-3.21,1.02c-0.33,0-1.72-0.01-2.78-0.66   C60.61,16.99,60.48,15.59,60.43,15.19z"></path>
	<path class="st1" d="M77.27,9.84h-3.04v8.39h-1.35V9.84h-3.06v-1.1h7.45V9.84z"></path>
	<path class="st1" d="M88.01,13.4c0,2.31-1.35,5.07-5.16,5.07c-2.64,0-5.09-1.6-5.09-5c0-3.47,2.52-4.97,5.13-4.97   C85.99,8.49,88.01,10.52,88.01,13.4z M79.23,13.48c0,2.45,1.4,3.99,3.69,3.99c2.02,0,3.62-1.26,3.62-4.07   c0-1.88-0.91-3.88-3.65-3.88C80.19,9.51,79.23,11.5,79.23,13.48z"></path>
	<path class="st1" d="M98.54,18.23h-1.23l-5.58-7.72c0,0,0.13,7.53,0.13,7.72h-1.28V8.74h1.28l5.51,7.61c0,0-0.06-7.31-0.06-7.61   h1.23V18.23z"></path>
	<path class="st1" d="M103.04,18.23h-1.37V8.74h1.37V18.23z"></path>
	<path class="st1" d="M113.96,14.62l1.47,0.16c-0.35,1.53-1.8,3.68-5.02,3.68c-3.06,0-4.97-2.02-4.97-4.99   c0-2.96,1.92-4.99,5.15-4.99c2.42,0,3.96,1.09,4.64,2.9l-1.37,0.26c-0.36-1.06-1.38-2.15-3.29-2.15c-2.32,0-3.63,1.6-3.63,3.91   c0,2.72,1.6,3.99,3.65,3.99C112.18,17.41,113.63,16.55,113.96,14.62z"></path>
	<path class="st1" d="M54.77,17.11l4.28,0v1.11h-4.63L54.77,17.11z"></path>
	<g class="st2">
		<path class="st1" d="M29.69,24.78h1.24c0.75,0,1.33,0.53,1.33,1.57c0,0.78-0.32,1.56-1.45,1.56h-1.12V24.78z M30.11,25.15v2.39    h0.74c0.65,0,0.97-0.46,0.97-1.2c0-0.68-0.29-1.19-0.99-1.19H30.11z"></path>
		<path class="st1" d="M33.11,26.93v0.03c0,0.32,0.18,0.75,0.68,0.75c0.37,0,0.5-0.3,0.55-0.49l0.36,0.05    c-0.05,0.15-0.24,0.7-0.94,0.7c-0.51,0-1.02-0.31-1.02-1.13c0-0.79,0.57-1.09,1.01-1.09c0.46,0,0.96,0.31,0.96,1.11v0.06H33.11z     M33.12,26.67h1.19c0-0.34-0.24-0.64-0.6-0.64C33.34,26.03,33.15,26.34,33.12,26.67z"></path>
		<path class="st1" d="M35.09,27.23l0.4-0.06c0,0.14,0.01,0.26,0.11,0.37c0.12,0.14,0.3,0.16,0.47,0.16c0.17,0,0.48-0.05,0.48-0.35    c0-0.25-0.24-0.3-0.43-0.33l-0.2-0.04c-0.57-0.11-0.74-0.31-0.74-0.61c0-0.46,0.43-0.62,0.81-0.62c0.44,0,0.68,0.22,0.78,0.37    c0.08,0.13,0.1,0.26,0.11,0.32l-0.38,0.04c0-0.1-0.01-0.15-0.03-0.19c-0.05-0.11-0.23-0.27-0.53-0.27c-0.29,0-0.41,0.17-0.41,0.31    c0,0.18,0.19,0.25,0.5,0.33l0.2,0.05c0.39,0.09,0.69,0.23,0.69,0.61c0,0.4-0.38,0.66-0.87,0.66    C35.39,27.97,35.15,27.64,35.09,27.23z"></path>
		<path class="st1" d="M37.8,25.19h-0.34v-0.41h0.34V25.19z M37.8,27.91h-0.34v-2.08h0.34V27.91z"></path>
		<path class="st1" d="M40.37,25.82v2.12c0,0.77-0.48,0.97-0.97,0.97c-0.48,0-0.9-0.24-0.95-0.77h0.4c0,0.33,0.24,0.49,0.57,0.49    C39.86,28.63,40,28.4,40,28v-0.4c-0.24,0.33-0.52,0.37-0.69,0.37c-0.53,0-0.96-0.4-0.96-1.1c0-0.49,0.22-1.12,0.97-1.12    c0.26,0,0.48,0.12,0.68,0.35v-0.28H40.37z M40.01,26.84c0-0.48-0.27-0.76-0.65-0.76c-0.36,0-0.65,0.27-0.65,0.79    c0,0.44,0.2,0.79,0.66,0.79S40.01,27.29,40.01,26.84z"></path>
		<path class="st1" d="M42.75,27.91H42.4v-1.37c0-0.32-0.23-0.45-0.47-0.45c-0.29,0-0.55,0.21-0.55,0.58v1.23h-0.35v-2.08h0.35v0.31    c0.09-0.15,0.3-0.37,0.65-0.37c0.09,0,0.41,0.03,0.59,0.29c0.12,0.17,0.13,0.35,0.13,0.54V27.91z"></path>
		<path class="st1" d="M45.19,26.12v1.34c0,0.15,0.04,0.21,0.15,0.21c0.04,0,0.12-0.01,0.22-0.05v0.29c-0.03,0-0.2,0.04-0.34,0.04    c-0.34,0-0.4-0.14-0.4-0.38v-1.45h-0.34v-0.29h0.34v-0.66h0.36v0.66h0.38v0.29H45.19z"></path>
		<path class="st1" d="M47.83,27.91h-0.36v-1.22c0-0.11,0-0.24-0.04-0.34c-0.07-0.19-0.23-0.27-0.42-0.27    c-0.09,0-0.33,0.03-0.46,0.26c-0.1,0.17-0.1,0.36-0.1,0.54v1.03h-0.35v-3.12h0.35v1.25c0.24-0.26,0.49-0.28,0.63-0.28    c0.63,0,0.75,0.45,0.75,0.8V27.91z"></path>
		<path class="st1" d="M48.75,26.93v0.03c0,0.32,0.18,0.75,0.68,0.75c0.37,0,0.5-0.3,0.55-0.49l0.36,0.05    c-0.05,0.15-0.24,0.7-0.94,0.7c-0.51,0-1.02-0.31-1.02-1.13c0-0.79,0.57-1.09,1.01-1.09c0.46,0,0.96,0.31,0.96,1.11v0.06H48.75z     M48.76,26.67h1.19c0-0.34-0.24-0.64-0.6-0.64C48.98,26.03,48.79,26.34,48.76,26.67z"></path>
		<path class="st1" d="M54.23,25.16h-1.59v0.92h1.48v0.36h-1.48v1.47h-0.42v-3.12h2V25.16z"></path>
		<path class="st1" d="M56.37,27.91h-0.35v-0.32c-0.15,0.23-0.43,0.37-0.71,0.37c-0.08,0-0.4-0.01-0.56-0.27    c-0.1-0.16-0.11-0.34-0.11-0.52v-1.34H55v1.19c0,0.22,0,0.32,0.05,0.42c0.04,0.09,0.15,0.2,0.38,0.2c0.08,0,0.34-0.02,0.5-0.24    c0.1-0.15,0.1-0.33,0.1-0.5v-1.07h0.34V27.91z"></path>
		<path class="st1" d="M57.53,26.12v1.34c0,0.15,0.04,0.21,0.15,0.21c0.04,0,0.12-0.01,0.22-0.05v0.29c-0.03,0-0.2,0.04-0.34,0.04    c-0.34,0-0.4-0.14-0.4-0.38v-1.45h-0.34v-0.29h0.34v-0.66h0.36v0.66h0.38v0.29H57.53z"></path>
		<path class="st1" d="M60.15,27.91H59.8v-0.32c-0.15,0.23-0.43,0.37-0.71,0.37c-0.08,0-0.4-0.01-0.56-0.27    c-0.1-0.16-0.11-0.34-0.11-0.52v-1.34h0.35v1.19c0,0.22,0,0.32,0.05,0.42c0.04,0.09,0.15,0.2,0.38,0.2c0.08,0,0.34-0.02,0.5-0.24    c0.1-0.15,0.1-0.33,0.1-0.5v-1.07h0.34V27.91z"></path>
		<path class="st1" d="M60.82,25.82h0.35v0.38c0.05-0.09,0.11-0.17,0.19-0.24c0.08-0.07,0.25-0.17,0.52-0.17v0.38    c-0.04-0.01-0.09-0.01-0.14-0.01c-0.25,0-0.47,0.14-0.54,0.39c-0.03,0.11-0.03,0.18-0.03,0.38v0.96h-0.35V25.82z"></path>
		<path class="st1" d="M62.56,26.93v0.03c0,0.32,0.18,0.75,0.68,0.75c0.37,0,0.5-0.3,0.55-0.49l0.36,0.05    c-0.05,0.15-0.24,0.7-0.94,0.7c-0.51,0-1.02-0.31-1.02-1.13c0-0.79,0.57-1.09,1.01-1.09c0.46,0,0.96,0.31,0.96,1.11v0.06H62.56z     M62.57,26.67h1.19c0-0.34-0.24-0.64-0.6-0.64C62.79,26.03,62.6,26.34,62.57,26.67z"></path>
		<path class="st1" d="M66.46,26.12v1.34c0,0.15,0.04,0.21,0.15,0.21c0.04,0,0.12-0.01,0.22-0.05v0.29c-0.03,0-0.2,0.04-0.34,0.04    c-0.34,0-0.4-0.14-0.4-0.38v-1.45h-0.34v-0.29h0.34v-0.66h0.36v0.66h0.38v0.29H66.46z"></path>
		<path class="st1" d="M69.1,27.91h-0.36v-1.22c0-0.11,0-0.24-0.04-0.34c-0.07-0.19-0.23-0.27-0.42-0.27    c-0.09,0-0.33,0.03-0.46,0.26c-0.1,0.17-0.1,0.36-0.1,0.54v1.03h-0.35v-3.12h0.35v1.25c0.24-0.26,0.49-0.28,0.63-0.28    c0.63,0,0.75,0.45,0.75,0.8V27.91z"></path>
		<path class="st1" d="M70.02,26.93v0.03c0,0.32,0.18,0.75,0.68,0.75c0.37,0,0.5-0.3,0.55-0.49l0.36,0.05    c-0.05,0.15-0.24,0.7-0.94,0.7c-0.51,0-1.02-0.31-1.02-1.13c0-0.79,0.57-1.09,1.01-1.09c0.46,0,0.96,0.31,0.96,1.11v0.06H70.02z     M70.03,26.67h1.19c0-0.34-0.24-0.64-0.6-0.64C70.25,26.03,70.06,26.34,70.03,26.67z"></path>
		<path class="st1" d="M77.59,24.78l-0.96,3.12h-0.41l-0.82-2.59l-0.8,2.59h-0.42l-0.96-3.12h0.44l0.74,2.59l0.79-2.59h0.41    l0.82,2.59l0.73-2.59H77.59z"></path>
		<path class="st1" d="M77.66,26.87c0-0.34,0.15-1.11,1.05-1.11c0.49,0,0.99,0.34,0.99,1.09s-0.46,1.13-1.02,1.13    C78.1,27.97,77.66,27.58,77.66,26.87z M78.05,26.89c0,0.25,0.08,0.8,0.63,0.8c0.42,0,0.65-0.33,0.65-0.87    c0-0.36-0.14-0.78-0.61-0.78C78.05,26.04,78.05,26.75,78.05,26.89z"></path>
		<path class="st1" d="M80.26,25.82h0.35v0.38c0.05-0.09,0.11-0.17,0.19-0.24c0.08-0.07,0.25-0.17,0.52-0.17v0.38    c-0.04-0.01-0.09-0.01-0.14-0.01c-0.25,0-0.47,0.14-0.54,0.39c-0.03,0.11-0.03,0.18-0.03,0.38v0.96h-0.35V25.82z"></path>
		<path class="st1" d="M82.08,27.91h-0.34v-3.12h0.34V27.91z"></path>
		<path class="st1" d="M84.65,27.91H84.3v-0.27c-0.11,0.12-0.3,0.33-0.71,0.33c-0.61,0-0.96-0.47-0.96-1.11    c0-0.81,0.53-1.1,0.96-1.1c0.38,0,0.64,0.22,0.72,0.34v-1.31h0.35V27.91z M83.01,26.87c0,0.37,0.15,0.79,0.65,0.79    c0.31,0,0.65-0.19,0.65-0.82c0-0.43-0.25-0.76-0.64-0.76C83.19,26.08,83.01,26.48,83.01,26.87z"></path>
		<path class="st1" d="M89.19,27.91h-0.42v-1.43h-1.7v1.43h-0.41v-3.12h0.41v1.33h1.7v-1.33h0.42V27.91z"></path>
		<path class="st1" d="M91.15,26.66v-0.07c0-0.19,0-0.56-0.46-0.56c-0.29,0-0.45,0.15-0.45,0.41v0.03l-0.37-0.02    c0-0.1,0.06-0.69,0.8-0.69c0.13,0,0.35,0.02,0.52,0.12c0.3,0.17,0.31,0.38,0.31,0.76v0.73c0,0.12,0,0.24,0.16,0.24    c0.04,0,0.07-0.01,0.11-0.02v0.3c-0.11,0.04-0.17,0.04-0.23,0.04c-0.02,0-0.15,0-0.22-0.05c-0.08-0.06-0.14-0.19-0.14-0.26    c-0.1,0.11-0.31,0.34-0.71,0.34c-0.42,0-0.71-0.24-0.71-0.6c0-0.1,0.03-0.3,0.23-0.45c0.21-0.16,0.58-0.22,0.84-0.23L91.15,26.66z     M91.16,26.89c-0.16,0.03-0.58,0.08-0.75,0.15c-0.07,0.03-0.26,0.11-0.26,0.32c0,0.15,0.11,0.31,0.39,0.31    c0.19,0,0.61-0.08,0.61-0.61V26.89z"></path>
		<path class="st1" d="M92.06,27.23l0.4-0.06c0,0.14,0.01,0.26,0.11,0.37c0.12,0.14,0.3,0.16,0.47,0.16c0.17,0,0.48-0.05,0.48-0.35    c0-0.25-0.24-0.3-0.43-0.33l-0.2-0.04c-0.57-0.11-0.74-0.31-0.74-0.61c0-0.46,0.43-0.62,0.81-0.62c0.44,0,0.68,0.22,0.78,0.37    c0.08,0.13,0.1,0.26,0.11,0.32l-0.38,0.04c0-0.1-0.01-0.15-0.03-0.19c-0.05-0.11-0.23-0.27-0.53-0.27c-0.29,0-0.41,0.17-0.41,0.31    c0,0.18,0.19,0.25,0.5,0.33l0.2,0.05c0.39,0.09,0.69,0.23,0.69,0.61c0,0.4-0.38,0.66-0.87,0.66    C92.36,27.97,92.12,27.64,92.06,27.23z"></path>
		<path class="st1" d="M98.12,24.78L97,26.48v1.43h-0.42v-1.43l-1.1-1.69h0.49l0.82,1.32l0.83-1.32H98.12z"></path>
		<path class="st1" d="M98.27,26.93v0.03c0,0.32,0.18,0.75,0.68,0.75c0.37,0,0.5-0.3,0.55-0.49l0.36,0.05    c-0.05,0.15-0.24,0.7-0.94,0.7c-0.51,0-1.02-0.31-1.02-1.13c0-0.79,0.57-1.09,1.01-1.09c0.46,0,0.96,0.31,0.96,1.11v0.06H98.27z     M98.28,26.67h1.19c0-0.34-0.24-0.64-0.6-0.64C98.5,26.03,98.31,26.34,98.28,26.67z"></path>
		<path class="st1" d="M100.88,26.12v1.34c0,0.15,0.04,0.21,0.15,0.21c0.04,0,0.12-0.01,0.22-0.05v0.29c-0.03,0-0.2,0.04-0.34,0.04    c-0.34,0-0.4-0.14-0.4-0.38v-1.45h-0.34v-0.29h0.34v-0.66h0.36v0.66h0.38v0.29H100.88z"></path>
		<path class="st1" d="M103.55,26.12v1.34c0,0.15,0.04,0.21,0.15,0.21c0.04,0,0.12-0.01,0.22-0.05v0.29c-0.03,0-0.2,0.04-0.34,0.04    c-0.34,0-0.4-0.14-0.4-0.38v-1.45h-0.34v-0.29h0.34v-0.66h0.36v0.66h0.38v0.29H103.55z"></path>
		<path class="st1" d="M104.34,26.87c0-0.34,0.15-1.11,1.05-1.11c0.49,0,0.99,0.34,0.99,1.09s-0.46,1.13-1.02,1.13    C104.78,27.97,104.34,27.58,104.34,26.87z M104.72,26.89c0,0.25,0.08,0.8,0.63,0.8c0.42,0,0.65-0.33,0.65-0.87    c0-0.36-0.14-0.78-0.61-0.78C104.73,26.04,104.72,26.75,104.72,26.89z"></path>
		<path class="st1" d="M108.1,26.91l0.45-0.06c0,0.12,0.03,0.81,0.9,0.81c0.26,0,0.78-0.1,0.78-0.62c0-0.35-0.26-0.45-0.59-0.52    l-0.28-0.06c-0.7-0.14-1.1-0.37-1.1-0.89c0-0.25,0.11-0.46,0.3-0.61c0.3-0.25,0.66-0.26,0.81-0.26c0.31,0,0.61,0.04,0.86,0.23    c0.27,0.21,0.34,0.43,0.4,0.73l-0.42,0.03c0-0.18-0.1-0.66-0.8-0.66c-0.3,0-0.71,0.11-0.71,0.49c0,0.3,0.27,0.41,0.62,0.49    l0.57,0.14c0.15,0.04,0.8,0.18,0.8,0.86c0,0.12-0.02,0.4-0.26,0.64c-0.17,0.17-0.46,0.34-0.99,0.34c-0.1,0-0.53,0-0.85-0.22    C108.15,27.5,108.11,27.04,108.1,26.91z"></path>
		<path class="st1" d="M111.53,26.93v0.03c0,0.32,0.18,0.75,0.68,0.75c0.37,0,0.5-0.3,0.55-0.49l0.36,0.05    c-0.05,0.15-0.24,0.7-0.94,0.7c-0.51,0-1.02-0.31-1.02-1.13c0-0.79,0.57-1.09,1.01-1.09c0.46,0,0.96,0.31,0.96,1.11v0.06H111.53z     M111.54,26.67h1.19c0-0.34-0.24-0.64-0.6-0.64C111.75,26.03,111.57,26.34,111.54,26.67z"></path>
		<path class="st1" d="M113.92,26.93v0.03c0,0.32,0.18,0.75,0.68,0.75c0.37,0,0.5-0.3,0.55-0.49l0.36,0.05    c-0.05,0.15-0.24,0.7-0.94,0.7c-0.51,0-1.02-0.31-1.02-1.13c0-0.79,0.57-1.09,1.01-1.09c0.46,0,0.96,0.31,0.96,1.11v0.06H113.92z     M113.93,26.67h1.19c0-0.34-0.24-0.64-0.6-0.64C114.15,26.03,113.96,26.34,113.93,26.67z"></path>
	</g>
</g>
</svg>
