<?xml version="1.0" encoding="UTF-8"?>
<!-- Generator: Adobe Illustrator 24.3.0, SVG Export Plug-In . SVG Version: 6.00 Build 0)  -->
<svg xmlns="http://www.w3.org/2000/svg" xmlns:xlink="http://www.w3.org/1999/xlink" version="1.1" id="Layer_1" x="0px" y="0px" width="117px" height="36px" viewBox="0 0 117 36" style="enable-background:new 0 0 117 36;" xml:space="preserve">
<style type="text/css">
	.st0{fill:#050505;}
	.st1{fill:#2496F3;}
</style>
<g>
	<path class="st0" d="M59.2,29.3c-1.6-0.1-3.7,0.2-5.8-0.2c-4.4-0.8-8.1-4.5-9-9c-0.9-4.5,1.2-9.2,5-11.6c1.8-1.2,3.8-1.8,5.9-1.8   c3.1,0,6.2,0,9.3,0c1.1,0,1.9,0.7,2.2,1.7c0.2,1-0.2,2-1.1,2.5c-0.5,0.3-1.1,0.3-1.6,0.3c-2.8,0-5.6,0-8.4,0   c-3.6,0-6.4,2.4-6.9,5.9c-0.5,3.2,1.6,6.4,4.9,7.4c0.6,0.2,1.3,0.3,1.9,0.3c1.8,0,3.6,0,5.4,0c1,0,1.3-0.3,1.3-1.3   c0-0.7,0-1.4,0-2.1c0-0.9-0.3-1.2-1.2-1.2c-1.9,0-3.8,0-5.7,0c-1.4,0-2.4-1.1-2.3-2.5c0.1-1.2,1-2,2.2-2c1.4,0,2.8,0,4.1,0   c1.7,0,3.5,0,5.2,0c1.2,0,2.1,0.9,2.1,2.1c0,3.1,0,6.3,0,9.4c0,1.1-1,2-2.1,2C63.1,29.3,61.4,29.3,59.2,29.3z"></path>
	<path class="st1" d="M9.6,6.7c1.6,0.1,3.6-0.2,5.5,0.1c4.4,0.7,8.1,4.2,9.1,8.5c1.1,4.5-0.7,9.2-4.4,11.9c-2,1.4-4.2,2.1-6.6,2.1   c-3,0-6,0-9,0c-1.5,0-2.4-0.9-2.4-2.4c0-2.9,0-5.8,0-8.8c0-1.5,0.8-2.4,2.3-2.4c3,0,6,0,9.1,0c1.4,0,2.3,1,2.3,2.3   c0,1.3-0.9,2.2-2.4,2.2c-1.8,0-3.5,0-5.3,0c-1.3,0-1.5,0.3-1.5,1.5c0,0.7,0,1.3,0,2c0,0.7,0.4,1,1,1c2.1,0,4.3,0.1,6.4,0   c3.4-0.2,6-3.2,6.1-6.5c0.1-3.4-2.4-6.5-5.8-7c-0.7-0.1-1.5-0.1-2.3-0.1c-2.5,0-5,0-7.5,0c-1.9,0-3-1.7-2.2-3.3   c0.4-0.8,1.1-1.2,2-1.2C5.9,6.7,7.6,6.7,9.6,6.7z"></path>
	<path class="st0" d="M108.2,22.3c-1.6,0-3.3,0-4.9,0c-0.5,0-0.6,0.1-0.4,0.6c1.3,2.8,4.2,3.3,6.5,2.3c0.6-0.3,1-0.8,1.4-1.4   c0.4-0.7,1.1-0.9,1.9-0.8c0.7,0.1,1.2,0.5,1.4,1.2c0.2,0.5,0.2,1.1-0.1,1.6c-1.3,2.3-3.4,3.3-5.9,3.6c-4.6,0.4-7.5-2.5-8.6-5   c-1.6-3.6-0.8-7.9,1.9-10.5c4.4-4.2,11.8-2.1,13.3,3.9c0.2,0.8,0.3,1.7,0.3,2.6c0,1.2-0.7,2-2,2C111.5,22.3,109.8,22.3,108.2,22.3   C108.2,22.3,108.2,22.3,108.2,22.3z M102.7,18.5c2.7,0,5.2,0,7.8,0c0.5,0,0.5-0.2,0.4-0.5c-0.6-1.7-2.4-2.8-4.2-2.7   C104.8,15.4,103.2,16.7,102.7,18.5z"></path>
	<path class="st1" d="M35.7,22.3c-1.6,0-3.2,0-4.8,0c-0.6,0-0.6,0.2-0.4,0.6c1.1,2.5,4.4,3.5,6.7,2.1c0.5-0.3,0.8-0.7,1.1-1.1   c0.6-0.9,1.8-1.2,2.6-0.7c0.9,0.5,1.1,1.7,0.5,2.7c-1.3,2.2-3.3,3.2-5.7,3.4c-5.1,0.5-9.3-3.3-9.4-8.4c-0.1-3.1,0.9-5.8,3.5-7.7   c4.7-3.4,11.2-1,12.5,4.7c0.2,0.8,0.3,1.7,0.3,2.5c0,1.2-0.7,1.9-1.9,2C39,22.3,37.4,22.3,35.7,22.3C35.7,22.3,35.7,22.3,35.7,22.3   z M34.4,18.5c1.1,0,2.3,0,3.4,0c0.8,0,0.8-0.1,0.5-0.8c-0.8-1.6-2.1-2.5-3.9-2.4c-1.9,0-3.2,1-4,2.7c-0.2,0.4-0.1,0.6,0.4,0.6   C32,18.5,33.2,18.5,34.4,18.5z"></path>
	<path class="st0" d="M86,23.2c0,1.4,0,2.7,0,4.1c0,1.1-0.5,1.7-1.4,2c-0.9,0.2-1.7-0.1-2.2-1c-0.3-0.4-0.4-0.2-0.6,0   c-3.1,1.6-6.2,1.6-9-0.4c-3.7-2.6-4.6-7.9-2.3-11.9c3.1-5.4,10.7-5.5,14.3-0.3c0.9,1.3,1.4,2.6,1.3,4.2C85.9,20.9,86,22,86,23.2z    M73,20.5c0,0.5,0.1,1.1,0.2,1.6c0.9,3.4,4.8,4.7,7.5,2.4c1.3-1.2,1.7-2.7,1.6-4.4c-0.2-3.6-3.7-5.7-6.9-4.1   C73.6,16.9,73,18.6,73,20.5z"></path>
	<path class="st0" d="M89.4,20.4c0-1.5,0-2.9,0-4.4c0-0.4,0-0.5-0.5-0.6c-0.8-0.2-1.3-0.9-1.3-1.8c0-0.8,0.5-1.4,1.3-1.7   c0.4-0.1,0.5-0.3,0.5-0.7c0-0.5,0-1,0-1.5c0-1,0.8-1.8,1.8-1.8c1.1,0,1.9,0.7,1.9,1.7c0,0.6,0,1.2,0,1.7c0,0.3,0.1,0.4,0.4,0.4   c0.6,0,1.2,0,1.8,0c1.2,0,2,0.8,2,1.9c0,1.1-0.8,1.8-2,1.8c-0.6,0-1.2,0-1.7,0c-0.4,0-0.5,0.1-0.5,0.5c0,2.9,0,5.8,0,8.7   c0,0.4,0.2,0.8,0.6,1c0.4,0.2,0.8,0,1.1-0.3c0.9-0.8,2-0.8,2.7,0c0.7,0.8,0.7,1.9-0.2,2.7c-1.5,1.4-3.2,1.7-5,1   c-1.9-0.8-2.9-2.2-3-4.2C89.4,23.3,89.4,21.8,89.4,20.4C89.4,20.4,89.4,20.4,89.4,20.4z"></path>
</g>
</svg>
