<svg width="1200" height="720" viewBox="0 0 1200 720" fill="none" xmlns="http://www.w3.org/2000/svg">
<mask id="mask0_8_313" style="mask-type:luminance" maskUnits="userSpaceOnUse" x="0" y="0" width="1200" height="720">
<path d="M1200 0H0V720H1200V0Z" fill="white"/>
</mask>
<g mask="url(#mask0_8_313)">
<path d="M1200 0H0V720H1200V0Z" fill="#E6F4FF"/>
</g>
<mask id="mask1_8_313" style="mask-type:luminance" maskUnits="userSpaceOnUse" x="0" y="0" width="1200" height="720">
<path d="M1200 0H0V720H1200V0Z" fill="white"/>
</mask>
<g mask="url(#mask1_8_313)">
<path d="M-760.2 863.64C-746.5 794.79 -669.1 753.75 -594.4 745.74C-519.7 737.64 -443.6 753.39 -368.1 753.39C-165.8 753.3 24.9 628.02 91.1 451.71C112.3 395.19 121.6 334.98 142.3 278.28C163 221.58 198.1 166.41 255.1 139.41C337.1 100.62 439.8 130.5 522.5 173.88C605.2 217.26 682.7 274.68 774.4 294.57C894.9 320.67 1020 275.76 1112.2 203.31C1204.3 130.86 1269.4 33.48 1333 -62.28" stroke="#D4E8F7" stroke-miterlimit="10"/>
<path d="M-764.7 856.98C-749.7 788.49 -672.5 747.54 -597.7 739.26C-565.4 735.66 -532.7 736.56 -500 738.99C-457.1 742.14 -414.1 747.72 -371.4 748.53C-284.3 750.24 -199.4 730.17 -124.8 691.2C-67.2 661.14 -15.8999 621.45 25.0001 573.84C54.3001 540 77.6 501.84 93.9 460.44C101.2 441.9 107.2 422.91 112.7 403.74C123.9 364.77 133.1 325.17 147.6 287.46C164.1 244.71 189 203.31 226 175.14C237.5 166.32 250 158.76 263.7 152.82C321.2 127.98 387.7 136.53 451.3 157.68C478.8 166.86 505.8 178.29 530.9 190.62C559 204.39 586.5 219.24 613.9 233.37C667.7 261.27 720.8 286.92 778.3 296.28C815.7 302.31 852.6 300.78 889.1 293.4C963.3 278.46 1036.2 238.59 1097 187.74C1113.7 173.79 1129.6 159.12 1145 143.82C1213.4 75.87 1270.6 -2.69999 1327 -76.77" stroke="#D4E8F7" stroke-miterlimit="10"/>
<path d="M-769.2 850.23C-752.8 782.1 -675.9 741.15 -601 732.6C-568.6 728.91 -535.9 729.81 -503.1 732.33C-460.2 735.66 -417.2 741.78 -374.6 743.49C-287.7 747 -202.9 730.17 -127.6 692.82C-69.4 664.02 -17.3 626.22 25.2 580.41C55.6 547.65 79.8 510.12 96.8 468.99C104.4 450.63 110.6 431.64 116.4 412.47C128.1 373.59 137.8 333.9 152.9 296.55C170.1 254.07 195.9 213.66 234.1 186.84C245.9 178.56 258.5 171.45 272.3 166.05C330.1 143.46 395.7 154.08 459.2 175.32C486.8 184.5 514 195.57 539.4 207.09C567.8 219.96 595.6 233.46 622.9 245.88C676.5 270.54 728.2 292.23 782.4 297.63C817.5 301.14 851 297.09 884.7 287.73C953 268.56 1022.3 225.09 1082.1 171.9C1098.5 157.32 1114.4 142.02 1129.9 126.36C1199 56.34 1260.5 -21.51 1321.2 -91.62" stroke="#D4E8F7" stroke-miterlimit="10"/>
<path d="M-773.7 843.48C-755.9 775.71 -679.3 734.76 -604.3 726.03C-571.9 722.25 -539 723.06 -506.2 725.76C-463.2 729.36 -420.4 736.02 -377.8 738.54C-291 743.85 -206.5 730.26 -130.4 694.53C-71.6 666.99 -18.6 631.08 25.4 587.07C57 555.39 82 518.49 99.7 477.54C107.6 459.27 114.1 440.46 120.2 421.2C132.4 382.41 142.6 342.63 158.3 305.55C176.2 263.34 202.8 223.92 242.3 198.45C254.4 190.71 267.1 184.05 280.9 179.28C338.9 158.94 403.7 171.72 467.1 192.96C494.8 202.23 522.1 212.85 547.8 223.56C576.5 235.53 604.5 247.68 631.8 258.48C685.2 279.72 735.6 297.63 786.4 299.07C819.3 299.97 849.4 293.58 880.1 282.15C942.5 258.93 1008.2 211.59 1066.9 156.15C1083 140.85 1098.8 125.1 1114.4 108.99C1184.1 36.9 1249.9 -40.23 1315.1 -106.29" stroke="#D4E8F7" stroke-miterlimit="10"/>
<path d="M-778.2 836.73C-759 769.41 -682.7 728.37 -607.5 719.46C-575 715.59 -542.1 716.31 -509.2 719.28C-466.2 723.06 -423.4 730.26 -380.9 733.68C-294.3 740.7 -209.9 730.44 -133.2 696.42C-73.7 670.14 -19.7999 636.21 25.5001 593.91C58.4001 563.31 84.1 527.04 102.4 486.36C110.6 468.27 117.4 449.46 123.7 430.2C136.4 391.41 147.1 351.72 163.5 314.82C182.1 272.97 209.5 234.36 250.3 210.42C262.7 203.13 275.5 197.1 289.4 192.78C347.7 174.69 411.5 189.63 475 210.87C502.7 220.23 530.3 230.4 556.2 240.39C585.2 251.55 613.5 262.26 640.6 271.44C693.8 289.44 742.9 303.3 790.2 300.87C820.9 299.25 847.6 290.34 875.4 276.84C932 249.48 993.9 198.45 1051.7 140.76C1067.6 124.83 1083.3 108.45 1099 91.89C1169.3 17.82 1239.4 -58.77 1309 -120.69" stroke="#D4E8F7" stroke-miterlimit="10"/>
<path d="M-782.7 829.98C-762.1 763.02 -686.1 721.98 -610.8 712.89C-578.3 708.93 -545.3 709.65 -512.3 712.71C-469.3 716.67 -426.5 724.41 -384.1 728.73C-297.7 737.55 -213.5 730.44 -136 698.13C-75.8999 673.11 -21.1 641.16 25.7 600.66C59.8 571.14 86.3 535.41 105.3 495C113.8 477 120.9 458.28 127.4 439.11C140.6 400.41 151.8 360.63 168.8 324.09C188.1 282.51 216.3 244.89 258.4 222.3C271 215.55 284 209.97 297.9 206.19C356.4 190.44 419.4 207.36 482.8 228.78C510.6 238.14 538.4 247.95 564.6 257.13C593.9 267.39 622.4 276.75 649.5 284.22C702.5 298.89 750.5 308.88 794.2 302.49C822.8 298.35 845.9 286.92 870.9 271.44C921.7 239.85 979.9 185.22 1036.7 125.19C1052.3 108.63 1068 91.71 1083.8 74.7C1154.7 -1.43998 1229.2 -77.31 1303.2 -135.18" stroke="#D4E8F7" stroke-miterlimit="10"/>
<path d="M-787.3 823.32C-765.3 756.72 -689.6 715.77 -614.2 706.41C-581.6 702.36 -548.5 702.99 -515.5 706.23C-472.4 710.46 -429.8 718.74 -387.4 723.87C-301.1 734.4 -217.1 730.62 -138.9 699.93C-78.2 676.26 -22.4 646.2 25.8 607.41C61.2 578.97 88.4 543.87 108.1 503.73C116.8 485.82 124.2 467.19 131.1 448.02C144.8 409.41 156.6 369.54 174.1 333.27C194.1 292.05 223.1 255.24 266.5 234.09C279.4 227.79 292.5 222.75 306.5 219.51C365.2 206.01 427.3 225.09 490.7 246.51C518.6 255.96 546.6 265.32 573 273.69C602.6 283.05 631.3 291.06 658.4 296.91C711.2 308.34 758.2 314.19 798.2 304.02C824.8 297.27 844.3 283.41 866.3 265.86C911.2 230.13 965.8 171.72 1021.6 109.44C1036.9 92.1599 1052.6 74.7 1068.5 57.33C1140.1 -20.88 1218.8 -96.03 1297.2 -149.94" stroke="#D4E8F7" stroke-miterlimit="10"/>
<path d="M-791.8 816.57C-768.4 750.42 -693 709.38 -617.5 699.75C-584.9 695.61 -551.7 696.24 -518.6 699.66C-475.5 704.07 -432.9 712.89 -390.6 718.92C-304.5 731.25 -220.6 730.71 -141.7 701.64C-80.4 679.23 -23.6 651.15 26 614.07C62.6 586.71 90.6 552.24 111 512.37C120 494.64 127.7 476.01 134.8 456.84C149 418.23 161.3 378.36 179.4 342.36C200.1 301.41 229.9 265.5 274.6 245.88C287.7 240.12 301 235.53 315 232.83C374 221.58 435.2 242.82 498.5 264.24C526.4 273.69 554.7 282.69 581.3 290.25C611.1 298.71 640.2 305.37 667.2 309.51C719.8 317.61 765.8 319.32 802 305.46C826.7 296.01 842.4 279.81 861.6 260.28C900.7 220.32 951.6 158.31 1006.4 93.6899C1021.5 75.78 1037 57.78 1053.1 39.96C1125.3 -40.32 1208.4 -114.84 1291.2 -164.61" stroke="#D4E8F7" stroke-miterlimit="10"/>
<path d="M-796.3 809.82C-771.5 744.03 -696.4 702.99 -620.7 693.18C-588 688.95 -554.7 689.49 -521.6 693.09C-478.5 697.77 -435.9 707.13 -393.8 713.97C-307.9 728.1 -224.2 730.8 -144.5 703.44C-82.6 682.29 -24.9 656.19 26.2 620.82C64.1 594.54 92.8 560.7 113.9 521.01C123.2 503.37 131.2 484.83 138.6 465.66C153.3 427.14 166.1 387.18 184.8 351.45C206.2 310.77 236.7 275.76 282.8 257.58C296.2 252.27 309.6 248.22 323.7 246.15C382.9 237.15 443.2 260.46 506.5 281.97C534.5 291.51 563 300.06 589.9 306.9C620 314.55 649.3 319.77 676.3 322.29C728.7 327.15 773.9 324.54 806.2 307.08C829 294.84 841 276.39 857.2 254.88C890.4 210.69 937.7 145.08 991.4 78.12C1006.2 59.58 1021.7 40.95 1037.9 22.77C1110.7 -59.58 1198.1 -133.38 1285.3 -179.1" stroke="#D4E8F7" stroke-miterlimit="10"/>
<path d="M-800.8 803.07C-774.6 737.64 -699.8 696.6 -624 686.61C-591.3 682.29 -557.9 682.74 -524.7 686.52C-481.6 691.38 -439.1 701.28 -397 709.11C-311.2 724.95 -227.7 730.98 -147.3 705.24C-84.8 685.35 -26.1 661.23 26.4 627.66C65.6 602.55 95 569.25 116.8 529.83C126.4 512.37 134.6 493.83 142.3 474.66C157.6 436.23 170.8 396.18 190.1 360.81C212.2 320.49 243.5 286.29 290.9 269.64C304.5 264.87 318.1 261.36 332.2 259.74C391.6 252.99 451.1 278.46 514.3 299.97C542.4 309.51 571 317.7 598.2 323.73C628.6 330.48 658.1 334.35 685 335.16C737.2 336.69 781.4 329.58 810 308.79C830.8 293.67 839.1 273.06 852.5 249.48C879.9 201.06 923.4 131.76 976.2 62.55C990.8 43.38 1006.2 24.21 1022.5 5.48998C1095.9 -78.93 1187.7 -152.01 1279.3 -193.77" stroke="#D4E8F7" stroke-miterlimit="10"/>
<path d="M-805.3 796.32C-777.8 731.25 -703.2 690.3 -627.3 680.04C-594.5 675.63 -561.1 676.08 -527.9 679.95C-484.7 685.08 -442.3 695.43 -400.3 704.16C-314.7 721.8 -231.4 730.98 -150.2 706.95C-87 688.32 -27.3 666.27 26.5 634.32C67 610.29 97.1 577.62 119.6 538.38C129.5 521.01 138 502.56 145.9 483.39C161.7 444.96 175.4 404.91 195.3 369.81C218.1 329.76 250.1 296.37 298.9 281.25C312.8 276.93 326.5 273.96 340.7 272.88C400.4 268.47 458.9 295.92 522.1 317.61C550.2 327.24 579.1 334.98 606.5 340.2C637.2 346.05 666.9 348.66 693.8 347.76C745.7 346.05 789 334.17 813.8 310.23C832.7 292.05 837.3 269.46 847.7 243.9C869.2 191.25 909.1 118.35 960.9 46.8C975.2 26.91 990.5 7.28996 1007 -11.88C1081.1 -98.37 1177.1 -170.73 1273.2 -208.44" stroke="#D4E8F7" stroke-miterlimit="10"/>
<path d="M-809.8 789.66C-780.9 725.04 -706.6 684 -630.6 673.56C-597.8 669.06 -564.2 669.42 -531 673.56C-487.8 678.87 -445.4 689.85 -403.5 699.39C-318 718.83 -234.9 731.25 -153 708.84C-89.2 691.56 -28.5 671.4 26.7 641.16C68.4 618.3 99.3 586.17 122.5 547.2C132.7 530.01 141.5 511.56 149.7 492.39C166 454.05 180.2 414 200.8 379.08C224.3 339.39 257 306.81 307.3 293.13C321.4 289.26 335.3 286.83 349.6 286.29C409.5 284.13 467.2 313.74 530.3 335.43C558.5 345.15 587.6 352.44 615.3 356.94C646.3 361.89 676.3 363.15 703.1 360.63C754.8 355.68 796.9 339.03 818.2 312.03C834.9 290.79 836 266.22 843.6 238.59C859.2 181.71 895.5 105.21 946.3 31.41C960.3 10.89 975.6 -9.36 992.1 -28.89C1066.8 -117.36 1167.1 -189.18 1267.6 -222.75" stroke="#D4E8F7" stroke-miterlimit="10"/>
<path d="M-814.3 782.91C-784 718.65 -710 677.61 -633.8 666.9C-600.9 662.31 -567.3 662.58 -534 666.9C-490.8 672.39 -448.5 683.91 -406.6 694.35C-321.3 715.5 -238.3 731.25 -155.8 710.55C-91.4 694.53 -29.7 676.44 26.8 647.82C69.8 626.04 101.4 594.54 125.3 555.84C135.8 538.74 144.9 520.38 153.3 501.21C170.1 462.96 184.8 422.82 206 388.26C230.1 348.84 263.6 317.07 315.3 305.01C329.7 301.68 343.7 299.7 358 299.7C418.1 299.79 474.9 331.56 538 353.25C566.3 362.97 595.6 369.9 623.5 373.59C654.8 377.73 685 377.55 711.8 373.32C763.3 365.13 804.1 343.62 822 313.56C836.5 289.17 834.1 262.71 838.8 233.1C848.5 171.99 881.2 91.8 931 15.75C944.8 -5.4 960 -26.19 976.6 -46.17C1051.9 -136.71 1156.6 -207.81 1261.5 -237.33" stroke="#D4E8F7" stroke-miterlimit="10"/>
<path d="M-818.9 776.16C-787.2 712.26 -713.6 671.22 -637.2 660.33C-604.3 655.65 -570.5 655.92 -537.2 660.33C-493.9 666.09 -451.7 678.06 -409.9 689.4C-324.8 712.35 -242 731.34 -158.7 712.26C-93.7 697.5 -31 681.39 26.9 654.57C71.2 633.96 103.5 603 128.1 564.48C138.9 547.47 148.2 529.2 157 510.03C174.3 471.78 189.5 431.64 211.3 397.35C236.1 358.29 270.3 327.24 323.4 316.71C338 313.83 352.2 312.48 366.6 313.02C427 315.36 482.9 349.2 546 370.98C574.3 380.79 603.9 387.27 632 390.15C663.6 393.39 694 391.95 720.8 386.01C772 374.58 811.4 348.3 826.1 315.09C838.2 287.64 832.5 259.2 834.4 227.52C838.2 162.18 867.2 78.39 916 -2.80404e-05C929.5 -21.87 944.7 -43.2 961.4 -63.54C1037.4 -156.15 1146.3 -226.53 1255.6 -252.09" stroke="#D4E8F7" stroke-miterlimit="10"/>
<path d="M-823.4 769.41C-790.3 705.96 -717 664.83 -640.5 653.76C-607.5 648.99 -573.7 649.17 -540.3 653.85C-497 659.79 -454.9 672.39 -413.2 684.54C-328.2 709.29 -245.6 731.52 -161.6 714.06C-96 700.56 -32.2 686.52 27 661.32C72.6 641.88 105.6 611.46 130.9 573.21C142 556.38 151.6 538.11 160.6 519.03C178.4 480.87 194.1 440.64 216.5 406.62C242 367.83 276.9 337.59 331.4 328.59C346.3 326.16 360.6 325.35 375 326.43C435.6 331.02 490.6 367.02 553.7 388.8C582.1 398.61 611.8 404.73 640.3 406.8C672.1 409.14 702.8 406.35 729.5 398.7C780.5 384.12 818.3 352.98 829.8 316.62C839.5 286.11 830.6 255.69 829.5 222.03C827.4 152.55 852.8 65.07 900.6 -15.66C913.9 -38.16 928.9 -60.03 945.8 -80.91C1022.4 -175.59 1135.7 -245.34 1249.4 -266.76" stroke="#D4E8F7" stroke-miterlimit="10"/>
<path d="M-827.9 762.66C-793.4 699.57 -720.4 658.53 -643.8 647.19C-610.8 642.33 -576.8 642.51 -543.4 647.28C-500.1 653.49 -458 666.54 -416.4 679.59C-331.6 706.05 -249.2 731.52 -164.4 715.86C-98.2 703.71 -33.4 691.65 27.2 668.07C74.2 649.8 107.9 619.92 133.8 581.85C145.2 565.11 155.1 547.02 164.3 527.85C182.6 489.78 198.9 449.46 221.8 415.8C248 377.28 283.7 347.76 339.5 340.47C354.6 338.49 369.2 338.22 383.6 339.84C444.5 346.68 498.6 384.84 561.6 406.71C590.1 416.61 620 422.28 648.7 423.63C680.8 425.07 711.8 421.02 738.4 411.66C789.2 393.84 825.3 358.02 833.8 318.42C841 284.85 828.9 252.45 825 216.81C816.9 143.1 838.8 51.93 885.6 -31.05C898.6 -54.18 913.6 -76.68 930.6 -97.92C1007.8 -194.67 1125.4 -263.7 1243.5 -281.07" stroke="#D4E8F7" stroke-miterlimit="10"/>
<path d="M-832.4 756C-796.5 693.27 -723.8 652.23 -647 640.71C-613.9 635.76 -579.9 635.85 -546.4 640.8C-503 647.19 -461 660.87 -419.5 674.73C-334.9 702.99 -252.6 731.7 -167.1 717.66C-100.2 706.77 -34.5 696.78 27.5 674.82C75.8 657.72 110.2 628.29 136.8 590.58C148.5 574.02 158.7 555.93 168.2 536.76C187 498.69 203.8 458.37 227.3 424.98C254.2 386.82 290.6 357.93 347.8 352.26C363.1 350.73 377.9 351 392.3 353.16C453.4 362.34 506.6 402.48 569.6 424.44C598.2 434.34 628.3 439.65 657.2 440.19C689.6 440.82 720.8 435.33 747.4 424.26C798 403.2 832.4 362.79 837.9 319.86C842.5 283.41 827.2 248.85 820.5 211.14C806.3 133.2 824.8 38.43 870.6 -46.89C883.3 -70.65 898.3 -93.69 915.4 -115.38C993.1 -214.2 1115 -282.6 1237.6 -295.92" stroke="#D4E8F7" stroke-miterlimit="10"/>
<path d="M-836.9 749.25C-799.6 686.88 -727.2 645.84 -650.3 634.05C-617.2 629.01 -583.1 629.01 -549.5 634.14C-506.1 640.8 -464.2 654.93 -422.7 669.69C-338.2 699.75 -256.2 731.7 -169.9 719.28C-102.4 709.65 -35.6 701.82 27.7 681.39C77.2999 665.46 112.4 636.57 139.7 599.13C151.6 582.66 162.1 564.66 171.9 545.49C191.3 507.51 208.5 467.19 232.6 433.98C260.2 396.09 297.3 368.01 355.9 363.87C371.5 362.79 386.4 363.69 400.9 366.3C462.2 377.73 514.6 420.03 577.5 441.99C606.1 451.98 636.5 456.84 665.6 456.57C698.3 456.3 729.7 449.55 756.3 436.77C806.7 412.47 839.4 367.47 841.8 321.21C843.8 281.79 825.4 245.16 815.9 205.47C795.9 123.39 810.6 24.93 855.5 -62.73C868 -87.21 882.8 -110.79 900.1 -132.84C978.4 -233.55 1104.6 -301.23 1231.6 -310.5" stroke="#D4E8F7" stroke-miterlimit="10"/>
<path d="M-841.4 742.5C-802.7 680.58 -730.6 639.45 -653.6 627.48C-620.4 622.35 -586.2 622.35 -552.6 627.66C-509.2 634.5 -467.3 649.17 -425.9 664.83C-341.6 696.6 -259.7 731.88 -172.7 721.08C-104.6 712.71 -36.8 706.95 27.9 688.23C78.8 673.47 114.6 645.12 142.6 607.86C154.8 591.57 165.6 573.57 175.7 554.4C195.6 516.51 213.3 476.1 238.1 443.25C266.4 405.72 304.2 378.18 364.2 375.84C380 375.21 395.1 376.65 409.6 379.89C471.2 393.57 522.6 438.03 585.5 459.99C614.2 470.07 644.8 474.48 674.2 473.4C707.2 472.23 738.9 464.22 765.4 449.73C815.6 422.28 846.6 372.69 846 323.01C845.5 280.71 824 241.92 811.5 200.16C785.6 113.85 796.7 11.7 840.5 -78.12C852.7 -103.23 867.5 -127.35 884.9 -149.94C964 -252.81 1094.5 -319.86 1225.9 -325.08" stroke="#D4E8F7" stroke-miterlimit="10"/>
<path d="M-845.9 735.75C-805.9 674.19 -734 633.15 -656.9 620.91C-623.7 615.69 -589.4 615.6 -555.7 621.09C-512.3 628.11 -470.4 643.41 -429.1 659.88C-345 693.45 -263.2 731.97 -175.6 722.88C-106.9 715.77 -38.1 712.08 28 694.98C80.2 681.39 116.7 653.58 145.3 616.59C157.8 600.39 168.9 582.48 179.2 563.31C199.6 525.42 217.8 485.01 243.2 452.43C272.2 415.17 310.8 388.35 372.1 387.63C388.2 387.45 403.4 389.43 418 393.21C479.8 409.14 530.4 455.67 593.2 477.72C622 487.8 652.8 491.85 682.4 490.05C715.7 487.98 747.7 478.71 774 462.42C824.1 431.82 853.3 377.73 849.7 324.54C846.6 279.45 822 238.41 806.7 194.67C774.9 104.13 782.4 -1.62002 825.2 -93.78C837.1 -119.52 851.9 -144.18 869.3 -167.22C949 -272.16 1083.9 -338.49 1219.7 -339.75" stroke="#D4E8F7" stroke-miterlimit="10"/>
<path d="M-850.5 729.09C-809.1 667.89 -737.5 626.85 -660.2 614.43C-626.9 609.12 -592.5 608.94 -558.8 614.61C-515.3 621.9 -473.6 637.65 -432.4 655.02C-348.4 690.39 -266.9 732.06 -178.5 724.68C-109.2 718.92 -39.3 717.39 28 701.73C81.5 689.49 118.7 662.04 148 625.23C160.8 609.12 172.1 591.3 182.7 572.13C203.6 534.33 222.3 493.83 248.3 461.52C278 424.53 317.3 398.43 380 399.33C396.3 399.6 411.7 402.12 426.3 406.44C488.3 424.62 538 473.31 600.8 495.45C629.6 505.62 660.6 509.22 690.5 506.61C724.1 503.73 756.3 493.02 782.6 475.11C832.5 441.27 860 382.77 853.3 326.07C847.6 278.1 819.9 234.99 801.7 189.18C764 94.5 767.9 -14.94 809.7 -109.44C821.4 -135.81 836 -161.1 853.6 -184.5C933.9 -291.51 1073.1 -357.12 1213.3 -354.33" stroke="#D4E8F7" stroke-miterlimit="10"/>
<path d="M-855 722.34C-793.7 635.31 -674.2 588.69 -561.9 608.04C-429.7 630.81 -314.1 734.94 -181.3 726.39C-111.4 721.89 -40.5 722.43 28.2 708.39C106.9 692.37 150.8 643.95 186.5 580.95C232.4 500.04 268.2 406.26 388.2 411.12C475 414.63 531.3 485.82 608.8 513.18C670.2 534.87 742 524.88 791.7 487.8C841.4 450.72 867.3 387.81 857.5 327.6C849.3 276.84 818.5 231.48 797.4 183.6C741.6 57.06 757.6 -92.79 838.6 -201.87C919.6 -310.95 1063 -375.93 1207.7 -369" stroke="#D4E8F7" stroke-miterlimit="10"/>
<path d="M-847.9 734.76C-785.7 654.57 -666.9 611.19 -555.4 628.92C-499.6 637.74 -446.7 660.15 -394.5 681.84C-341 704.16 -288.3 725.85 -233.3 732.15C-215.6 734.22 -197.6 734.67 -179.4 732.96C-110.9 726.57 -41.8 725.04 26.6 710.55C104.1 694.17 148.9 647.73 185.8 588.24C194.3 574.56 202.5 560.61 210.9 546.84C235.5 506.34 261.7 468 303.2 446.67C326.4 434.79 354.3 428.04 389 429.12C474.7 431.73 530.7 496.8 605.8 520.2C615.8 523.26 626 525.51 636.3 526.95C687.6 533.97 741.9 520.65 781.5 489.33C829.1 451.71 853.7 389.43 844.8 329.85C837.3 279.36 808.4 233.73 789 185.85C755.5 103.23 751.7 11.16 775.8 -72.54C788.8 -117.27 809.7 -159.48 838.3 -196.74C890.4 -264.78 967.1 -315.09 1053.2 -341.64C1102.7 -356.94 1155.3 -364.14 1208 -362.07" stroke="#D4E8F7" stroke-miterlimit="10"/>
<path d="M-840.8 747.27C-777.7 673.83 -659.6 633.78 -548.9 649.98C-493.3 658.08 -440.6 678.42 -388.9 697.68C-335.9 717.48 -284.3 736.29 -230.2 740.61C-212.8 742.05 -195.2 741.87 -177.4 739.71C-110.4 731.52 -42.9 727.92 25.1 712.8C101.5 696.06 147 651.42 185.2 595.53C194 582.66 202.6 569.61 211.2 556.74C236.6 518.94 263.1 483.48 304.6 463.86C327.9 452.88 355.6 446.49 389.7 447.21C474.3 448.92 530.1 507.96 602.8 527.4C612.5 529.92 622.3 531.72 632.3 532.71C681.7 537.48 733.6 522.81 771.4 491.13C816.8 452.97 840.3 391.32 832.1 332.28C825.2 282.06 798.4 236.25 780.7 188.28C750.1 105.66 748.4 13.95 773.8 -68.76C787.6 -113.13 809.2 -154.8 838.2 -191.43C891.1 -258.3 967.9 -307.53 1054.1 -333.99C1103.5 -349.2 1155.9 -356.58 1208.5 -354.96" stroke="#D4E8F7" stroke-miterlimit="10"/>
<path d="M-833.8 759.78C-769.8 693.18 -652.4 656.28 -542.4 670.95C-487.1 678.24 -434.6 696.6 -383.4 713.52C-330.9 730.8 -280.3 746.82 -227.3 749.07C-210.2 749.79 -193.1 749.07 -175.6 746.46C-110 736.38 -44.3 730.62 23.3 715.05C98.5 697.77 144.9 655.2 184.2 602.82C193.3 590.76 202.2 578.61 211.1 566.64C237.3 531.63 264.2 498.96 305.6 481.05C329 470.88 356.6 464.94 390.1 465.3C473.6 466.02 529.1 519.21 599.4 534.51C608.7 536.58 618.3 537.75 627.8 538.29C675.3 540.9 724.7 524.88 760.7 492.66C804 453.96 826.3 392.94 818.9 334.44C812.7 284.4 787.8 238.5 771.8 190.44C744.1 107.73 744.2 16.56 771.1 -65.16C785.6 -109.26 808 -150.3 837.4 -186.3C891.1 -252.09 968 -300.15 1054.4 -326.61C1103.7 -341.73 1156 -349.2 1208.4 -348.03" stroke="#D4E8F7" stroke-miterlimit="10"/>
<path d="M-826.7 772.29C-761.8 712.53 -645.1 678.87 -535.9 691.92C-480.8 698.4 -428.6 714.87 -377.9 729.27C-326 744.12 -276.3 757.17 -224.3 757.35C-207.6 757.44 -190.8 756.18 -173.7 753.03C-109.6 741.24 -45.5 733.23 21.7 717.21C95.7 699.57 143 658.89 183.5 610.02C192.9 598.77 202.1 587.52 211.3 576.54C238.3 544.23 265.6 514.44 306.9 498.15C330.4 488.88 357.9 483.48 390.8 483.3C473.2 482.94 528.5 530.19 596.3 541.53C605.3 543.06 614.5 543.78 623.7 543.87C669.3 544.23 716.3 526.86 750.5 494.28C791.6 455.04 812.6 394.65 806.1 336.78C800.5 287.01 777.7 240.84 763.4 192.69C738.6 109.98 740.7 19.17 768.9 -61.47C784.2 -105.3 807.2 -145.71 837.1 -181.17C891.6 -245.79 968.7 -292.77 1055.1 -319.14C1104.3 -334.17 1156.4 -341.82 1208.7 -341.1" stroke="#D4E8F7" stroke-miterlimit="10"/>
<path d="M-819.6 784.8C-753.7 731.79 -637.9 701.46 -529.4 712.89C-474.6 718.56 -422.5 733.05 -372.3 745.02C-320.9 757.35 -272.3 767.61 -221.2 765.72C-204.8 765.18 -188.4 763.29 -171.8 759.69C-109.1 746.1 -46.7999 735.93 20.0001 719.37C92.8001 701.28 141 662.49 182.7 617.22C192.4 606.69 202 596.43 211.4 586.35C239.1 556.74 266.8 529.92 308.2 515.25C331.8 506.88 359.1 501.66 391.5 501.3C472.8 500.4 527.8 541.26 593.2 548.64C601.9 549.63 610.7 549.81 619.5 549.45C663.2 547.56 707.8 528.93 740.2 495.9C779.2 456.03 799 396.36 793.3 339.03C788.4 289.53 767.5 243.18 755 194.94C733.2 112.23 737.2 21.87 766.7 -57.87C782.8 -101.43 806.5 -141.21 836.8 -176.04C892 -239.49 969.3 -285.3 1055.9 -311.67C1105.1 -326.61 1156.9 -334.44 1209 -334.17" stroke="#D4E8F7" stroke-miterlimit="10"/>
<path d="M-812.6 797.22C-745.8 751.05 -630.7 723.87 -522.9 733.86C-468.3 738.72 -416.5 751.23 -366.8 760.86C-315.9 770.76 -268.3 778.05 -218.3 774.18C-202.2 772.92 -186.2 770.58 -170 766.44C-108.8 750.96 -48.1 738.72 18.3 721.62C89.9 703.17 139 666.27 181.9 624.51C191.9 614.79 201.8 605.43 211.5 596.25C240 569.43 268.1 545.4 309.4 532.44C333.2 524.97 360.3 520.11 392.1 519.39C472.3 517.59 527.1 552.42 590 555.75C598.4 556.2 606.8 555.93 615.2 555.12C657 550.98 699.2 531.09 729.8 497.61C766.6 457.2 785.2 398.25 780.3 341.37C776 292.14 757.1 245.52 746.3 197.28C727.4 114.57 733.4 24.66 764.2 -54.09C781.1 -97.29 805.5 -136.53 836.3 -170.73C892.3 -233.1 969.7 -277.74 1056.4 -304.02C1105.5 -318.96 1157.2 -326.88 1209.1 -326.97" stroke="#D4E8F7" stroke-miterlimit="10"/>
<path d="M-805.5 809.73C-737.8 770.31 -623.4 746.46 -516.4 754.83C-462.1 758.88 -410.4 769.41 -361.3 776.61C-310.9 783.99 -264.4 788.4 -215.3 782.55C-199.6 780.66 -183.9 777.69 -168.1 773.19C-108.3 755.91 -49.4 741.51 16.6 723.87C87.1 705.06 137 670.05 181.1 631.89C191.4 622.98 201.6 614.43 211.6 606.24C240.8 582.12 269.4 561.06 310.6 549.72C334.5 543.15 361.5 538.65 392.6 537.57C471.7 534.87 526.3 563.67 586.7 562.95C594.8 562.86 602.9 562.05 610.9 560.79C650.7 554.4 690.6 533.16 719.4 499.32C754.1 458.37 771.5 400.05 767.4 343.8C763.8 294.84 747 248.04 737.8 199.71C722 116.91 729.9 27.45 761.9 -50.22C779.6 -93.15 804.6 -131.76 835.9 -165.42C892.7 -226.62 970.3 -270.18 1057.1 -296.46C1106.1 -311.31 1157.6 -319.32 1209.4 -319.95" stroke="#D4E8F7" stroke-miterlimit="10"/>
<path d="M-798.4 822.24C-729.8 789.66 -616.1 769.23 -509.9 775.8C-455.8 779.13 -404.4 787.68 -355.7 792.36C-305.9 797.22 -260.3 798.75 -212.2 790.92C-196.8 788.4 -181.5 784.89 -166.1 779.85C-107.7 760.77 -50.5 744.3 15.1 726.12C84.4 706.95 135.3 673.83 180.4 639.18C191 631.08 201.5 623.43 211.8 616.14C241.7 594.81 270.8 576.54 311.9 566.82C335.9 561.15 362.7 556.92 393.3 555.57C471.3 551.97 525.7 574.74 583.6 570.06C591.3 569.43 599.1 568.17 606.7 566.46C644.6 557.82 682 535.32 709.1 500.94C741.6 459.45 757.9 401.76 754.5 346.05C751.5 297.27 736.7 250.38 729.2 201.96C716.3 119.16 726.2 30.15 759.6 -46.62C778.1 -89.28 803.8 -127.26 835.5 -160.29C893.1 -220.41 970.8 -262.8 1057.7 -288.99C1106.6 -303.75 1157.9 -311.94 1209.6 -313.02" stroke="#D4E8F7" stroke-miterlimit="10"/>
<path d="M-791.4 834.75C-721.9 808.92 -609 791.82 -503.4 796.77C-449.6 799.29 -398.3 805.86 -350.2 808.11C-300.9 810.54 -256.4 809.19 -209.3 799.29C-194.2 796.14 -179.3 792 -164.3 786.51C-107.4 765.54 -51.9 747 13.4 728.28C81.5 708.75 133.3 677.43 179.6 646.38C190.5 639.09 201.4 632.34 211.9 625.95C242.5 607.32 272.1 592.02 313.2 583.92C337.3 579.15 364 575.28 394 573.57C470.9 569.07 525.1 585.72 580.6 577.08C588 575.91 595.4 574.11 602.7 571.95C638.7 561.06 673.7 537.21 699 502.47C729.4 460.44 744.4 403.38 741.9 348.3C739.6 299.79 726.8 252.63 721 204.12C711 121.32 723 32.76 757.6 -43.02C776.9 -85.32 803.3 -122.76 835.4 -155.16C893.7 -214.11 971.6 -255.42 1058.7 -281.52C1107.5 -296.19 1158.7 -304.56 1210.2 -306" stroke="#D4E8F7" stroke-miterlimit="10"/>
<path d="M-784.3 847.26C-713.9 828.27 -601.7 814.32 -496.9 817.74C-443.3 819.45 -392.3 824.04 -344.7 823.95C-295.9 823.86 -252.4 819.72 -206.3 807.66C-191.6 803.79 -177 799.11 -162.4 793.17C-106.9 770.4 -53.1001 749.79 11.7 730.44C78.7 710.55 131.4 681.12 178.8 653.58C190 647.1 201.2 641.25 212 635.76C243.3 619.83 273.4 607.5 314.4 601.02C338.7 597.15 365.1 593.64 394.6 591.57C470.4 586.17 524.4 596.79 577.4 584.1C584.5 582.39 591.5 580.14 598.4 577.53C632.5 564.39 665.1 539.28 688.6 504.09C716.8 461.52 730.7 405.09 728.9 350.55C727.3 302.31 716.4 254.97 712.3 206.37C705.3 123.57 719.2 35.3699 755.1 -39.3301C775.3 -81.3601 802.2 -118.17 834.8 -150.03C893.9 -207.81 971.9 -248.04 1059.1 -274.14C1107.8 -288.72 1158.8 -297.18 1210.1 -299.16" stroke="#D4E8F7" stroke-miterlimit="10"/>
<path d="M-777.2 859.68C-705.9 847.53 -594.4 836.82 -490.4 838.71C-437.1 839.7 -386.3 842.22 -339.1 839.7C-290.9 837.18 -248.4 830.07 -203.2 816.03C-188.8 811.53 -174.6 806.31 -160.5 799.83C-106.5 775.17 -54.3 752.49 10.1 732.69C75.9 712.44 129.6 684.9 178.1 660.87C189.6 655.2 201.1 650.25 212.2 645.66C244.2 632.52 274.8 623.07 315.7 618.12C340.1 615.15 366.4 612 395.2 609.57C469.9 603.18 523.7 607.77 574.2 591.21C581 588.96 587.7 586.17 594.1 583.11C626.3 567.72 656.5 541.35 678.1 505.71C704.2 462.6 716.9 406.8 715.9 352.8C715 304.83 706.1 257.31 703.7 208.62C699.6 125.82 715.6 38.07 752.7 -35.73C773.7 -77.4 801.3 -113.67 834.3 -144.9C894.2 -201.6 972.4 -240.66 1059.7 -266.67C1108.3 -281.16 1159.2 -289.8 1210.3 -292.23" stroke="#D4E8F7" stroke-miterlimit="10"/>
<path d="M-770.2 872.19C-697.9 866.79 -587.2 859.41 -483.9 859.68C-430.8 859.86 -380.2 860.49 -333.6 855.45C-285.9 850.41 -244.4 840.51 -200.3 824.4C-186.2 819.27 -172.4 813.42 -158.7 806.49C-106.1 780.03 -55.7 755.28 8.30005 734.85C73 714.24 127.6 688.68 177.2 668.07C189 663.21 200.8 659.16 212.2 655.47C244.9 645.03 276 638.55 316.8 635.22C341.3 633.24 367.5 630.27 395.7 627.48C469.3 620.19 522.9 618.66 570.9 598.14C577.4 595.35 583.7 592.11 589.8 588.6C620.1 570.96 647.8 543.24 667.7 507.15C691.6 463.5 703.2 408.33 702.9 354.96C702.7 307.17 695.7 259.47 695 210.78C693.8 127.98 711.9 40.68 750.2 -32.13C772 -73.53 800.3 -109.17 833.8 -139.77C894.5 -195.3 972.8 -233.19 1060.2 -259.2C1108.7 -273.69 1159.4 -282.42 1210.4 -285.21" stroke="#D4E8F7" stroke-miterlimit="10"/>
<path d="M-763.1 884.7C-689.9 886.14 -579.9 881.91 -477.4 880.65C-424.6 880.02 -374.2 878.67 -328.1 871.29C-280.9 863.73 -240.4 850.95 -197.3 832.86C-183.6 827.1 -170.1 820.62 -156.8 813.24C-105.7 784.89 -56.9 758.16 6.70001 737.1C70.2 716.13 125.9 692.46 176.4 675.45C188.6 671.4 200.6 668.25 212.3 665.55C245.7 657.81 277.4 654.39 318.1 652.59C342.8 651.51 368.7 648.9 396.4 645.75C469 637.56 522.3 629.91 567.8 605.43C574 602.1 579.9 598.32 585.6 594.36C614 574.47 639.3 545.49 657.4 508.95C679.2 464.76 689.6 410.22 690.1 357.39C690.5 309.87 685.6 261.99 686.6 213.21C688.3 130.32 708.4 43.56 748 -28.26C770.6 -69.39 799.5 -104.4 833.5 -134.37C894.9 -188.73 973.4 -225.54 1061 -251.46C1109.5 -265.86 1159.9 -274.77 1210.8 -278.01" stroke="#D4E8F7" stroke-miterlimit="10"/>
<path d="M-756 897.21C-681.9 905.4 -572.6 904.5 -470.9 901.62C-418.3 900.18 -368.1 896.85 -322.5 887.04C-275.8 877.05 -236.4 861.39 -194.2 841.23C-180.8 834.84 -167.7 827.73 -154.8 819.9C-105.1 789.66 -58.1 760.86 5.09998 739.35C67.5 718.02 124.1 696.33 175.7 682.74C188.2 679.5 200.5 677.25 212.5 675.45C246.6 670.32 278.8 668.97 319.4 669.69C344.2 670.14 370 667.26 397.1 663.75C468.6 654.57 521.7 640.89 564.7 612.45C570.6 608.58 576.1 604.35 581.5 599.94C608 577.8 630.9 547.47 647.2 510.57C666.8 465.84 676.1 411.93 677.3 359.64C678.4 312.39 675.4 264.33 678.1 215.37C682.7 132.48 704.9 46.17 745.8 -24.75C769.3 -65.52 798.8 -99.99 833.2 -129.42C895.4 -182.7 974.1 -218.34 1061.7 -244.26C1110.1 -258.57 1160.4 -267.57 1211.1 -271.26" stroke="#D4E8F7" stroke-miterlimit="10"/>
<path d="M-749 909.63C-674 924.66 -565.5 926.73 -464.4 922.5C-412.1 920.16 -362.1 915.03 -317 902.7C-270.9 890.19 -232.4 871.74 -191.3 849.42C-178.2 842.31 -165.5 834.75 -153 826.38C-104.8 794.34 -59.4 763.47 3.39996 741.33C64.6 719.73 122.2 699.84 174.9 689.76C187.7 687.33 200.3 685.89 212.6 685.08C247.3 682.65 280.1 685.35 320.6 686.61C345.6 687.42 371.1 685.44 397.6 681.57C468 671.49 520.9 651.69 561.5 619.38C567 614.97 572.3 610.2 577.2 605.34C601.8 580.95 622.3 549.36 636.8 512.01C654.3 466.74 662.3 413.46 664.3 361.8C666.1 314.82 664.9 266.49 669.5 217.53C676.8 134.64 701.3 48.78 743.4 -21.15C767.7 -61.65 797.9 -95.49 832.7 -124.29C895.7 -176.4 974.5 -210.96 1062.3 -236.79C1110.6 -251.01 1160.7 -260.19 1211.2 -264.33" stroke="#D4E8F7" stroke-miterlimit="10"/>
<path d="M-741.9 922.14C-666 944.01 -558.2 949.32 -457.9 943.56C-405.8 940.41 -356.1 933.3 -311.5 918.63C-265.9 903.69 -228.5 882.27 -188.3 857.97C-175.6 850.23 -163.3 842.04 -151.1 833.22C-104.3 799.29 -60.6 766.44 1.79999 743.67C61.9 721.71 120.4 703.89 174.2 697.14C187.3 695.52 200.2 695.16 212.8 695.07C248.2 694.71 281.5 701.01 321.9 703.89C347 705.6 372.4 703.89 398.3 699.75C467.6 688.68 520.2 662.76 558.4 626.58C563.6 621.63 568.5 616.41 573 611.1C595.7 584.46 613.8 551.52 626.5 513.81C641.8 468 648.7 415.35 651.5 364.23C654 317.43 654.8 269.01 661 219.96C671.3 137.07 697.8 51.66 741.1 -17.37C766.3 -57.51 797 -90.81 832.3 -118.98C896 -169.92 975 -203.4 1062.9 -229.14C1111.1 -243.27 1161 -252.63 1211.4 -257.22" stroke="#D4E8F7" stroke-miterlimit="10"/>
<path d="M-734.8 934.65C-658 963.27 -550.9 971.91 -451.4 964.53C-399.6 960.57 -350 951.48 -305.9 934.38C-260.8 916.92 -224.3 892.8 -185.2 866.34C-172.8 857.97 -160.9 849.15 -149.2 839.88C-103.9 804.06 -61.8 769.23 0.0999756 745.83C59 723.6 118.5 707.67 173.4 704.34C186.8 703.53 200 703.89 212.9 704.88C249 707.76 282.8 716.58 323.1 720.9C348.3 723.6 373.6 722.16 398.9 717.66C467.1 705.6 519.4 673.65 555.2 633.51C560.1 628.02 564.6 622.26 568.8 616.5C589.5 587.61 605.2 553.41 616.2 515.16C629.4 468.72 635.1 416.79 638.6 366.21C641.8 319.68 644.5 271.08 652.5 221.94C665.7 139.05 694.3 54.0899 738.8 -13.95C764.8 -53.73 796.2 -86.58 831.9 -114.12C896.4 -163.98 975.5 -196.29 1063.6 -221.94C1111.7 -235.98 1161.5 -245.43 1211.7 -250.47" stroke="#D4E8F7" stroke-miterlimit="10"/>
<path d="M-727.8 947.16C-650.1 982.62 -543.7 994.41 -444.9 985.5C-393.3 980.73 -344 969.66 -300.4 950.13C-255.9 930.24 -220.4 903.15 -182.2 874.71C-170.1 865.71 -158.6 856.26 -147.3 846.54C-103.6 808.74 -63 772.11 -1.5 748.08C56.3 725.49 116.7 710.91 172.6 711.72C186.4 711.9 199.9 712.89 213.1 714.87C249.9 720.36 284.2 732.33 324.5 738.18C349.8 741.87 374.9 740.61 399.7 735.84C466.8 722.88 518.9 684.81 552.2 640.8C556.8 634.77 560.9 628.56 564.7 622.35C583.5 591.21 596.8 555.75 606 517.05C617 470.07 621.7 418.77 625.9 368.82C629.8 322.56 634.5 273.69 644.2 224.55C660.3 141.57 691.1 57.15 736.7 -9.89999C763.6 -49.41 795.6 -81.63 831.7 -108.54C897 -157.23 976.3 -188.46 1064.4 -214.11C1112.4 -228.06 1162 -237.69 1212.1 -243.18" stroke="#D4E8F7" stroke-miterlimit="10"/>
<path d="M-720.7 959.67C-642 1001.88 -536.4 1017 -438.4 1006.47C-387.1 1000.89 -337.9 987.93 -294.8 965.97C-250.8 943.56 -216.3 913.68 -179.2 883.17C-167.4 873.54 -156.3 863.55 -145.4 853.29C-103.1 813.69 -64.2 774.99 -3.19995 750.33C53.5 727.47 114.8 715.5 171.8 719.01C185.9 719.91 199.7 721.89 213.2 724.77C250.8 732.87 285.4 747.99 325.7 755.37C351.1 760.05 376.1 759.06 400.2 753.93C466.2 739.98 518 695.88 548.9 647.91C553.2 641.34 557 634.59 560.4 627.93C577.3 594.54 588.2 557.73 595.5 518.67C604.4 471.15 607.9 420.48 612.8 371.07C617.5 325.08 624 276.03 635.4 226.71C654.4 143.73 687.4 59.85 734.1 -6.39002C761.9 -45.54 794.4 -77.22 831.1 -103.5C897.2 -151.11 976.6 -181.08 1064.9 -206.73C1112.8 -220.68 1162.3 -230.4 1212.1 -236.34" stroke="#D4E8F7" stroke-miterlimit="10"/>
<path d="M-713.6 972.09C-634 1021.14 -529.2 1039.5 -431.9 1027.44C-380.8 1021.05 -331.9 1006.11 -289.3 981.72C-245.8 956.79 -212.3 924.12 -176.2 891.45C-164.8 881.19 -154 870.57 -143.5 859.95C-102.7 818.46 -65.4 777.87 -4.79999 752.49C50.8 729.36 112.9 719.37 171.1 726.21C185.5 727.92 199.6 730.71 213.4 734.58C251.7 745.29 286.8 763.56 327 772.47C352.6 778.14 377.3 777.33 400.9 771.93C465.7 756.9 517.2 706.77 545.8 654.93C549.7 647.82 553.2 640.62 556.2 633.51C571.2 597.87 579.7 559.8 585.2 520.29C591.9 472.23 594.3 422.19 600 373.32C605.4 327.6 613.9 278.37 627 228.96C648.9 145.98 684 62.55 732 -2.70001C760.7 -41.49 793.8 -72.63 830.9 -98.37C897.7 -144.81 977.3 -173.7 1065.7 -199.26C1113.6 -213.12 1162.8 -223.02 1212.5 -229.32" stroke="#D4E8F7" stroke-miterlimit="10"/>
<path d="M-706.5 984.6C-583.6 1069.83 -405.7 1075.23 -283.7 997.47C-240.8 970.11 -208.3 934.47 -173.1 899.82C-118.8 846.27 -82 787.23 -6.40002 754.65C61.5 725.4 142.8 720.09 213.5 744.48C252.5 757.89 288.1 779.22 328.2 789.57C434.8 817.02 523.5 721.44 552 639.09C581 555.21 575.4 463.59 587.2 375.57C603.5 253.62 651.1 103.5 729.7 0.98999C812.3 -106.83 928.8 -152.1 1066.3 -191.79C1114.1 -205.56 1163.1 -215.55 1212.7 -222.39" stroke="#D4E8F7" stroke-miterlimit="10"/>
</g>
<mask id="mask2_8_313" style="mask-type:luminance" maskUnits="userSpaceOnUse" x="0" y="0" width="1200" height="720">
<path d="M1200 0H0V720H1200V0Z" fill="white"/>
</mask>
<g mask="url(#mask2_8_313)">
<path d="M1399.7 430.56C1372.2 386.01 1340.7 342.81 1299 308.34C1257.3 273.87 1204.5 248.49 1148.1 244.8C1091.7 241.11 1032 261.45 999 302.85C980.8 325.62 971.6 352.98 960 378.99C948.4 405 933.2 431.19 907.4 446.85C881.6 462.51 842.8 463.86 821.9 443.07C799.1 420.3 805.9 382.5 784.7 358.47C760.9 331.47 715.2 334.62 677.4 340.29C639.6 345.96 594 349.38 569.9 322.65C550.6 301.23 555.7 267.3 576.6 247.14C597.5 226.98 630.3 219.51 660.8 222.12C691.3 224.73 720 236.07 747.1 248.85C781.7 265.14 822.1 284.49 857.3 269.46C876.8 261.18 889.6 243.72 897.4 225.63C905.2 207.54 909 188.28 916 169.92C938.4 111.33 996.2 64.89 1063.4 51.39C1114.5 41.13 1170.1 48.6 1217.6 28.89C1255.9 13.05 1283.2 -18.18 1308.9 -48.24L1399.7 430.56Z" fill="#2B3640"/>
</g>
<mask id="mask3_8_313" style="mask-type:luminance" maskUnits="userSpaceOnUse" x="0" y="0" width="1200" height="720">
<path d="M1200 0H0V720H1200V0Z" fill="white"/>
</mask>
<g mask="url(#mask3_8_313)">
<path d="M-209.4 810.72C-114.6 824.22 -14.3 802.98 63.8 752.76C126.9 712.26 178.2 652.86 252.4 632.7C290.9 622.26 331.9 623.61 372 625.68C412.1 627.75 452.8 630.54 492 622.8C531.2 615.06 569.6 594.9 587.2 562.41C601.2 536.58 600.2 504.54 584.5 479.43C568.8 454.32 539 436.86 507.2 434.16C460 430.2 416.9 456.21 378.8 481.5C340.7 506.79 298.7 533.7 251.4 531.9C184.9 529.38 135.6 471.42 70 461.34C12.7 452.52 -42.5 481.77 -91.6 509.76L-209.4 810.72Z" fill="#2B3640"/>
</g>
<mask id="mask4_8_313" style="mask-type:luminance" maskUnits="userSpaceOnUse" x="0" y="0" width="1200" height="720">
<path d="M1200 0H0V720H1200V0Z" fill="white"/>
</mask>
<g mask="url(#mask4_8_313)">
<path d="M-42.4 679.68C-33.8 636.12 15.3 610.11 62.5 605.07C109.7 600.03 157.9 609.93 205.7 609.93C333.7 609.84 454.4 530.55 496.3 418.95C509.7 383.22 515.6 345.06 528.7 309.15C541.8 273.33 564 238.32 600.1 221.31C652 196.74 717 215.64 769.4 243.09C821.8 270.54 870.8 306.9 928.8 319.5C1005 336.06 1084.3 307.53 1142.6 261.72C1200.9 215.91 1242.1 154.26 1282.3 93.6" stroke="#FF4DC4" stroke-miterlimit="10"/>
<path d="M-45.3 675.45C-35.8 632.07 13.1 606.15 60.4 600.93C80.9 598.68 101.5 599.22 122.2 600.75C149.4 602.73 176.6 606.24 203.6 606.78C258.7 607.86 312.5 595.17 359.7 570.51C396.2 551.43 428.6 526.32 454.5 496.17C473 474.75 487.8 450.63 498.1 424.44C502.7 412.74 506.5 400.68 510 388.53C517.1 363.87 522.9 338.85 532.1 315C542.5 287.91 558.3 261.72 581.7 243.9C589 238.32 596.9 233.55 605.6 229.77C642 214.02 684.1 219.42 724.4 232.83C741.8 238.59 758.9 245.88 774.8 253.62C792.6 262.35 810 271.71 827.3 280.71C861.3 298.35 895 314.64 931.4 320.49C955.1 324.36 978.4 323.28 1001.6 318.69C1048.5 309.24 1094.7 284.04 1133.2 251.82C1143.7 243 1153.8 233.64 1163.6 224.01C1206.9 180.99 1243.1 131.31 1278.8 84.33" stroke="#F552C5" stroke-miterlimit="10"/>
<path d="M-48.1001 671.22C-37.7001 628.11 10.9999 602.19 58.3999 596.79C78.8999 594.45 99.5999 594.99 120.4 596.61C147.6 598.77 174.7 602.64 201.8 603.72C256.8 605.97 310.4 595.26 358.1 571.68C395 553.41 427.9 529.47 454.8 500.49C474 479.7 489.3 455.94 500.1 429.93C504.9 418.32 508.9 406.26 512.5 394.11C519.9 369.54 526 344.43 535.6 320.76C546.5 293.85 562.8 268.29 587 251.37C594.5 246.15 602.5 241.65 611.2 238.23C647.8 223.92 689.3 230.67 729.5 244.08C747 249.93 764.2 256.86 780.2 264.15C798.2 272.25 815.8 280.89 833 288.72C866.9 304.29 899.6 318.06 933.9 321.48C956.1 323.73 977.4 321.12 998.7 315.18C1041.9 303.03 1085.8 275.49 1123.6 241.92C1134 232.65 1144 223.02 1153.8 213.12C1197.5 168.84 1236.4 119.52 1274.9 75.15" stroke="#EB57C7" stroke-miterlimit="10"/>
<path d="M-51 666.9C-39.7 624.06 8.69995 598.05 56.2 592.56C76.7 590.22 97.5 590.67 118.3 592.38C145.5 594.63 172.6 598.86 199.6 600.48C254.5 603.81 308 595.26 356.2 572.67C393.4 555.21 427 532.53 454.8 504.63C474.8 484.56 490.6 461.16 501.8 435.33C506.8 423.81 510.9 411.84 514.8 399.69C522.5 375.12 529 350.01 538.9 326.52C550.2 299.79 567.1 274.86 592 258.75C599.7 253.8 607.7 249.66 616.5 246.6C653.2 233.73 694.2 241.83 734.4 255.24C751.9 261.09 769.2 267.84 785.5 274.59C803.7 282.15 821.4 289.8 838.6 296.73C872.4 310.23 904.3 321.48 936.4 322.38C957.2 323.01 976.3 318.87 995.7 311.67C1035.2 297 1076.8 267.03 1113.9 231.93C1124.1 222.3 1134.1 212.22 1144 202.05C1188.1 156.42 1229.8 107.55 1271 65.79" stroke="#E15DC8" stroke-miterlimit="10"/>
<path d="M-53.9 662.67C-41.7 620.01 6.49998 594.09 54.1 588.42C74.7 585.99 95.5 586.44 116.3 588.33C143.5 590.76 170.6 595.26 197.5 597.51C252.3 601.92 305.7 595.44 354.3 573.93C391.9 557.28 426.1 535.86 454.8 509.04C475.6 489.69 491.9 466.65 503.5 441C508.7 429.48 513 417.6 517 405.45C525 380.97 531.8 355.77 542.2 332.46C554 306 571.3 281.52 597.1 266.4C604.9 261.81 613.1 257.94 621.8 255.24C658.7 243.81 699.1 253.26 739.2 266.76C756.7 272.7 774.2 279.09 790.6 285.39C808.9 292.41 826.9 299.25 844 305.01C877.7 316.35 908.8 325.17 938.7 323.64C958.1 322.65 975 316.98 992.6 308.43C1028.4 291.06 1067.6 258.84 1104.2 222.3C1114.2 212.22 1124.2 201.87 1134.2 191.43C1178.7 144.54 1223.1 96.12 1267.1 56.88" stroke="#D762CA" stroke-miterlimit="10"/>
<path d="M-56.7 658.44C-43.7 616.05 4.40004 590.13 52.1 584.28C72.7 581.76 93.6 582.21 114.4 584.19C141.6 586.71 168.7 591.66 195.5 594.36C250.2 599.94 303.5 595.44 352.6 575.01C390.6 559.17 425.3 538.92 455 513.27C476.6 494.55 493.3 471.96 505.4 446.4C510.8 434.97 515.3 423.09 519.4 410.94C527.8 386.46 534.9 361.26 545.6 338.13C557.8 311.85 575.7 288 602.3 273.69C610.3 269.37 618.5 265.86 627.3 263.52C664.3 253.53 704.2 264.24 744.3 277.83C761.9 283.77 779.5 289.98 796.1 295.74C814.6 302.22 832.7 308.16 849.8 312.93C883.4 322.2 913.7 328.5 941.4 324.45C959.5 321.84 974.1 314.64 989.9 304.74C1022 284.76 1058.9 250.11 1094.8 212.13C1104.7 201.6 1114.6 190.89 1124.6 180.18C1169.5 131.94 1216.6 83.97 1263.5 47.34" stroke="#CD67CB" stroke-miterlimit="10"/>
<path d="M-59.6001 654.12C-45.7001 612 2.19994 585.99 49.9999 580.14C70.5999 577.62 91.5999 577.98 112.4 580.05C139.7 582.75 166.7 587.97 193.5 591.21C248.1 597.87 301.3 595.53 350.8 576.09C389.2 561.06 424.5 542.07 455.1 517.5C477.5 499.5 494.7 477.27 507.2 451.89C512.7 440.55 517.4 428.76 521.8 416.61C530.5 392.13 537.9 366.93 549 343.98C561.6 317.88 580 294.57 607.5 281.25C615.7 277.29 624 274.05 632.8 272.07C670 263.52 709.3 275.58 749.4 289.17C767 295.11 784.8 301.05 801.5 306.36C820.2 312.3 838.4 317.34 855.6 321.03C889 328.23 918.8 332.01 944.1 325.53C960.9 321.21 973.3 312.48 987.2 301.41C1015.6 278.82 1050.2 241.83 1085.5 202.41C1095.2 191.52 1105.1 180.45 1115.2 169.47C1160.5 119.97 1210.4 72.36 1260 38.25" stroke="#C36CCD" stroke-miterlimit="10"/>
<path d="M-62.4 649.89C-47.6 608.04 0.0999641 582.03 47.9 576C68.6 573.39 89.6 573.75 110.5 575.91C137.8 578.7 164.7 584.28 191.5 588.15C246 595.98 299.1 595.62 349 577.26C387.8 563.04 423.7 545.31 455.1 521.82C478.3 504.54 496 482.67 508.9 457.47C514.6 446.22 519.5 434.43 524 422.28C533 397.89 540.7 372.6 552.2 349.83C565.3 323.91 584.1 301.23 612.5 288.72C620.8 285.03 629.2 282.15 638.1 280.44C675.4 273.33 714.2 286.74 754.2 300.33C771.9 306.36 789.8 312.03 806.6 316.8C825.5 322.2 843.9 326.34 861 329.04C894.3 334.17 923.4 335.25 946.3 326.52C961.9 320.58 971.9 310.32 984 297.9C1008.7 272.61 1040.9 233.37 1075.6 192.42C1085.2 181.08 1095 169.65 1105.2 158.4C1150.9 107.55 1203.5 60.48 1255.9 28.89" stroke="#B972CE" stroke-miterlimit="10"/>
<path d="M-65.3 645.66C-49.6 603.99 -2.10001 578.07 45.8 571.86C66.5 569.16 87.6 569.52 108.5 571.77C135.8 574.74 162.7 580.59 189.4 585C243.8 593.91 296.8 595.62 347.2 578.34C386.4 564.93 422.9 548.46 455.2 526.05C479.2 509.4 497.3 487.98 510.7 462.87C516.6 451.71 521.6 439.92 526.3 427.77C535.6 403.38 543.7 378.09 555.5 355.5C569 329.76 588.4 307.62 617.5 296.1C626 292.77 634.5 290.16 643.4 288.81C680.9 283.14 719 297.9 759.1 311.49C776.8 317.52 794.8 322.92 811.9 327.24C831 332.1 849.5 335.43 866.6 336.96C899.8 340.02 928.3 338.4 948.8 327.33C963.2 319.59 970.8 307.89 981.1 294.3C1002.1 266.31 1032 224.82 1066.1 182.43C1075.5 170.73 1085.3 158.94 1095.5 147.33C1141.6 95.22 1196.9 48.51 1252.1 19.53" stroke="#AF77CF" stroke-miterlimit="10"/>
<path d="M-68.1001 641.34C-51.5001 599.94 -4.20007 573.93 43.7999 567.63C64.4999 564.93 85.5999 565.2 106.6 567.54C133.9 570.6 160.8 576.9 187.4 581.85C241.7 591.93 294.5 595.71 345.4 579.42C385 566.82 422.1 551.61 455.3 530.28C480.1 514.35 498.7 493.29 512.5 468.36C518.6 457.29 523.8 445.59 528.7 433.44C538.4 409.14 546.7 383.76 559 361.35C573 335.79 592.8 314.19 622.8 303.66C631.4 300.6 640 298.44 649 297.36C686.6 293.13 724.2 309.24 764.3 322.83C782.1 328.86 800.2 334.08 817.4 337.86C836.7 342.09 855.3 344.61 872.4 345.15C905.4 346.14 933.4 341.64 951.5 328.5C964.7 318.96 969.9 305.91 978.4 290.97C995.7 260.37 1023.3 216.45 1056.7 172.71C1065.9 160.56 1075.7 148.41 1086 136.62C1132.5 83.25 1190.5 36.9 1248.5 10.53" stroke="#A57CD1" stroke-miterlimit="10"/>
<path d="M-71 637.11C-53.6 595.98 -6.40005 569.97 41.7 563.49C62.4 560.7 83.6 560.97 104.6 563.49C131.9 566.73 158.8 573.3 185.4 578.79C239.6 589.95 292.3 595.8 343.7 580.59C383.7 568.8 421.5 554.85 455.5 534.6C481.1 519.39 500.2 498.69 514.4 473.94C520.7 462.96 526.1 451.26 531.1 439.11C541.1 414.81 549.8 389.43 562.4 367.2C576.8 341.91 597.1 320.76 628 311.13C636.8 308.43 645.5 306.54 654.5 305.82C692.3 303.03 729.3 320.4 769.3 334.08C787.1 340.2 805.4 345.06 822.7 348.39C842.1 352.08 861 353.7 878 353.16C910.9 352.08 938.3 344.61 954 329.4C965.9 317.88 968.9 303.57 975.5 287.37C989.1 254.07 1014.4 207.9 1047.1 162.63C1056.2 150.03 1065.9 137.61 1076.3 125.46C1123.2 70.74 1184 24.93 1244.8 1.08002" stroke="#9B81D2" stroke-miterlimit="10"/>
<path d="M-73.9 632.88C-55.6 591.93 -8.6 566.01 39.5 559.35C60.3 556.47 81.5 556.74 102.6 559.35C129.9 562.68 156.7 569.61 183.3 575.64C237.4 587.97 290 595.8 341.8 581.67C382.2 570.69 420.6 558 455.5 538.83C481.9 524.34 501.5 504 516.1 479.34C522.6 468.45 528.1 456.75 533.3 444.6C543.6 420.3 552.6 395.01 565.6 372.87C580.4 347.76 601.2 327.15 633 318.51C641.9 316.08 650.8 314.55 659.7 314.19C697.6 312.84 734.1 331.56 774.1 345.24C792 351.36 810.4 356.04 827.9 358.83C847.5 361.98 866.5 362.79 883.5 361.17C916.2 358.02 942.9 347.49 956.4 330.39C967 316.98 967.7 301.41 972.5 283.95C982.4 247.95 1005.3 199.53 1037.5 152.82C1046.4 139.86 1056.1 126.99 1066.5 114.66C1113.8 58.68 1177.3 13.23 1240.9 -8.00999" stroke="#9187D4" stroke-miterlimit="10"/>
<path d="M-76.7 628.56C-57.5 587.88 -10.6999 561.87 37.5001 555.12C58.3001 552.24 79.6 552.42 100.7 555.12C128.1 558.63 154.8 565.92 181.3 572.49C235.3 585.9 287.8 595.8 340.1 582.75C380.9 572.58 419.9 561.15 455.7 543.06C482.9 529.29 502.9 509.31 518 484.83C524.6 474.03 530.4 462.42 535.7 450.27C546.3 426.06 555.6 400.68 569 378.81C584.3 353.88 605.5 333.72 638.2 326.07C647.3 323.91 656.2 322.74 665.2 322.74C703.3 322.83 739.2 342.9 779.2 356.67C797.1 362.79 815.6 367.2 833.3 369.54C853.1 372.15 872.2 372.06 889.2 369.36C921.8 364.23 947.6 350.55 958.9 331.47C968.1 316.08 966.6 299.25 969.5 280.53C975.6 241.83 996.3 191.07 1027.8 142.92C1036.5 129.51 1046.1 116.37 1056.7 103.68C1104.4 46.35 1170.6 1.35 1237 -17.37" stroke="#878CD5" stroke-miterlimit="10"/>
<path d="M-79.6001 624.33C-59.5001 583.92 -12.9001 557.91 35.3999 551.07C56.1999 548.1 77.5999 548.28 98.6999 551.07C126.1 554.67 152.8 562.32 179.2 569.43C233.1 583.92 285.5 595.98 338.2 583.92C379.3 574.56 419 564.39 455.7 547.38C483.8 534.33 504.2 514.71 519.7 490.41C526.5 479.7 532.5 468.09 538 455.94C549 431.73 558.6 406.35 572.4 384.66C588.1 359.91 609.8 340.29 643.3 333.63C652.5 331.83 661.6 330.93 670.6 331.29C708.8 332.82 744.2 354.24 784.1 368.01C802 374.22 820.7 378.27 838.5 380.16C858.5 382.23 877.7 381.33 894.7 377.55C927.1 370.35 952 353.61 961.3 332.64C969 315.27 965.4 297.27 966.5 277.2C968.9 235.89 987.3 182.79 1018.2 133.2C1026.8 119.34 1036.3 105.84 1046.9 92.97C1095 34.38 1163.9 -10.17 1233.1 -26.37" stroke="#7D91D7" stroke-miterlimit="10"/>
<path d="M-82.4 620.1C-61.4 579.87 -15 553.95 33.4 546.93C54.3 543.87 75.7 544.05 96.8 546.93C124.2 550.71 150.9 558.63 177.3 566.37C231.1 582.03 283.4 596.07 336.6 585.09C378.1 576.54 418.5 567.72 456 551.7C484.9 539.37 505.8 520.11 521.7 495.9C528.7 485.19 534.8 473.67 540.5 461.52C551.8 437.4 561.7 411.93 575.9 390.42C592.1 365.85 614.2 346.68 648.6 341.01C658 339.48 667.1 338.94 676.2 339.66C714.6 342.54 749.4 365.4 789.3 379.17C807.3 385.38 826.1 389.25 844.1 390.6C864.3 392.13 883.7 390.33 900.6 385.47C932.9 376.2 956.8 356.49 964.1 333.54C970.2 314.19 964.6 294.93 963.9 273.69C962.5 229.68 978.7 174.33 1008.9 123.21C1017.3 108.99 1026.8 95.13 1037.5 81.9C1086 21.96 1157.7 -22.14 1229.7 -35.73" stroke="#7396D8" stroke-miterlimit="10"/>
<path d="M-85.3 615.78C-63.5 575.82 -17.2001 549.81 31.2 542.7C52.1 539.64 73.6 539.73 94.8 542.79C122.2 546.66 148.9 555.03 175.2 563.22C228.9 579.96 281 596.07 334.7 586.17C376.6 578.43 417.6 570.87 456 555.93C485.7 544.32 507 525.42 523.4 501.39C530.6 490.77 536.9 479.34 542.7 467.19C554.3 443.07 564.6 417.6 579.1 396.27C595.7 371.88 618.2 353.25 653.6 348.57C663.2 347.31 672.4 347.13 681.5 348.21C720 352.53 754.3 376.65 794.1 390.51C812.1 396.81 831.1 400.32 849.2 401.22C869.5 402.12 889.1 399.6 906 393.66C938.2 382.41 961 359.73 966.4 334.62C970.9 313.38 963.3 292.86 960.8 270.27C955.7 223.56 969.5 165.96 999.2 113.4C1007.4 98.73 1016.9 84.51 1027.7 71.1C1076.6 9.9 1151 -33.84 1225.8 -44.82" stroke="#699CD9" stroke-miterlimit="10"/>
<path d="M-88.1001 611.55C-65.4001 571.86 -19.3001 545.85 29.1999 538.56C50.0999 535.41 71.6999 535.5 92.8999 538.65C120.3 542.7 146.9 551.34 173.2 560.07C226.8 577.98 278.8 596.16 332.9 587.25C375.2 580.32 416.9 574.02 456.1 560.16C486.6 549.36 508.4 530.73 525.2 506.88C532.6 496.35 539 484.92 545.1 472.77C557 448.74 567.6 423.18 582.5 402.03C599.5 377.91 622.5 359.64 658.8 356.04C668.5 355.05 677.8 355.23 687 356.67C725.7 362.43 759.4 387.9 799.2 401.76C817.3 408.06 836.4 411.39 854.7 411.75C875.2 412.11 894.9 408.69 911.8 401.67C943.8 388.35 965.6 362.7 969.1 335.61C972 312.48 962.3 290.7 958.1 266.85C949.1 217.53 960.8 157.5 989.8 103.59C997.9 88.56 1007.3 73.98 1018.1 60.21C1067.4 -2.34001 1144.5 -45.63 1222.1 -54" stroke="#5FA1DB" stroke-miterlimit="10"/>
<path d="M-91 607.32C-67.4 567.9 -21.5 541.89 27.1 534.42C48.1 531.18 69.7 531.27 90.9 534.51C118.4 538.74 144.9 547.65 171.2 557.01C224.7 576 276.6 596.25 331.2 588.42C373.9 582.3 416.2 577.35 456.3 564.48C487.7 554.4 509.9 536.13 527.1 512.46C534.7 502.02 541.3 490.59 547.5 478.44C559.7 454.41 570.6 428.85 585.9 407.88C603.4 383.94 626.9 366.12 663.9 363.51C673.8 362.79 683.2 363.33 692.4 365.04C731.2 372.24 764.4 399.06 804.2 412.92C822.3 419.22 841.5 422.28 860 422.19C880.7 422.01 900.6 417.78 917.4 409.68C949.3 394.29 970 365.85 971.5 336.51C972.8 311.58 961.1 288.36 955.1 263.25C942.4 211.32 951.8 148.95 980.1 93.51C988 78.03 997.4 63.09 1008.3 49.14C1058 -14.67 1137.8 -57.51 1218.2 -63.45" stroke="#55A6DC" stroke-miterlimit="10"/>
<path d="M-93.9 603C-69.4 563.76 -23.8 537.75 25 530.19C46 526.95 67.6 526.95 88.9 530.28C116.4 534.6 142.9 543.96 169.1 553.77C222.5 573.93 274.3 596.16 329.3 589.41C372.4 584.1 415.3 580.5 456.3 568.62C488.5 559.26 511.1 541.35 528.8 517.77C536.6 507.42 543.4 496.08 549.7 483.93C562.3 459.9 573.5 434.34 589.2 413.55C607.1 389.79 631.1 372.42 669 370.89C679 370.53 688.5 371.43 697.8 373.41C736.8 382.05 769.3 410.22 809.1 424.08C827.3 430.47 846.6 433.26 865.2 432.63C886.1 431.91 906.1 426.78 922.9 417.6C954.7 400.23 974.3 368.82 973.9 337.41C973.6 310.68 960 286.11 952.1 259.65C935.7 205.02 942.7 140.4 970.5 83.52C978.2 67.59 987.6 52.38 998.6 38.07C1048.7 -27.09 1131.3 -69.48 1214.4 -72.81" stroke="#4BABDE" stroke-miterlimit="10"/>
<path d="M-96.7 598.77C-71.4 559.8 -25.9 533.79 22.9 526.05C43.9 522.72 65.6001 522.72 87.0001 526.14C114.5 530.64 141 540.27 167.1 550.71C220.4 571.95 272.1 596.34 327.6 590.58C371.1 586.08 414.7 583.74 456.4 572.94C489.4 564.39 512.5 546.75 530.7 523.35C538.6 513.09 545.6 501.75 552.2 489.6C565.1 465.66 576.6 440.01 592.7 419.4C611.1 395.82 635.5 378.9 674.3 378.36C684.5 378.27 694.1 379.53 703.3 381.87C742.4 391.95 774.4 421.47 814.2 435.42C832.4 441.81 851.9 444.33 870.7 443.25C891.8 441.99 912 436.05 928.7 425.79C960.4 406.44 978.9 372.15 976.6 338.49C974.6 309.96 959.1 284.04 949.4 256.32C929.3 198.99 934 132.12 961.1 73.71C968.7 57.42 978 41.76 989 27.27C1039.5 -39.15 1124.8 -81.18 1210.8 -81.9" stroke="#41B1DF" stroke-miterlimit="10"/>
<path d="M-99.6001 594.54C-73.4001 555.84 -28.1001 529.83 20.7999 522C41.8999 518.58 63.5999 518.58 84.9999 522.09C112.5 526.68 139 536.67 165 547.65C218.2 570.06 269.8 596.43 325.7 591.75C369.6 588.06 413.8 587.16 456.4 577.26C490.2 569.52 513.8 552.15 532.4 528.93C540.5 518.76 547.7 507.42 554.4 495.27C567.6 471.33 579.5 445.68 595.9 425.25C614.7 401.85 639.6 385.29 679.3 385.92C689.6 386.1 699.3 387.72 708.6 390.42C747.9 401.94 779.3 432.72 819.1 446.76C837.4 453.15 857 455.49 875.9 453.87C897.1 452.07 917.5 445.23 934.2 433.89C965.8 412.47 983.2 375.39 979 339.57C975.4 309.24 957.9 281.88 946.4 252.9C922.5 192.96 925 123.66 951.5 63.9C958.9 47.16 968.2 31.23 979.3 16.38C1030.2 -51.39 1118.2 -92.88 1207 -91.08" stroke="#37B6E1" stroke-miterlimit="10"/>
<path d="M-102.4 590.22C-63.6 535.14 12.1 505.62 83.1 517.86C166.8 532.26 239.9 598.23 324 592.74C368.3 589.86 413.1 590.22 456.6 581.4C506.4 571.32 534.2 540.63 556.8 500.76C585.8 449.55 608.5 390.15 684.5 393.3C739.4 395.55 775 440.55 824.1 457.92C862.9 471.6 908.4 465.3 939.9 441.81C971.4 418.32 987.7 378.54 981.6 340.47C976.4 308.34 956.9 279.63 943.6 249.3C908.3 169.2 918.4 74.34 969.7 5.30999C1021 -63.72 1111.8 -104.85 1203.3 -100.44" stroke="#2DBBE2" stroke-miterlimit="10"/>
<path d="M-98 598.14C-58.6 547.38 16.6 519.93 87.1 531.18C122.4 536.76 155.9 550.98 189 564.66C222.9 578.79 256.2 592.47 291 596.52C302.2 597.78 313.6 598.14 325.1 597.06C368.4 593.01 412.2 592.02 455.5 582.84C504.6 572.49 532.9 543.06 556.3 505.44C561.7 496.8 566.9 487.98 572.2 479.25C587.8 453.6 604.4 429.3 630.6 415.89C645.3 408.33 662.9 404.1 684.9 404.82C739.1 406.44 774.6 447.66 822.1 462.51C828.4 464.49 834.9 465.93 841.4 466.83C873.9 471.33 908.2 462.87 933.3 442.98C963.4 419.13 979 379.71 973.3 342C968.5 310.05 950.3 281.16 938 250.83C916.8 198.54 914.4 140.22 929.7 87.3C937.9 59.04 951.2 32.31 969.2 8.73002C1002.2 -34.29 1050.7 -66.15 1105.2 -82.98C1136.5 -92.61 1169.8 -97.2 1203.2 -95.94" stroke="#33B4E3" stroke-miterlimit="10"/>
<path d="M-93.5 606.06C-53.6 559.62 21.2 534.24 91.3 544.5C126.5 549.63 159.8 562.5 192.5 574.74C226 587.25 258.7 599.22 292.9 601.92C303.9 602.82 315 602.73 326.3 601.38C368.7 596.16 411.4 593.91 454.4 584.37C502.7 573.84 531.6 545.49 555.7 510.12C561.3 501.93 566.7 493.74 572.2 485.55C588.3 461.61 605.1 439.2 631.3 426.78C646.1 419.85 663.6 415.8 685.2 416.25C738.7 417.33 774.1 454.68 820 467.01C826.1 468.63 832.3 469.71 838.6 470.34C869.9 473.4 902.7 464.13 926.6 443.97C955.3 419.76 970.2 380.79 965 343.44C960.7 311.67 943.6 282.69 932.5 252.27C913.1 199.98 912 141.93 928.1 89.64C936.8 61.56 950.5 35.19 968.9 11.97C1002.4 -30.33 1051 -61.47 1105.6 -78.3C1136.9 -87.93 1170 -92.61 1203.3 -91.53" stroke="#38ADE5" stroke-miterlimit="10"/>
<path d="M-89 613.98C-48.5 571.86 25.8 548.46 95.4 557.73C130.4 562.32 163.6 574.02 196 584.64C229.2 595.62 261.3 605.7 294.8 607.14C305.6 607.59 316.5 607.14 327.5 605.52C369 599.13 410.6 595.44 453.4 585.63C501 574.74 530.4 547.74 555.3 514.62C561 506.97 566.7 499.32 572.3 491.76C588.9 469.62 605.9 448.92 632.1 437.58C646.9 431.19 664.4 427.32 685.6 427.59C738.4 428.04 773.6 461.7 818.1 471.42C824 472.68 830 473.49 836.1 473.85C866.2 475.47 897.5 465.39 920.3 444.96C947.7 420.48 961.8 381.87 957.1 344.88C953.2 313.2 937.4 284.13 927.3 253.71C909.8 201.42 909.8 143.64 926.8 91.98C936 64.08 950.1 38.07 968.8 15.3C1002.8 -26.28 1051.5 -56.7 1106.1 -73.53C1137.3 -83.07 1170.4 -87.84 1203.6 -87.12" stroke="#3EA6E6" stroke-miterlimit="10"/>
<path d="M-84.5 621.9C-43.4 584.01 30.4 562.77 99.6 571.05C134.5 575.1 167.5 585.54 199.6 594.72C232.5 604.08 263.9 612.36 296.8 612.54C307.4 612.63 318 611.82 328.8 609.84C369.4 602.37 409.9 597.33 452.5 587.16C499.3 576 529.3 550.26 554.9 519.3C560.8 512.19 566.7 505.08 572.5 498.06C589.6 477.63 606.8 458.73 633 448.47C647.9 442.62 665.3 439.2 686.1 439.11C738.2 438.93 773.2 468.81 816.2 476.01C821.9 477 827.7 477.45 833.5 477.45C862.4 477.63 892.1 466.74 913.8 446.04C939.8 421.2 953.1 383.04 949 346.32C945.5 314.82 931 285.57 922 255.15C906.3 202.77 907.6 145.35 925.5 94.23C935.2 66.51 949.8 40.95 968.7 18.45C1003.2 -22.41 1052 -52.2 1106.7 -68.85C1137.9 -78.39 1170.8 -83.25 1203.9 -82.71" stroke="#43A0E8" stroke-miterlimit="10"/>
<path d="M-80.1001 629.73C-38.4001 596.16 34.8999 576.99 103.6 584.19C138.3 587.79 171.3 596.97 203 604.53C235.5 612.36 266.3 618.84 298.6 617.67C309 617.31 319.4 616.14 329.9 613.89C369.6 605.25 409 598.86 451.3 588.33C497.4 576.9 527.9 552.33 554.3 523.71C560.4 517.05 566.5 510.57 572.5 504.18C590 485.46 607.6 468.45 633.8 459.18C648.8 453.87 666 450.54 686.5 450.36C737.9 449.82 772.8 475.65 814.2 480.33C819.7 480.96 825.3 481.05 830.8 480.87C858.4 479.7 886.7 467.91 907.2 446.94C931.9 421.74 944.4 383.94 940.8 347.67C937.7 316.35 924.5 287.01 916.5 256.5C902.7 204.12 905.2 146.97 923.9 96.48C934.1 68.94 949.1 43.74 968.3 21.69C1003.3 -18.45 1052.2 -47.52 1107 -64.17C1138.1 -73.62 1170.9 -78.57 1203.9 -78.39" stroke="#4999E9" stroke-miterlimit="10"/>
<path d="M-75.6001 637.65C-33.3001 608.4 39.4999 591.21 107.7 597.51C142.2 600.57 175.1 608.49 206.5 614.61C238.7 620.82 268.8 625.5 300.5 623.07C310.7 622.26 320.8 620.82 331.1 618.21C369.9 608.4 408.2 600.66 450.3 589.86C495.6 578.16 526.7 554.85 553.8 528.39C560.1 522.27 566.4 516.33 572.5 510.48C590.5 493.47 608.3 478.26 634.5 470.07C649.5 465.3 666.7 462.24 686.8 461.79C737.6 460.62 772.3 482.67 812.1 484.83C817.4 485.1 822.7 484.92 828.1 484.38C854.5 481.77 881.3 469.17 900.7 447.93C924 422.37 935.8 385.02 932.7 349.11C930 317.97 918 288.45 911.2 257.94C899.2 205.56 903.1 148.68 922.5 98.82C933.2 71.46 948.6 46.62 968.1 24.93C1003.5 -14.49 1052.5 -42.84 1107.4 -59.49C1138.5 -68.94 1171.2 -73.98 1204.1 -74.07" stroke="#4F92EA" stroke-miterlimit="10"/>
<path d="M-71.1001 645.57C-28.3001 620.64 44.1999 605.52 111.9 610.83C146.3 613.35 179 620.1 210.1 624.6C242 629.28 271.5 632.07 302.5 628.38C312.5 627.21 322.4 625.32 332.4 622.44C370.3 611.55 407.6 602.37 449.3 591.21C493.9 579.33 525.5 557.1 553.4 532.98C559.9 527.31 566.4 522 572.7 516.78C591.2 501.57 609.3 488.16 635.4 480.96C650.5 476.82 667.6 473.94 687.3 473.22C737.4 471.51 771.9 489.78 810.2 489.33C815.3 489.24 820.4 488.79 825.5 487.98C850.7 483.93 875.9 470.52 894.2 449.01C916.1 423.09 927.2 386.19 924.6 350.55C922.3 319.5 911.7 289.89 905.8 259.29C895.8 206.91 900.8 150.3 921.1 101.07C932.3 73.89 948.1 49.5 967.9 28.17C1003.8 -10.53 1052.9 -38.16 1107.9 -54.72C1138.9 -64.08 1171.5 -69.21 1204.3 -69.57" stroke="#548BEC" stroke-miterlimit="10"/>
<path d="M-66.6001 653.49C-23.2001 632.88 48.7999 619.92 116 624.06C150.2 626.22 182.8 631.53 213.6 634.59C245.1 637.65 274 638.64 304.4 633.69C314.2 632.07 323.8 629.82 333.6 626.67C370.5 614.61 406.8 604.17 448.3 592.65C492.2 580.5 524.4 559.53 553 537.57C559.7 532.44 566.4 527.67 572.9 522.99C591.8 509.49 610.2 497.97 636.3 491.76C651.5 488.16 668.5 485.55 687.8 484.65C737.2 482.4 771.6 496.8 808.3 493.83C813.2 493.47 818.1 492.66 822.9 491.58C846.9 486.09 870.6 471.87 887.7 450.09C908.3 423.81 918.6 387.27 916.4 352.08C914.5 321.21 905.2 291.51 900.4 260.82C892.2 208.44 898.5 152.1 919.6 103.5C931.3 76.5 947.6 52.47 967.6 31.59C1004 -6.39 1053.2 -33.3 1108.2 -49.86C1139.1 -59.22 1171.7 -64.35 1204.3 -65.07" stroke="#5A84ED" stroke-miterlimit="10"/>
<path d="M-62.2 661.41C-18.2 645.12 53.3 634.23 120.1 637.38C154.2 639 186.6 643.14 217.1 644.58C248.3 646.11 276.5 645.3 306.3 639C315.8 637.02 325.3 634.41 334.8 630.9C370.8 617.67 406 605.88 447.2 594.09C490.3 581.67 523.1 561.96 552.4 542.25C559.3 537.66 566.2 533.43 572.9 529.29C592.3 517.5 611 507.78 637 502.65C652.3 499.59 669.1 497.16 688.1 496.08C736.8 493.2 771.1 503.82 806.2 498.33C810.9 497.61 815.6 496.44 820.1 495.09C842.9 488.16 865.1 473.13 881 451.08C900.2 424.53 909.8 388.35 908.1 353.43C906.7 322.74 898.5 292.86 894.9 262.17C888.6 209.79 896.1 153.72 918.1 105.75C930.3 78.93 947 55.26 967.3 34.74C1004.2 -2.51999 1053.5 -28.71 1108.6 -45.27C1139.5 -54.54 1171.9 -59.85 1204.5 -60.75" stroke="#607DEE" stroke-miterlimit="10"/>
<path d="M-57.7 669.33C-13.1 657.27 57.9 648.54 124.2 650.7C158.1 651.78 190.4 654.66 220.6 654.66C251.5 654.66 279 651.96 308.2 644.4C317.5 641.97 326.7 639 336 635.22C371.1 620.82 405.2 607.77 446.2 595.53C488.6 582.93 522 564.3 552 546.93C559.1 542.79 566.2 539.19 573 535.68C592.8 525.6 611.9 517.77 637.8 513.63C653.2 511.2 669.9 508.95 688.5 507.6C736.5 504.18 770.7 510.84 804.2 502.92C808.7 501.84 813.1 500.4 817.5 498.78C839.1 490.5 859.7 474.57 874.6 452.25C892.5 425.34 901.3 389.61 900.1 355.05C899.1 324.54 892.2 294.57 889.6 263.79C885.1 211.41 894 155.61 916.7 108.27C929.5 81.72 946.5 58.32 967.2 38.25C1004.6 1.70999 1054 -23.76 1109.2 -40.32C1140 -49.59 1172.3 -54.9 1204.8 -56.16" stroke="#6576F0" stroke-miterlimit="10"/>
<path d="M-53.2 677.16C-7.99995 669.42 62.5 662.67 128.4 663.84C162.2 664.47 194.3 666.09 224.1 664.47C254.6 662.85 281.5 658.35 310.1 649.53C319.2 646.65 328.2 643.32 337.2 639.27C371.4 623.7 404.4 609.3 445.2 596.79C486.9 583.92 520.9 566.55 551.5 551.34C558.8 547.74 566 544.59 573.1 541.71C593.4 533.34 612.7 527.4 638.6 524.25C654.1 522.36 670.7 520.38 689 518.85C736.3 514.8 770.3 517.68 802.3 507.24C806.6 505.8 810.8 504.09 814.9 502.11C835.3 492.39 854.4 475.65 868.1 453.06C884.6 425.79 892.7 390.42 892 356.31C891.4 325.89 885.8 295.83 884.3 265.05C881.7 212.58 891.8 157.14 915.3 110.43C928.6 84.06 946.1 61.11 967 41.31C1004.9 5.49 1054.4 -19.26 1109.6 -35.73C1140.4 -44.91 1172.6 -50.4 1204.9 -51.84" stroke="#6B70F1" stroke-miterlimit="10"/>
<path d="M-48.7 685.08C-2.99995 681.66 67.1001 676.98 132.5 677.16C166.1 677.25 198.1 677.7 227.6 674.46C257.8 671.31 284.1 665.01 312 654.84C320.9 651.6 329.7 647.91 338.4 643.5C371.7 626.76 403.6 611.1 444.1 598.14C485 585.09 519.6 568.89 551 555.93C558.5 552.87 565.9 550.26 573.2 548.01C593.9 541.35 613.6 537.3 639.4 535.23C654.9 533.97 671.5 532.17 689.4 530.37C736 525.78 769.9 524.79 800.3 511.83C804.4 510.03 808.4 508.05 812.2 505.8C831.4 494.64 848.9 477.09 861.5 454.23C876.6 426.6 884 391.68 883.8 357.84C883.6 327.6 879.3 297.45 878.8 266.58C878 214.11 889.5 158.94 913.8 112.86C927.6 86.67 945.5 64.08 966.7 44.73C1005.1 9.54002 1054.7 -14.4 1110 -30.87C1140.7 -40.05 1172.8 -45.54 1205.1 -47.34" stroke="#7069F3" stroke-miterlimit="10"/>
<path d="M-44.3 693C1.99995 693.9 71.6 691.2 136.5 690.48C169.9 690.03 201.8 689.22 231 684.54C260.9 679.77 286.5 671.67 313.8 660.24C322.5 656.55 331 652.5 339.4 647.82C371.8 629.91 402.6 612.9 442.9 599.67C483.1 586.44 518.3 571.41 550.3 560.61C558 558 565.6 556.02 573 554.31C594.1 549.36 614.2 547.2 639.9 546.12C655.5 545.4 672 543.78 689.5 541.8C735.4 536.58 769.2 531.81 798 516.24C801.9 514.17 805.7 511.74 809.3 509.22C827.3 496.62 843.3 478.26 854.8 455.13C868.6 427.14 875.2 392.67 875.5 359.19C875.8 329.13 872.6 298.8 873.3 267.93C874.4 215.46 887.1 160.56 912.2 115.11C926.5 89.1 944.8 66.87 966.3 47.88C1005.2 13.41 1054.9 -9.81 1110.3 -26.28C1141 -35.37 1172.9 -41.04 1205.1 -43.11" stroke="#7662F4" stroke-miterlimit="10"/>
<path d="M-39.8 700.92C7.09995 706.14 76.2999 705.51 140.7 703.71C174 702.81 205.7 700.74 234.6 694.44C264.1 688.14 289.1 678.24 315.8 665.46C324.3 661.41 332.6 656.91 340.7 651.96C372.1 632.88 401.9 614.61 441.9 600.93C481.4 587.43 517.2 573.66 549.9 565.11C557.8 563.04 565.6 561.6 573.2 560.43C594.8 557.19 615.1 556.29 640.8 556.83C656.5 557.1 672.8 555.3 690 553.05C735.2 547.29 768.8 538.56 796.1 520.56C799.8 518.13 803.3 515.43 806.7 512.64C823.5 498.6 838 479.43 848.3 456.03C860.7 427.68 866.6 393.57 867.4 360.54C868.1 330.66 866.2 300.15 867.9 269.28C870.8 216.81 884.9 162.18 910.7 117.27C925.6 91.44 944.2 69.66 966 51.03C1005.4 17.28 1055.2 -5.22 1110.6 -21.6C1141.2 -30.69 1173.1 -36.36 1205.1 -38.7" stroke="#7C5BF5" stroke-miterlimit="10"/>
<path d="M-35.3 708.84C12.2 718.38 80.9 719.64 144.8 717.03C177.9 715.5 209.6 712.26 238.1 704.52C267.3 696.6 291.6 684.9 317.7 670.86C326 666.36 334 661.59 341.9 656.28C372.4 635.94 401.2 616.5 440.9 602.46C479.6 588.78 516.1 576.27 549.5 569.79C557.6 568.26 565.6 567.36 573.4 566.82C595.4 565.29 616.1 567 641.8 567.81C657.6 568.35 673.8 567 690.6 564.66C735.1 558.27 768.6 545.76 794.3 525.24C797.8 522.45 801.1 519.48 804.2 516.42C819.8 501.03 832.7 480.96 841.9 457.29C853 428.58 858.1 394.92 859.3 362.16C860.5 332.37 859.7 301.86 862.6 270.81C867.2 218.34 882.7 163.98 909.4 119.7C924.8 94.05 943.9 72.63 965.9 54.45C1005.8 21.42 1055.6 -0.450003 1111.2 -16.74C1141.8 -25.74 1173.5 -31.59 1205.5 -34.2" stroke="#8154F7" stroke-miterlimit="10"/>
<path d="M-30.8999 716.76C17.2001 730.62 85.4001 733.95 148.9 730.26C181.9 728.28 213.4 723.78 241.6 714.42C270.5 704.97 294.2 691.47 319.6 675.99C327.7 671.13 335.5 665.91 343.1 660.33C372.7 638.82 400.4 618.12 439.9 603.63C477.9 589.77 515 578.43 549 574.2C557.3 573.21 565.5 572.94 573.5 572.85C595.9 572.58 617 576.63 642.6 578.43C658.5 579.51 674.6 578.43 691 575.82C734.8 568.8 768.1 552.42 792.3 529.47C795.6 526.32 798.7 522.99 801.6 519.66C815.9 502.83 827.4 481.95 835.5 458.01C845.2 429.03 849.6 395.73 851.3 363.33C852.9 333.72 853.4 303.03 857.3 271.98C863.8 219.51 880.6 165.42 908 121.77C923.9 96.39 943.4 75.24 965.7 57.42C1006 25.11 1056 3.95999 1111.7 -12.33C1142.2 -21.24 1173.8 -27.18 1205.7 -30.06" stroke="#874DF8" stroke-miterlimit="10"/>
<path d="M-26.3999 724.68C22.2001 742.77 90.0001 748.26 153 743.58C185.8 741.06 217.2 735.3 245.1 724.5C273.6 713.43 296.7 698.13 321.5 681.39C329.4 676.08 336.9 670.5 344.3 664.65C373 641.97 399.6 619.92 438.8 605.16C476.1 591.03 513.8 581.04 548.5 578.88C557 578.34 565.4 578.61 573.5 579.24C596.4 581.04 617.7 586.62 643.3 589.41C659.3 591.12 675.3 590.22 691.3 587.34C734.4 579.69 767.6 559.53 790.2 534.06C793.3 530.55 796.2 526.95 798.8 523.35C811.9 505.08 821.9 483.39 828.8 459.18C837.1 429.84 840.8 396.9 843 364.95C845 335.52 846.8 304.74 851.8 273.6C860.1 221.13 878.3 167.4 906.4 124.29C922.9 99.09 942.7 78.3 965.4 60.93C1006.2 29.34 1056.3 8.90999 1112 -7.38001C1142.5 -16.29 1174 -22.32 1205.7 -25.47" stroke="#8D46F9" stroke-miterlimit="10"/>
<path d="M-21.8999 732.51C27.3001 754.92 94.6001 762.39 157.1 756.81C189.7 753.75 221 746.82 248.6 734.4C276.8 721.8 299.3 704.7 323.4 686.61C331.1 680.94 338.3 674.91 345.5 668.79C373.2 644.85 398.8 621.63 437.8 606.42C474.4 592.11 512.6 582.93 548 583.38C556.7 583.47 565.3 584.1 573.6 585.36C596.9 588.87 618.6 596.43 644.1 600.12C660.1 602.46 676 601.65 691.7 598.59C734.1 590.4 767.1 566.28 788.2 538.38C791.1 534.6 793.7 530.64 796.1 526.68C808 506.97 816.4 484.47 822.2 459.99C829.2 430.29 832.1 397.8 834.8 366.12C837.3 336.87 840.2 305.91 846.4 274.77C856.6 222.3 876.1 168.84 905 126.36C922 101.34 942.3 81 965.2 63.9C1006.5 33.03 1056.7 13.32 1112.5 -2.88002C1142.9 -11.7 1174.3 -17.82 1206 -21.33" stroke="#9240FB" stroke-miterlimit="10"/>
<path d="M-17.3999 740.43C32.4001 767.16 99.2001 776.7 161.3 770.04C193.8 766.53 224.9 758.25 252.2 744.39C280.1 730.17 301.9 711.27 325.4 691.92C332.8 685.8 339.9 679.5 346.8 673.02C373.6 647.91 398.2 623.43 436.8 607.86C472.7 593.37 511.5 585.81 547.6 588.06C556.5 588.6 565.2 589.86 573.8 591.75C597.6 596.88 619.5 606.42 645 611.1C661.1 614.07 676.9 613.44 692.2 610.2C733.9 601.38 766.7 573.48 786.3 543.06C789 538.92 791.4 534.69 793.5 530.46C804.2 509.31 811.1 486 815.7 461.25C821.3 431.19 823.6 399.15 826.7 367.83C829.7 338.67 833.8 307.62 841 276.48C853 224.01 873.9 170.91 903.5 128.97C921.1 104.22 941.7 84.15 964.9 67.5C1006.7 37.35 1057 18.36 1112.9 2.15999C1143.2 -6.66001 1174.5 -12.78 1206.1 -16.56" stroke="#9839FC" stroke-miterlimit="10"/>
<path d="M-13 748.35C37.4 779.4 103.7 791.01 165.3 783.36C197.6 779.31 228.6 769.86 255.6 754.38C283.1 738.63 304.3 717.93 327.2 697.23C334.4 690.75 341.2 684 347.9 677.25C373.7 650.97 397.3 625.32 435.7 609.3C470.9 594.72 510.2 588.33 547 592.65C556.1 593.73 565 595.53 573.7 597.96C597.9 604.71 620.2 616.32 645.6 621.9C661.8 625.5 677.5 624.96 692.4 621.54C733.4 612 766 580.32 784.1 547.47C786.6 542.97 788.8 538.38 790.7 533.88C800.2 511.38 805.6 487.17 809.1 462.15C813.4 431.73 814.9 400.05 818.5 369.18C821.9 340.2 827.3 309.06 835.6 277.83C849.5 225.27 871.7 172.53 902 131.22C920.1 106.65 941.1 86.94 964.6 70.65C1006.9 41.22 1057.3 22.95 1113.2 6.74999C1143.5 -1.98001 1174.7 -8.28002 1206.1 -12.33" stroke="#9D32FE" stroke-miterlimit="10"/>
<path d="M-8.5 756.27C69.3 810.18 181.9 813.69 259.1 764.37C286.3 747 306.8 724.5 329.1 702.54C363.4 668.7 386.7 631.26 434.6 610.65C477.6 592.11 529.1 588.78 573.8 604.17C598.5 612.63 621 626.13 646.4 632.7C713.9 650.07 770 589.59 788 537.48C806.4 484.38 802.8 426.42 810.3 370.71C820.6 293.58 850.8 198.54 900.5 133.56C952.8 65.25 1026.5 36.63 1113.6 11.61C1143.8 2.88 1174.9 -3.42001 1206.3 -7.74001" stroke="#A32BFF" stroke-miterlimit="10"/>
</g>
<mask id="mask5_8_313" style="mask-type:luminance" maskUnits="userSpaceOnUse" x="0" y="0" width="1200" height="720">
<path d="M1200 0H0V720H1200V0Z" fill="white"/>
</mask>
<g mask="url(#mask5_8_313)">
<path d="M730 606.6C731.105 606.6 732 605.794 732 604.8C732 603.806 731.105 603 730 603C728.895 603 728 603.806 728 604.8C728 605.794 728.895 606.6 730 606.6Z" fill="#2B3640"/>
<path d="M730 585.9C731.105 585.9 732 585.094 732 584.1C732 583.106 731.105 582.3 730 582.3C728.895 582.3 728 583.106 728 584.1C728 585.094 728.895 585.9 730 585.9Z" fill="#2B3640"/>
<path d="M730 565.2C731.105 565.2 732 564.394 732 563.4C732 562.406 731.105 561.6 730 561.6C728.895 561.6 728 562.406 728 563.4C728 564.394 728.895 565.2 730 565.2Z" fill="#2B3640"/>
<path d="M730 544.5C731.105 544.5 732 543.694 732 542.7C732 541.706 731.105 540.9 730 540.9C728.895 540.9 728 541.706 728 542.7C728 543.694 728.895 544.5 730 544.5Z" fill="#2B3640"/>
<path d="M730 523.8C731.105 523.8 732 522.994 732 522C732 521.006 731.105 520.2 730 520.2C728.895 520.2 728 521.006 728 522C728 522.994 728.895 523.8 730 523.8Z" fill="#2B3640"/>
<path d="M755 606.6C756.105 606.6 757 605.794 757 604.8C757 603.806 756.105 603 755 603C753.895 603 753 603.806 753 604.8C753 605.794 753.895 606.6 755 606.6Z" fill="#2B3640"/>
<path d="M755 585.9C756.105 585.9 757 585.094 757 584.1C757 583.106 756.105 582.3 755 582.3C753.895 582.3 753 583.106 753 584.1C753 585.094 753.895 585.9 755 585.9Z" fill="#2B3640"/>
<path d="M755 565.2C756.105 565.2 757 564.394 757 563.4C757 562.406 756.105 561.6 755 561.6C753.895 561.6 753 562.406 753 563.4C753 564.394 753.895 565.2 755 565.2Z" fill="#2B3640"/>
<path d="M755 544.5C756.105 544.5 757 543.694 757 542.7C757 541.706 756.105 540.9 755 540.9C753.895 540.9 753 541.706 753 542.7C753 543.694 753.895 544.5 755 544.5Z" fill="#2B3640"/>
<path d="M755 523.8C756.105 523.8 757 522.994 757 522C757 521.006 756.105 520.2 755 520.2C753.895 520.2 753 521.006 753 522C753 522.994 753.895 523.8 755 523.8Z" fill="#2B3640"/>
<path d="M780 606.6C781.105 606.6 782 605.794 782 604.8C782 603.806 781.105 603 780 603C778.895 603 778 603.806 778 604.8C778 605.794 778.895 606.6 780 606.6Z" fill="#2B3640"/>
<path d="M780 585.9C781.105 585.9 782 585.094 782 584.1C782 583.106 781.105 582.3 780 582.3C778.895 582.3 778 583.106 778 584.1C778 585.094 778.895 585.9 780 585.9Z" fill="#2B3640"/>
<path d="M780 565.2C781.105 565.2 782 564.394 782 563.4C782 562.406 781.105 561.6 780 561.6C778.895 561.6 778 562.406 778 563.4C778 564.394 778.895 565.2 780 565.2Z" fill="#2B3640"/>
<path d="M780 544.5C781.105 544.5 782 543.694 782 542.7C782 541.706 781.105 540.9 780 540.9C778.895 540.9 778 541.706 778 542.7C778 543.694 778.895 544.5 780 544.5Z" fill="#2B3640"/>
<path d="M780 523.8C781.105 523.8 782 522.994 782 522C782 521.006 781.105 520.2 780 520.2C778.895 520.2 778 521.006 778 522C778 522.994 778.895 523.8 780 523.8Z" fill="#2B3640"/>
<path d="M805 606.6C806.105 606.6 807 605.794 807 604.8C807 603.806 806.105 603 805 603C803.895 603 803 603.806 803 604.8C803 605.794 803.895 606.6 805 606.6Z" fill="#2B3640"/>
<path d="M805 585.9C806.105 585.9 807 585.094 807 584.1C807 583.106 806.105 582.3 805 582.3C803.895 582.3 803 583.106 803 584.1C803 585.094 803.895 585.9 805 585.9Z" fill="#2B3640"/>
<path d="M805 565.2C806.105 565.2 807 564.394 807 563.4C807 562.406 806.105 561.6 805 561.6C803.895 561.6 803 562.406 803 563.4C803 564.394 803.895 565.2 805 565.2Z" fill="#2B3640"/>
<path d="M805 544.5C806.105 544.5 807 543.694 807 542.7C807 541.706 806.105 540.9 805 540.9C803.895 540.9 803 541.706 803 542.7C803 543.694 803.895 544.5 805 544.5Z" fill="#2B3640"/>
<path d="M805 523.8C806.105 523.8 807 522.994 807 522C807 521.006 806.105 520.2 805 520.2C803.895 520.2 803 521.006 803 522C803 522.994 803.895 523.8 805 523.8Z" fill="#2B3640"/>
<path d="M830 606.6C831.105 606.6 832 605.794 832 604.8C832 603.806 831.105 603 830 603C828.895 603 828 603.806 828 604.8C828 605.794 828.895 606.6 830 606.6Z" fill="#2B3640"/>
<path d="M830 585.9C831.105 585.9 832 585.094 832 584.1C832 583.106 831.105 582.3 830 582.3C828.895 582.3 828 583.106 828 584.1C828 585.094 828.895 585.9 830 585.9Z" fill="#2B3640"/>
<path d="M830 565.2C831.105 565.2 832 564.394 832 563.4C832 562.406 831.105 561.6 830 561.6C828.895 561.6 828 562.406 828 563.4C828 564.394 828.895 565.2 830 565.2Z" fill="#2B3640"/>
<path d="M830 544.5C831.105 544.5 832 543.694 832 542.7C832 541.706 831.105 540.9 830 540.9C828.895 540.9 828 541.706 828 542.7C828 543.694 828.895 544.5 830 544.5Z" fill="#2B3640"/>
<path d="M830 523.8C831.105 523.8 832 522.994 832 522C832 521.006 831.105 520.2 830 520.2C828.895 520.2 828 521.006 828 522C828 522.994 828.895 523.8 830 523.8Z" fill="#2B3640"/>
<path d="M855 606.6C856.105 606.6 857 605.794 857 604.8C857 603.806 856.105 603 855 603C853.895 603 853 603.806 853 604.8C853 605.794 853.895 606.6 855 606.6Z" fill="#2B3640"/>
<path d="M855 585.9C856.105 585.9 857 585.094 857 584.1C857 583.106 856.105 582.3 855 582.3C853.895 582.3 853 583.106 853 584.1C853 585.094 853.895 585.9 855 585.9Z" fill="#2B3640"/>
<path d="M855 565.2C856.105 565.2 857 564.394 857 563.4C857 562.406 856.105 561.6 855 561.6C853.895 561.6 853 562.406 853 563.4C853 564.394 853.895 565.2 855 565.2Z" fill="#2B3640"/>
<path d="M855 544.5C856.105 544.5 857 543.694 857 542.7C857 541.706 856.105 540.9 855 540.9C853.895 540.9 853 541.706 853 542.7C853 543.694 853.895 544.5 855 544.5Z" fill="#2B3640"/>
<path d="M855 523.8C856.105 523.8 857 522.994 857 522C857 521.006 856.105 520.2 855 520.2C853.895 520.2 853 521.006 853 522C853 522.994 853.895 523.8 855 523.8Z" fill="#2B3640"/>
<path d="M880 606.6C881.105 606.6 882 605.794 882 604.8C882 603.806 881.105 603 880 603C878.895 603 878 603.806 878 604.8C878 605.794 878.895 606.6 880 606.6Z" fill="#2B3640"/>
<path d="M880 585.9C881.105 585.9 882 585.094 882 584.1C882 583.106 881.105 582.3 880 582.3C878.895 582.3 878 583.106 878 584.1C878 585.094 878.895 585.9 880 585.9Z" fill="#2B3640"/>
<path d="M880 565.2C881.105 565.2 882 564.394 882 563.4C882 562.406 881.105 561.6 880 561.6C878.895 561.6 878 562.406 878 563.4C878 564.394 878.895 565.2 880 565.2Z" fill="#2B3640"/>
<path d="M880 544.5C881.105 544.5 882 543.694 882 542.7C882 541.706 881.105 540.9 880 540.9C878.895 540.9 878 541.706 878 542.7C878 543.694 878.895 544.5 880 544.5Z" fill="#2B3640"/>
<path d="M880 523.8C881.105 523.8 882 522.994 882 522C882 521.006 881.105 520.2 880 520.2C878.895 520.2 878 521.006 878 522C878 522.994 878.895 523.8 880 523.8Z" fill="#2B3640"/>
<path d="M905 606.6C906.105 606.6 907 605.794 907 604.8C907 603.806 906.105 603 905 603C903.895 603 903 603.806 903 604.8C903 605.794 903.895 606.6 905 606.6Z" fill="#2B3640"/>
<path d="M905 585.9C906.105 585.9 907 585.094 907 584.1C907 583.106 906.105 582.3 905 582.3C903.895 582.3 903 583.106 903 584.1C903 585.094 903.895 585.9 905 585.9Z" fill="#2B3640"/>
<path d="M905 565.2C906.105 565.2 907 564.394 907 563.4C907 562.406 906.105 561.6 905 561.6C903.895 561.6 903 562.406 903 563.4C903 564.394 903.895 565.2 905 565.2Z" fill="#2B3640"/>
<path d="M905 544.5C906.105 544.5 907 543.694 907 542.7C907 541.706 906.105 540.9 905 540.9C903.895 540.9 903 541.706 903 542.7C903 543.694 903.895 544.5 905 544.5Z" fill="#2B3640"/>
<path d="M905 523.8C906.105 523.8 907 522.994 907 522C907 521.006 906.105 520.2 905 520.2C903.895 520.2 903 521.006 903 522C903 522.994 903.895 523.8 905 523.8Z" fill="#2B3640"/>
<path d="M930 606.6C931.105 606.6 932 605.794 932 604.8C932 603.806 931.105 603 930 603C928.895 603 928 603.806 928 604.8C928 605.794 928.895 606.6 930 606.6Z" fill="#2B3640"/>
<path d="M930 585.9C931.105 585.9 932 585.094 932 584.1C932 583.106 931.105 582.3 930 582.3C928.895 582.3 928 583.106 928 584.1C928 585.094 928.895 585.9 930 585.9Z" fill="#2B3640"/>
<path d="M930 565.2C931.105 565.2 932 564.394 932 563.4C932 562.406 931.105 561.6 930 561.6C928.895 561.6 928 562.406 928 563.4C928 564.394 928.895 565.2 930 565.2Z" fill="#2B3640"/>
<path d="M930 544.5C931.105 544.5 932 543.694 932 542.7C932 541.706 931.105 540.9 930 540.9C928.895 540.9 928 541.706 928 542.7C928 543.694 928.895 544.5 930 544.5Z" fill="#2B3640"/>
<path d="M930 523.8C931.105 523.8 932 522.994 932 522C932 521.006 931.105 520.2 930 520.2C928.895 520.2 928 521.006 928 522C928 522.994 928.895 523.8 930 523.8Z" fill="#2B3640"/>
<path d="M955 606.6C956.105 606.6 957 605.794 957 604.8C957 603.806 956.105 603 955 603C953.895 603 953 603.806 953 604.8C953 605.794 953.895 606.6 955 606.6Z" fill="#2B3640"/>
<path d="M955 585.9C956.105 585.9 957 585.094 957 584.1C957 583.106 956.105 582.3 955 582.3C953.895 582.3 953 583.106 953 584.1C953 585.094 953.895 585.9 955 585.9Z" fill="#2B3640"/>
<path d="M955 565.2C956.105 565.2 957 564.394 957 563.4C957 562.406 956.105 561.6 955 561.6C953.895 561.6 953 562.406 953 563.4C953 564.394 953.895 565.2 955 565.2Z" fill="#2B3640"/>
<path d="M955 544.5C956.105 544.5 957 543.694 957 542.7C957 541.706 956.105 540.9 955 540.9C953.895 540.9 953 541.706 953 542.7C953 543.694 953.895 544.5 955 544.5Z" fill="#2B3640"/>
<path d="M955 523.8C956.105 523.8 957 522.994 957 522C957 521.006 956.105 520.2 955 520.2C953.895 520.2 953 521.006 953 522C953 522.994 953.895 523.8 955 523.8Z" fill="#2B3640"/>
<path d="M980 606.6C981.105 606.6 982 605.794 982 604.8C982 603.806 981.105 603 980 603C978.895 603 978 603.806 978 604.8C978 605.794 978.895 606.6 980 606.6Z" fill="#2B3640"/>
<path d="M980 585.9C981.105 585.9 982 585.094 982 584.1C982 583.106 981.105 582.3 980 582.3C978.895 582.3 978 583.106 978 584.1C978 585.094 978.895 585.9 980 585.9Z" fill="#2B3640"/>
<path d="M980 565.2C981.105 565.2 982 564.394 982 563.4C982 562.406 981.105 561.6 980 561.6C978.895 561.6 978 562.406 978 563.4C978 564.394 978.895 565.2 980 565.2Z" fill="#2B3640"/>
<path d="M980 544.5C981.105 544.5 982 543.694 982 542.7C982 541.706 981.105 540.9 980 540.9C978.895 540.9 978 541.706 978 542.7C978 543.694 978.895 544.5 980 544.5Z" fill="#2B3640"/>
<path d="M980 523.8C981.105 523.8 982 522.994 982 522C982 521.006 981.105 520.2 980 520.2C978.895 520.2 978 521.006 978 522C978 522.994 978.895 523.8 980 523.8Z" fill="#2B3640"/>
<path d="M1005 606.6C1006.1 606.6 1007 605.794 1007 604.8C1007 603.806 1006.1 603 1005 603C1003.9 603 1003 603.806 1003 604.8C1003 605.794 1003.9 606.6 1005 606.6Z" fill="#2B3640"/>
<path d="M1005 585.9C1006.1 585.9 1007 585.094 1007 584.1C1007 583.106 1006.1 582.3 1005 582.3C1003.9 582.3 1003 583.106 1003 584.1C1003 585.094 1003.9 585.9 1005 585.9Z" fill="#2B3640"/>
<path d="M1005 565.2C1006.1 565.2 1007 564.394 1007 563.4C1007 562.406 1006.1 561.6 1005 561.6C1003.9 561.6 1003 562.406 1003 563.4C1003 564.394 1003.9 565.2 1005 565.2Z" fill="#2B3640"/>
<path d="M1005 544.5C1006.1 544.5 1007 543.694 1007 542.7C1007 541.706 1006.1 540.9 1005 540.9C1003.9 540.9 1003 541.706 1003 542.7C1003 543.694 1003.9 544.5 1005 544.5Z" fill="#2B3640"/>
<path d="M1005 523.8C1006.1 523.8 1007 522.994 1007 522C1007 521.006 1006.1 520.2 1005 520.2C1003.9 520.2 1003 521.006 1003 522C1003 522.994 1003.9 523.8 1005 523.8Z" fill="#2B3640"/>
<path d="M1030 606.6C1031.1 606.6 1032 605.794 1032 604.8C1032 603.806 1031.1 603 1030 603C1028.9 603 1028 603.806 1028 604.8C1028 605.794 1028.9 606.6 1030 606.6Z" fill="#2B3640"/>
<path d="M1030 585.9C1031.1 585.9 1032 585.094 1032 584.1C1032 583.106 1031.1 582.3 1030 582.3C1028.9 582.3 1028 583.106 1028 584.1C1028 585.094 1028.9 585.9 1030 585.9Z" fill="#2B3640"/>
<path d="M1030 565.2C1031.1 565.2 1032 564.394 1032 563.4C1032 562.406 1031.1 561.6 1030 561.6C1028.9 561.6 1028 562.406 1028 563.4C1028 564.394 1028.9 565.2 1030 565.2Z" fill="#2B3640"/>
<path d="M1030 544.5C1031.1 544.5 1032 543.694 1032 542.7C1032 541.706 1031.1 540.9 1030 540.9C1028.9 540.9 1028 541.706 1028 542.7C1028 543.694 1028.9 544.5 1030 544.5Z" fill="#2B3640"/>
<path d="M1030 523.8C1031.1 523.8 1032 522.994 1032 522C1032 521.006 1031.1 520.2 1030 520.2C1028.9 520.2 1028 521.006 1028 522C1028 522.994 1028.9 523.8 1030 523.8Z" fill="#2B3640"/>
</g>
</svg>
