<?xml version="1.0" encoding="UTF-8"?>
<!-- Generator: Adobe Illustrator 19.0.0, SVG Export Plug-In . SVG Version: 6.00 Build 0)  -->
<svg xmlns="http://www.w3.org/2000/svg" xmlns:xlink="http://www.w3.org/1999/xlink" version="1.1" id="Layer_1" x="0px" y="0px" width="135px" height="117px" viewBox="0 0 110 95" style="enable-background:new 0 0 110 95;" xml:space="preserve">
<style type="text/css">
	.st0{fill-rule:evenodd;clip-rule:evenodd;fill:#E2F0FF;}
	.st1{fill-rule:evenodd;clip-rule:evenodd;fill:url(#XMLID_185_);}
	.st2{fill-rule:evenodd;clip-rule:evenodd;fill:#092356;}
	.st3{fill-rule:evenodd;clip-rule:evenodd;fill:url(#XMLID_186_);}
	.st4{opacity:0.5;fill-rule:evenodd;clip-rule:evenodd;fill:url(#XMLID_187_);}
	.st5{fill-rule:evenodd;clip-rule:evenodd;fill:url(#XMLID_188_);}
	.st6{fill-rule:evenodd;clip-rule:evenodd;fill:url(#XMLID_189_);}
	.st7{fill-rule:evenodd;clip-rule:evenodd;fill:url(#XMLID_190_);}
	.st8{fill-rule:evenodd;clip-rule:evenodd;fill:#22043D;}
	.st9{fill-rule:evenodd;clip-rule:evenodd;fill:url(#XMLID_191_);}
	.st10{fill-rule:evenodd;clip-rule:evenodd;fill:url(#XMLID_192_);}
	.st11{fill-rule:evenodd;clip-rule:evenodd;fill:url(#XMLID_193_);}
	.st12{opacity:0.5;fill-rule:evenodd;clip-rule:evenodd;fill:url(#XMLID_194_);}
	.st13{fill-rule:evenodd;clip-rule:evenodd;fill:url(#XMLID_195_);}
	.st14{opacity:0.5;fill-rule:evenodd;clip-rule:evenodd;fill:url(#XMLID_196_);}
	.st15{fill-rule:evenodd;clip-rule:evenodd;fill:url(#XMLID_197_);}
	.st16{fill-rule:evenodd;clip-rule:evenodd;fill:url(#XMLID_198_);}
	.st17{fill-rule:evenodd;clip-rule:evenodd;fill:url(#XMLID_199_);}
	.st18{fill-rule:evenodd;clip-rule:evenodd;fill:url(#XMLID_200_);}
	.st19{fill-rule:evenodd;clip-rule:evenodd;fill:#17A0B9;}
	.st20{fill-rule:evenodd;clip-rule:evenodd;fill:url(#XMLID_201_);}
	.st21{fill-rule:evenodd;clip-rule:evenodd;fill:#FCD148;}
	.st22{fill-rule:evenodd;clip-rule:evenodd;fill:#FFFFFF;}
	.st23{fill-rule:evenodd;clip-rule:evenodd;fill:#00CEDC;}
	.st24{fill-rule:evenodd;clip-rule:evenodd;fill:#235DA2;}
	.st25{fill-rule:evenodd;clip-rule:evenodd;fill:#123A76;}
	.st26{fill-rule:evenodd;clip-rule:evenodd;fill:#F9BC23;}
	.st27{fill-rule:evenodd;clip-rule:evenodd;fill:#F2A531;}
	.st28{fill-rule:evenodd;clip-rule:evenodd;fill:url(#XMLID_202_);}
	.st29{fill-rule:evenodd;clip-rule:evenodd;fill:url(#XMLID_203_);}
	.st30{fill-rule:evenodd;clip-rule:evenodd;fill:url(#XMLID_204_);}
	.st31{fill-rule:evenodd;clip-rule:evenodd;fill:url(#XMLID_205_);}
	.st32{fill-rule:evenodd;clip-rule:evenodd;fill:#1C8DF3;}
	.st33{fill-rule:evenodd;clip-rule:evenodd;fill:url(#XMLID_206_);}
	.st34{fill-rule:evenodd;clip-rule:evenodd;fill:url(#XMLID_207_);}
	.st35{fill-rule:evenodd;clip-rule:evenodd;fill:url(#XMLID_208_);}
	.st36{fill-rule:evenodd;clip-rule:evenodd;fill:url(#XMLID_209_);}
	.st37{fill-rule:evenodd;clip-rule:evenodd;fill:#0C2B63;}
	.st38{fill-rule:evenodd;clip-rule:evenodd;fill:#1D5193;}
	.st39{fill-rule:evenodd;clip-rule:evenodd;fill:#0E306C;}
	.st40{fill-rule:evenodd;clip-rule:evenodd;fill:#0E2E63;}
	.st41{fill-rule:evenodd;clip-rule:evenodd;fill:url(#XMLID_210_);}
	.st42{opacity:0.5;fill-rule:evenodd;clip-rule:evenodd;fill:url(#XMLID_211_);}
	.st43{fill-rule:evenodd;clip-rule:evenodd;fill:url(#XMLID_212_);}
	.st44{fill-rule:evenodd;clip-rule:evenodd;fill:url(#XMLID_213_);}
	.st45{fill-rule:evenodd;clip-rule:evenodd;fill:url(#XMLID_214_);}
	.st46{opacity:0.5;fill-rule:evenodd;clip-rule:evenodd;fill:url(#XMLID_215_);}
	.st47{fill-rule:evenodd;clip-rule:evenodd;fill:url(#XMLID_216_);}
	.st48{fill-rule:evenodd;clip-rule:evenodd;fill:url(#XMLID_217_);}
	.st49{fill-rule:evenodd;clip-rule:evenodd;fill:url(#XMLID_218_);}
	.st50{fill-rule:evenodd;clip-rule:evenodd;fill:url(#XMLID_219_);}
	.st51{fill-rule:evenodd;clip-rule:evenodd;fill:#FFA698;}
	.st52{fill-rule:evenodd;clip-rule:evenodd;fill:url(#XMLID_220_);}
	.st53{fill-rule:evenodd;clip-rule:evenodd;fill:url(#XMLID_221_);}
	.st54{fill-rule:evenodd;clip-rule:evenodd;fill:url(#XMLID_222_);}
	.st55{fill-rule:evenodd;clip-rule:evenodd;fill:#FF8978;}
	.st56{fill-rule:evenodd;clip-rule:evenodd;fill:#149FED;}
	.st57{fill-rule:evenodd;clip-rule:evenodd;fill:#F1920E;}
	.st58{fill-rule:evenodd;clip-rule:evenodd;fill:url(#XMLID_223_);}
	.st59{fill-rule:evenodd;clip-rule:evenodd;fill:#FFD463;}
	.st60{fill-rule:evenodd;clip-rule:evenodd;fill:#FFC426;}
	.st61{fill-rule:evenodd;clip-rule:evenodd;fill:#783C18;}
	.st62{fill-rule:evenodd;clip-rule:evenodd;fill:#0FACE8;}
	.st63{fill-rule:evenodd;clip-rule:evenodd;fill:url(#XMLID_224_);}
	.st64{fill-rule:evenodd;clip-rule:evenodd;fill:url(#XMLID_225_);}
	.st65{fill-rule:evenodd;clip-rule:evenodd;fill:url(#XMLID_226_);}
	.st66{fill-rule:evenodd;clip-rule:evenodd;fill:url(#XMLID_227_);}
	.st67{fill-rule:evenodd;clip-rule:evenodd;fill:url(#XMLID_228_);}
	.st68{fill-rule:evenodd;clip-rule:evenodd;fill:url(#XMLID_229_);}
	.st69{fill-rule:evenodd;clip-rule:evenodd;fill:url(#XMLID_230_);}
	.st70{opacity:0.5;fill-rule:evenodd;clip-rule:evenodd;fill:url(#XMLID_231_);}
	.st71{fill-rule:evenodd;clip-rule:evenodd;fill:url(#XMLID_232_);}
	.st72{fill-rule:evenodd;clip-rule:evenodd;fill:url(#XMLID_233_);}
	.st73{fill-rule:evenodd;clip-rule:evenodd;fill:url(#XMLID_234_);}
	.st74{opacity:0.5;fill-rule:evenodd;clip-rule:evenodd;fill:url(#XMLID_235_);}
	.st75{fill-rule:evenodd;clip-rule:evenodd;fill:url(#XMLID_236_);}
	.st76{fill-rule:evenodd;clip-rule:evenodd;fill:url(#XMLID_237_);}
	.st77{fill-rule:evenodd;clip-rule:evenodd;fill:url(#XMLID_238_);}
	.st78{fill-rule:evenodd;clip-rule:evenodd;fill:url(#XMLID_239_);}
	.st79{fill-rule:evenodd;clip-rule:evenodd;fill:url(#XMLID_240_);}
	.st80{fill-rule:evenodd;clip-rule:evenodd;fill:url(#XMLID_241_);}
	.st81{fill-rule:evenodd;clip-rule:evenodd;fill:url(#XMLID_242_);}
	.st82{fill-rule:evenodd;clip-rule:evenodd;fill:url(#XMLID_243_);}
	.st83{fill-rule:evenodd;clip-rule:evenodd;fill:url(#XMLID_244_);}
	.st84{fill-rule:evenodd;clip-rule:evenodd;fill:url(#XMLID_245_);}
	.st85{fill-rule:evenodd;clip-rule:evenodd;fill:url(#XMLID_246_);}
	.st86{fill-rule:evenodd;clip-rule:evenodd;fill:url(#XMLID_247_);}
	.st87{fill-rule:evenodd;clip-rule:evenodd;fill:url(#XMLID_248_);}
	.st88{opacity:0.5;fill-rule:evenodd;clip-rule:evenodd;fill:url(#XMLID_249_);}
	.st89{fill-rule:evenodd;clip-rule:evenodd;fill:url(#XMLID_250_);}
	.st90{fill-rule:evenodd;clip-rule:evenodd;fill:url(#XMLID_251_);}
	.st91{fill-rule:evenodd;clip-rule:evenodd;fill:url(#XMLID_252_);}
	.st92{fill-rule:evenodd;clip-rule:evenodd;fill:url(#XMLID_253_);}
	.st93{fill-rule:evenodd;clip-rule:evenodd;fill:url(#XMLID_254_);}
	.st94{fill-rule:evenodd;clip-rule:evenodd;fill:url(#XMLID_255_);}
	.st95{fill-rule:evenodd;clip-rule:evenodd;fill:url(#XMLID_256_);}
	.st96{opacity:0.5;fill-rule:evenodd;clip-rule:evenodd;fill:url(#XMLID_257_);}
	.st97{fill-rule:evenodd;clip-rule:evenodd;fill:url(#XMLID_258_);}
	.st98{fill-rule:evenodd;clip-rule:evenodd;fill:url(#XMLID_259_);}
	.st99{fill-rule:evenodd;clip-rule:evenodd;fill:url(#XMLID_260_);}
	.st100{opacity:0.5;fill-rule:evenodd;clip-rule:evenodd;fill:url(#XMLID_261_);}
	.st101{fill-rule:evenodd;clip-rule:evenodd;fill:#20589B;}
	.st102{fill-rule:evenodd;clip-rule:evenodd;fill:url(#XMLID_262_);}
	.st103{fill-rule:evenodd;clip-rule:evenodd;fill:url(#XMLID_263_);}
	.st104{fill-rule:evenodd;clip-rule:evenodd;fill:url(#XMLID_264_);}
	.st105{fill-rule:evenodd;clip-rule:evenodd;fill:url(#XMLID_265_);}
	.st106{fill-rule:evenodd;clip-rule:evenodd;fill:url(#XMLID_266_);}
	.st107{fill-rule:evenodd;clip-rule:evenodd;fill:url(#XMLID_267_);}
	.st108{fill-rule:evenodd;clip-rule:evenodd;fill:#DAEAFA;}
	.st109{fill-rule:evenodd;clip-rule:evenodd;fill:#B9D5F1;}
	.st110{fill-rule:evenodd;clip-rule:evenodd;fill:#159DED;}
	.st111{fill-rule:evenodd;clip-rule:evenodd;fill:#FFA899;}
	.st112{fill-rule:evenodd;clip-rule:evenodd;fill:url(#XMLID_268_);}
	.st113{fill-rule:evenodd;clip-rule:evenodd;fill:url(#XMLID_269_);}
</style>
<g>
	<g>
		<path id="XMLID_183_" class="st0" d="M37.8,62.7l8.2-4.6c0.9-0.4,2.2-0.7,3.1-0.3c0.8,0.4,2.2,1.3,2.8,1.7c0.5,0.3,2,1.2,1.1,1.7    c-2.9,1.6-5.8,3.4-8.7,5c-0.6,0.3-1.4,0.4-2.2,0.3c-0.9-0.1-1.7-0.3-2.4-0.7c-0.5-0.3-1-0.6-1.4-0.8c-0.6-0.4-1-0.8-1-1.2    C37,63.3,37.2,62.9,37.8,62.7z"></path>
		<g>
			<linearGradient id="XMLID_185_" gradientUnits="userSpaceOnUse" x1="45.5596" y1="56.9698" x2="45.267" y2="59.5218">
				<stop offset="0" style="stop-color:#FF8A78"></stop>
				<stop offset="1" style="stop-color:#FFA799"></stop>
			</linearGradient>
			<path id="XMLID_182_" class="st1" d="M46.5,55c-0.1,0.2,0.1,0.6,0.1,0.6c0.6,0.8-0.1,0.8-0.1,1.9c0,0.1-0.5,2-0.5,2     s-1.1,0.3-1.2,0.3c-0.1,0-0.8-0.3-0.8-0.3c0.1-0.1,0.1-0.3,0.2-0.4c0.3-0.6,0.5-1.4,0.6-2.2c0.1-0.5,0.2-1.3,0.1-1.9L46.5,55z"></path>
			<path id="XMLID_181_" class="st2" d="M44,59.5c-0.2,0.3-0.2,0.5-0.3,0.8c0,0.1,0,0.2,0,0.3c0.3,0.4,1.6-0.2,2.1-0.6     c0.3-0.3,0.3-0.6,0.4-0.9c0.1-0.6,0.1-0.6,0.3-1.2l0.1,1.6l0.1,0.1c0-0.6,0.1-1.5,0.3-2c0-0.2,0.1-0.5,0.1-0.6     c0.1-0.7-0.3-1.1-0.6-1.3c0.1,0.4-0.3,1.1-0.5,2C45.9,58.6,45,59.5,44,59.5z"></path>
			<linearGradient id="XMLID_186_" gradientUnits="userSpaceOnUse" x1="37.6387" y1="37.3156" x2="45.6129" y2="46.4799">
				<stop offset="0" style="stop-color:#235DA3"></stop>
				<stop offset="1" style="stop-color:#123A76"></stop>
			</linearGradient>
			<path id="XMLID_180_" class="st3" d="M39,33.2c0.1,0.5-0.4,2.2-0.3,2.8c0.1,2.1,0.5,3.9,1.9,8.2c0,0,1.3,2.6,1.4,2.9     c0.9,2.8,2,5.8,2.9,8.6c0.3,0.3,1.4,0.2,1.5-0.5c-0.3-2.8,0-5.6-0.5-7.5c-0.4-1.5-0.8-2.1-1.6-3.2c-0.2-2.7-0.4-8.3-1-10.4     L39,33.2z"></path>
			<linearGradient id="XMLID_187_" gradientUnits="userSpaceOnUse" x1="39.5476" y1="34.8121" x2="44.1838" y2="44.7937">
				<stop offset="0" style="stop-color:#235DA3"></stop>
				<stop offset="1" style="stop-color:#123A76"></stop>
			</linearGradient>
			<path id="XMLID_179_" class="st4" d="M39,33.2c0.1,0.5,0.2,1.8,0.3,2.4c1.4,2.9,1.4,4.8,2.5,8.8l1.3,5.8c0.6,1.8,1.3,3.7,1.9,5.5     c0.3,0.3,1.4,0.2,1.5-0.5c-0.3-2.8,0-5.6-0.5-7.5c-0.4-1.5-0.8-2.1-1.6-3.2c-0.2-2.7-0.4-8.3-1-10.4L39,33.2z"></path>
			<linearGradient id="XMLID_188_" gradientUnits="userSpaceOnUse" x1="44.1464" y1="61.3348" x2="45.0568" y2="59.0585">
				<stop offset="0" style="stop-color:#FFB89E"></stop>
				<stop offset="1" style="stop-color:#FFA799"></stop>
			</linearGradient>
			<path id="XMLID_178_" class="st5" d="M45.4,57.8c0,0.3,0.1,0.5,0.1,0.8c0,0.4,0.1,0.8,0.1,1.4c0,0.7-0.1,1.5-0.3,2.5     c-0.1,0.3-0.2,0.5-0.3,1l-2,0.3c0.2-0.8,0.5-2.3,0.7-3.6l0.4-2.4L45.4,57.8z"></path>
			<path id="XMLID_177_" class="st2" d="M45.5,58.4c0.1,0.4,0.3,0.6,0.3,1.2c0,0.6-0.2,1.4-0.2,2.1l0,1.1c0,0.6-0.1,1.1-0.9,1.6     c-0.7,0.5-1.3,0.7-1.6,0.5c-0.3-0.1-0.5-0.6-0.1-1.8c0.3-1,0.4-2,0.6-3c-0.1,1.1-0.1,1.4-0.3,2.4c-0.1,0.3-0.1,0.8,0.2,0.8     c1.4,0.2,1.5-0.2,1.6-0.6C45.4,61.6,45.6,59.5,45.5,58.4z"></path>
			<linearGradient id="XMLID_189_" gradientUnits="userSpaceOnUse" x1="37.0265" y1="37.6446" x2="44.7006" y2="46.4641">
				<stop offset="0" style="stop-color:#235DA3"></stop>
				<stop offset="1" style="stop-color:#123A76"></stop>
			</linearGradient>
			<path id="XMLID_176_" class="st6" d="M46,34.9c1.6,2,1.6,3.1,1.3,5.4c-0.2,1.6-0.7,3.5-0.8,6.3c0.1,1.4,0.4,3,0.2,5.3     c-0.1,1.6-0.6,4.5-1,6.4c-0.3,0.6-1.9,0.3-2.1,0c0.1-2.9,0-4.8-0.1-7.1c-0.1-2.2-0.4-4.3-0.6-6.5c-0.1-1.8-0.7-4.3-0.8-6.3     c-0.3-0.9-3.1-4-2.5-4L46,34.9z"></path>
		</g>
		<g>
			<linearGradient id="XMLID_190_" gradientUnits="userSpaceOnUse" x1="47.0331" y1="18.6997" x2="45.6234" y2="27.4295">
				<stop offset="0" style="stop-color:#5A2D68"></stop>
				<stop offset="1" style="stop-color:#22043D"></stop>
			</linearGradient>
			<path id="XMLID_175_" class="st7" d="M41.6,15.3c-0.8-0.1-1.5,0.4-1.8,1.2c-0.4,0.9-0.4,2-0.2,2.6c0.5,2-0.4,2.8-0.8,3.7     c-0.2,0.4-0.2,0.9-0.2,1.5c0,0.7,0.4,1.1,0.8,1.7c0.1,0.6,0.2,1.2,0.5,1.7c0.9,1.9,4.1,2.8,7.1,2.6c2.4-0.1,4.7-1,5.8-1.9     c1.2-1.1,1.3-3.8-0.6-4.1c-0.5-0.1-1-0.2-1.4-0.6c-0.3-0.3,0-1.2,0.1-2.3c0.1-1.1-0.2-2.2-1.8-2.6c-0.6-0.1-1.2-0.2-1.7-0.5     c-1.1-0.7-0.7-2.1-1.9-2.9c-0.7-0.5-1.9-0.6-3.2-0.2C42,15.2,41.8,15.2,41.6,15.3z"></path>
			<path id="XMLID_174_" class="st8" d="M40.8,16.3c-0.1,0.5,0.1,1,0.4,1.4c0.7,1,1.1,1,1.5,2.3c0.7-0.4,1.1-0.5,1.3-0.1     c0.3,0.7,0.1,1.1,0.2,1.8c0.1,1.2,1.5-0.4,2.6,0.5c1.1,0.9,0.3,1.5,0.8,2.8c0.2,0.5,0.3,1.1,0.7,1.3c1.4,0.6,1.9,2.3-0.5,3.1     c-1.5,0.5-3.7,0.4-5.5-0.2c-2.4-0.8-3.9-4.4-3.3-6.1c0.3-0.7,0.9-1.2,0.9-1.8C40,19.4,39.7,18.2,40.8,16.3z"></path>
		</g>
		<g>
			<linearGradient id="XMLID_191_" gradientUnits="userSpaceOnUse" x1="30.1014" y1="28.1981" x2="31.3083" y2="27.8573">
				<stop offset="0" style="stop-color:#FFB89E"></stop>
				<stop offset="1" style="stop-color:#FFA799"></stop>
			</linearGradient>
			<path id="XMLID_173_" class="st9" d="M29.3,25.5c-0.2,0.3,0.2,0.5,0.4,0.5c0.2,0,0.4,0,0.6,0l-0.1,0.1c-0.3,0.1-0.4,0.1-0.7,0.1     l-1-0.1c-0.3,0-0.5,0.1-0.5,0.2c-0.1,0.1,0.1,0.7,0.2,1l0,0c0,0.1,0.3,0.2,0.6,0.2l1.4,0.4l0.1,0c0.8-0.5,1.2-0.6,1.5-0.6     c1.3,0.4,3,1.6,4.2,1.9c0.4,0.1,1,0.3,1.3-0.1c1.6-1.7-0.6-1.1-0.8-1.8c-1.1-0.8-2.8-0.4-4.3-1.2c-0.1-0.1-0.2-0.1-0.3-0.2     c0,0,0,0-0.1,0c-0.5-0.4-1-0.4-1.1-0.4C29.9,25.4,30.2,25.6,29.3,25.5z"></path>
			<linearGradient id="XMLID_192_" gradientUnits="userSpaceOnUse" x1="36.2052" y1="24.4318" x2="38.0948" y2="27.5106">
				<stop offset="0" style="stop-color:#FD90DA"></stop>
				<stop offset="1" style="stop-color:#8E6DFD"></stop>
			</linearGradient>
			<path id="XMLID_172_" class="st10" d="M37.9,29.1c1.1-1.1,2.8-2.6,3.4-3.9c0.4-0.8,0.4-3-0.8-3.3c-0.4-0.3-1,1.4-1.4,2.1     c-0.8,1.2-1.3,1.9-2.2,3.1c-0.9-0.6-2.2-0.7-3.5-1c-0.2,0-0.4-0.1-0.6,0c-0.1,0-0.3-0.1-0.4-0.1c-0.1,0-0.6,0.8-0.5,1.3     c0.1,0,0.3,0.1,0.4,0.1c0.1,0.1,0.2,0.2,0.4,0.3c0.5,0.3,2.7,1.4,3.8,1.6C36.8,29.4,37.5,29.6,37.9,29.1     C37.8,29.2,37.8,29.2,37.9,29.1z"></path>
		</g>
		<linearGradient id="XMLID_193_" gradientUnits="userSpaceOnUse" x1="44.1131" y1="25.3911" x2="41.3244" y2="32.7196">
			<stop offset="0" style="stop-color:#FD90DA"></stop>
			<stop offset="1" style="stop-color:#8E6DFD"></stop>
		</linearGradient>
		<path id="XMLID_171_" class="st11" d="M45.8,30.4c-0.7,1.6,0.5,2.5,0.1,3.7l0.1,0.8c-1.3,0.9-5.9,1-7.1-0.8l0-0.9    c-0.2-0.4-0.1-1.5,0-1.8c0.2-0.9,0.1-1.4,0.2-2.5c0-0.3,0.1-0.4,0.1-0.7c-1-0.8-1-2.3-0.4-3.1c0.4-0.6,0.6-1,0.8-1.4    c0.1-0.3,0.1-0.6,0.2-0.8c0-0.2,0.1-0.3,0.2-0.4c0.3-0.4,0.8-0.5,1.7-0.2c1.9,0.4,3.9,1.4,4.8,2.4c0.6,0.7,0.6,1.4,0.2,3.1    C46.6,28.5,46.2,29.6,45.8,30.4z"></path>
		<linearGradient id="XMLID_194_" gradientUnits="userSpaceOnUse" x1="41.8165" y1="26.2524" x2="44.261" y2="33.1771">
			<stop offset="0" style="stop-color:#FD90DA"></stop>
			<stop offset="1" style="stop-color:#8E6DFD"></stop>
		</linearGradient>
		<path id="XMLID_170_" class="st12" d="M45.8,30.4c-0.7,1.6,0.5,2.5,0.1,3.7l0.1,0.8c-1.3,0.9-5.9,1-7.1-0.8l0-0.9l0-1.8l3.8-0.5    c1.8-0.2,1.3-0.6,1.5-2.6c0.3-2.3,0.7-4.1,2.5-3.6c0.5,0.6,0.4,1.4,0.1,2.9C46.6,28.5,46.2,29.6,45.8,30.4z"></path>
		<g>
			<linearGradient id="XMLID_195_" gradientUnits="userSpaceOnUse" x1="42.3039" y1="34.1459" x2="39.6208" y2="28.7523">
				<stop offset="0" style="stop-color:#1C8EF4"></stop>
				<stop offset="1" style="stop-color:#00CFDD"></stop>
			</linearGradient>
			<path id="XMLID_169_" class="st13" d="M38.1,28.7l4.6-0.9c0.2,0,0.4,0.1,0.4,0.3l1.2,6.2c0,0.2-0.1,0.4-0.3,0.4l-4.6,0.9     c-0.2,0-0.4-0.1-0.4-0.3l-1.2-6.2C37.8,28.9,37.9,28.7,38.1,28.7z"></path>
			<linearGradient id="XMLID_196_" gradientUnits="userSpaceOnUse" x1="40.4106" y1="34.8424" x2="42.3116" y2="31.7867">
				<stop offset="0" style="stop-color:#1C8EF4"></stop>
				<stop offset="1" style="stop-color:#00CFDD"></stop>
			</linearGradient>
			<path id="XMLID_168_" class="st14" d="M43.8,31.4l0.6,2.9c-0.9,0.1-1.6,0.3-2.5,0.2c-0.2,0-0.3-0.2-0.5-0.2     c-0.9,0.6-0.8,0.6-2.6,0.2l-0.5-2.4c1.3,0,1.5,0.2,2.6,0.3C41.4,32.2,42.6,31.7,43.8,31.4z"></path>
			<linearGradient id="XMLID_197_" gradientUnits="userSpaceOnUse" x1="38.8819" y1="33.2287" x2="40.8258" y2="33.863">
				<stop offset="0" style="stop-color:#FFB89E"></stop>
				<stop offset="1" style="stop-color:#FFA799"></stop>
			</linearGradient>
			<path id="XMLID_167_" class="st15" d="M38.4,32.6c-0.2,0.1-0.1,0.6,0,0.9c0.1,0.3,0.1,0.7,0.3,0.8c0.2,0.2,1.1,0.2,1.6,0.2     c0.5,0,0.8-0.4,1.1-0.4c0.3-0.4,0-1-0.2-1.4C40.3,32.9,38.9,32.3,38.4,32.6z"></path>
			<linearGradient id="XMLID_198_" gradientUnits="userSpaceOnUse" x1="42.9367" y1="25.6615" x2="44.9515" y2="31.8624">
				<stop offset="0" style="stop-color:#FD90DA"></stop>
				<stop offset="1" style="stop-color:#8E6DFD"></stop>
			</linearGradient>
			<path id="XMLID_166_" class="st16" d="M47.4,25.4c0.6,1.7,0.2,4.4,0.2,6.9c0,0.5-0.2,0.8-0.5,0.9c-0.1,0.1-0.3,0.2-0.6,0.2     c-1.2,0.4-2.3,0.7-4.3,0.8c-0.2,0-0.3,0-0.4-0.1c-0.1,0-0.3,0-0.5,0c0.2,0,0.1-1.2-0.2-1.4c0.1,0,0.3-0.1,0.4-0.1     c0.1-0.1,0.1-0.2,0.3-0.2c1.1-0.3,2.5-1,3.7-1.2c-0.3-1.3-0.7-2.5-0.7-3.7c-0.1-1.4,0.3-3,1.3-3.2C46.7,24.3,47.1,24.8,47.4,25.4     z"></path>
		</g>
		<g>
			<linearGradient id="XMLID_199_" gradientUnits="userSpaceOnUse" x1="42.8864" y1="21.7098" x2="42.5355" y2="23.1745">
				<stop offset="0" style="stop-color:#FF8A78"></stop>
				<stop offset="1" style="stop-color:#FFA799"></stop>
			</linearGradient>
			<path id="XMLID_165_" class="st17" d="M43.5,20.6c-0.1,0.8-0.1,1.6,0.2,2.4c-0.7,0.6-1.9,0.4-2.2-0.2c0.1-0.4,0.1-0.7,0.2-1.1     L43.5,20.6z"></path>
			<linearGradient id="XMLID_200_" gradientUnits="userSpaceOnUse" x1="40.6558" y1="19.6299" x2="42.5765" y2="20.0281">
				<stop offset="0" style="stop-color:#FFB89E"></stop>
				<stop offset="1" style="stop-color:#FFA799"></stop>
			</linearGradient>
			<path id="XMLID_164_" class="st18" d="M40.7,17.1c-0.3,0.5-0.5,1.1-0.4,1.9c0,0.2,0,0.3-0.1,0.4c-0.3,0.7-0.3,0.9-0.1,1.5     c0.2,0.6,0.1,0.9,0.3,1c0.2,0.2,0.5,0.2,0.7,0.3c0.5,0,1.4-0.3,1.9-0.6c0.4-0.2,0.4-0.3,0.5-0.7c0.5-0.5,0.2-0.8,0-0.8     c-0.5-0.1-0.6,0.5-0.9,0.6C42.7,19.7,40.7,17.9,40.7,17.1z"></path>
		</g>
	</g>
	<g>
		<g>
			<polygon id="XMLID_163_" class="st19" points="29.6,74.2 29.6,87.5 15.2,79.2 15.2,65.9    "></polygon>
			<linearGradient id="XMLID_201_" gradientUnits="userSpaceOnUse" x1="21.7426" y1="71.745" x2="20.3203" y2="82.209">
				<stop offset="0" style="stop-color:#94E69A"></stop>
				<stop offset="1" style="stop-color:#17ADC9"></stop>
			</linearGradient>
			<polygon id="XMLID_162_" class="st20" points="28.2,75 28.1,88.2 13.8,79.9 13.8,66.7    "></polygon>
			<g>
				<path id="XMLID_161_" class="st21" d="M20.4,75.4c0.9,0.5,1.6,1.8,1.6,2.8c0,1-0.7,1.4-1.6,0.9c-0.9-0.5-1.6-1.8-1.6-2.8      C18.8,75.3,19.5,74.8,20.4,75.4z"></path>
				<path id="XMLID_160_" class="st22" d="M18.4,72.2c0.5,0.3,0.9,1,0.9,1.6c0,0.6-0.4,0.8-0.9,0.5c-0.5-0.3-0.9-1-0.9-1.6      C17.5,72.2,17.9,72,18.4,72.2z"></path>
				<path id="XMLID_159_" class="st23" d="M16.2,71.8c0.1,0.1,0.3,0.3,0.3,0.4c0,0.2-0.1,0.2-0.3,0.1c-0.1-0.1-0.3-0.3-0.3-0.4      C16,71.8,16.1,71.7,16.2,71.8z"></path>
				<path id="XMLID_158_" class="st24" d="M23.7,77.4c0.3,0.2,0.5,0.6,0.5,0.9c0,0.3-0.2,0.5-0.5,0.3c-0.3-0.2-0.5-0.6-0.5-0.9      C23.1,77.3,23.4,77.2,23.7,77.4z"></path>
				<path id="XMLID_157_" class="st23" d="M21.5,80.5c0.2,0.1,0.4,0.4,0.4,0.7c0,0.2-0.2,0.3-0.4,0.2c-0.2-0.1-0.4-0.4-0.4-0.7      C21.1,80.5,21.3,80.4,21.5,80.5z"></path>
				<path id="XMLID_156_" class="st24" d="M24.5,81.6c0.2,0.1,0.4,0.4,0.4,0.7c0,0.2-0.2,0.3-0.4,0.2c-0.2-0.1-0.4-0.4-0.4-0.7      C24.1,81.6,24.3,81.5,24.5,81.6z"></path>
				<path id="XMLID_155_" class="st23" d="M21.1,74.1c0.2,0.1,0.3,0.3,0.3,0.5c0,0.2-0.1,0.3-0.3,0.2c-0.2-0.1-0.3-0.3-0.3-0.5      C20.8,74.1,20.9,74,21.1,74.1z"></path>
				<path id="XMLID_154_" class="st24" d="M17.9,78.1c0.2,0.1,0.3,0.3,0.3,0.5c0,0.2-0.1,0.3-0.3,0.2c-0.2-0.1-0.3-0.3-0.3-0.5      C17.6,78.1,17.7,78,17.9,78.1z"></path>
			</g>
		</g>
		<g>
			<g>
				<path id="XMLID_153_" class="st25" d="M25,36.1c-0.1,0.1-0.2,0.3-0.2,0.4c0,0.2,0.1,0.2,0.2,0.1c0.1-0.1,0.2-0.3,0.2-0.4      C25.2,36.1,25.1,36,25,36.1z"></path>
				<path id="XMLID_152_" class="st26" d="M25.8,36.6c-0.3,0.2-0.5,0.6-0.5,0.9c0,0.3,0.2,0.5,0.5,0.3c0.3-0.2,0.5-0.6,0.5-0.9      C26.3,36.5,26.1,36.4,25.8,36.6z"></path>
				<path id="XMLID_151_" class="st25" d="M27.5,36.2c-0.2,0.1-0.3,0.3-0.3,0.5c0,0.2,0.1,0.3,0.3,0.2c0.2-0.1,0.3-0.3,0.3-0.5      C27.8,36.2,27.7,36.1,27.5,36.2z"></path>
			</g>
			<g>
				<path id="XMLID_150_" class="st27" d="M7.8,60.1c-0.6,0.4-1.1,1.2-1.1,2c0,0.7,0.5,1,1.1,0.6c0.6-0.4,1.1-1.2,1.1-2      C8.9,60.1,8.4,59.8,7.8,60.1z"></path>
				<path id="XMLID_149_" class="st25" d="M5.3,61.1c-0.4,0.2-0.6,0.7-0.6,1.1c0,0.4,0.3,0.6,0.6,0.4c0.4-0.2,0.6-0.7,0.6-1.1      C5.9,61.1,5.6,60.9,5.3,61.1z"></path>
				<path id="XMLID_148_" class="st25" d="M7.7,63.6c-0.1,0.1-0.3,0.3-0.3,0.5c0,0.2,0.1,0.2,0.3,0.2C7.9,64.1,8,63.9,8,63.7      C8,63.6,7.9,63.5,7.7,63.6z"></path>
				<path id="XMLID_147_" class="st26" d="M3.8,61.1c-0.1,0.1-0.2,0.2-0.2,0.4c0,0.1,0.1,0.2,0.2,0.1C3.9,61.6,4,61.4,4,61.3      C4,61.1,3.9,61.1,3.8,61.1z"></path>
			</g>
			<g>
				<polygon id="XMLID_146_" class="st27" points="8.5,45.1 8.6,58.2 22.7,50 22.7,37     "></polygon>
				<g>
					<linearGradient id="XMLID_202_" gradientUnits="userSpaceOnUse" x1="16.5677" y1="42.3437" x2="17.4447" y2="53.3491">
						<stop offset="0" style="stop-color:#FDD248"></stop>
						<stop offset="1" style="stop-color:#FABD23"></stop>
					</linearGradient>
					<polygon id="XMLID_145_" class="st28" points="9.9,45.9 10,58.9 24.2,50.8 24.1,37.7      "></polygon>
					<g>
						<g>
							<path id="XMLID_144_" class="st22" d="M23,49.8c-0.2,0.1-0.4,0.4-0.4,0.7c0,0.2,0.2,0.3,0.4,0.2c0.2-0.1,0.4-0.4,0.4-0.7         C23.4,49.8,23.2,49.7,23,49.8z"></path>
							<polygon id="XMLID_143_" class="st22" points="22.9,40.1 22.9,49.5 23.1,49.4 23.1,40        "></polygon>
						</g>
						<g>
							<path id="XMLID_142_" class="st22" d="M20.7,51.1c-0.2,0.1-0.4,0.4-0.4,0.7c0,0.2,0.2,0.3,0.4,0.2c0.2-0.1,0.4-0.4,0.4-0.7         C21,51.1,20.9,51,20.7,51.1z"></path>
							<polygon id="XMLID_141_" class="st22" points="20.6,41.4 20.6,50.8 20.8,50.7 20.8,41.3        "></polygon>
						</g>
						<g>
							<path id="XMLID_140_" class="st22" d="M18.3,52.4c-0.2,0.1-0.4,0.4-0.4,0.7c0,0.2,0.2,0.3,0.4,0.2c0.2-0.1,0.4-0.4,0.4-0.7         C18.7,52.4,18.5,52.3,18.3,52.4z"></path>
							<polygon id="XMLID_139_" class="st22" points="18.2,42.7 18.2,52.2 18.4,52 18.4,42.6        "></polygon>
						</g>
						<g>
							<path id="XMLID_138_" class="st22" d="M16,53.8c-0.2,0.1-0.4,0.4-0.4,0.7c0,0.2,0.2,0.3,0.4,0.2c0.2-0.1,0.4-0.4,0.4-0.7         C16.4,53.8,16.2,53.7,16,53.8z"></path>
							<polygon id="XMLID_137_" class="st22" points="15.9,44.1 15.9,53.5 16.1,53.4 16.1,43.9        "></polygon>
						</g>
						<g>
							<path id="XMLID_136_" class="st22" d="M13.6,55.1c-0.2,0.1-0.4,0.4-0.4,0.7c0,0.2,0.2,0.3,0.4,0.2c0.2-0.1,0.4-0.4,0.4-0.7         C14,55.1,13.8,55,13.6,55.1z"></path>
							<polygon id="XMLID_135_" class="st22" points="13.5,45.4 13.5,54.8 13.7,54.7 13.7,45.3        "></polygon>
						</g>
						<g>
							<path id="XMLID_134_" class="st22" d="M11.3,56.4c-0.2,0.1-0.4,0.4-0.4,0.7c0,0.2,0.2,0.3,0.4,0.2c0.2-0.1,0.4-0.4,0.4-0.7         C11.7,56.4,11.5,56.3,11.3,56.4z"></path>
							<polygon id="XMLID_133_" class="st22" points="11.2,46.7 11.2,56.1 11.4,56 11.4,46.6        "></polygon>
						</g>
						<path id="XMLID_132_" class="st22" d="M10,51.1c0.4,0.2,0.7,0.5,1,0.8c0.5,0.6,1,1.2,1.9,0.9c0.6-0.2,1.1-1.5,1.5-2.9        c0.5-1.5,1.1-3.2,1.8-3.4c0.7-0.2,1,0.9,1.4,2c0.2,0.5,0.3,1.1,0.5,1.5c0.4,0.9,1,1.4,2,1c1-0.5,1.4-2.6,1.8-4.8        c0.3-1.3,0.7-4.9,2.3-5.2l0-0.4c-2,0.3-2.4,3.9-2.7,5.5c-0.4,2.1-0.8,4.1-1.6,4.5c-0.7,0.3-1.2-0.1-1.5-0.8        c-0.2-0.4-0.4-1-0.5-1.5c-0.4-1.3-0.8-2.6-1.8-2.3c-0.9,0.3-1.5,2-2,3.6c-0.4,1.3-0.8,2.5-1.3,2.7c-0.6,0.2-1.1-0.3-1.5-0.8        c-0.4-0.4-0.7-0.8-1.2-1L10,51.1z"></path>
					</g>
				</g>
			</g>
		</g>
		<g>
			<g>
				<linearGradient id="XMLID_203_" gradientUnits="userSpaceOnUse" x1="85.1224" y1="16.2948" x2="85.9021" y2="14.1682">
					<stop offset="0" style="stop-color:#1C8EF4"></stop>
					<stop offset="1" style="stop-color:#00CFDD"></stop>
				</linearGradient>
				<path id="XMLID_131_" class="st29" d="M91.5,16c0,3.3-2.4,4.6-5.2,3c-2.9-1.7-5.2-5.7-5.2-9c0-0.5,0.1-1,0.2-1.5l5,4.5L91.5,16z      "></path>
				<linearGradient id="XMLID_204_" gradientUnits="userSpaceOnUse" x1="88.3081" y1="8.6605" x2="87.9103" y2="11.5451">
					<stop offset="0" style="stop-color:#FDD248"></stop>
					<stop offset="1" style="stop-color:#FABD23"></stop>
				</linearGradient>
				<path id="XMLID_130_" class="st30" d="M86.3,6.8c2.9,1.6,5.2,5.6,5.2,8.9l-5.3-3.1l-1.8-6.5C85,6.2,85.7,6.5,86.3,6.8z"></path>
				<linearGradient id="XMLID_205_" gradientUnits="userSpaceOnUse" x1="83.4588" y1="5.1998" x2="83.2617" y2="7.8468">
					<stop offset="0" style="stop-color:#235DA3"></stop>
					<stop offset="1" style="stop-color:#123A76"></stop>
				</linearGradient>
				<path id="XMLID_129_" class="st31" d="M80.6,7.4c0.4-1.6,1.6-2.4,3.2-2.2l1.8,6.7L80.6,7.4z"></path>
			</g>
			<g>
				<path id="XMLID_128_" class="st26" d="M84.7,4c0.2,0.1,0.4,0.5,0.4,0.7c0,0.3-0.2,0.4-0.4,0.2c-0.2-0.1-0.4-0.5-0.4-0.7      C84.3,3.9,84.5,3.8,84.7,4z"></path>
				<path id="XMLID_127_" class="st26" d="M85.5,3.4c0.1,0,0.1,0.1,0.1,0.2c0,0.1-0.1,0.1-0.1,0.1c-0.1,0-0.1-0.1-0.1-0.2      C85.4,3.4,85.4,3.3,85.5,3.4z"></path>
				<path id="XMLID_126_" class="st26" d="M83.3,3.4c0.1,0.1,0.2,0.3,0.2,0.4C83.5,4,83.4,4,83.3,4C83.1,3.9,83,3.7,83,3.5      C83,3.4,83.1,3.3,83.3,3.4z"></path>
				<path id="XMLID_125_" class="st23" d="M79.6,10.4c0.1,0.1,0.2,0.2,0.2,0.3c0,0.1-0.1,0.2-0.2,0.1c-0.1-0.1-0.2-0.2-0.2-0.3      C79.5,10.4,79.6,10.3,79.6,10.4z"></path>
				<path id="XMLID_124_" class="st23" d="M84.9,19c0.1,0.1,0.2,0.2,0.2,0.3c0,0.1-0.1,0.2-0.2,0.1c-0.1-0.1-0.2-0.2-0.2-0.3      C84.8,19,84.8,19,84.9,19z"></path>
				<path id="XMLID_123_" class="st32" d="M92.9,12.3c0.1,0,0.1,0.2,0.1,0.2c0,0.1-0.1,0.1-0.1,0.1c-0.1,0-0.1-0.2-0.1-0.2      C92.8,12.3,92.8,12.3,92.9,12.3z"></path>
			</g>
		</g>
		<g>
			<g>
				<linearGradient id="XMLID_206_" gradientUnits="userSpaceOnUse" x1="35.7256" y1="5.3726" x2="35.9412" y2="15.3158">
					<stop offset="0" style="stop-color:#FD90DA"></stop>
					<stop offset="1" style="stop-color:#8E6DFD"></stop>
				</linearGradient>
				<polygon id="XMLID_122_" class="st33" points="37,3.3 37,14.6 34.6,15.9 34.6,4.7     "></polygon>
				<g>
					<linearGradient id="XMLID_207_" gradientUnits="userSpaceOnUse" x1="46.7751" y1="7.8158" x2="46.4862" y2="5.29">
						<stop offset="0" style="stop-color:#1C8EF4"></stop>
						<stop offset="1" style="stop-color:#00CFDD"></stop>
					</linearGradient>
					<polygon id="XMLID_121_" class="st34" points="47.7,1.7 47.8,8.7 45.4,10 45.4,3.1      "></polygon>
					<linearGradient id="XMLID_208_" gradientUnits="userSpaceOnUse" x1="39.2715" y1="8.1954" x2="39.4312" y2="10.832">
						<stop offset="0" style="stop-color:#FDD248"></stop>
						<stop offset="1" style="stop-color:#FABD23"></stop>
					</linearGradient>
					<polygon id="XMLID_120_" class="st35" points="40.6,6.7 40.6,12.8 38.2,14.2 38.2,8      "></polygon>
					<linearGradient id="XMLID_209_" gradientUnits="userSpaceOnUse" x1="42.8718" y1="1.2725" x2="43.0628" y2="9.9764">
						<stop offset="0" style="stop-color:#94E69A"></stop>
						<stop offset="1" style="stop-color:#17ADC9"></stop>
					</linearGradient>
					<polygon id="XMLID_119_" class="st36" points="44.2,0.1 44.2,10.7 41.8,12.1 41.8,1.4      "></polygon>
				</g>
			</g>
			<g>
				<polygon id="XMLID_118_" class="st37" points="49.3,2 48.6,2 48.9,2.4 49.4,2.6     "></polygon>
				<polygon id="XMLID_117_" class="st38" points="49.8,0 48.1,1.4 48.8,1.8 50.3,0.2     "></polygon>
				<polygon id="XMLID_116_" class="st37" points="48.6,1.6 48.1,1.4 48.4,1.7 49.1,2.1     "></polygon>
				<polygon id="XMLID_115_" class="st38" points="45.7,6.8 45.2,6.2 48.4,1.7 48.9,2     "></polygon>
				<polygon id="XMLID_114_" class="st37" points="44.8,6.3 44.3,6.1 45.1,7 45.6,7.2     "></polygon>
				<path id="XMLID_113_" class="st38" d="M44.4,5.3c-1.5,2.1-2.4,3.5-3.9,5.6l0.5,0.7l3.9-6.1L44.4,5.3z"></path>
				<polygon id="XMLID_112_" class="st37" points="40,11.1 39.5,10.9 40.3,11.7 40.8,11.9     "></polygon>
				<polygon id="XMLID_111_" class="st38" points="39.6,10.1 35.1,16.5 35.7,16.9 40.1,10.3     "></polygon>
				<polygon id="XMLID_110_" class="st37" points="35.6,16.7 35.1,16.5 35.3,16.8 35.8,17     "></polygon>
				<path id="XMLID_109_" class="st25" d="M48.6,1.6L48.9,2l-3.1,4.4l-0.9-0.8c-1.5,2.1-2.4,3.5-3.9,5.6l-0.9-0.8l-4.5,6.4l0.2,0.3      l4.2-5.9l0.9,0.8c1.5-2.1,2.4-3.6,3.9-5.6l0.9,0.8l3.5-4.9l0.3,0.4l0.9-2.4L48.6,1.6z"></path>
			</g>
		</g>
	</g>
	<g>
		<path id="XMLID_108_" class="st0" d="M104.7,78.1l-11.6-6.6c-1.3-0.6-3.1-1-4.4-0.4c-1.2,0.6-3.1,1.9-4,2.3    c-0.6,0.4-2.9,1.7-1.5,2.5c4.1,2.2,8.2,4.8,12.4,7c0.8,0.4,1.9,0.6,3.2,0.5c1.2-0.1,2.5-0.5,3.4-1c0.7-0.4,1.4-0.8,2.1-1.2    c0.9-0.5,1.4-1.2,1.4-1.7C105.9,78.9,105.5,78.4,104.7,78.1z"></path>
		<g>
			<path id="XMLID_107_" class="st39" d="M86.6,42.2c-0.6-0.2-1-0.7-0.9-1.4c0.2-0.9,1.7-3.6,2.3-5c0.3-0.7,0.8-2.6,1.6-3.7     c0.7-1,1.6-1.4,2.6-0.9c1.8,0.8-0.6,5.9-2.4,8.7C89.3,41,88.1,42.7,86.6,42.2z"></path>
			<g>
				<path id="XMLID_106_" class="st40" d="M99.5,74.4c0.1,0.2,0,0.4,0.1,0.7c0.1,0.3,0.2,0.6,0.4,1.1c0.2,0.8-0.1,1.8,0.2,3      c0.1,0.4,0.1,0.8-0.2,1.2c-0.3,0.4-0.8,1-1.5,1c-0.2,0-0.5-0.1-0.8-0.4c-0.3-0.3-0.5-0.8-0.4-1.3c0-0.2,0.1-0.9,0.1-1.5      c0-0.5-0.1-0.8-0.1-1.4c0-0.6,0.1-1.5,0.1-1.9L99.5,74.4z"></path>
				<path id="XMLID_105_" class="st40" d="M93.3,71.2c0.2,0.6,0.3,0.8,0.4,1.6c-0.1,0.4-0.4,0.6-0.7,0.9l-0.2,0.1      c-0.6,0.3-0.8,1.4-1.3,1.9c-0.4,0.3-1.1,0.5-1.8,0.7c-0.8,0.2-1.5-0.1-1.3-0.7c0.5-1.5,2.7-3.3,2.7-5L93.3,71.2z"></path>
				<linearGradient id="XMLID_210_" gradientUnits="userSpaceOnUse" x1="84.949" y1="54.4911" x2="92.6637" y2="58.6354">
					<stop offset="0" style="stop-color:#235DA3"></stop>
					<stop offset="1" style="stop-color:#123A76"></stop>
				</linearGradient>
				<path id="XMLID_104_" class="st41" d="M90,60.3c0.1,2.9,0.9,8.3,0.8,11.1c0.9,0.6,2.1,0.5,2.6-0.3c0.3-2.7,0.7-6.2,0.7-7.7      c0-1.2-0.1-2.3-0.4-3.4c0.4-3.2,2.3-7.6,1.8-10.6c-0.2-1.3-1.1-2.8-1.3-3.8c-2.2,2.7-3.8,1.4-4.8,1.2c0,0.9-0.1,0.8,0,1.8      c0.1,3.3,0.3,6.8,0.4,10.3C89.8,59.3,89.8,59.9,90,60.3z"></path>
				<linearGradient id="XMLID_211_" gradientUnits="userSpaceOnUse" x1="87.1826" y1="54.0149" x2="93.3359" y2="58.1001">
					<stop offset="0" style="stop-color:#235DA3"></stop>
					<stop offset="1" style="stop-color:#123A76"></stop>
				</linearGradient>
				<path id="XMLID_103_" class="st42" d="M91.3,59.7c0,0,1,4.6,2,11.5c0.3-2.7,0.7-6.2,0.7-7.7c0-1.2-0.1-2.3-0.4-3.4      c0.4-3.2,2.3-7.6,1.8-10.6c-0.2-1.3-1.1-2.8-1.3-3.8c-1.4,1.7-2.6,1.8-3.5,1.6L91.3,59.7z"></path>
				<linearGradient id="XMLID_212_" gradientUnits="userSpaceOnUse" x1="86.6943" y1="55.7404" x2="99.8016" y2="62.683">
					<stop offset="0" style="stop-color:#235DA3"></stop>
					<stop offset="1" style="stop-color:#123A76"></stop>
				</linearGradient>
				<path id="XMLID_102_" class="st43" d="M94.8,62.4c0.5,2.9,2,9.6,2.4,12.5c0.9,0.5,2.2,0.3,2.5-0.5c0-2.7,0-7-0.2-8.5      c-0.2-1.2-0.7-3-1.2-4.1c-0.1-3.2,0.9-7.7,0-10.7c-0.4-1.3-1.5-2.8-1.9-3.8c-0.6,0.9-1.3,1.3-3.2,1.1c-0.2,0-1.8-1.2-2.3-1.3      c0.7,4.1,2.6,9.4,3.6,13.8C94.5,61.4,94.6,62,94.8,62.4z"></path>
			</g>
			<linearGradient id="XMLID_213_" gradientUnits="userSpaceOnUse" x1="91.9864" y1="47.368" x2="96.0713" y2="31.6986">
				<stop offset="0" style="stop-color:#1C8EF4"></stop>
				<stop offset="1" style="stop-color:#00CFDD"></stop>
			</linearGradient>
			<path id="XMLID_101_" class="st44" d="M98.7,34.1c-0.6-0.4-2.3-1.5-3.7-2.3c-1.9-1-3.7-1.3-4.9,0.9c-0.7,1.2-1.1,3-1,5.3     c0,0.9,0.2,1.8,0.3,2.7c0.1,1.3-0.2,2.3-0.3,3.4c-0.1,0.8,0.2,1.4,0.2,2.1c0,0.4,0,0.7,0,1c0.6,2.3,6,2.7,8.4,1.1     c-0.1-0.2,0-0.7-0.2-1.2c0.2-0.6,0.4-0.9,0.4-1.6c0.2-1.5-0.1-2.3,0.6-3.7c0.9-1.9,1.9-3.9,1.9-5.3     C100.5,35.3,99.5,34.6,98.7,34.1z"></path>
			<linearGradient id="XMLID_214_" gradientUnits="userSpaceOnUse" x1="99.0503" y1="37.9325" x2="94.5155" y2="45.1219">
				<stop offset="0" style="stop-color:#235DA3"></stop>
				<stop offset="1" style="stop-color:#123A76"></stop>
			</linearGradient>
			<path id="XMLID_100_" class="st45" d="M89.3,47.1c-0.3-1.9-0.2-3.7-0.2-5.4c-0.1-1.6-0.3-3.2-0.1-5c0.2-2.1,0.7-4.4,2.2-5.2     c0.7-0.4,1.3-0.2,3.2,0.3l0,0.2c0.8,0.2,1.5,0.3,2.2,0.7c2.2,1.2,4.3,2.6,4.2,4c-0.2,2.4-2.1,4.3-2.5,7c-0.3,2.3,2,6.3,4.6,7.7     c-0.4,1.1-2.1,2.3-3.1,1.9c-3-1.7-8.1-10.3-3.8-19.5c0.3-0.6-0.6-1-1.7-1.3c-3.4,1-4.4,4.4-4.7,8C89.3,42.8,89.4,45.2,89.3,47.1z     "></path>
			<linearGradient id="XMLID_215_" gradientUnits="userSpaceOnUse" x1="102.5471" y1="38.3179" x2="99.964" y2="46.0985">
				<stop offset="0" style="stop-color:#235DA3"></stop>
				<stop offset="1" style="stop-color:#123A76"></stop>
			</linearGradient>
			<path id="XMLID_99_" class="st46" d="M100.2,35.3c0.4,0.4,0.6,0.9,0.5,1.4c-0.2,2.4-2.1,4.3-2.5,7c-0.3,2.3,2,6.3,4.6,7.7     c-0.1,0.2-0.2,0.4-0.4,0.7c-5.2,0.8-5.8-9.7-4.7-13.4C98.4,36.5,99.4,35.2,100.2,35.3z"></path>
			<g>
				<linearGradient id="XMLID_216_" gradientUnits="userSpaceOnUse" x1="97.3141" y1="34.2483" x2="81.1405" y2="48.5406">
					<stop offset="0" style="stop-color:#235DA3"></stop>
					<stop offset="1" style="stop-color:#123A76"></stop>
				</linearGradient>
				<path id="XMLID_98_" class="st47" d="M92.4,34.7c-1.4,2-0.9,3-0.4,4.7c0.6,1.8-0.2,3.7-0.8,5.8c-0.5,0.5-1.5,1.1-2.2,1.4      c0.1-1.4,0-1.9-0.1-2.7c0.7-1,1.2-2.2,1.3-3.2c0-1.9-0.6-3.7,1.9-6.2c0-0.8,0.2-0.9,0.3-1c0.2-0.1,0.1-0.1,0.6,0.1      c0.3,0.2,0.7,0.3,0.5,0.7C93.2,34.4,93,34.5,92.4,34.7z"></path>
				<linearGradient id="XMLID_217_" gradientUnits="userSpaceOnUse" x1="94.431" y1="31.4894" x2="94.2493" y2="33.5604">
					<stop offset="0" style="stop-color:#FF8A78"></stop>
					<stop offset="1" style="stop-color:#FFA799"></stop>
				</linearGradient>
				<path id="XMLID_97_" class="st48" d="M92.8,32.5c0-0.1,0-0.2-0.1-0.3c-0.1-0.3,0-1-0.1-1.8l2.9-0.5l0.6-0.2c-0.4,1-0.2,2,0,2.8      c-0.1,1-2.2,1-3.3,1C92.8,33.2,92.9,32.9,92.8,32.5z"></path>
				<path id="XMLID_96_" class="st23" d="M92.9,33.5c0-0.2,0-0.5,0-0.7c0-0.2-0.1-0.9,0-1c-0.3,0-0.7,1.3-1.2,1.8      C92.2,33.4,92.4,33.4,92.9,33.5z"></path>
				<path id="XMLID_95_" class="st23" d="M96.2,32.3c-0.3,1-2.1,1.2-3.3,1.2c0.2,0.4,0.4,0.9,0.3,1.2c0.8,0,2.2,0,3-0.9      C96.8,33.2,96.6,32.6,96.2,32.3z"></path>
				<linearGradient id="XMLID_218_" gradientUnits="userSpaceOnUse" x1="92.3605" y1="28.3734" x2="94.5039" y2="28.903">
					<stop offset="0" style="stop-color:#FFB89E"></stop>
					<stop offset="1" style="stop-color:#FFA799"></stop>
				</linearGradient>
				<path id="XMLID_94_" class="st49" d="M92.8,31.9c0.4-0.1,1.6-0.3,1.9-0.4c0.6-0.3,0.4-0.8,1.1-1.6c0.7-0.2,1-0.5,1.1-0.8      c0.4-0.8,0.2-1.9-0.3-2.6c-0.4-0.6-1.1-0.9-1.9-1c-1.5-0.1-2.4,0.4-2.9,1.7c0,0.1-0.1,0.5-0.1,0.7c0,0.3,0.1,0.3,0,0.5      c0,0.1,0,0.2-0.2,0.4c-0.2,0.2-0.2,0.6-0.3,1.2c0,0.7,0.1,1.4,0.2,1.6C91.7,31.8,92.2,32,92.8,31.9z"></path>
				<linearGradient id="XMLID_219_" gradientUnits="userSpaceOnUse" x1="95.8634" y1="26.1436" x2="95.1577" y2="28.7611">
					<stop offset="0" style="stop-color:#5A2D68"></stop>
					<stop offset="1" style="stop-color:#22043D"></stop>
				</linearGradient>
				<path id="XMLID_93_" class="st50" d="M93.2,27.2c0.4-0.1,1.9-0.5,2.5-0.7c0.7-0.2,1.4-0.4,1.8,0.1c0.3,0.6,0.2,1.6,0,2.1      c-0.3,0.7-0.9,1.3-1.8,1.9c-0.3,0.2,0-0.9-0.1-1.1c-0.2,0.4-0.4,0.5-0.5,0.5c-0.1,0-0.2,0-0.1-0.5c0.2-0.8-0.2-1,0.1-1.4      c0.2-0.4,0-0.4-0.1-0.5C94.5,27.5,93.9,27.6,93.2,27.2z"></path>
				<path id="XMLID_92_" class="st51" d="M96.1,29.1c0.6-0.1,0.5,0.6,0.3,1c-0.1,0.3-0.3,0.2-0.5,0.4c-0.2,0.2-0.4,0.3-0.6,0.3      c-0.4-0.1,0-0.6,0.1-0.8C95.4,29.6,95.7,29.1,96.1,29.1z"></path>
				<linearGradient id="XMLID_220_" gradientUnits="userSpaceOnUse" x1="95.1207" y1="25.476" x2="94.4976" y2="27.2323">
					<stop offset="0" style="stop-color:#5A2D68"></stop>
					<stop offset="1" style="stop-color:#22043D"></stop>
				</linearGradient>
				<path id="XMLID_91_" class="st52" d="M97.5,26.7c-0.5,0-1.1,0.4-1.8,0.6c-1,0.3-2.1,0.4-2.8,0c-0.4-0.2-0.8-0.6-0.8-0.8      C91.8,23.4,97.4,24.1,97.5,26.7z"></path>
			</g>
			<g>
				<linearGradient id="XMLID_221_" gradientUnits="userSpaceOnUse" x1="88.6069" y1="32.2099" x2="88.9779" y2="35.3557">
					<stop offset="0" style="stop-color:#FFB89E"></stop>
					<stop offset="1" style="stop-color:#FFA799"></stop>
				</linearGradient>
				<path id="XMLID_90_" class="st53" d="M85.9,40c0.3-1.1,1.5-3.3,2.5-4.7l0,0c0.6-1,0.7-1.3,0.6-1.6c0-0.4-0.3-0.7,0.2-1.9      c0.5-0.2,0.9-0.5,1.4-0.6c0.2-0.1,0.4-0.1,0.9,0.2c0.5,0.3,0.8,0.4,0.6,0.5l0,0l-0.6,0.7c-0.1,0.2-0.2,0.2-0.3,0.3      c0,0.1-0.1,0.1-0.1,0.2C91,33.4,91.3,34,91,34.4l-0.8,0.8c-0.8,1.4-0.9,3-1.4,4.5c-0.2,0.6-0.8,1.4-1.4,1.6      C86.4,41.7,85.8,40.9,85.9,40z"></path>
				<linearGradient id="XMLID_222_" gradientUnits="userSpaceOnUse" x1="89.7249" y1="36.6909" x2="86.5692" y2="40.2613">
					<stop offset="0" style="stop-color:#235DA3"></stop>
					<stop offset="1" style="stop-color:#123A76"></stop>
				</linearGradient>
				<path id="XMLID_89_" class="st54" d="M86.1,38.7c0.4-0.9,0.9-1.9,1.5-2.7c0.4-0.6,0.7-1,1.1-1.6c0.1,0.4,1.1,0.9,1.6,0.8      c-0.1,0.3-0.3,1-0.3,1.3c-0.3,1.4-0.7,5.1-2.2,5.7c-0.3,0.1-1,0.3-1.5-0.1C85.4,41.4,85.8,39.5,86.1,38.7z"></path>
				<path id="XMLID_88_" class="st55" d="M90.1,35.1c0.8-0.9,0.4-1.6,1-2c0-0.1,0.1-0.2,0.1-0.3l-0.7,0.5c-0.1,0-0.2,0.1-0.2,0.1      c0,0,0,0,0,0c-0.2-0.1,0-0.6-0.1-0.6c-0.3,0-0.4-0.1-0.6-0.2C89.6,33.4,90.6,34.2,90.1,35.1z"></path>
			</g>
			<g>
				<g>
					<path id="XMLID_87_" class="st32" d="M95.5,57.2c0-0.3,0.1-0.2,0.2-0.3c0,0,0,0,0.1,0l1.9-1.3c1.2-0.7,1.9,1.7,2.3,3.5       l-1.6,1.1l-2.5-1.1L95.5,57.2z"></path>
					<path id="XMLID_86_" class="st32" d="M98.2,64.4l-0.3-4.2l-0.1-1.4l7.9-5.5l0.5,5.5c0,0.1,0,0.3,0,0.4c0,0.1,0,0.1-0.1,0.2       c0,0,0,0.1-0.1,0.1c0,0.1-0.1,0.1-0.1,0.1l-7.9,5.5C98.1,65,98.2,64.8,98.2,64.4z"></path>
					<path id="XMLID_85_" class="st56" d="M95.2,57.6l2.6,1.2l0.5,5.5c0.1,0.8-0.5,1.1-1.2,0.8l0,0c-0.7-0.3-1.3-1.2-1.4-2       L95.2,57.6z"></path>
					<polygon id="XMLID_84_" class="st57" points="102.1,60 101.7,59.9 101.8,61.3 102.2,61.4 102.2,60.6      "></polygon>
					<linearGradient id="XMLID_223_" gradientUnits="userSpaceOnUse" x1="102.7636" y1="59.6793" x2="100.9829" y2="55.2537">
						<stop offset="0" style="stop-color:#1C8EF4"></stop>
						<stop offset="1" style="stop-color:#00CFDD"></stop>
					</linearGradient>
					<path id="XMLID_83_" class="st58" d="M103.4,51.2c0.1-0.1,0.3-0.1,0.4-0.1c0.4-0.1,0.8,0.2,1.1,0.4c0.3,0.2,0.5,0.4,0.7,0.7       c0.3,0.4,0.5,0.9,0.6,1.3c0,0.1,0,0.1,0,0.2l0.1,1.7l-3.4,4.5l-0.7,0.5l-3.8,0.6l0,0L98.3,60c0-0.5-0.3-1.8-0.6-2.2       c-0.4-0.6-1.6-1.5-2.2-1.1L103.4,51.2z"></path>
					<path id="XMLID_82_" class="st56" d="M96,56.6c-0.6,0-0.9,0.4-0.9,1.1l0.2,2l0.6,0.3l-0.2-2c0-0.3,0.1-0.5,0.2-0.6       c0.5-0.4,1.3,0.4,1.5,0.7c0.2,0.3,0.3,0.6,0.3,0.8l0.1,1.6l0.6,0.3l-0.1-1.7c-0.1-0.6-0.3-1.3-0.8-1.8       C97.2,56.9,96.6,56.6,96,56.6z"></path>
					<polygon id="XMLID_81_" class="st57" points="102.1,60 101.9,60 102.1,61.4 102.2,61.4 102.2,60.6      "></polygon>
					<polygon id="XMLID_80_" class="st59" points="103.1,59.3 102.5,59.8 102.1,60 101.9,60 103,59.3      "></polygon>
					<polygon id="XMLID_79_" class="st60" points="103.1,59.3 102.1,60 102.2,61.4 103.2,60.7      "></polygon>
				</g>
				<g>
					<path id="XMLID_78_" class="st61" d="M101.5,52.8C101.5,52.8,101.5,52.8,101.5,52.8C101.4,52.7,101.4,52.7,101.5,52.8       c0-0.1,0-0.1,0-0.1c0,0,0,0,0,0c0,0,0,0,0,0c0,0,0,0,0,0c0,0,0,0,0,0c0,0,0,0,0,0c0,0,0,0,0,0c0,0,0,0-0.1,0l0.6,0.3       c0,0,0,0,0.1,0c0,0,0,0,0,0c0,0,0,0,0,0c0,0,0,0,0,0c0,0,0,0,0,0c0,0,0,0,0,0c0,0,0,0,0,0c0,0,0,0,0,0c0,0,0,0,0,0c0,0,0,0,0,0       c0,0,0,0,0,0c0,0,0,0,0,0c0,0,0,0,0,0c0,0,0,0,0,0c0,0,0,0,0,0c0,0,0,0,0,0c0,0,0,0,0,0c0,0,0,0,0,0c0,0,0,0,0,0c0,0,0,0,0,0       c0,0,0,0,0,0c0,0,0,0,0,0l0,0.3l-0.6-0.3L101.5,52.8C101.5,52.9,101.5,52.8,101.5,52.8C101.5,52.8,101.5,52.8,101.5,52.8z"></path>
					<path id="XMLID_77_" class="st23" d="M100.8,52.2C100.8,52.2,100.9,52.2,100.8,52.2C100.9,52.2,100.9,52.2,100.8,52.2       C100.9,52.2,100.9,52.2,100.8,52.2C100.9,52.2,100.9,52.1,100.8,52.2c0.1-0.1,0.1-0.1,0.1-0.1c0,0,0,0,0,0c0,0,0,0,0,0       c0,0,0,0,0,0c0,0,0,0,0,0c0,0,0,0,0,0c0,0,0,0,0,0c0,0,0,0,0,0c0,0,0,0,0,0c0,0,0,0,0,0c0,0,0,0,0,0c0,0,0,0,0,0c0,0,0,0,0,0       c0,0,0,0,0,0c0,0,0,0,0,0c0,0,0,0,0,0c0,0,0,0,0,0c0,0,0,0,0.1,0c0,0,0,0,0,0c0,0,0,0,0,0c0,0,0,0,0.1,0c0,0,0,0,0,0       c0,0,0.1,0,0.1,0l0.6,0.3c-0.2,0-0.5,0.1-0.7,0.2l0,0l-1.1,0.7l0,0c-0.5,0.3-0.7,0.9-0.8,1.5c0,0-0.1,0-0.1,0l0,0l0,0l0,0l0,0       l0,0l0,0l0,0l0,0v0l0,0l0,0l0,0h0l0,0l0,0l0,0l0,0l0,0l0,0l0,0l0,0l0,0l0,0l0,0l0,0l0,0l0,0h0v0l0,0l0,0l0,0l0,0l0,0l0,0v0l0,0       l0,0l0,0l0,0l0,0l0,0l0,0l0,0l0,0v0l0,0l0,0l0,0l0,0l0,0l0,0v0l0,0l0,0l0,0l0,0v0l0,0l0,0l0,0l0,0v0l0,0l0,0l0,0v0l0,0v0l0,0v0       v0h0v0v0v0l0,0l0,0v0v0l0,0l0,0v0l0,0v0v0v0v0v0l0,0h0l0,0l0,0v0l0,0v0v0v0l0,0v0v0v0l0,0v0v0v0l0,0v0l0,0v0l0,0v0l0,0v0v0v0       l0,0v0v0l0,0v0l0,0v0v0l0,0l0,0v0h0l0,0h0l0,0h0l0,0l0,0v0l0,0v0l0,0v0l0,0v0v0v0v0v0l0,0v0l0,0v0v0v0v0v0v0l0,0v0l0,0h0l0,0       l0,0v0l0,0l0,0h0l0,0v0l0,0l0,0v0l0,0h0l0,0l0,0v0l0,0l0,0h0l0,0l0,0v0l0,0l0,0l0,0v0l0,0l0,0l0,0v0l0,0l0,0l0,0l0,0h0l0,0l0,0       l0,0l0,0l0,0l0,0l0,0l0,0l0,0l0,0l0,0l0,0l0,0l0,0l0,0l0,0l0,0l0,0l0,0l0,0l0,0l0,0l0,0l0,0l0,0l0,0l0,0l0,0l0,0l0,0l0,0l0,0       l0,0l0,0l0,0l0,0l0,0.3L98.9,55l0-0.3v0l0,0l0,0v0l0,0v0l0,0v0v0l0,0l0,0v0l0,0v0l0,0l0,0v0v0l0,0v0l0,0v0l0,0v0v0l0,0v0l0,0v0       l0,0v0l0,0v0v0l0,0v0l0,0l0,0v0l0,0v0l0,0l0,0v0l0,0l0,0v0l0,0v0l0,0l0,0v0l0,0l0,0v0l0,0l0,0v0l0,0v0l0,0v0l0,0v0l0,0v0l0,0v0       l0,0l0,0v0l0,0v0l0,0v0l0,0v0l0,0v0l0,0v0v0l0,0v0v0l0,0v0v0l0,0v0v0v0l0,0v0l0,0v0v0l0,0v0v0v0l0,0v0l0,0l0,0l0,0v0v0l0,0l0,0       v0v0v0v0v0v0v0v0v0v0v0v0v0v0v0c0,0,0,0,0,0v0v0v0v0v0v0v0v0v0v0v0c0,0,0,0,0,0l0,0c0,0,0-0.1,0-0.1c0,0,0,0,0,0c0,0,0,0,0,0       c0,0,0,0,0,0c0-0.1,0-0.2,0.1-0.3c0.1-0.2,0.1-0.3,0.2-0.5c0,0,0-0.1,0-0.1c0,0,0,0,0,0c0-0.1,0.3-0.3,0.4-0.4c0,0,0,0,0,0       L100.8,52.2C100.8,52.2,100.8,52.2,100.8,52.2z"></path>
					<path id="XMLID_76_" class="st62" d="M100.3,53.3l1.1-0.8c0.5-0.3,0.9-0.1,1,0.4l0,0.3l-0.3,0.2l0-0.3c0-0.4-0.3-0.5-0.6-0.3       l-1.1,0.8c-0.3,0.2-0.5,0.7-0.5,1.1l0,0.3l-0.3,0.2l0-0.3C99.4,54.4,99.8,53.6,100.3,53.3z"></path>
				</g>
				<linearGradient id="XMLID_224_" gradientUnits="userSpaceOnUse" x1="100.4286" y1="53.9539" x2="101.0623" y2="50.7793">
					<stop offset="0" style="stop-color:#FFB89E"></stop>
					<stop offset="1" style="stop-color:#FFA799"></stop>
				</linearGradient>
				<path id="XMLID_75_" class="st63" d="M102.2,51c-0.2,1.4,0,2.1-0.1,2.4c-0.1,0.3-1.4,1.3-1.9,1.5c-0.1,0.1-0.4-0.1-0.5-0.2      c-0.2-0.3,0.1-0.7,0.1-1.3c0-0.4-0.3-0.3-0.4-0.3c-0.2,0.1-0.3,0.4-0.4,0.6c0.1-0.8-0.1-1.5,0.5-2.1c0.3-0.2,0.6-0.5,0.7-1      L102.2,51z"></path>
			</g>
			<linearGradient id="XMLID_225_" gradientUnits="userSpaceOnUse" x1="102.7566" y1="41.3886" x2="95.0361" y2="48.6711">
				<stop offset="0" style="stop-color:#235DA3"></stop>
				<stop offset="1" style="stop-color:#123A76"></stop>
			</linearGradient>
			<path id="XMLID_74_" class="st64" d="M100,35.2c0.1,0,0.1,0.1,0.2,0.1c1.4,1,2,5.5,2.6,8.3c-0.1,2.5-0.1,4.6-0.4,7.1     c-0.4,0.5-2.2,1.2-2.5,0.2c0-2.2-0.2-4.7,0.3-6.9c-0.7-1.1-1.1-2.4-1.5-3.6c-0.2-0.7-0.6-1.5-0.7-2.2     C98.2,37.1,98.6,35.6,100,35.2z"></path>
		</g>
	</g>
	<g>
		<path id="XMLID_73_" class="st0" d="M74.5,57.2l-10-5.7c-1.1-0.5-2.6-0.9-3.8-0.3c-1,0.5-2.7,1.6-3.4,2c-0.6,0.3-2.5,1.5-1.3,2.1    c3.6,1.9,7.1,4.1,10.7,6.1c0.7,0.4,1.7,0.5,2.7,0.4c1-0.1,2.1-0.4,3-0.9c0.6-0.3,1.2-0.7,1.8-1c0.8-0.5,1.2-1,1.2-1.5    C75.5,58,75.2,57.5,74.5,57.2z"></path>
		<g>
			<g>
				<linearGradient id="XMLID_226_" gradientUnits="userSpaceOnUse" x1="61.7884" y1="29.1001" x2="62.2404" y2="28.0782">
					<stop offset="0" style="stop-color:#FFB89E"></stop>
					<stop offset="1" style="stop-color:#FFA799"></stop>
				</linearGradient>
				<path id="XMLID_72_" class="st65" d="M61.9,27.5c-0.3,0-0.7,0.1-0.7,0.1l-0.6,0.4l0.5,0.8c0.5,0.7,0.7,1.2,1.1,1.3      c0.3,0.1,0.9-0.5,1.2-0.6C64,28.9,62.2,27.5,61.9,27.5z"></path>
				<linearGradient id="XMLID_227_" gradientUnits="userSpaceOnUse" x1="62.6096" y1="29.6539" x2="63.2417" y2="28.2249">
					<stop offset="0" style="stop-color:#FFB89E"></stop>
					<stop offset="1" style="stop-color:#FFA799"></stop>
				</linearGradient>
				<path id="XMLID_71_" class="st66" d="M61.9,29.8C62,30,62,30,62.1,30.1c0.3,0.1,0.9-0.5,1.2-0.6c0.2-0.2,0.2-0.5,0-0.8      C63.1,28.6,61.8,29.7,61.9,29.8z"></path>
				<linearGradient id="XMLID_228_" gradientUnits="userSpaceOnUse" x1="61.5064" y1="28.7174" x2="62.0518" y2="27.4844">
					<stop offset="0" style="stop-color:#FFB89E"></stop>
					<stop offset="1" style="stop-color:#FFA799"></stop>
				</linearGradient>
				<path id="XMLID_70_" class="st67" d="M60.5,25.6c0.1,1.6-0.3,2.3-0.2,2.7c0.1,0.3,1.3,1.5,1.8,1.8c0,0,0.2,0,0.3,0      c0.3-0.1,0.6-0.3,0.6-0.4c0.1-0.2-0.3-0.1-0.4-0.4c0,0,0-0.1,0-0.1c0-0.2-0.1-0.5,0-0.8c0.1-0.3,0.3-0.1,0.3,0.4      c0,0.2,0,1,0.6,0.9c0-0.2,0-1.2,0-1.5c0-0.6,0-1.2-0.4-1.6c-0.3-0.3-0.6-0.6-0.7-1.1L60.5,25.6z"></path>
			</g>
			<linearGradient id="XMLID_229_" gradientUnits="userSpaceOnUse" x1="61.403" y1="14.0523" x2="62.95" y2="18.3732">
				<stop offset="0" style="stop-color:#235DA3"></stop>
				<stop offset="1" style="stop-color:#123A76"></stop>
			</linearGradient>
			<path id="XMLID_69_" class="st68" d="M64.1,8.9c-2.4,0.2-3.2,6.1-3.9,9.3c0,2.7,0,4.9,0.2,7.6c0.4,0.6,1.9,1.3,2.2,0.3     c0.1-2.4,1-5.1,0.5-7.4c0.7-1.2,0.7-2.6,1.2-3.9c0.3-0.8,0.6-1.7,0.8-2.4C64.9,11.1,65.6,9.3,64.1,8.9z"></path>
		</g>
		<g>
			<g>
				<path id="XMLID_68_" class="st40" d="M65.5,49.9c0.1,0.3,0.4,0.7,0.5,1.1c0.1,0.5,0,0.9,0,1.3c-0.1,0.3-0.8,0.7-1.2,0.7      c-0.1,0-0.2,0.1-0.3,0c-0.5,0.4-0.6,0.5-1.1,1.1c-0.4,0.4-1.4,0.7-2.2,0.8c-0.6,0-1.2,0-1.5-0.2c-0.6-0.4,0.8-1.6,1.1-1.8      c0.8-0.7,1.6-1.5,2-2.3c0.1-0.2,0.1-0.3,0.1-0.5L65.5,49.9z"></path>
				<linearGradient id="XMLID_230_" gradientUnits="userSpaceOnUse" x1="57.361" y1="32.6667" x2="66.5819" y2="38.3997">
					<stop offset="0" style="stop-color:#235DA3"></stop>
					<stop offset="1" style="stop-color:#123A76"></stop>
				</linearGradient>
				<path id="XMLID_67_" class="st69" d="M62.4,38.5c0.1,2.9,0.6,8.9,0.5,11.7c0.7,0.7,2.4,0.6,2.9-0.2c0.4-3.5,1.2-7.2,1-9.7      c-0.1-1-0.3-1.8-0.5-2.4c0.8-4.6,2.2-7.2,1.8-10.1c-0.2-1.3-1.5-2.9-1.8-4c-2.1,2.6-3.4,1.1-4.3,0.8c0,0.9-0.1,1.1-0.1,2.1      c0.1,3.2,0.2,6.6,0.3,9.9C62.2,37.3,62.2,38.1,62.4,38.5z"></path>
				<linearGradient id="XMLID_231_" gradientUnits="userSpaceOnUse" x1="59.9871" y1="32.2304" x2="67.0571" y2="37.9008">
					<stop offset="0" style="stop-color:#235DA3"></stop>
					<stop offset="1" style="stop-color:#123A76"></stop>
				</linearGradient>
				<path id="XMLID_66_" class="st70" d="M63.8,38.2c0,0,0.5,3.4,2,11.9c0.4-3.5,1.2-7.2,1-9.7c-0.1-1-0.3-1.8-0.5-2.4      c0.8-4.6,2.2-7.2,1.8-10.1c-0.2-1.3-1.5-2.9-1.8-4c-1.2,1.5-2.1,1.6-2.8,1.4L63.8,38.2z"></path>
			</g>
			<g>
				<path id="XMLID_65_" class="st40" d="M70.3,54.3c0.3,0.7,0.3,1.1,0.3,1.9c-0.2,0.4-0.5,0.6-0.8,0.9l-0.2,0      c-0.6,0.3-0.9,1.4-1.5,1.9c-0.4,0.3-1.2,0.5-1.9,0.6c-0.8,0.1-1.6-0.1-1.3-0.8c0.6-1.5,3-3.5,3.2-5.2L70.3,54.3z"></path>
				<linearGradient id="XMLID_232_" gradientUnits="userSpaceOnUse" x1="57.1006" y1="33.937" x2="71.8623" y2="42.1309">
					<stop offset="0" style="stop-color:#235DA3"></stop>
					<stop offset="1" style="stop-color:#123A76"></stop>
				</linearGradient>
				<path id="XMLID_64_" class="st71" d="M69.5,25.9c1.2,2.6,2,3.4,1.5,6.7c-0.6,4-1.2,7.7-1,8.4c0.2,0.8,0.6,1.5,0.8,2.3      c0.6,3.4,0.1,6-0.4,10.9c-0.1,0.5-1.6,1.4-2.8,0.4c-0.1-2.9-0.7-9.3-1.3-12.2c-0.2-1-0.2-1.8-0.3-2.8c-0.5-4-1-7.3-1.7-11.3      L64.2,26L69.5,25.9z"></path>
			</g>
		</g>
		<linearGradient id="XMLID_233_" gradientUnits="userSpaceOnUse" x1="64.3393" y1="25.0297" x2="68.4132" y2="9.4053">
			<stop offset="0" style="stop-color:#1C8EF4"></stop>
			<stop offset="1" style="stop-color:#00CFDD"></stop>
		</linearGradient>
		<path id="XMLID_63_" class="st72" d="M71,11.8c-0.6-0.4-2.3-1.5-3.7-2.3c-1.9-1-3.7-1.3-4.9,0.9c-0.7,1.2-1.1,3-1,5.3    c0,0.9,0.2,1.8,0.3,2.7c0.1,1.3-0.1,2-0.2,3.1c-0.1,0.8,0.4,1.8,0.3,2.4c0,0.4,0,0.7,0,1c0.6,2.3,5.7,2.7,8.1,1.1    c-0.1-0.2,0-0.7-0.2-1.2c0.2-0.6,0.4-0.9,0.4-1.6c0.2-1.5-0.1-2.3,0.6-3.7c0.9-1.9,1.9-3.9,1.9-5.3C72.8,13,71.9,12.3,71,11.8z"></path>
		<linearGradient id="XMLID_234_" gradientUnits="userSpaceOnUse" x1="69.8801" y1="14.5585" x2="65.3985" y2="22.5049">
			<stop offset="0" style="stop-color:#235DA3"></stop>
			<stop offset="1" style="stop-color:#123A76"></stop>
		</linearGradient>
		<path id="XMLID_62_" class="st73" d="M66.7,9.7c0.8,0.2,1.5,0.3,2.2,0.7c2.2,1.2,4.3,2.6,4.2,4c-0.2,2.4-2.1,4.3-2.5,7    c-0.2,1.5-0.1,5.1,1.4,6.9c-1,0.8-3,1.8-3.5,1.7c-2.7-3.4-3.7-11.2-0.3-18.5c0.3-0.6-0.6-1-1.7-1.3c-3.4,1-4.4,4.4-4.7,8    c-0.2,2.3-0.2,4.7-0.2,6.6c-0.3-1.9-0.1-3.7-0.2-5.4c-0.1-1.6-0.3-3.2-0.1-5c0.2-2.1,0.7-4.4,2.2-5.2c0.7-0.4,1.3-0.2,3.2,0.3    L66.7,9.7z"></path>
		<linearGradient id="XMLID_235_" gradientUnits="userSpaceOnUse" x1="74.7259" y1="15.0815" x2="68.6355" y2="25.8805">
			<stop offset="0" style="stop-color:#235DA3"></stop>
			<stop offset="1" style="stop-color:#123A76"></stop>
		</linearGradient>
		<path id="XMLID_61_" class="st74" d="M72.7,13.2c0.3,0.4,0.4,0.8,0.4,1.2c-0.2,2.4-2.1,4.3-2.5,7c-0.2,1.5-0.1,5.1,1.4,6.9    c-0.6,0.5-1.7,1.1-2.5,1.4c0.3-2.9,0.1-3.4-0.3-6.2c-0.4-3-0.6-6.3,0.9-8.7C70.7,13.9,71.5,13.4,72.7,13.2z"></path>
		<g>
			<path id="XMLID_60_" class="st55" d="M70.6,31.6c0.3,0.1,0.7,0.2,0.7,0.2l0.5,0.5l-0.6,0.7c-0.7,0.6-0.9,1-1.3,1.1     c-0.4,0.1-0.8-0.6-1.1-0.9C68.3,32.7,70.3,31.6,70.6,31.6z"></path>
			<path id="XMLID_59_" class="st55" d="M70.2,34c-0.2,0.2-0.1,0.2-0.3,0.2c-0.4,0.1-0.8-0.6-1.1-0.9c-0.2-0.2-0.1-0.5,0.2-0.8     C69.2,32.6,70.4,33.9,70.2,34z"></path>
			<linearGradient id="XMLID_236_" gradientUnits="userSpaceOnUse" x1="70.4371" y1="33.4607" x2="70.6516" y2="30.1561">
				<stop offset="0" style="stop-color:#FFB89E"></stop>
				<stop offset="1" style="stop-color:#FFA799"></stop>
			</linearGradient>
			<path id="XMLID_58_" class="st75" d="M72.4,30.1c-0.4,1.5-0.2,2.3-0.4,2.6c-0.1,0.3-1.6,1.2-2.1,1.4c0,0-0.2,0-0.3,0     c-0.2-0.1-0.5-0.4-0.5-0.5c-0.1-0.2,0.3-0.1,0.4-0.3c0,0,0-0.1,0-0.1c0.1-0.2,0.2-0.5,0.1-0.8c0-0.3-0.2-0.1-0.3,0.3     c0,0.2-0.2,1-0.7,0.8c0.1-0.2,0.2-1.2,0.2-1.4c0.1-0.6,0.2-1.2,0.7-1.6c0.3-0.2,0.7-0.4,0.9-0.9L72.4,30.1z"></path>
			<linearGradient id="XMLID_237_" gradientUnits="userSpaceOnUse" x1="75.1849" y1="19.5542" x2="64.7632" y2="27.362">
				<stop offset="0" style="stop-color:#235DA3"></stop>
				<stop offset="1" style="stop-color:#123A76"></stop>
			</linearGradient>
			<path id="XMLID_57_" class="st76" d="M72.6,13.1c1.4,1,1.4,6.3,1.5,9.6c-0.5,2.7-0.8,4.9-1.5,7.6c-0.5,0.5-2.5,0.9-2.6-0.2     c0.3-2.3,0.5-5.1,1.3-7.4c-0.5-1.3-0.7-2.8-1-4.1c-0.2-1-0.4-1.7-0.2-2.8C70.4,14.5,71.3,13.2,72.6,13.1z"></path>
		</g>
		<g>
			<linearGradient id="XMLID_238_" gradientUnits="userSpaceOnUse" x1="69.6563" y1="11.9527" x2="53.4826" y2="26.245">
				<stop offset="0" style="stop-color:#235DA3"></stop>
				<stop offset="1" style="stop-color:#123A76"></stop>
			</linearGradient>
			<path id="XMLID_56_" class="st77" d="M64.7,12.4c-1.4,2-0.9,3-0.4,4.7c0.6,1.8-0.2,3.7-0.8,5.8c-0.5,0.5-1.5,1.1-2.2,1.4     c0.1-1.4,0-1.9-0.1-2.7c0.7-1,1.2-2.2,1.3-3.2c0-1.9-0.6-3.7,1.9-6.2c0-0.8,0.2-0.9,0.3-1c0.2-0.1,0.1-0.1,0.6,0.1     c0.3,0.2,0.7,0.3,0.5,0.7C65.5,12.2,65.4,12.2,64.7,12.4z"></path>
			<linearGradient id="XMLID_239_" gradientUnits="userSpaceOnUse" x1="66.7732" y1="9.1938" x2="66.5914" y2="11.2647">
				<stop offset="0" style="stop-color:#FF8A78"></stop>
				<stop offset="1" style="stop-color:#FFA799"></stop>
			</linearGradient>
			<path id="XMLID_55_" class="st78" d="M65.1,10.2c0-0.1,0-0.2-0.1-0.3c-0.1-0.3,0-1-0.1-1.8l2.9-0.5l0.6-0.2c-0.4,1-0.2,2,0,2.8     c-0.1,1-2.2,1-3.3,1C65.2,10.9,65.2,10.6,65.1,10.2z"></path>
			<path id="XMLID_54_" class="st23" d="M65.2,11.2c0-0.2,0-0.5,0-0.7c0-0.2-0.1-0.9,0-1c-0.3,0-0.7,1.3-1.2,1.8     C64.6,11.1,64.8,11.1,65.2,11.2z"></path>
			<path id="XMLID_53_" class="st23" d="M68.5,10c-0.3,1-2.1,1.2-3.3,1.2c0.2,0.4,0.4,0.9,0.3,1.2c0.8,0,2.2,0,3-0.9     C69.1,10.9,68.9,10.3,68.5,10z"></path>
			<linearGradient id="XMLID_240_" gradientUnits="userSpaceOnUse" x1="64.7026" y1="6.0778" x2="66.8461" y2="6.6073">
				<stop offset="0" style="stop-color:#FFB89E"></stop>
				<stop offset="1" style="stop-color:#FFA799"></stop>
			</linearGradient>
			<path id="XMLID_52_" class="st79" d="M65.1,9.6c0.4-0.1,1.6-0.3,1.9-0.4c0.6-0.3,0.4-0.8,1.1-1.6c0.7-0.2,1-0.5,1.1-0.8     c0.4-0.8,0.2-1.9-0.3-2.6c-0.4-0.6-1.1-0.9-1.9-1c-1.5-0.1-2.4,0.4-2.9,1.7c0,0.1-0.1,0.5-0.1,0.7c0,0.3,0.1,0.3,0,0.5     c0,0.1,0,0.2-0.2,0.4c-0.2,0.2-0.2,0.6-0.3,1.2c0,0.7,0.1,1.4,0.2,1.6C64,9.5,64.5,9.7,65.1,9.6z"></path>
			<linearGradient id="XMLID_241_" gradientUnits="userSpaceOnUse" x1="68.2056" y1="3.8479" x2="67.4999" y2="6.4655">
				<stop offset="0" style="stop-color:#5A2D68"></stop>
				<stop offset="1" style="stop-color:#22043D"></stop>
			</linearGradient>
			<path id="XMLID_51_" class="st80" d="M65.5,5c0.4-0.1,1.9-0.5,2.5-0.7c0.7-0.2,1.4-0.4,1.8,0.1c0.3,0.6,0.2,1.6,0,2.1     c-0.3,0.7-0.9,1.3-1.8,1.9c-0.3,0.2,0-0.9-0.1-1.1c-0.2,0.4-0.4,0.5-0.5,0.5c-0.1,0-0.2,0-0.1-0.5c0.2-0.8-0.2-1,0.1-1.4     c0.2-0.4,0-0.4-0.1-0.5C66.8,5.2,66.3,5.3,65.5,5z"></path>
			<path id="XMLID_50_" class="st51" d="M68.4,6.8c0.6-0.1,0.5,0.6,0.3,1C68.6,8,68.4,8,68.2,8.2c-0.2,0.2-0.4,0.3-0.6,0.3     c-0.4-0.1,0-0.6,0.1-0.8C67.8,7.4,68,6.8,68.4,6.8z"></path>
			<linearGradient id="XMLID_242_" gradientUnits="userSpaceOnUse" x1="67.4629" y1="3.1803" x2="66.8397" y2="4.9366">
				<stop offset="0" style="stop-color:#5A2D68"></stop>
				<stop offset="1" style="stop-color:#22043D"></stop>
			</linearGradient>
			<path id="XMLID_49_" class="st81" d="M69.9,4.4c-0.5,0-1.1,0.4-1.8,0.6c-1,0.3-2.1,0.4-2.8,0c-0.4-0.2-0.8-0.6-0.8-0.8     C64.1,1.1,69.7,1.8,69.9,4.4z"></path>
		</g>
	</g>
	<g>
		<path id="XMLID_48_" class="st0" d="M86.4,90.4l-9.7-5.5c-1.1-0.5-2.6-0.9-3.7-0.3c-1,0.5-2.6,1.6-3.3,2c-0.5,0.3-2.4,1.4-1.3,2.1    c3.5,1.9,6.9,4,10.4,5.9c0.7,0.4,1.6,0.5,2.7,0.4c1-0.1,2.1-0.4,2.9-0.9c0.6-0.3,1.2-0.7,1.7-1c0.8-0.4,1.2-1,1.2-1.5    C87.3,91.2,87,90.7,86.4,90.4z"></path>
		<g>
			<g>
				<linearGradient id="XMLID_243_" gradientUnits="userSpaceOnUse" x1="79.2131" y1="44.7782" x2="79.8702" y2="57.8953">
					<stop offset="0" style="stop-color:#5A2D68"></stop>
					<stop offset="1" style="stop-color:#22043D"></stop>
				</linearGradient>
				<path id="XMLID_47_" class="st82" d="M72.4,50.2c-1.3-4,1.3-3.7,1.1-4.9c-0.3-1.4,0.3-2.5,1.1-3c1.4-1,4.4-1.2,5.6,0.8      c0.6,1.1,0.7,1.6,1.4,2.1c1.5,1,3.1,0.6,4.2,2.2c0.7,1,0.6,2.3-0.3,3c2,0.9,2,2.5,0.5,4.5c-1.7,2.3-5.4,3.7-1.7,5.6      c-5.2,1.9-10.7-1.9-11.3-6.5C72.7,52.8,72.8,51.5,72.4,50.2z"></path>
				<path id="XMLID_46_" class="st8" d="M74.9,43.2c-0.2,1.3,1.8,2.2,2,3.7c0.4-0.3,1-0.4,1.2,0.1c0.3,0.8-0.5,1.3,0.5,2.1      c0.4,0.3,1.2,0.8,2.2,1.8c0.5,0.5,1.6,1.6,1.4,3.2c-0.2,1.3-2.5,4.5-0.7,6.2c-5,0.6-6.5-4.7-8.3-8.7c-1.1-2.5-0.6-3.2,0.3-4.1      c0.6-0.6,0.4-1.2,0.4-2C74,44.6,74.1,44.1,74.9,43.2z"></path>
			</g>
			<g>
				<linearGradient id="XMLID_244_" gradientUnits="userSpaceOnUse" x1="73.8435" y1="75.4162" x2="75.6461" y2="74.9643">
					<stop offset="0" style="stop-color:#FFB89E"></stop>
					<stop offset="1" style="stop-color:#FFA799"></stop>
				</linearGradient>
				<path id="XMLID_45_" class="st83" d="M72.7,61.3c-0.1,0.5,0,1.2,0,3c0,1.3,0.1,3.5,0.3,5.4c0.1,0.8,0.2,1.5,0.2,2.1      c0.1,0.4,0.2,0.9,0.3,1.3c0.5,3.3,1.1,6.2,1.5,10.2c0.1,0.9,0.2,1.4,0,2.3c0,0.2-0.1,0.4-0.1,0.5c-0.1,0.9-0.2,1.7-0.5,2.5      c0,0.1-0.1,0.4-0.2,0.5c0,0,0.8,0.3,0.9,0.3c0.1,0,1.4-0.3,1.4-0.3s0.5-2.1,0.5-2.2c-0.1-1.4,0.9-1.1,0-2.2      c-0.1-0.1-0.1-0.1-0.1-0.3c0-1.4,0.2-3.3,0.4-5.1c0.5-5.1-0.3-4.7-0.5-7.1c0.3-2.9,1.1-7,1-10.6L72.7,61.3z"></path>
				<path id="XMLID_44_" class="st37" d="M74.5,88.3c-0.1,0.2-0.3,0.6-0.4,0.9c-0.2,0.3-0.2,0.6-0.3,0.8c0,0.1,0,0.3,0,0.3      c0.3,0.4,1.8-0.3,2.3-0.8c0.3-0.3,0.3-0.6,0.4-1.1c0.1-0.6,0.1-0.7,0.3-1.4l0.2,1.8l0.1,0.1c0-0.7,0.1-1.7,0.2-2.3      c0-0.2,0.1-0.5,0.1-0.7c0.1-0.8-0.3-1.2-0.7-1.4c0.1,0.5-0.2,1.3-0.4,2.3c-0.2,1-0.7,2.2-1.2,2.3c-0.2,0-0.6-0.2-0.8-0.3      C74.3,88.8,74.4,88.5,74.5,88.3z"></path>
			</g>
			<g>
				<linearGradient id="XMLID_245_" gradientUnits="userSpaceOnUse" x1="78.5639" y1="75.2737" x2="80.0338" y2="74.7575">
					<stop offset="0" style="stop-color:#FFB89E"></stop>
					<stop offset="1" style="stop-color:#FFA799"></stop>
				</linearGradient>
				<path id="XMLID_43_" class="st84" d="M78.9,59.8c0.5,1.7,1.5,3.2,1.7,4.5c0.2,1.3,0.1,2.6-0.2,4.6c-0.2,1.3-0.9,4.4-0.7,5.5      c0.2,1.7,0.8,2.7,1,4.7c0.2,1.6-0.1,3.9-0.2,6.1c0,0.8,0,0.9,0.2,1.6c0.1,0.2,0.1,0.5,0.1,0.8c0.1,0.6,0.1,1.4,0.1,2.4      c0,0.3-0.2,0.5-0.2,1L79,91.6c0-0.4,0.1-1,0.1-1.7c0-0.6,0-1.3,0-1.8c0-0.9,0.1-1.4-0.1-2.2c-0.5-2.7-1.3-5.1-1.8-7.3      c-0.3-1.2-0.4-2.2-0.8-3.8c-0.2-0.7-0.3-1.3-0.3-2c-0.1-1.8-0.5-4-0.5-5.9c-1.5-2.2-2.5-3.3-2.9-4.4c-0.1-0.7,0.2-1.6,0.2-1.6      L78.9,59.8z"></path>
				<path id="XMLID_42_" class="st37" d="M80.7,86.2c0.2,0.4,0.3,0.6,0.4,1.1c0.1,0.5-0.1,1.4,0.1,2l0.2,1c0.1,0.6,0,1-0.6,1.6      c-0.6,0.5-1.1,0.8-1.5,0.7c-0.3-0.1-0.5-0.5-0.3-1.7c0.2-1,0.2-1.9,0.2-2.9c0.1,1,0.1,1.4,0,2.4c0,0.3,0,0.7,0.3,0.7      c1.4,0,1.4-0.4,1.4-0.8C81,89.2,81,87.2,80.7,86.2z"></path>
			</g>
			<linearGradient id="XMLID_246_" gradientUnits="userSpaceOnUse" x1="72.4321" y1="66.1095" x2="79.8295" y2="67.919">
				<stop offset="0" style="stop-color:#235DA3"></stop>
				<stop offset="1" style="stop-color:#123A76"></stop>
			</linearGradient>
			<path id="XMLID_41_" class="st85" d="M78.9,59.8c0.5,1.7,1.5,3.2,1.7,4.5c0.3,2,0,3.5-0.6,7.9c-0.1,0.6,0,1.1,0.1,1.6     c0.3,1.5-1.2,1.9-2.9,1.4c-2.1-0.7-4.1-2.3-4.2-3c-0.2-2.1-0.8-6.1-0.8-7.9c0-1.8,0.4-2.4,0.5-2.9l0-0.5     C72.8,60.5,78.1,59.9,78.9,59.8z"></path>
			<g>
				<linearGradient id="XMLID_247_" gradientUnits="userSpaceOnUse" x1="71.8332" y1="52.2084" x2="72.3334" y2="52.9138">
					<stop offset="0" style="stop-color:#FD90DA"></stop>
					<stop offset="1" style="stop-color:#8E6DFD"></stop>
				</linearGradient>
				<path id="XMLID_40_" class="st86" d="M72.5,55c1-1.3,2.4-3,2.6-3.5c0.6-1.2,0.9-1.9,0.4-2.3c-0.6-0.5-1.3-0.4-1.8,0      c-0.7,0.6-1.2,1.8-1.5,2.2c-0.7,0.9-1.2,1.5-1.8,2.3c-0.5,0.6-1.1,1.4-1.3,2c-0.1,0.4-0.1,1,0.3,1.3C70.2,57.5,72,55.6,72.5,55z      "></path>
				<linearGradient id="XMLID_248_" gradientUnits="userSpaceOnUse" x1="78.0474" y1="52.5532" x2="75.1919" y2="59.8395">
					<stop offset="0" style="stop-color:#FD90DA"></stop>
					<stop offset="1" style="stop-color:#8E6DFD"></stop>
				</linearGradient>
				<path id="XMLID_39_" class="st87" d="M79.8,57.8c-0.7,1.7,0.4,2.7,0,3.8l0.2,0.5c-1.3,1-6,0.8-7.2-1.1l0-0.9      c-0.2-0.5-0.1-1.1,0-1.4c0.2-1,0.1-1.5,0.2-2.6c0-0.3,0.1-0.6,0.1-0.9c0-0.1,0-0.1,0-0.2c-0.3-0.3-0.6-0.6-0.7-1.1      c-0.2-0.7,0-1.3,0.4-1.8c0.4-0.6,0.8-1,1-1.4c0.3-1.3,1.3-1.8,2-1.6c0.4,0.1,1.4,0.2,2.4,0.7c0.6,0.3,1.1,0.8,1.7,1.2      c0.5,0.4,1.1,0.4,1.4,1.1c0.1,0.2-0.1,0.4-0.1,0.6C81.1,54.3,80.4,56.4,79.8,57.8z"></path>
				<linearGradient id="XMLID_249_" gradientUnits="userSpaceOnUse" x1="77.737" y1="51.3057" x2="74.656" y2="59.1675">
					<stop offset="0" style="stop-color:#FD90DA"></stop>
					<stop offset="1" style="stop-color:#8E6DFD"></stop>
				</linearGradient>
				<path id="XMLID_38_" class="st88" d="M79.8,57.8c-0.2,0.4-0.3,0.8-0.2,1.2c-1.1,1.1-2.2,2.3-2.9,2.4c-1,0.2-2.2-0.5-4.1-1.7      c0-0.4,0-0.8,0.1-1c0.2-1,0.1-1.5,0.2-2.6c0-0.3,0.1-0.6,0.1-0.9c0-0.1,0-0.1,0-0.2c-0.3-0.3-0.6-0.6-0.7-1.1      c-0.1-0.3-0.1-0.6,0-0.8c0.6,0.4,1.2,1.2,1.4,1.2c0.3,0.1,2.3,0.5,2.9,0.2c1.2-0.6,1.9-3.2,4.1-2.6c0.1,0,0.2,0.1,0.3,0.1      c0,0.1,0.1,0.1,0.1,0.2c0.1,0.2-0.1,0.4-0.1,0.6C81.1,54.3,80.4,56.4,79.8,57.8z"></path>
				<linearGradient id="XMLID_250_" gradientUnits="userSpaceOnUse" x1="76.2779" y1="56.8979" x2="75.288" y2="56.5897">
					<stop offset="0" style="stop-color:#FFB89E"></stop>
					<stop offset="1" style="stop-color:#FFA799"></stop>
				</linearGradient>
				<path id="XMLID_37_" class="st89" d="M75.2,55.5c0.2,0,0.6,0,0.9,0.1c0.3,0.1,0.8,0.5,1,0.7L76,58c-0.4-0.5-0.9-1-1.4-1.5l0-0.3      L75.2,55.5z"></path>
				<linearGradient id="XMLID_251_" gradientUnits="userSpaceOnUse" x1="78.3247" y1="51.654" x2="75.1503" y2="57.6688">
					<stop offset="0" style="stop-color:#FD90DA"></stop>
					<stop offset="1" style="stop-color:#8E6DFD"></stop>
				</linearGradient>
				<path id="XMLID_36_" class="st90" d="M81.4,54c-0.3,0.9-4,6.9-5.9,6.5c-0.3,0-0.5-0.2-0.7-0.3c-1.9-1.4-1.8-1.9-3.1-4.5      c0.3-0.4,0.6-0.7,1.1-0.7c0.5,0.6,1.8,1.8,2.9,3c0.8-1.5,2.6-4.5,3.1-5.3C80.4,50.7,82,52.2,81.4,54z"></path>
				<path id="XMLID_35_" class="st51" d="M72.9,54.9c-0.4-0.6-0.7-0.9-1-0.9c-0.3,0-0.8,0.4-1,0.8l0,0c0.4,0,1,0.1,1.7,0.2      C72.6,54.9,72.7,54.9,72.9,54.9z"></path>
				<linearGradient id="XMLID_252_" gradientUnits="userSpaceOnUse" x1="71.0418" y1="54.0869" x2="70.9765" y2="54.8764">
					<stop offset="0" style="stop-color:#FFB89E"></stop>
					<stop offset="1" style="stop-color:#FFA799"></stop>
				</linearGradient>
				<path id="XMLID_34_" class="st91" d="M70,53.9c-0.3,0.2-0.6,0.7-0.6,0.8c0.5-0.1,0.9,0,1.3,0c0.1,0,0.2,0,0.3,0l1.3-0.3l0.2,0      c-0.3-0.3-0.5-0.6-0.7-0.7C71.5,53.6,71,53.8,70,53.9z"></path>
				<linearGradient id="XMLID_253_" gradientUnits="userSpaceOnUse" x1="73.8756" y1="51.2459" x2="71.0583" y2="58.4348">
					<stop offset="0" style="stop-color:#FD90DA"></stop>
					<stop offset="1" style="stop-color:#8E6DFD"></stop>
				</linearGradient>
				<path id="XMLID_33_" class="st92" d="M75.3,55.5c-0.3,0.1-0.6,0.8-0.5,1.3c-1.6,0.2-4.4,0.6-5.3,0.3c-0.4-0.1-0.6-0.6-0.5-1.2      c0.1-0.5,0.8-1.1,1.9-1.1C71.9,54.8,74.4,55.3,75.3,55.5z"></path>
			</g>
			<g>
				<linearGradient id="XMLID_254_" gradientUnits="userSpaceOnUse" x1="77.0534" y1="48.6797" x2="76.6804" y2="50.2364">
					<stop offset="0" style="stop-color:#FF8A78"></stop>
					<stop offset="1" style="stop-color:#FFA799"></stop>
				</linearGradient>
				<path id="XMLID_32_" class="st93" d="M77.7,47.6c-0.2,0.9-0.1,1.7,0.2,2.6c-0.7,0.7-2,0.4-2.3-0.2c0.1-0.4,0.1-0.8,0.2-1.2      L77.7,47.6z"></path>
				<linearGradient id="XMLID_255_" gradientUnits="userSpaceOnUse" x1="74.6831" y1="46.4691" x2="76.7244" y2="46.8922">
					<stop offset="0" style="stop-color:#FFB89E"></stop>
					<stop offset="1" style="stop-color:#FFA799"></stop>
				</linearGradient>
				<path id="XMLID_31_" class="st94" d="M74.7,43.8c-0.4,0.6-0.6,1.2-0.5,2c0,0.2,0,0.3-0.1,0.5c-0.3,0.8-0.3,1-0.1,1.6      c0.2,0.6,0.2,0.9,0.4,1.1c0.2,0.2,0.5,0.3,0.8,0.3c0.5,0,1.5-0.3,2-0.6c0.4-0.2,0.4-0.4,0.6-0.8c0.6-0.5,0.2-0.9,0-0.9      c-0.5-0.1-0.6,0.5-1,0.7C76.9,46.5,74.8,44.7,74.7,43.8z"></path>
			</g>
		</g>
	</g>
	<g>
		<path id="XMLID_30_" class="st0" d="M64.7,89l-11.1-6.3c-1.2-0.6-2.9-1-4.2-0.4c-1.1,0.6-3,1.8-3.8,2.2c-0.6,0.4-2.8,1.6-1.4,2.4    c3.9,2.1,7.8,4.6,11.8,6.7c0.8,0.4,1.9,0.6,3,0.5c1.2-0.1,2.3-0.4,3.3-1c0.7-0.4,1.3-0.8,2-1.1c0.9-0.5,1.3-1.1,1.4-1.7    C65.8,89.8,65.5,89.3,64.7,89z"></path>
		<g>
			<path id="XMLID_29_" class="st39" d="M47,52.1c0.3,0.3,0.5,0.4,0.7,0.4c0.4,0,0.9-0.4,1.2-0.7c1.1-1,3.2-4.1,4.6-8.6     c-0.2,0-1.9-0.6-2.1-0.6c-0.9-0.1-2,1.1-2.4,3.2c-0.9,1.1-1.4,2.8-1.6,3.3L47,52.1z"></path>
			<g>
				<path id="XMLID_28_" class="st40" d="M59.8,85.5c0.1,0.2,0,0.4,0.1,0.7c0.1,0.3,0.2,0.6,0.4,1.1c0.2,0.8-0.1,1.8,0.2,3      c0.1,0.4,0.1,0.8-0.2,1.2c-0.3,0.4-0.8,1-1.5,1c-0.2,0-0.5-0.1-0.8-0.4c-0.3-0.3-0.5-0.8-0.4-1.3c0-0.2,0.1-0.9,0.1-1.5      c0-0.5-0.1-0.8-0.1-1.4c0-0.6,0.1-1.5,0.1-1.9L59.8,85.5z"></path>
				<path id="XMLID_27_" class="st40" d="M53.5,82.3c0.2,0.6,0.3,0.8,0.4,1.6c-0.1,0.4-0.4,0.6-0.7,0.9l-0.2,0.1      c-0.6,0.3-0.8,1.4-1.3,1.9c-0.4,0.3-1.1,0.5-1.8,0.7c-0.8,0.2-1.5-0.1-1.3-0.7c0.5-1.5,2.7-3.3,2.7-5L53.5,82.3z"></path>
				<linearGradient id="XMLID_256_" gradientUnits="userSpaceOnUse" x1="45.2" y1="65.5715" x2="52.9146" y2="69.7158">
					<stop offset="0" style="stop-color:#235DA3"></stop>
					<stop offset="1" style="stop-color:#123A76"></stop>
				</linearGradient>
				<path id="XMLID_26_" class="st95" d="M50.2,71.4c0.1,2.9,0.9,8.3,0.8,11.1c0.9,0.6,2.1,0.5,2.6-0.3c0.3-2.7,0.7-6.2,0.7-7.7      c0-1.2-0.1-2.3-0.4-3.4c0.4-3.2,2.3-7.6,1.8-10.6c-0.2-1.3-1.1-2.8-1.3-3.8c-2.2,2.7-3.8,1.4-4.8,1.2c0,0.9-0.1,0.8,0,1.8      c0.1,3.3,0.3,6.8,0.4,10.3C50,70.4,50.1,70.9,50.2,71.4z"></path>
				<linearGradient id="XMLID_257_" gradientUnits="userSpaceOnUse" x1="47.4335" y1="65.0953" x2="53.5869" y2="69.1805">
					<stop offset="0" style="stop-color:#235DA3"></stop>
					<stop offset="1" style="stop-color:#123A76"></stop>
				</linearGradient>
				<path id="XMLID_25_" class="st96" d="M51.6,70.8c0,0,1,4.6,2,11.5c0.3-2.7,0.7-6.2,0.7-7.7c0-1.2-0.1-2.3-0.4-3.4      c0.4-3.2,2.3-7.6,1.8-10.6c-0.2-1.3-1.1-2.8-1.3-3.8c-1.4,1.7-2.6,1.8-3.5,1.6L51.6,70.8z"></path>
				<linearGradient id="XMLID_258_" gradientUnits="userSpaceOnUse" x1="46.9452" y1="66.8208" x2="60.0525" y2="73.7634">
					<stop offset="0" style="stop-color:#235DA3"></stop>
					<stop offset="1" style="stop-color:#123A76"></stop>
				</linearGradient>
				<path id="XMLID_24_" class="st97" d="M55.1,73.5c0.5,2.9,2,9.6,2.4,12.5c0.9,0.5,2.2,0.3,2.5-0.5c0-2.7,0-7-0.2-8.5      c-0.2-1.2-0.7-3-1.2-4.1c-0.1-3.2,0.9-7.7,0-10.7c-0.4-1.3-1.5-2.8-1.9-3.8c-0.6,0.9-1.3,1.3-3.2,1.1c-0.2,0-1.8-1.2-2.3-1.3      c0.7,4.1,2.6,9.4,3.6,13.8C54.7,72.5,54.9,73.1,55.1,73.5z"></path>
			</g>
			<linearGradient id="XMLID_259_" gradientUnits="userSpaceOnUse" x1="52.2373" y1="58.4484" x2="56.3223" y2="42.779">
				<stop offset="0" style="stop-color:#1C8EF4"></stop>
				<stop offset="1" style="stop-color:#00CFDD"></stop>
			</linearGradient>
			<path id="XMLID_23_" class="st98" d="M58.9,45.2c-0.6-0.4-2.3-1.5-3.7-2.3c-1.9-1-3.7-1.3-4.9,0.9c-0.7,1.2-1.1,3-1,5.3     c0,0.9,0.2,1.8,0.3,2.7c0.1,1.3-0.2,2.3-0.3,3.4c-0.1,0.8,0.2,1.4,0.2,2.1c0,0.4,0,0.7,0,1c0.6,2.3,6,2.7,8.4,1.1     c-0.1-0.2,0-0.7-0.2-1.2c0.2-0.6,0.4-0.9,0.4-1.6c0.2-1.5-0.1-2.3,0.6-3.7c0.9-1.9,1.9-3.9,1.9-5.3     C60.7,46.4,59.8,45.7,58.9,45.2z"></path>
			<linearGradient id="XMLID_260_" gradientUnits="userSpaceOnUse" x1="59.3013" y1="49.0129" x2="54.7665" y2="56.2023">
				<stop offset="0" style="stop-color:#235DA3"></stop>
				<stop offset="1" style="stop-color:#123A76"></stop>
			</linearGradient>
			<path id="XMLID_22_" class="st99" d="M49.6,58.2c-0.3-1.9-0.2-3.7-0.2-5.4c-0.1-1.6-0.3-3.2-0.1-5c0.2-2.1,0.7-4.4,2.2-5.2     c0.7-0.4,1.3-0.2,3.2,0.3l0,0.2c0.8,0.2,1.5,0.3,2.2,0.7c2.2,1.2,4.3,2.6,4.2,4c-0.2,2.4-2.1,4.3-2.5,7c-0.3,2.3,2,6.3,4.6,7.7     c-0.4,1.1-2.1,2.3-3.1,1.9c-3-1.7-8.1-10.3-3.8-19.5c0.3-0.6-0.6-1-1.7-1.3c-3.4,1-4.4,4.4-4.7,8C49.5,53.8,49.6,56.2,49.6,58.2z     "></path>
			<linearGradient id="XMLID_261_" gradientUnits="userSpaceOnUse" x1="60.5293" y1="48.7518" x2="57.7594" y2="54.7956">
				<stop offset="0" style="stop-color:#235DA3"></stop>
				<stop offset="1" style="stop-color:#123A76"></stop>
			</linearGradient>
			<path id="XMLID_21_" class="st100" d="M61,47.8c-0.2,2.4-2.1,4.3-2.5,7c-0.2,1.6,0.8,4,2.3,5.8c-2.2-1.1-3.5-3.8-3.3-6.3     c-0.9,0.3-2,0.5-2.9,0.4c-0.2-1.9-0.1-3.8,0.1-5.8c0.6-0.3,1.4-1,2.3-1.6c0.3-0.2,0.5-0.3,0.6-0.5C58.9,46,61.1,45.9,61,47.8z"></path>
			<g>
				<path id="XMLID_20_" class="st101" d="M52.2,45.8c-1.3,2.1-0.9,3.1-0.3,4.7c0.6,1.8-0.1,3.7-0.7,5.8c-0.5,0.6-1.4,1.1-2.2,1.4      c0-1.4-0.1-1.9-0.2-2.7c0.7-1,1.2-2.3,1.2-3.2c0-1.9-0.7-3.7,1.8-6.3c0-0.8,0.1-1,0.3-1c0.2-0.1,0.1-0.1,0.6,0.1      c0.4,0.2,0.7,0.3,0.5,0.7C53,45.6,52.8,45.7,52.2,45.8z"></path>
				<linearGradient id="XMLID_262_" gradientUnits="userSpaceOnUse" x1="54.1735" y1="42.6015" x2="54.0501" y2="44.678">
					<stop offset="0" style="stop-color:#FF8A78"></stop>
					<stop offset="1" style="stop-color:#FFA799"></stop>
				</linearGradient>
				<path id="XMLID_19_" class="st102" d="M52.6,43.7c0-0.1-0.1-0.2-0.1-0.3c-0.1-0.3,0-1-0.1-1.8l2.9-0.6l0.6-0.2      c-0.3,1-0.2,2,0,2.8c-0.1,1-2.2,1-3.3,1.1C52.6,44.4,52.6,44,52.6,43.7z"></path>
				<path id="XMLID_18_" class="st23" d="M52.7,44.7c0-0.2,0-0.5,0-0.7c0-0.2-0.1-0.9-0.1-1c-0.3,0-0.7,1.3-1.1,1.8      C52,44.5,52.2,44.5,52.7,44.7z"></path>
				<path id="XMLID_17_" class="st23" d="M56,43.4c-0.3,1-2.1,1.3-3.3,1.3c0.2,0.4,0.5,0.9,0.4,1.2c0.8,0,2.2-0.1,3-1      C56.6,44.3,56.3,43.7,56,43.4z"></path>
				<linearGradient id="XMLID_263_" gradientUnits="userSpaceOnUse" x1="51.9546" y1="39.5284" x2="54.1695" y2="40.0099">
					<stop offset="0" style="stop-color:#FFB89E"></stop>
					<stop offset="1" style="stop-color:#FFA799"></stop>
				</linearGradient>
				<path id="XMLID_16_" class="st103" d="M52.6,43.1c0.4-0.1,1.6-0.4,1.9-0.5c0.6-0.3,0.4-0.8,1-1.7c0.7-0.2,1-0.5,1.1-0.9      c0.4-0.8,0.1-1.9-0.4-2.6c-0.5-0.6-1.1-0.9-1.9-1c-1.5-0.1-2.4,0.5-2.8,1.7c0,0.1-0.1,0.5-0.1,0.7c0,0.3,0.1,0.3,0.1,0.5      c0,0.1,0,0.2-0.2,0.4c-0.2,0.2-0.2,0.7-0.2,1.2c0,0.7,0.1,1.4,0.2,1.6C51.5,43,52,43.2,52.6,43.1z"></path>
				<linearGradient id="XMLID_264_" gradientUnits="userSpaceOnUse" x1="55.4576" y1="37.2032" x2="54.8185" y2="39.8706">
					<stop offset="0" style="stop-color:#5A2D68"></stop>
					<stop offset="1" style="stop-color:#22043D"></stop>
				</linearGradient>
				<path id="XMLID_15_" class="st104" d="M52.8,38.4c0.4-0.1,1.9-0.5,2.5-0.8c0.7-0.2,1.4-0.5,1.8,0c0.3,0.6,0.3,1.6,0.1,2.1      c-0.3,0.7-0.9,1.3-1.7,1.9c-0.3,0.2-0.1-0.9-0.1-1.1C55.2,40.9,55,41,54.9,41c-0.1,0-0.2,0-0.1-0.5c0.1-0.8-0.2-0.9,0.1-1.4      c0.2-0.4-0.1-0.4-0.1-0.5C54.1,38.6,53.6,38.7,52.8,38.4z"></path>
				<path id="XMLID_14_" class="st51" d="M55.7,40.2c0.6-0.1,0.5,0.6,0.3,1c-0.1,0.3-0.3,0.2-0.5,0.4c-0.1,0.2-0.4,0.3-0.5,0.3      c-0.4-0.1,0-0.6,0-0.8C55.1,40.7,55.3,40.2,55.7,40.2z"></path>
				<linearGradient id="XMLID_265_" gradientUnits="userSpaceOnUse" x1="54.7018" y1="36.5427" x2="54.1156" y2="38.3555">
					<stop offset="0" style="stop-color:#5A2D68"></stop>
					<stop offset="1" style="stop-color:#22043D"></stop>
				</linearGradient>
				<path id="XMLID_13_" class="st105" d="M57.1,37.7c-0.5,0-1.1,0.4-1.8,0.6c-1,0.3-2,0.5-2.8,0.1c-0.4-0.2-0.8-0.6-0.8-0.8      C51.3,34.6,56.9,35.1,57.1,37.7z"></path>
			</g>
			<g>
				<linearGradient id="XMLID_266_" gradientUnits="userSpaceOnUse" x1="47.3883" y1="42.9268" x2="47.7449" y2="39.3436">
					<stop offset="0" style="stop-color:#FFB89E"></stop>
					<stop offset="1" style="stop-color:#FFA799"></stop>
				</linearGradient>
				<path id="XMLID_12_" class="st106" d="M46.7,43.4c0.4,0.2,1.2,0.3,1.7,0c0-0.6,0-0.9,0.1-1c0.1-0.2,0.2-0.2,0.4-0.4      c0.2-0.3,0.3-0.6,0.3-1.1c0-0.5,0.1-1.3-0.1-1.4c-0.4-0.1-2-0.6-2.6-0.1c-0.4,0.3-0.2,1.3-0.2,1.5c0.1,0.6,0.2,0.8,0.3,1.2      C46.6,42.3,46.6,42.7,46.7,43.4z"></path>
				<path id="XMLID_11_" class="st55" d="M48.6,41.2c-0.5,0.7-0.6,0.1-1.2,1.4c0-1-0.6-1.1-0.9-1.5c-0.3-0.5-0.1-1.1,0-1.3      c0.1-0.3,0.7-0.2,1.4-0.1c0.5,0.1,1,0,1.1,0.5C48.9,40.6,48.8,40.8,48.6,41.2z"></path>
			</g>
			<linearGradient id="XMLID_267_" gradientUnits="userSpaceOnUse" x1="47.5725" y1="42.4068" x2="47.6841" y2="51.5072">
				<stop offset="0" style="stop-color:#235DA3"></stop>
				<stop offset="1" style="stop-color:#123A76"></stop>
			</linearGradient>
			<path id="XMLID_10_" class="st107" d="M48.4,42.6c0,0.2-0.2,0.3-0.5,0.4c-0.5,0.1-1.1,0.1-1.3-0.1l0,0.6     c-0.1,0.2-0.2,0.5-0.2,0.7c-0.4,2.6-0.4,4.8,0.1,7.4c0.1,0.3,0.2,0.5,0.4,0.6c0.3,0.2,1,0.3,1.5,0l0.8-2.8     c0.2-1.3-0.1-3.5-0.5-5.7c0-0.1-0.2-0.4-0.2-0.5C48.5,43.1,48.4,42.7,48.4,42.6z"></path>
			<g>
				<path id="XMLID_9_" class="st108" d="M51.2,39.4l-4.8,0.4l0.4,2.1c1.5-0.4,3.2-0.8,4.7-1.2C51.9,40.5,51.7,39.4,51.2,39.4z"></path>
				<path id="XMLID_8_" class="st109" d="M46.9,40c0.3,0.4,0.5,1,0.3,1.5c-0.2,0.5-0.5,0.5-0.9,0.2c-0.3-0.4-0.5-1-0.3-1.5      C46.2,39.7,46.6,39.6,46.9,40z"></path>
				<path id="XMLID_7_" class="st110" d="M46.8,40.1c0.3,0.3,0.4,0.8,0.2,1.2c-0.1,0.4-0.4,0.4-0.7,0.1c-0.3-0.3-0.4-0.8-0.2-1.2      C46.2,39.9,46.5,39.9,46.8,40.1z"></path>
			</g>
			<path id="XMLID_6_" class="st111" d="M46.4,39.4c0.1-0.2,0.5-0.3,1.3-0.3c1,0,1.3-0.1,1.6,0.1c0.3,0.2,0.4,0.6,0.4,1     c0,0.2-0.3,0.2-0.8,0.2c-0.4,0-1,0.2-1.3,0.1c-0.2,0-0.2-0.6-0.3-0.9C47.1,39.4,46.6,39.3,46.4,39.4z"></path>
			<g>
				<path id="XMLID_5_" class="st108" d="M53.2,39.9l-4.8,0.4l0.4,2.1c1.5-0.4,3.2-0.8,4.7-1.2C53.9,41,53.7,40,53.2,39.9z"></path>
				<path id="XMLID_4_" class="st109" d="M48.9,40.5c0.3,0.4,0.5,1,0.3,1.5c-0.2,0.5-0.5,0.5-0.9,0.2c-0.3-0.4-0.5-1-0.3-1.5      C48.2,40.2,48.5,40.2,48.9,40.5z"></path>
				<path id="XMLID_3_" class="st110" d="M48.8,40.7c0.3,0.3,0.4,0.8,0.2,1.2c-0.1,0.4-0.4,0.4-0.7,0.1c-0.3-0.3-0.4-0.8-0.2-1.2      C48.2,40.5,48.5,40.4,48.8,40.7z"></path>
			</g>
			<g>
				<linearGradient id="XMLID_268_" gradientUnits="userSpaceOnUse" x1="49.3957" y1="41.2861" x2="50.9844" y2="42.1077">
					<stop offset="0" style="stop-color:#FFB89E"></stop>
					<stop offset="1" style="stop-color:#FFA799"></stop>
				</linearGradient>
				<path id="XMLID_2_" class="st112" d="M50.6,44.7c0.4,0.1,1.2,0,1.7-0.3c-0.1-0.5-0.1-0.7-0.1-0.9c0-0.2,0.1-0.4,0.3-0.7      c0.2-0.3,0.2-0.6,0.1-1.1c-0.1-0.5-0.2-1.6-0.5-1.7c-0.4-0.1-1.9-0.2-2.7,0.2c-0.1,0.3,0.4,0.1,0.5,1.1c0,0.4-0.2,1-0.1,1.4      c0.1,0.3,0.3,0.6,0.3,0.6C50.4,43.6,50.5,44,50.6,44.7z"></path>
				<linearGradient id="XMLID_269_" gradientUnits="userSpaceOnUse" x1="55.6568" y1="44.7495" x2="56.0384" y2="52.789">
					<stop offset="0" style="stop-color:#235DA3"></stop>
					<stop offset="1" style="stop-color:#123A76"></stop>
				</linearGradient>
				<path id="XMLID_1_" class="st113" d="M54.1,53.9c1.1-0.4,3.6-1.1,6-3.6c1.2-1.2,1.7-3.3,0-4.2c-0.8-0.4-2.6,0.8-3.7,2.6      c-0.5,0.3-1.3,0.6-2,1.1c-0.1-0.4-0.2-0.8-0.3-1.1c-0.5-1.6-1.2-3.2-1.4-3.8c0-0.1-0.2-0.3-0.3-0.5c0-0.2-0.2-0.6-0.2-0.7      c0,0.4-1.5,0.7-1.8,0.5l0.1,0.6c-0.1,0.2-0.1,0.6-0.1,0.7c0.1,2.6,0.4,5.1,1.3,7.5c0,0.1,0.1,0.1,0.1,0.2l0,0      C51.9,53.8,52.8,54.4,54.1,53.9z"></path>
			</g>
		</g>
	</g>
</g>
</svg>
