<?xml version="1.0" encoding="UTF-8"?>
<svg xmlns="http://www.w3.org/2000/svg" xmlns:xlink="http://www.w3.org/1999/xlink" id="Layer_1" x="0px" y="0px" width="117px" height="36px" viewBox="0 0 117 36" style="enable-background:new 0 0 117 36;" xml:space="preserve">
  <style type="text/css">	.st0{fill:#B46BE1;}	.st1{fill:#2D28A3;}</style>
  <g>	<g>		<path class="st0" d="M11.6,8.7c0.7,0,2.2,0.1,2.3,0.1c1,0.1,1.9,0.4,2.8,0.8c2.8,1.4,4.5,3.6,5.2,6.7c0.2,1.3,0.1,3,0.1,3.1    c0,0.2-0.1,0.4-0.1,0.7c-0.2,0.9-0.5,1.7-0.9,2.5c-1.1,1.9-2.6,3.4-4.7,4.2c-0.6,0.2-1.1,0.4-1.7,0.5c-1.3,0.3-3.1,0.1-3.1,0.1    c-1.1-0.2-2.2-0.5-3.2-1.1c-0.9-0.5-1.8-1.2-2.5-2c-1.2-1.3-1.9-2.9-2.2-4.6c0,0-0.1-1.6,0-2.8c0.1-1.1,0.5-2,0.9-3    c0-0.1,0-0.2,0.1-0.2c0,0.1-0.1,0.2-0.1,0.3c-0.7,1.7-0.8,3.4-0.4,5.1c1.1,4.6,6,7.4,10.5,5.9c3.9-1.3,6.3-5.3,5.5-9.4    c-0.5-2.4-1.8-4.3-3.9-5.5c-0.8-0.5-1.6-0.8-2.5-1C13,8.8,12.3,8.7,11.6,8.7C11.6,8.7,11.6,8.7,11.6,8.7z"></path>		<path class="st1" d="M4.7,13.3c1.6-2.6,3.9-4.1,6.9-4.5c0.7,0,1.5,0,2.2,0.2c0.9,0.2,1.7,0.5,2.5,1c2.1,1.3,3.4,3.1,3.9,5.5    c0.8,4.1-1.6,8.1-5.5,9.4c-4.5,1.5-9.4-1.2-10.5-5.9c-0.4-1.7-0.3-3.4,0.4-5.1c0-0.1,0.1-0.2,0.1-0.3v0    C4.7,13.5,4.7,13.4,4.7,13.3L4.7,13.3C4.7,13.3,4.7,13.3,4.7,13.3z M12.1,10.4c-3.6,0-6.6,2.9-6.6,6.6c0,3.6,2.9,6.6,6.6,6.6    c3.6,0,6.6-2.9,6.6-6.5C18.7,13.4,15.8,10.4,12.1,10.4z"></path>		<path class="st0" d="M4.7,13.4c0,0.1,0,0.1-0.1,0.2C4.6,13.4,4.6,13.4,4.7,13.4z"></path>		<path class="st0" d="M4.7,13.3C4.7,13.3,4.7,13.3,4.7,13.3C4.7,13.3,4.7,13.3,4.7,13.3z"></path>		<path class="st0" d="M12.1,10.4c3.7,0,6.6,2.9,6.6,6.6c0,3.6-3,6.5-6.6,6.5c-3.6,0-6.6-2.9-6.6-6.6C5.5,13.3,8.5,10.4,12.1,10.4z     M14.6,15.2c0.5,0,0.9-0.4,0.9-0.9c0-0.5-0.4-0.9-0.9-0.9c-0.5,0-0.9,0.4-0.9,0.9C13.6,14.8,14.1,15.2,14.6,15.2z"></path>		<path class="st1" d="M14.6,15.2c-0.5,0-0.9-0.4-0.9-0.9c0-0.5,0.4-0.9,0.9-0.9c0.5,0,0.9,0.4,0.9,0.9    C15.5,14.8,15.1,15.2,14.6,15.2z"></path>	</g>	<g>		<path d="M38.7,20.6c0,0.8-0.1,1.4-0.4,2c-0.3,0.6-0.7,1-1.2,1.4c-0.5,0.4-1.1,0.7-1.7,0.9s-1.4,0.3-2.1,0.3    c-0.7,0-1.4-0.1-2.1-0.3c-0.7-0.2-1.2-0.5-1.7-0.9c-0.5-0.4-0.9-0.9-1.2-1.4c-0.3-0.6-0.4-1.2-0.4-2v-5.2c0-0.8,0.2-1.4,0.5-2    c0.3-0.6,0.7-1,1.3-1.4c0.5-0.4,1.1-0.6,1.7-0.8c0.7-0.2,1.3-0.3,2-0.3s1.3,0.1,2,0.3c0.7,0.2,1.2,0.5,1.8,0.8    c0.5,0.4,0.9,0.8,1.3,1.4c0.3,0.6,0.5,1.2,0.5,2C38.7,15.4,38.7,20.6,38.7,20.6z M35.5,16c0-0.4-0.1-0.7-0.2-1    c-0.1-0.3-0.3-0.5-0.5-0.7C34.5,14.2,34.3,14,34,14c-0.3-0.1-0.5-0.1-0.8-0.1c-0.3,0-0.5,0-0.8,0.1c-0.3,0.1-0.5,0.2-0.7,0.4    c-0.2,0.2-0.4,0.4-0.5,0.7C31,15.3,31,15.6,31,16V20c0,0.4,0.1,0.7,0.2,1c0.1,0.3,0.3,0.5,0.5,0.7s0.5,0.3,0.7,0.4    c0.3,0.1,0.5,0.1,0.8,0.1c0.3,0,0.5,0,0.8-0.1c0.3-0.1,0.5-0.2,0.7-0.4c0.2-0.2,0.4-0.4,0.5-0.7c0.1-0.3,0.2-0.6,0.2-1V16z"></path>		<path d="M44.3,17v8H41V11h2.9l2.3,3.4l3.1,4.6h0.1v-8h3.2v14h-2.9l-2.9-4.2L44.3,17L44.3,17C44.3,17,44.3,17,44.3,17z"></path>		<path d="M60.8,13.9V25h-3.2V13.9H54V11h10.3v2.9H60.8z"></path>		<path d="M72,11c0.8,0,1.4,0.1,2,0.4s1,0.6,1.3,1c0.3,0.4,0.6,0.9,0.7,1.4c0.2,0.5,0.2,1.1,0.2,1.6c0,0.4-0.1,0.7-0.2,1.1    c-0.1,0.4-0.3,0.7-0.5,1c-0.2,0.3-0.4,0.6-0.7,0.9c-0.3,0.3-0.6,0.5-1,0.7l2.5,5.7h-3.4l-2.1-5.1h-2V25h-3.2V11H72z M69,17h2.4    c0.6,0,1-0.2,1.3-0.5c0.3-0.3,0.4-0.7,0.4-1.1s-0.1-0.8-0.4-1.1c-0.3-0.3-0.7-0.5-1.3-0.5H69L69,17L69,17z"></path>		<path d="M88.8,20.6c0,0.8-0.1,1.4-0.4,2c-0.3,0.6-0.7,1-1.2,1.4c-0.5,0.4-1.1,0.7-1.7,0.9c-0.7,0.2-1.4,0.3-2.1,0.3    c-0.7,0-1.4-0.1-2.1-0.3c-0.7-0.2-1.2-0.5-1.7-0.9c-0.5-0.4-0.9-0.9-1.2-1.4c-0.3-0.6-0.4-1.2-0.4-2v-5.2c0-0.8,0.2-1.4,0.5-2    c0.3-0.6,0.7-1,1.3-1.4c0.5-0.4,1.1-0.6,1.7-0.8c0.7-0.2,1.3-0.3,2-0.3c0.7,0,1.3,0.1,2,0.3c0.7,0.2,1.2,0.5,1.8,0.8    c0.5,0.4,0.9,0.8,1.3,1.4c0.3,0.6,0.5,1.2,0.5,2C88.8,15.4,88.8,20.6,88.8,20.6z M85.6,16c0-0.4-0.1-0.7-0.2-1    c-0.1-0.3-0.3-0.5-0.5-0.7c-0.2-0.2-0.4-0.3-0.7-0.4c-0.3-0.1-0.5-0.1-0.8-0.1c-0.3,0-0.5,0-0.8,0.1c-0.3,0.1-0.5,0.2-0.7,0.4    c-0.2,0.2-0.4,0.4-0.5,0.7c-0.1,0.3-0.2,0.6-0.2,1V20c0,0.4,0.1,0.7,0.2,1c0.1,0.3,0.3,0.5,0.5,0.7c0.2,0.2,0.5,0.3,0.7,0.4    c0.3,0.1,0.5,0.1,0.8,0.1c0.3,0,0.5,0,0.8-0.1c0.3-0.1,0.5-0.2,0.7-0.4s0.4-0.4,0.5-0.7s0.2-0.6,0.2-1V16z"></path>		<path d="M97.3,11c0.8,0,1.5,0.1,2,0.4c0.6,0.2,1,0.6,1.4,1c0.3,0.4,0.6,0.9,0.8,1.4c0.2,0.5,0.2,1.1,0.2,1.6    c0,0.6-0.1,1.1-0.3,1.6c-0.2,0.5-0.5,1-0.9,1.4c-0.4,0.4-0.9,0.7-1.4,1s-1.2,0.4-1.9,0.4h-2.8V25h-3.2V11H97.3z M94.4,17h2.4    c0.6,0,1-0.2,1.3-0.5c0.3-0.3,0.4-0.7,0.4-1.1c0-0.4-0.1-0.8-0.4-1.1c-0.2-0.3-0.7-0.5-1.3-0.5h-2.4C94.4,13.9,94.4,17,94.4,17z"></path>		<path d="M107.8,16.5l1-2.4l1.3-3.1h3.4l-4.2,8.4V25h-3.2v-5.5l-4.2-8.4h3.4l1.3,3.1l1,2.3H107.8z"></path>	</g></g>
</svg>
