<?xml version="1.0" encoding="UTF-8"?>
<svg xmlns="http://www.w3.org/2000/svg" width="624" height="600" viewBox="0 0 624 600" fill="none">
  <path d="M110.407 82.2093C110.367 85.3334 109.253 88.7987 107.492 91.8662C105.731 94.9338 103.323 97.602 100.692 99.1321L31.7226 139.236C26.4604 142.296 22.2221 139.688 22.3026 133.439C22.3206 132.114 22.5325 130.722 22.9026 129.332C23.4055 127.441 24.2069 125.545 25.2188 123.781C26.5261 121.503 28.1916 119.446 30.0392 117.91C30.7958 99.5909 43.4512 77.9231 58.7512 69.0274C68.7621 63.2067 77.4791 64.263 82.389 70.6528C83.8038 69.3045 85.3067 68.1484 86.8647 67.2426C87.3467 66.9625 87.8213 66.7152 88.2869 66.4947C95.7548 62.9981 101.505 67.0757 101.386 76.1785C101.386 76.183 101.386 76.183 101.386 76.1874C106.461 73.4879 110.486 76.1219 110.407 82.2093Z" fill="#E5E5E5"></path>
  <path d="M175.55 30.3727C175.523 32.4614 174.778 34.7796 173.601 36.8311C172.423 38.8825 170.813 40.6673 169.053 41.6894L122.936 68.506C119.417 70.5515 116.583 68.8084 116.636 64.6295C116.648 63.7431 116.79 62.8119 117.038 61.8838C117.375 60.6204 117.909 59.3511 118.587 58.1712C119.461 56.6486 120.575 55.272 121.81 54.2455C122.316 41.9963 130.778 27.5063 141.01 21.5575C147.703 17.6646 153.532 18.3723 156.816 22.6451C157.762 21.7437 158.766 20.9705 159.808 20.3642C160.13 20.1764 160.448 20.0111 160.759 19.8651C165.752 17.5261 169.598 20.2539 169.517 26.3413C169.517 26.3443 169.517 26.3443 169.517 26.3472C172.911 24.5416 175.602 26.3026 175.55 30.3727Z" fill="#E5E5E5"></path>
  <path d="M509.639 69.4179C509.68 72.542 510.793 76.0073 512.554 79.0749C514.315 82.1424 516.724 84.8106 519.355 86.3407L588.322 126.443C593.584 129.504 597.823 126.895 597.742 120.647C597.724 119.321 597.512 117.929 597.142 116.539C596.639 114.649 595.838 112.751 594.826 110.988C593.519 108.71 591.853 106.653 590.006 105.118C589.248 86.7995 576.594 65.1317 561.294 56.236C551.283 50.4153 542.566 51.4716 537.656 57.8614C536.241 56.5131 534.738 55.357 533.18 54.4512C532.698 54.1711 532.224 53.9238 531.758 53.7033C524.29 50.2067 518.54 54.2843 518.659 63.3871C518.659 63.3916 518.659 63.3916 518.659 63.3961C513.585 60.6965 509.56 63.3305 509.639 69.4179Z" fill="#E5E5E5"></path>
  <path d="M450.989 11.3689C451.016 13.4576 451.76 15.7758 452.938 17.8273C454.115 19.8787 455.726 21.6635 457.485 22.6855L503.603 49.5022C507.122 51.5477 509.956 49.8046 509.902 45.6257C509.89 44.7393 509.748 43.8096 509.501 42.88C509.163 41.6166 508.629 40.3473 507.952 39.1688C507.077 37.6463 505.964 36.2697 504.728 35.2432C504.222 22.9939 495.76 8.504 485.529 2.55518C478.835 -1.33771 473.006 -0.630047 469.723 3.64274C468.776 2.7414 467.772 1.96819 466.73 1.36184C466.408 1.17412 466.09 1.00875 465.78 0.862745C460.786 -1.47477 456.94 1.25159 457.021 7.33897C457.021 7.34195 457.021 7.34195 457.021 7.34493C453.627 5.53629 450.937 7.29874 450.989 11.3689Z" fill="#E5E5E5"></path>
  <path d="M422.148 134.18C422.148 139.247 409.417 143.355 393.712 143.355C378.008 143.355 365.276 139.247 365.276 134.18C365.276 129.114 378.008 125.006 393.712 125.006C409.418 125.008 422.148 129.115 422.148 134.18Z" fill="#E5E5E5"></path>
  <path d="M414.175 92.4419V128.486C414.175 134.499 405.008 139.371 393.712 139.371C382.417 139.371 373.259 134.499 373.259 128.486V92.4419H414.175Z" fill="#51557C"></path>
  <path d="M393.714 103.329C405.013 103.329 414.173 98.4529 414.173 92.4374C414.173 86.4219 405.013 81.5454 393.714 81.5454C382.415 81.5454 373.255 86.4219 373.255 92.4374C373.255 98.4529 382.415 103.329 393.714 103.329Z" fill="#3A4059"></path>
  <path d="M411.609 92.442C411.609 92.8144 411.481 93.2226 411.215 93.6621C409.633 96.3408 403.264 99.9357 393.713 99.9357C384.161 99.9357 377.79 96.3408 376.208 93.6621C375.943 93.2211 375.816 92.8144 375.816 92.442C375.816 89.7975 382.614 84.9363 393.713 84.9363C404.811 84.9363 411.609 89.7961 411.609 92.442Z" fill="#252B3D"></path>
  <path d="M393.584 90.392L392.103 89.2105L391.318 88.5833L389.095 86.8075C389.095 86.8075 394.402 35.3687 416.295 33.423C423.035 32.8241 427.968 41.0583 414.174 56.4495C401.391 70.7175 393.584 90.392 393.584 90.392Z" fill="#BD10E9"></path>
  <path d="M392.103 89.2104L391.318 88.5832C394.037 77.1742 399.062 66.4654 402.972 59.2309C407.615 50.6406 411.734 44.9525 411.776 44.8974C411.924 44.6947 412.207 44.6486 412.41 44.7975C412.613 44.945 412.659 45.2281 412.512 45.4307C412.47 45.4873 408.379 51.1352 403.765 59.6763C399.838 66.9451 394.776 77.7448 392.103 89.2104Z" fill="#9B4BB0"></path>
  <path d="M382.724 74.08L383.849 72.5574L384.445 71.7499L386.134 69.4616C386.134 69.4616 367.718 21.129 346.062 24.8863C339.395 26.0424 336.757 35.2689 354.06 46.5885C370.098 57.0812 382.724 74.08 382.724 74.08Z" fill="#BD10E9"></path>
  <path d="M383.849 72.5573L384.444 71.7498C378.87 61.4269 371.249 52.3748 365.6 46.3917C358.895 39.2868 353.445 34.8531 353.391 34.8099C353.197 34.6519 352.91 34.6817 352.754 34.8769C352.594 35.0706 352.624 35.3566 352.819 35.5145C352.875 35.5592 358.286 39.9631 364.951 47.0263C370.623 53.0377 378.305 62.1688 383.849 72.5573Z" fill="#9B4BB0"></path>
  <path d="M398.942 93.5875C397.576 87.4882 392.314 61.7233 395.014 37.6434C398.346 7.9306 385.604 2.34827 378.156 8.70232C355.618 27.9284 386.176 85.7689 390.459 93.5875H398.942Z" fill="#DC56FF"></path>
  <path d="M396.033 93.5876C389.875 78.165 386.885 61.7383 385.444 50.1684C383.707 36.2268 383.785 26.1362 383.786 26.0349C383.789 25.6729 383.498 25.3764 383.134 25.3735C382.772 25.369 382.473 25.6595 382.472 26.023C382.47 26.1243 382.392 36.2849 384.136 50.3085C385.57 61.8411 388.537 78.1725 394.618 93.5861L396.033 93.5876Z" fill="#BD10E9"></path>
  <path d="M209.22 271.993C245.554 259.322 269.365 232.925 262.404 213.032C255.443 193.14 220.346 187.285 184.012 199.956C147.678 212.627 123.866 239.024 130.827 258.917C137.788 278.809 172.886 284.664 209.22 271.993Z" fill="#E5E5E5"></path>
  <path d="M247.204 181.747V241.013C249.162 242.361 251.118 242.361 253.076 241.013V181.747H247.204Z" fill="#8800B5"></path>
  <path d="M208.867 235.212C206.909 236.56 204.953 236.56 202.995 235.212V157.843H208.867V235.212Z" fill="#8800B5"></path>
  <path d="M191.409 269.646C189.451 270.994 187.495 270.994 185.537 269.646V192.277H191.409V269.646Z" fill="#8800B5"></path>
  <path d="M175.737 171.398L204.202 154.993C204.788 154.656 205.511 154.656 206.097 154.996L234.414 171.397H253.076V182.527H252.913C253.283 183.36 253.018 184.419 252.124 184.929L192.737 218.684C189.903 220.297 186.429 220.3 183.59 218.694L141.087 194.649C140.344 194.228 140.034 193.43 140.153 192.695H140.131V181.56H158.1L166.215 176.882L175.737 171.398Z" fill="#8800B5"></path>
  <path d="M140.128 189.343V244.439C142.086 245.786 144.042 245.786 146 244.439V189.343H140.128Z" fill="#8800B5"></path>
  <path d="M141.088 183.21L183.589 207.254C186.428 208.86 189.902 208.855 192.738 207.245L252.123 173.49C253.39 172.771 253.397 170.95 252.136 170.22L206.097 143.552C205.512 143.213 204.79 143.213 204.205 143.551L141.076 179.937C139.809 180.665 139.816 182.492 141.088 183.21Z" fill="#A200CB"></path>
  <path d="M216.517 53.7046C214.074 54.019 211.646 54.3199 209.247 54.6388C200.829 55.7561 192.288 56.6753 183.762 56.7737L183.447 51.6085L182.437 56.7856C180.176 56.7886 177.915 56.7349 175.66 56.6053L174.982 51.61L173.605 56.4682C172.435 56.3818 171.268 56.2701 170.101 56.139C168.355 55.9394 166.612 55.6906 164.879 55.3792C166.64 51.9541 168.34 47.0184 169.578 39.2237C173.796 12.7109 183.838 10.7906 183.838 10.7906C199.91 7.21649 212.51 17.164 214.575 25.8183C216.641 34.4711 213.086 41.4926 216.463 53.511C216.481 53.5735 216.499 53.6391 216.517 53.7046Z" fill="#252B3D"></path>
  <path d="M215.593 108.609C215.609 108.744 215.629 108.88 215.656 109.018C215.689 109.246 215.732 109.48 215.781 109.714C218.311 122.144 236.507 142.888 236.507 142.888L245.848 137.443C236.98 125.56 227.168 100.932 227.168 100.932L221.015 105.011L215.593 108.609Z" fill="#BD10E9"></path>
  <path d="M208.389 93.7687C209.53 99.4628 212.391 104.533 215.201 108.403C215.356 108.612 215.505 108.816 215.657 109.017C215.78 109.179 215.899 109.337 216.019 109.492C216.838 110.559 217.638 111.518 218.377 112.354C219.66 110.753 221.072 109.269 222.384 107.691C223.434 106.426 224.271 105 225.194 103.648C225.806 102.746 226.453 101.806 227.171 100.932C221.193 87.8422 216.042 60.4177 216.042 60.4177C216.042 60.4177 205.835 81.0219 208.389 93.7687Z" fill="#BD10E9"></path>
  <path d="M215.201 108.403C215.356 108.612 215.505 108.816 215.657 109.017C215.69 109.245 215.733 109.479 215.783 109.713C215.859 109.64 215.935 109.568 216.017 109.492C217.198 108.406 218.944 107.086 221.093 106.304C221.351 106.209 221.515 105.978 221.536 105.723C221.546 105.628 221.533 105.531 221.5 105.44C221.421 105.219 221.236 105.063 221.017 105.011C220.894 104.984 220.758 104.991 220.63 105.038C218.335 105.875 216.477 107.246 215.201 108.403Z" fill="#A200CB"></path>
  <path d="M263.86 257.622C262.502 258.069 261.526 259.292 261.312 260.729C261.126 261.987 260.978 263.784 261.051 266.169C261.214 271.487 261.284 273.728 261.284 273.728C261.284 273.728 262.89 276.463 267.513 277.226L269.285 277.512C269.285 277.512 279.336 283.695 284.222 284.178C290.598 284.808 297.113 281.882 291.841 275.69C286.861 269.843 279.537 267.499 277.374 262.815C277.121 262.268 275.487 261.105 275.072 260.674C271.537 257.024 268.819 255.99 263.86 257.622Z" fill="#BD10E9"></path>
  <path d="M274.781 268.981C275.013 268.981 275.232 268.846 275.328 268.621C275.335 268.603 276.142 266.779 277.644 266.28C279.082 265.801 280.627 267.052 280.644 267.064C280.897 267.272 281.27 267.237 281.479 266.985C281.688 266.733 281.654 266.361 281.403 266.151C281.32 266.082 279.341 264.463 277.268 265.154C275.255 265.824 274.276 268.059 274.235 268.153C274.105 268.454 274.246 268.803 274.547 268.932C274.625 268.965 274.704 268.981 274.781 268.981Z" fill="white"></path>
  <path d="M276.862 270.464C277.093 270.464 277.312 270.328 277.408 270.103C277.415 270.085 278.223 268.262 279.724 267.763C281.163 267.283 282.707 268.534 282.724 268.546C282.978 268.755 283.351 268.719 283.561 268.467C283.77 268.216 283.736 267.843 283.485 267.633C283.401 267.565 281.424 265.947 279.35 266.636C277.336 267.307 276.357 269.541 276.317 269.635C276.187 269.936 276.327 270.285 276.629 270.415C276.705 270.449 276.784 270.464 276.862 270.464Z" fill="white"></path>
  <path d="M279.235 271.791C279.466 271.791 279.685 271.656 279.781 271.431C279.788 271.413 280.596 269.589 282.097 269.09C283.536 268.61 285.08 269.862 285.095 269.874C285.349 270.082 285.723 270.047 285.932 269.795C286.141 269.543 286.107 269.171 285.856 268.96C285.773 268.892 283.794 267.273 281.721 267.964C279.708 268.634 278.729 270.869 278.688 270.963C278.558 271.264 278.699 271.614 279 271.742C279.076 271.775 279.155 271.791 279.235 271.791Z" fill="white"></path>
  <path d="M261.977 247.424L264.737 260.303C264.737 260.303 268.973 263.606 273.674 261.407L271.401 247.497C271.401 247.497 265.22 245.565 261.977 247.424Z" fill="#FCB38F"></path>
  <path d="M220.609 147.839C220.609 147.839 266.193 166.951 268.498 176.439C270.804 185.926 274.808 251.901 274.808 251.901C274.808 251.901 268.655 255.364 261.853 254.018C261.853 254.018 257.74 231.924 255.819 225.994C253.898 220.065 249.543 198.643 248.839 190.75C248.839 190.75 211.522 176.179 206.342 167.361C194.96 147.985 220.609 147.839 220.609 147.839Z" fill="#252B3D"></path>
  <path d="M275.512 246.886L276.243 253.376C276.243 253.376 269.392 256.872 261.455 255.865L260.536 250.108C260.536 250.108 269.678 249.404 275.512 246.886Z" fill="#51557C"></path>
  <path d="M171.62 146.027C171.62 146.027 167.632 163.896 171.047 178.484C173.811 190.292 220.992 177.574 221.985 166.64C222.977 155.706 217.356 140.44 217.356 140.44L171.62 146.027Z" fill="#252B3D"></path>
  <path d="M220.609 147.839C203.16 153.765 184.941 157.588 170.544 148.062C173.106 133.805 175.488 115.237 174.041 106.843C171.624 92.8437 158.054 69.175 169.466 64.1379C172.177 62.9401 176.421 61.7766 181.271 60.7129C187.72 59.299 195.28 58.0521 201.924 57.0881C205.06 56.6218 208.633 56.744 210.713 57.0405C215.42 57.7124 217.088 59.7847 215.766 64.4583C214.15 70.1776 213.922 76.3187 216.657 82.5565C221.26 93.0508 214.135 98.7433 213.09 108.073C212.264 115.583 217.838 136.288 220.609 147.839Z" fill="#BD63D4"></path>
  <path d="M195.618 74.784C196.855 74.784 198.043 74.4309 199.146 73.7218C206.188 69.2032 202.263 57.0508 202.093 56.5353L200.837 56.9494C200.875 57.0657 204.611 68.6445 198.429 72.6119C196.625 73.7694 194.597 73.7501 192.402 72.5538C187.704 69.9928 183.892 63.0026 183.892 59.7965H182.57C182.57 63.7207 186.901 71.0595 191.769 73.7128C193.079 74.4265 194.375 74.784 195.618 74.784Z" fill="white"></path>
  <path d="M193.877 108.609C206.005 108.609 212.502 105.142 212.823 104.966C213.15 104.787 213.271 104.376 213.09 104.05C212.911 103.724 212.501 103.603 212.173 103.782C212.082 103.831 202.912 108.697 186.271 106.818C185.901 106.776 185.565 107.043 185.523 107.413C185.481 107.783 185.748 108.117 186.119 108.159C188.92 108.476 191.506 108.609 193.877 108.609Z" fill="#BD10E9"></path>
  <path d="M196.747 84.1327C196.813 84.1327 196.878 84.1238 196.944 84.1029C204.527 81.7997 206.239 76.6107 206.309 76.3902C206.421 76.0341 206.222 75.6557 205.867 75.544C205.513 75.4337 205.133 75.6289 205.019 75.9834C204.955 76.1801 203.409 80.7285 196.552 82.8113C196.195 82.92 195.992 83.2969 196.101 83.653C196.189 83.945 196.458 84.1327 196.747 84.1327Z" fill="#BD10E9"></path>
  <path d="M187.163 144.783C203.824 144.783 213.248 135.631 213.641 135.241C213.905 134.978 213.908 134.551 213.644 134.287C213.381 134.022 212.953 134.02 212.687 134.283C212.595 134.374 203.239 143.433 187.161 143.433C186.791 143.426 186.481 143.733 186.481 144.108C186.481 144.48 186.784 144.783 187.157 144.783C187.16 144.783 187.163 144.783 187.163 144.783Z" fill="#BD10E9"></path>
  <path d="M189.09 141.668C189.096 141.668 189.102 141.668 189.106 141.668C195.319 141.516 203.142 136.51 203.472 136.297C203.785 136.094 203.875 135.677 203.672 135.364C203.469 135.052 203.051 134.962 202.738 135.165C202.66 135.215 194.901 140.178 189.073 140.32C188.7 140.328 188.405 140.638 188.414 141.011C188.423 141.376 188.724 141.668 189.09 141.668Z" fill="#BD10E9"></path>
  <path d="M186.444 48.4085C186.444 48.4085 177.516 45.1294 175.735 35.9879C173.953 26.8464 174.476 13.4202 186.975 9.47224C199.474 5.52423 211.023 9.31134 213.811 20.8261C213.811 20.8261 204.223 43.7573 186.444 48.4085Z" fill="#252B3D"></path>
  <path d="M200.465 52.7767L199.786 59.1039L199.407 62.8031C192.179 65.9109 184.777 61.2552 184.856 60.6012C185.645 57.7944 186.247 52.9823 186.444 48.4086C186.571 48.3207 186.708 48.2462 186.854 48.1896C190.666 46.5344 200.465 52.7767 200.465 52.7767Z" fill="#FCB38F"></path>
  <path d="M200.465 52.7767L199.786 59.1039C192.566 56.5534 188.614 51.2422 186.854 48.1896C190.666 46.5344 200.465 52.7767 200.465 52.7767Z" fill="#FD8471"></path>
  <path d="M211.634 32.7667C211.634 32.7667 214.45 29.4295 216.233 32.4211C218.017 35.4126 214.781 43.7675 210.134 41.421L211.634 32.7667Z" fill="#FD8471"></path>
  <path d="M212.993 40.0491C213.049 40.3799 213.362 40.6033 213.695 40.5482C214.028 40.4931 214.25 40.1802 214.195 39.8495C214.14 39.5187 213.826 39.2953 213.493 39.3504C213.162 39.4055 212.938 39.7184 212.993 40.0491Z" fill="white"></path>
  <path d="M211.322 38.8495C211.498 38.86 211.667 38.7527 211.726 38.5769C212.614 35.9906 215.401 35.0803 215.429 35.0714C215.641 35.0043 215.759 34.7779 215.692 34.5663C215.625 34.3548 215.398 34.2371 215.186 34.3041C215.056 34.3443 211.985 35.3395 210.962 38.3177C210.891 38.5277 211.003 38.7572 211.213 38.8287C211.25 38.8406 211.286 38.848 211.322 38.8495Z" fill="#D6615D"></path>
  <path d="M214.15 37.682C214.225 37.6864 214.301 37.67 214.371 37.6298C214.565 37.5196 214.634 37.2737 214.523 37.0816C214.505 37.0503 214.064 36.2875 213.08 35.7795C212.883 35.6767 212.638 35.7541 212.537 35.9523C212.434 36.1489 212.512 36.3933 212.71 36.4946C213.471 36.8879 213.819 37.4719 213.822 37.4778C213.892 37.603 214.017 37.6745 214.15 37.682Z" fill="#D6615D"></path>
  <path d="M213.91 36.9473C213.841 37.8859 213.744 38.7634 213.614 39.559C212.426 46.7265 206.117 61.2805 193.485 53.8657C190.454 52.0853 188.202 50.3274 186.444 48.4085C185.117 46.9649 184.068 45.4288 183.173 43.729C182.826 43.072 182.67 42.3345 182.443 41.6298C182.403 41.5062 182.365 41.378 182.328 41.2544C182.306 41.1829 182.285 41.1158 182.262 41.0443C181.634 38.9869 181.158 36.9101 180.788 34.9301C180.327 32.46 180.033 30.1568 179.854 28.2617C179.519 24.7785 181.058 21.3833 183.893 19.3228C191.567 13.7405 200.425 14.4765 206.379 16.014C210.512 17.0792 213.492 20.6681 213.771 24.9141C213.908 26.9283 214.017 29.2241 214.05 31.5051C214.071 33.3852 214.038 35.2609 213.91 36.9473Z" fill="#FCB38F"></path>
  <path d="M208.6 30.0729C208.614 29.7019 208.927 29.4144 209.299 29.4278C210.288 29.4606 211.528 29.5932 212.655 29.9761C215.007 30.7791 215.326 31.4465 215.326 31.4465C215.326 31.4465 215.034 31.7236 211.955 31.0994C211.164 30.9385 210.116 30.8744 209.209 30.788C208.852 30.7538 208.59 30.4454 208.602 30.0878C208.6 30.0818 208.6 30.0774 208.6 30.0729Z" fill="#252B3D"></path>
  <path d="M200.456 29.5996C200.526 29.1616 200.224 28.7519 199.786 28.6819C198.617 28.4942 197.131 28.3646 195.722 28.5568C192.777 28.959 192.249 29.6696 192.249 29.6696C192.249 29.6696 192.528 30.0615 196.286 30.0347C197.25 30.0272 198.496 30.1926 199.581 30.2983C200.008 30.3401 200.387 30.0376 200.454 29.6145C200.453 29.6101 200.454 29.6041 200.456 29.5996Z" fill="#252B3D"></path>
  <path d="M202.734 42.4759C202.77 42.4699 202.806 42.4595 202.842 42.4461L205.48 41.4226L204.407 35.0224C204.358 34.7289 204.079 34.5307 203.785 34.5799C203.491 34.629 203.292 34.9061 203.342 35.2011L204.27 40.7358L202.451 41.442C202.173 41.5492 202.034 41.8621 202.143 42.1407C202.237 42.382 202.486 42.5176 202.734 42.4759Z" fill="#FD8471"></path>
  <path d="M187.47 41.0485C187.47 41.0485 186.157 43.5841 183.174 43.7286C182.911 43.0359 182.671 42.3342 182.444 41.6295C183.886 41.8872 186.093 42.0526 187.47 41.0485Z" fill="#FD8471"></path>
  <path d="M186.444 48.4085C185.117 46.9649 184.068 45.4288 183.173 43.729C182.826 43.072 182.67 42.3345 182.443 41.6298C182.402 41.5062 182.365 41.378 182.328 41.2544C182.634 41.2678 183.132 41.3661 183.952 41.6298C183.952 41.6298 187.336 45.4959 186.444 48.4085Z" fill="#252B3D"></path>
  <path d="M207.224 45.2664C206.601 47.084 204.906 50.3556 200.741 49.7999C196.566 49.2427 195.817 45.9457 195.704 43.7289L207.224 45.2664Z" fill="white"></path>
  <path d="M197.873 35.5322C197.816 36.5423 197.247 37.3319 196.604 37.2961C195.961 37.2604 195.485 36.4112 195.543 35.4011C195.6 34.391 196.168 33.6014 196.811 33.6372C197.455 33.6729 197.931 34.5221 197.873 35.5322Z" fill="#252B3D"></path>
  <path d="M211.129 36.2827C211.072 37.2928 210.504 38.0824 209.861 38.0466C209.217 38.0109 208.741 37.1617 208.799 36.1516C208.856 35.1415 209.425 34.3519 210.068 34.3876C210.711 34.4234 211.186 35.2711 211.129 36.2827Z" fill="#252B3D"></path>
  <path d="M183.711 33.5045C183.711 33.5045 180.828 30.5532 179.353 33.4956C177.879 36.438 180.813 43.7336 185.938 41.6136L183.711 33.5045Z" fill="#FCB38F"></path>
  <path d="M182.631 41.0831C182.686 41.4138 182.999 41.6373 183.332 41.5822C183.663 41.527 183.887 41.2142 183.832 40.882C183.777 40.5512 183.463 40.3277 183.132 40.3829C182.799 40.438 182.575 40.7508 182.631 41.0831Z" fill="white"></path>
  <path d="M184.425 39.2177C184.259 39.2385 184.093 39.1491 184.025 38.9897C183.01 36.6135 180.321 35.946 180.294 35.9401C180.089 35.8909 179.962 35.6853 180.012 35.4812C180.059 35.2771 180.265 35.1505 180.47 35.1982C180.595 35.2279 183.557 35.9535 184.726 38.6903C184.808 38.884 184.719 39.1074 184.525 39.1894C184.492 39.2028 184.457 39.2132 184.425 39.2177Z" fill="#FD8471"></path>
  <path d="M181.679 38.3106C181.609 38.3195 181.536 38.3091 181.467 38.2763C181.276 38.1869 181.195 37.959 181.285 37.7697C181.3 37.7385 181.662 36.9906 182.555 36.4438C182.734 36.3336 182.968 36.3902 183.079 36.569C183.189 36.7477 183.132 36.9816 182.953 37.0919C182.264 37.515 181.976 38.0901 181.974 38.096C181.916 38.2182 181.803 38.2942 181.679 38.3106Z" fill="#FD8471"></path>
  <path d="M180.358 32.3748C181.523 32.0381 182.492 32.1662 183.186 32.485C183.669 32.707 184.057 33.0392 184.407 33.4683C184.478 33.5547 184.548 33.6471 184.62 33.7454C184.777 33.6828 184.926 33.5949 185.066 33.4877C185.386 33.2493 185.666 32.9081 185.915 32.5118C186.575 31.4615 187.359 30.6838 187.602 29.7065C187.97 28.2152 189.599 26.8535 189.599 26.8535C202.33 30.8075 212.404 19.8544 212.404 19.8544C208.465 7.75412 187.056 13.5182 181.532 16.4472C176.01 19.3747 174.264 34.1387 180.358 32.3748Z" fill="#252B3D"></path>
  <path d="M209.528 20.7084C209.528 20.7084 208.438 29.1184 214.232 32.0802C214.232 32.0802 216.729 15.0188 209.528 20.7084Z" fill="#252B3D"></path>
  <path d="M195.846 40.9742C192.78 40.8073 190.424 38.1808 190.591 35.1207C190.76 32.0606 193.389 29.7082 196.455 29.8751C199.518 30.0434 201.876 32.6685 201.708 35.7285C201.541 38.7886 198.91 41.1425 195.846 40.9742ZM186.818 32.588C187.799 32.6759 190.728 33.2837 191.276 33.4C191.201 33.7128 190.84 34.8689 190.897 34.562C190.936 34.349 189.04 33.9393 189.04 33.9661C188.403 33.8305 187.27 33.6249 185.969 33.5653C185.754 33.5549 184.877 33.5802 184.62 33.7456C184.269 33.3165 183.823 32.8621 183.45 32.6238C184.404 32.5463 185.983 32.512 186.818 32.588ZM196.407 30.7421C193.819 30.6006 191.6 32.5865 191.458 35.1699C191.316 37.7532 193.306 39.9685 195.893 40.1101C198.481 40.2516 200.7 38.2657 200.842 35.6823C200.984 33.099 198.995 30.8837 196.407 30.7421Z" fill="white"></path>
  <path d="M211.038 41.8056C207.973 41.6387 205.617 39.0122 205.784 35.9521C205.951 32.892 208.582 30.5396 211.647 30.7065C214.713 30.8733 217.069 33.4999 216.901 36.56C216.733 39.62 214.104 41.9724 211.038 41.8056ZM211.601 31.5721C209.013 31.4305 206.794 33.4164 206.652 35.9998C206.511 38.5831 208.5 40.7985 211.088 40.94C213.675 41.0815 215.895 39.0956 216.036 36.5123C216.177 33.9304 214.187 31.7136 211.601 31.5721Z" fill="white"></path>
  <path d="M206.158 34.7226C206.149 34.7092 205.195 33.2626 203.842 33.1881C202.502 33.1151 201.496 34.4515 201.485 34.4649L200.785 33.9524C200.838 33.8824 202.075 32.2242 203.888 32.324C205.689 32.4224 206.839 34.1803 206.886 34.2548L206.158 34.7226Z" fill="white"></path>
  <path d="M230.602 270.106C229.244 270.553 228.268 271.776 228.054 273.214C227.868 274.471 227.72 276.268 227.793 278.653C227.957 283.972 228.023 286.142 228.023 286.142C228.023 286.142 229.63 288.948 234.254 289.711L235.613 289.901C235.613 289.901 246.076 296.179 250.963 296.662C257.338 297.292 263.854 294.366 258.581 288.175C253.601 282.327 246.278 279.984 244.114 275.3C243.862 274.753 242.228 273.589 241.813 273.159C238.279 269.507 235.561 268.475 230.602 270.106Z" fill="#BD10E9"></path>
  <path d="M241.284 281.344C241.516 281.344 241.735 281.208 241.831 280.983C241.838 280.965 242.645 279.142 244.147 278.643C245.585 278.163 247.13 279.414 247.146 279.426C247.4 279.635 247.773 279.599 247.984 279.347C248.193 279.096 248.158 278.723 247.908 278.513C247.824 278.445 245.845 276.827 243.772 277.516C241.759 278.187 240.78 280.422 240.74 280.515C240.61 280.816 240.75 281.165 241.052 281.295C241.126 281.329 241.205 281.344 241.284 281.344Z" fill="white"></path>
  <path d="M243.365 282.828C243.596 282.828 243.815 282.692 243.911 282.467C243.918 282.449 244.726 280.626 246.227 280.127C247.666 279.647 249.21 280.898 249.227 280.91C249.48 281.119 249.854 281.083 250.064 280.831C250.273 280.579 250.239 280.207 249.988 279.997C249.904 279.928 247.927 278.31 245.852 279C243.839 279.671 242.86 281.905 242.82 281.999C242.69 282.3 242.83 282.649 243.132 282.778C243.206 282.813 243.286 282.828 243.365 282.828Z" fill="white"></path>
  <path d="M245.736 284.155C245.967 284.155 246.187 284.019 246.282 283.794C246.29 283.776 247.097 281.953 248.598 281.454C250.037 280.974 251.582 282.226 251.598 282.238C251.852 282.446 252.225 282.41 252.435 282.159C252.644 281.907 252.61 281.534 252.359 281.324C252.276 281.256 250.297 279.636 248.224 280.328C246.211 280.998 245.232 283.233 245.191 283.327C245.061 283.628 245.202 283.976 245.503 284.106C245.578 284.139 245.658 284.155 245.736 284.155Z" fill="white"></path>
  <path d="M228.354 259.894L230.611 272.8C230.611 272.8 234.71 276.109 239.486 273.907L237.756 259.968C237.756 259.968 231.661 258.031 228.354 259.894Z" fill="#FCB38F"></path>
  <path d="M190.742 161.546C190.742 161.546 231.815 178.938 234.119 188.426C236.425 197.913 240.429 263.888 240.429 263.888C240.429 263.888 234.278 267.351 227.474 266.005C227.474 266.005 223.361 243.911 221.44 237.981C219.519 232.052 215.165 210.63 214.46 202.737C214.46 202.737 178.649 193.269 173.469 184.451C162.087 165.074 190.742 161.546 190.742 161.546Z" fill="#252B3D"></path>
  <path d="M241.044 258.755L241.775 265.245C241.775 265.245 234.924 268.742 226.987 267.734L226.068 261.978C226.068 261.978 235.209 261.272 241.044 258.755Z" fill="#51557C"></path>
  <path d="M208.991 186.911L179.862 170.311C178.339 169.443 178.348 167.248 179.877 166.391L214.102 147.222C214.771 146.848 215.583 146.838 216.26 147.195L245.489 162.625C247.047 163.448 247.1 165.654 245.586 166.552L211.261 186.891C210.564 187.305 209.697 187.313 208.991 186.911Z" fill="#86A0C8"></path>
  <path d="M208.991 183.484L179.862 166.884C178.339 166.016 178.348 163.821 179.877 162.965L214.102 143.795C214.771 143.421 215.583 143.411 216.26 143.769L245.489 159.199C247.047 160.021 247.1 162.227 245.586 163.126L211.261 183.465C210.564 183.879 209.697 183.886 208.991 183.484Z" fill="#3A4059"></path>
  <path d="M178.751 168.251V165.034L208.867 181.598V186.91L180.003 170.408C179.228 169.965 178.751 169.141 178.751 168.251Z" fill="#51557C"></path>
  <path d="M208.867 147.897V184.99C208.867 186.925 210.467 188.296 212.195 188.28H218.609V185.071L265.379 158.121C266.397 157.525 267.027 156.444 267.027 155.267V120.173H270.047V114.882H263.714C263.697 114.882 263.697 114.882 263.681 114.882C263.148 114.882 262.599 115.012 262.081 115.317L210.513 145.041C209.497 145.622 208.867 146.718 208.867 147.897Z" fill="#51557C"></path>
  <path d="M268.388 115.322L216.823 145.041C215.802 145.629 215.174 146.715 215.174 147.892V184.984C215.174 187.518 217.921 189.102 220.12 187.836L271.684 158.115C272.705 157.527 273.334 156.441 273.334 155.264V118.172C273.335 115.638 270.586 114.054 268.388 115.322Z" fill="#6B749B"></path>
  <path d="M242.861 153.074C242.847 155.979 244.552 158.342 246.666 158.351C248.781 158.36 250.508 156.013 250.52 153.108C250.533 150.203 248.829 147.84 246.714 147.831C244.599 147.822 242.873 150.169 242.861 153.074Z" fill="#9CA6C8"></path>
  <path d="M165.067 118.203C168.995 117.646 173.415 116.034 177.297 115.189C177.205 114.714 177.112 114.203 177.023 113.661C176.99 113.473 176.96 113.278 176.927 113.08C176.891 112.833 176.851 112.582 176.815 112.324C174.544 97.0762 173.439 62.7107 173.439 62.7107C173.439 62.7107 161.745 62.8984 160.124 75.7972C159.047 84.4024 163.163 108.59 165.067 118.203Z" fill="#BD10E9"></path>
  <path d="M165.067 118.203C168.946 129.943 195.651 157.826 195.651 157.826L202.514 149.476C184.637 125.734 178.57 115.887 177.235 113.615C177.02 113.248 176.927 113.08 176.927 113.08L171.29 115.516L165.067 118.203Z" fill="#BD10E9"></path>
  <path d="M171.214 115.417C171.238 115.453 171.263 115.486 171.29 115.516C171.33 115.556 171.372 115.592 171.419 115.621C171.633 115.757 171.918 115.766 172.15 115.618C173.782 114.57 175.558 113.984 177.024 113.661C177.097 113.644 177.166 113.628 177.236 113.615C177.021 113.248 176.928 113.08 176.928 113.08C176.893 112.832 176.852 112.582 176.816 112.324C175.214 112.667 173.253 113.308 171.42 114.483C171.105 114.689 171.008 115.104 171.214 115.417Z" fill="#A200CB"></path>
  <path d="M202.515 149.476C202.515 149.476 208.448 150.149 208.867 152.378V156.174V165.036C208.867 165.036 200.529 164.352 195.65 157.829L202.515 149.476Z" fill="#FCB38F"></path>
  <path d="M106.157 382.316L234.121 456.49L479.143 315.27L351.178 241.097L106.157 382.316Z" fill="#E5E5E5"></path>
  <path d="M490.544 91.7874V306.343L271.185 446.39L251.361 459.044C251.244 459.116 251.124 459.193 251.006 459.265C249.311 460.233 246.951 460.863 244.68 460.957C242.779 461.044 240.933 460.753 239.561 459.982L208.079 441.193C204.924 439.312 202.999 435.918 202.999 432.249V291.595C202.999 288.564 204.308 285.721 206.548 283.768C207.069 283.31 207.629 282.902 208.236 282.555L350.347 201.07L374.603 135.507C376.48 130.436 380.077 126.184 384.763 123.476L465.143 77.15C476.44 70.6365 490.544 78.7783 490.544 91.7874Z" fill="#252B3D"></path>
  <path d="M203.225 289.46C203.08 290.155 203.001 290.867 203.001 291.591V432.252C203.001 435.915 204.927 439.309 208.078 441.189L239.56 459.983C242.71 461.744 248.318 460.989 251.36 459.043L271.183 446.387L245.289 321.98C232.132 315.84 208.469 298.082 203.225 289.46Z" fill="#3A4059"></path>
  <path d="M411.645 176.668L273.435 257.185C269.039 259.746 266.334 264.446 266.334 269.528V362.056C266.334 373.087 278.321 379.959 287.865 374.399L437.533 287.206C439.217 286.225 440.253 284.425 440.253 282.479V193.07C440.254 178.411 424.326 169.28 411.645 176.668Z" fill="#E5E5E5"></path>
  <path d="M425.913 180.288L285.113 262.315C280.716 264.876 278.014 269.576 278.014 274.658V367.186C278.014 378.216 290.001 385.087 299.544 379.529L425.9 305.917C434.789 300.738 440.255 291.236 440.255 280.963V188.509C440.254 181.163 432.27 176.586 425.913 180.288Z" fill="white"></path>
  <path d="M304.486 361.715C302.116 361.715 300.195 359.553 300.195 356.885V283.27C300.195 280.602 302.118 278.44 304.486 278.44C306.856 278.44 308.777 280.602 308.777 283.27V356.885C308.777 359.553 306.854 361.715 304.486 361.715Z" fill="#E5E5E5"></path>
  <path d="M327.145 346.443C324.775 346.443 322.854 344.281 322.854 341.613V268C322.854 265.331 324.776 263.17 327.145 263.17C329.515 263.17 331.435 265.331 331.435 268V341.613C331.435 344.281 329.515 346.443 327.145 346.443Z" fill="#E5E5E5"></path>
  <path d="M349.804 331.171C347.434 331.171 345.513 329.009 345.513 326.341V252.726C345.513 250.058 347.435 247.896 349.804 247.896C352.173 247.896 354.094 250.058 354.094 252.726V326.341C354.094 329.009 352.172 331.171 349.804 331.171Z" fill="#E5E5E5"></path>
  <path d="M372.462 315.899C370.093 315.899 368.172 313.737 368.172 311.069V237.456C368.172 234.787 370.094 232.626 372.462 232.626C374.832 232.626 376.753 234.787 376.753 237.456V311.069C376.753 313.737 374.832 315.899 372.462 315.899Z" fill="#E5E5E5"></path>
  <path d="M395.12 300.628C392.75 300.628 390.829 298.466 390.829 295.798V222.183C390.829 219.515 392.751 217.353 395.12 217.353C397.49 217.353 399.41 219.515 399.41 222.183V295.798C399.412 298.465 397.49 300.628 395.12 300.628Z" fill="#E5E5E5"></path>
  <path d="M417.78 285.354C415.41 285.354 413.49 283.193 413.49 280.525V206.91C413.49 204.242 415.412 202.08 417.78 202.08C420.15 202.08 422.071 204.242 422.071 206.91V280.525C422.071 283.193 420.15 285.354 417.78 285.354Z" fill="#E5E5E5"></path>
  <path d="M503.152 127.509C503.161 122.399 497.623 119.198 493.189 121.753L490.545 123.277L412.508 168.256L405.819 186.32L404.501 189.88L397.67 208.353L395.02 215.512L385.342 241.663L382.171 243.482L374.33 247.978L361.48 255.348L353.647 259.837L340.788 267.214L332.955 271.703L320.105 279.073L312.273 283.562L299.416 290.94L291.583 295.428L271.334 307.043L260.67 313.162L245.288 321.981C244.909 322.194 244.68 322.595 244.68 323.029V460.957C246.952 460.863 249.311 460.233 251.006 459.265L495.537 320.979C500.027 318.439 502.808 313.688 502.816 308.534L503.152 127.509Z" fill="#51557C"></path>
  <path d="M341.381 322.199L355.503 312.84L355.842 365.246C355.887 372.084 360.794 374.399 366.804 370.417C372.813 366.435 377.649 357.663 377.604 350.824L377.265 298.419L391.388 289.06L378.792 283.419L366.202 277.774L353.792 299.986L341.381 322.199Z" fill="#6B749B"></path>
  <path d="M385.703 342.621L399.826 333.262L399.487 280.857C399.442 274.019 404.279 265.248 410.287 261.266C416.296 257.283 421.204 259.599 421.247 266.435L421.586 318.841L435.708 309.482L423.292 331.698L410.881 353.91L398.291 348.265L385.703 342.621Z" fill="#6B749B"></path>
  <path d="M272.249 527.575L288.531 538.419C290.875 539.97 290.768 543.441 288.332 544.846L195.234 598.505C191.763 600.505 187.486 600.498 184.022 598.485L1.31371 492.318C-0.402529 491.327 -0.445811 488.869 1.23461 487.817L12.7618 480.611L184.504 576.926L272.249 527.575Z" fill="#E5E5E5"></path>
  <path d="M280.467 512.395V533.854C280.467 535.506 279.587 537.035 278.157 537.865L198.744 583.945L198.035 584.354L198.028 584.36L196.31 585.357L196.304 585.359C194.946 585.963 193.604 586.156 192.385 586.121L192.918 562.873L280.467 512.395Z" fill="#252B3D"></path>
  <path d="M192.915 562.874L192.382 586.123C190.129 586.06 188.284 585.232 187.486 584.812C187.472 584.804 187.462 584.798 187.45 584.793L187.065 584.571L15.7942 485.858C13.9168 484.777 12.7617 482.776 12.7617 480.613V459.779L192.915 562.874Z" fill="#3A4059"></path>
  <path d="M247.991 507.631L172.322 551.525L25.1814 466.716L101.357 423.125L247.991 507.631Z" fill="white"></path>
  <path d="M247.991 507.631L172.322 551.525L25.1814 466.716L101.357 423.125L247.991 507.631Z" fill="white"></path>
  <path d="M256.734 541.127V544.277C256.734 544.527 256.599 544.759 256.381 544.886L226.052 562.366C225.583 562.637 224.998 562.299 224.998 561.758V558.609C224.998 558.358 225.131 558.126 225.35 557.999L255.68 540.519C256.149 540.248 256.734 540.586 256.734 541.127Z" fill="#6B749B"></path>
  <path d="M256.734 541.128V542.915C256.734 543.166 256.599 543.398 256.381 543.525L226.052 561.005C225.583 561.276 224.998 560.938 224.998 560.395V558.608C224.998 558.357 225.131 558.125 225.35 557.998L255.68 540.518C256.149 540.249 256.734 540.587 256.734 541.128Z" fill="#51557C"></path>
  <path d="M212.18 569.111C212.088 570.988 211.228 572.469 210.264 572.422C210.149 572.417 210.037 572.39 209.931 572.342C209.145 571.999 208.604 570.592 208.686 568.939C208.766 567.347 209.395 566.037 210.174 565.708C210.313 565.647 210.456 565.62 210.603 565.627C211.565 565.674 212.273 567.233 212.18 569.111Z" fill="#6B749B"></path>
  <path d="M211.419 569.111C211.34 570.703 210.71 572.011 209.93 572.342C209.143 571.999 208.603 570.592 208.685 568.939C208.764 567.347 209.394 566.037 210.173 565.708C210.961 566.051 211.501 567.457 211.419 569.111Z" fill="#51557C"></path>
  <path d="M14.0915 462.006L186.274 561.244C190.053 563.423 194.71 563.417 198.483 561.23L279.103 514.494C280.925 513.438 280.922 510.81 279.097 509.758L102.742 408.115C101.897 407.628 100.856 407.627 100.01 408.111L14.0989 457.263C12.2648 458.312 12.2603 460.952 14.0915 462.006Z" fill="#51557C"></path>
  <path d="M237.79 528.047C237.79 531.302 232.641 533.941 226.291 533.941C219.939 533.941 214.792 531.302 214.792 528.047C214.792 524.792 219.941 522.153 226.291 522.153C232.641 522.153 237.79 524.792 237.79 528.047Z" fill="#6B749B"></path>
  <path d="M247.999 500.579L218.805 517.526L205.573 525.177L178.351 540.989L172.329 544.474L147.991 530.457L123.907 516.566L110.676 508.939L77.7102 489.946L47.3506 472.444L25.1887 459.664L47.3506 446.986L77.7102 429.61L101.365 416.074L110.676 421.428L123.907 429.055L147.991 442.946L178.351 460.448L205.573 476.131L218.805 483.759L247.999 500.579Z" fill="white"></path>
  <path d="M172.214 528.047C172.549 528.047 172.886 527.962 173.196 527.782L224.003 498.313C224.937 497.771 225.255 496.576 224.712 495.642C224.169 494.709 222.972 494.392 222.037 494.934L171.231 524.403C170.297 524.945 169.979 526.14 170.522 527.073C170.883 527.698 171.54 528.047 172.214 528.047Z" fill="#E5E5E5"></path>
  <path d="M158.481 520.491C158.816 520.491 159.153 520.406 159.463 520.225L210.27 490.757C211.204 490.215 211.522 489.02 210.979 488.087C210.436 487.154 209.239 486.837 208.303 487.379L157.496 516.848C156.562 517.39 156.244 518.585 156.787 519.518C157.15 520.142 157.807 520.491 158.481 520.491Z" fill="#E5E5E5"></path>
  <path d="M144.747 512.936C145.081 512.936 145.418 512.851 145.729 512.67L196.535 483.202C197.47 482.66 197.788 481.465 197.244 480.532C196.701 479.6 195.503 479.282 194.57 479.825L143.763 509.293C142.829 509.835 142.511 511.03 143.054 511.963C143.417 512.587 144.072 512.936 144.747 512.936Z" fill="#E5E5E5"></path>
  <path d="M76.0792 475.157C76.4135 475.157 76.7508 475.072 77.0612 474.892L127.868 445.423C128.802 444.881 129.12 443.686 128.577 442.754C128.034 441.821 126.835 441.504 125.901 442.046L75.0943 471.514C74.16 472.057 73.8422 473.252 74.3854 474.184C74.7495 474.808 75.4047 475.157 76.0792 475.157Z" fill="#E5E5E5"></path>
  <path d="M62.3463 467.602C62.6806 467.602 63.0179 467.517 63.3283 467.337L114.135 437.868C115.069 437.326 115.387 436.131 114.844 435.199C114.301 434.266 113.102 433.949 112.17 434.491L61.3628 463.96C60.4286 464.502 60.1107 465.697 60.6539 466.629C61.0151 467.254 61.6717 467.602 62.3463 467.602Z" fill="#E5E5E5"></path>
  <path d="M48.6132 460.046C48.9475 460.046 49.2848 459.961 49.5937 459.781L100.4 430.312C101.335 429.77 101.653 428.575 101.109 427.642C100.566 426.71 99.3677 426.392 98.4335 426.935L47.6267 456.403C46.6925 456.945 46.3746 458.14 46.9179 459.073C47.282 459.697 47.9387 460.046 48.6132 460.046Z" fill="#E5E5E5"></path>
  <path d="M119.779 498.768L128.656 494.196L101.73 478.987C98.2171 477.003 98.4306 473.818 102.208 471.872C105.985 469.926 111.895 469.958 115.408 471.942L142.334 487.15L151.21 482.578L150.506 490.669L149.804 498.759L134.791 498.765L119.779 498.768Z" fill="#DC56FF"></path>
  <path d="M121.962 470.135L130.839 465.563L157.765 480.771C161.278 482.755 167.188 482.787 170.965 480.841C174.742 478.895 174.955 475.71 171.442 473.725L144.518 458.517L153.395 453.945L138.379 453.953L123.365 453.959L122.664 462.048L121.962 470.135Z" fill="#DC56FF"></path>
  <path d="M65.1145 355.294C81.9772 355.294 95.6472 351.419 95.6472 346.638C95.6472 341.858 81.9772 337.982 65.1145 337.982C48.2517 337.982 34.5818 341.858 34.5818 346.638C34.5818 351.419 48.2517 355.294 65.1145 355.294Z" fill="#E5E5E5"></path>
  <path d="M95.3653 299.341L82.5651 342.082C82.0368 344.211 80.5847 345.986 78.6192 346.966C68.9247 351.8 59.2347 351.802 49.5476 346.967C47.5836 345.987 46.133 344.213 45.6047 342.085L32.6016 299.757L64.0834 294.925L95.3653 299.341Z" fill="#51557C"></path>
  <path d="M64.0864 313.774C81.5178 313.774 95.6488 306.312 95.6488 297.106C95.6488 287.901 81.5178 280.438 64.0864 280.438C46.6549 280.438 32.5239 287.901 32.5239 297.106C32.5239 306.312 46.6549 313.774 64.0864 313.774Z" fill="#3A4059"></path>
  <path d="M85.9123 297.106C85.9123 302.48 76.1401 306.836 64.0861 306.836C52.0321 306.836 42.26 302.48 42.26 297.106C42.26 291.732 52.0321 287.376 64.0861 287.376C76.1401 287.376 85.9123 291.732 85.9123 297.106Z" fill="#252B3D"></path>
  <path d="M105.962 229.576C92.728 226.096 72.5032 253.522 66.362 280.259V241.301C69.4497 235.835 75.3357 227.612 86.0227 218.924C102.642 205.411 117.942 188.07 104.682 184.584C92.2564 181.316 73.6717 205.29 66.362 230.361V180.332C68.5036 177.012 72.0122 172.659 77.6191 168.1C88.0941 159.584 97.7349 148.655 89.379 146.458C82.1276 144.551 71.5465 157.366 66.362 171.819V155.604C67.2201 150.587 68.4304 143.424 71.7555 136.101C79.4592 119.13 83.6214 101.644 73.4643 102.946C63.2981 104.248 56.7063 134.472 62.2654 157.676V166.02C58.5106 149.04 45.6253 131.454 37.2157 133.665C28.8599 135.862 38.5007 146.791 48.9757 155.307C56.948 161.789 60.6805 167.857 62.2654 171.122V210.533C56.2421 183.66 35.8756 155.922 22.5695 159.422C9.30962 162.908 24.6095 180.25 41.2287 193.762C53.7872 203.973 59.7179 213.541 62.2654 218.746V266.006C55.8287 239.625 35.9815 213 22.9291 216.433C9.66928 219.919 21.0413 232.593 39.7185 247.92C52.4127 258.337 59.2105 269.33 62.2654 275.307V297.568C63.7473 297.982 65.1338 297.981 66.3635 297.568V288.71C68.9617 283.464 74.8984 274.005 87.3046 263.919C103.924 250.402 119.222 233.062 105.962 229.576Z" fill="#BD63D4"></path>
  <path d="M350.785 173.03C353.754 179.442 342.074 191.139 324.7 199.152C307.325 207.166 290.835 208.465 287.866 202.052C284.898 195.639 296.577 183.943 313.952 175.929C331.326 167.915 347.817 166.618 350.785 173.03Z" fill="#E5E5E5"></path>
  <path d="M312.317 200.872L297.553 192.621C295.965 191.733 294.982 190.057 294.982 188.241V114.409L311.794 124.099L312.317 200.872Z" fill="#8F1BB6" fill-opacity="0.83"></path>
  <path d="M311.793 124.099L345.212 105.139V178.753C345.212 180.607 344.224 182.322 342.619 183.256L312.317 200.875L311.793 124.099Z" fill="#A272AF"></path>
  <path d="M329.887 141.232C323.978 144.762 319.239 152.268 319.326 157.962C319.412 163.656 324.291 165.417 330.199 161.885C336.109 158.354 340.848 150.848 340.761 145.153C340.676 139.462 335.797 137.701 329.887 141.232ZM330.534 155.115L330.478 151.496L335.323 148.602C335.312 149.899 335.138 151.23 334.805 152.562L330.534 155.115ZM333.632 157.423C334.405 155.99 335.014 154.509 335.445 153.019L338.71 151.069C337.366 154.257 335.077 157.304 332.363 159.522C332.816 158.852 333.241 158.147 333.632 157.423ZM334.526 153.569C334.138 154.826 333.614 156.073 332.968 157.275C331.959 159.154 330.943 160.41 330.62 160.788L330.547 155.945L334.526 153.569ZM330.398 146.218L330.331 141.816C330.458 141.744 330.586 141.676 330.714 141.61C331.257 141.728 332.96 142.224 334.141 143.982L330.398 146.218ZM335.084 143.417C334.687 142.757 334.189 142.194 333.602 141.743C333.177 141.416 332.714 141.147 332.222 140.943C334.696 140.044 336.882 140.245 338.287 141.503L335.084 143.417ZM330.466 150.667L330.411 147.048L334.506 144.6C334.968 145.501 335.236 146.568 335.305 147.773L330.466 150.667ZM336.167 147.259C336.102 146.059 335.851 144.981 335.421 144.055L338.79 142.042C339.398 142.823 339.761 143.833 339.869 145.048L336.167 147.259ZM339.9 145.868C339.892 147.14 339.633 148.524 339.127 149.98L335.703 152.025C336.014 150.698 336.176 149.373 336.185 148.086L339.9 145.868ZM324.601 158.661L321.078 160.766C320.538 159.935 320.241 158.884 320.196 157.642L324.01 155.362C324.057 156.617 324.255 157.725 324.601 158.661ZM325.889 148.912C326.21 148.001 326.603 147.073 327.056 146.151C327.938 144.362 328.828 143.031 329.195 142.507C329.286 142.447 329.377 142.388 329.468 142.33L329.535 146.732L325.889 148.912ZM329.549 147.563L329.604 151.182L324.864 154.014C324.895 152.752 325.127 151.386 325.552 149.951L329.549 147.563ZM321.65 151.446C323.017 148.491 325.204 145.667 327.716 143.606C327.228 144.405 326.771 145.232 326.356 146.072C325.794 147.21 325.321 148.353 324.951 149.472L321.65 151.446ZM329.616 152.012L329.671 155.631L325.497 158.125C325.13 157.214 324.919 156.113 324.872 154.847L329.616 152.012ZM320.202 156.8C320.269 155.482 320.596 154.059 321.172 152.569L324.64 150.497C324.246 151.917 324.031 153.271 324.003 154.528L320.202 156.8ZM324.885 159.328C325.352 160.282 325.995 161.015 326.797 161.506C327.212 161.761 327.661 161.95 328.138 162.071C325.385 163.148 322.942 162.882 321.52 161.338L324.885 159.328ZM329.685 156.462L329.758 161.246C329.1 161.243 327.042 161.045 325.807 158.779L329.685 156.462Z" fill="white"></path>
  <path d="M294.982 114.409L326.307 96.5909C327.667 95.8177 329.335 95.8281 330.684 96.6192L345.213 105.138L311.794 124.097L294.982 114.409Z" fill="#8C24A7"></path>
  <path d="M314.361 118.779L304.805 113.439V93.7378L314.155 88.4207L314.226 98.9909L314.361 118.779Z" fill="#A0A0A0"></path>
  <path d="M332.487 88.6262V108.237L314.36 118.779L314.226 98.9908L314.155 88.4206L323.279 83.2301L332.487 88.6262Z" fill="#C6C6C6"></path>
  <path d="M332.487 88.6277L314.226 98.9923L314.074 99.0757L314.071 99.0787L304.805 93.7392L314.155 88.4221L323.279 83.2316L326.75 85.2637L332.487 88.6277Z" fill="#E5E5E5"></path>
  <path d="M332.487 88.6277L332.429 88.6604L314.226 98.9923L314.074 99.0757L309.653 96.5296L308.309 95.7549L317.659 90.4363L326.75 85.2637L332.487 88.6277Z" fill="#A0A0A0"></path>
  <path d="M332.487 88.6263L314.226 98.9924L314.074 99.0758L309.654 96.5297L318.935 91.2513L328.082 86.0444L332.487 88.6263Z" fill="#878787"></path>
  <path d="M329.356 103.797L325.497 106.02V100.157L329.356 97.9331V103.797Z" fill="#A0A0A0"></path>
  <path d="M323.321 106.958L319.462 109.183V103.319L323.321 101.094V106.958Z" fill="#A0A0A0"></path>
  <path d="M618.575 439.252C621.571 429.474 606.498 416.203 584.908 409.611C563.318 403.019 543.388 405.602 540.392 415.38C537.396 425.158 552.469 438.429 574.059 445.021C595.648 451.613 615.579 449.03 618.575 439.252Z" fill="#E5E5E5"></path>
  <path d="M552.956 183.736C552.941 183.861 552.921 183.986 552.897 184.115C552.868 184.325 552.827 184.542 552.781 184.758C550.442 196.249 533.619 215.427 533.619 215.427L524.984 210.392C533.182 199.408 542.254 176.637 542.254 176.637L547.943 180.408L552.956 183.736Z" fill="#BD63D4"></path>
  <path d="M563.031 169.923C561.976 175.186 555.918 179.967 553.32 183.547C553.177 183.739 553.039 183.928 552.898 184.114C552.784 184.263 552.674 184.411 552.565 184.554C551.807 185.54 551.066 186.428 550.386 187.2C549.199 185.721 547.895 184.347 546.682 182.888C545.71 181.72 544.937 180.402 544.084 179.15C543.518 178.318 542.919 177.448 542.255 176.639C547.782 164.537 557.934 135.856 557.934 135.856C557.934 135.856 565.393 158.138 563.031 169.923Z" fill="#BD63D4"></path>
  <path d="M553.32 183.547C553.176 183.739 553.039 183.928 552.897 184.114C552.868 184.325 552.827 184.542 552.781 184.758C552.711 184.691 552.641 184.624 552.565 184.554C551.474 183.55 549.859 182.33 547.872 181.606C547.634 181.518 547.482 181.303 547.464 181.068C547.455 180.98 547.467 180.891 547.496 180.806C547.57 180.602 547.741 180.458 547.943 180.409C548.056 180.385 548.181 180.391 548.301 180.433C550.422 181.209 552.139 182.476 553.32 183.547Z" fill="#BD63D4"></path>
  <path d="M608.446 413.099C609.822 413.552 610.811 414.791 611.028 416.247C611.216 417.521 611.366 419.341 611.292 421.758C611.126 427.148 611.059 429.347 611.059 429.347C611.059 429.347 609.429 432.189 604.746 432.961L603.369 433.155C603.369 433.155 592.767 439.516 587.816 440.005C581.356 440.643 574.754 437.678 580.098 431.404C585.144 425.479 592.565 423.105 594.758 418.358C595.013 417.804 596.668 416.624 597.09 416.189C600.667 412.493 603.421 411.447 608.446 413.099Z" fill="#BD63D4"></path>
  <path d="M597.621 424.487C597.387 424.487 597.165 424.35 597.068 424.122C597.06 424.104 596.242 422.255 594.72 421.75C593.262 421.265 591.697 422.532 591.682 422.544C591.425 422.756 591.046 422.719 590.834 422.464C590.622 422.209 590.656 421.831 590.912 421.619C590.995 421.549 593.001 419.909 595.101 420.609C597.141 421.288 598.133 423.551 598.173 423.648C598.305 423.954 598.163 424.307 597.857 424.438C597.781 424.471 597.7 424.487 597.621 424.487Z" fill="white"></path>
  <path d="M595.514 425.99C595.28 425.99 595.057 425.853 594.96 425.625C594.953 425.608 594.135 423.759 592.613 423.254C591.155 422.768 589.589 424.036 589.574 424.048C589.318 424.259 588.939 424.222 588.727 423.967C588.515 423.713 588.549 423.334 588.804 423.123C588.888 423.053 590.894 421.414 592.995 422.112C595.035 422.792 596.028 425.056 596.068 425.152C596.199 425.457 596.057 425.81 595.751 425.941C595.674 425.974 595.593 425.99 595.514 425.99Z" fill="white"></path>
  <path d="M593.11 427.334C592.876 427.334 592.653 427.197 592.556 426.969C592.549 426.951 591.731 425.102 590.209 424.597C588.751 424.112 587.185 425.379 587.17 425.391C586.913 425.603 586.534 425.566 586.322 425.311C586.111 425.056 586.145 424.678 586.4 424.466C586.484 424.396 588.489 422.756 590.589 423.456C592.629 424.135 593.622 426.399 593.662 426.495C593.793 426.801 593.652 427.154 593.346 427.285C593.27 427.319 593.189 427.334 593.11 427.334Z" fill="white"></path>
  <path d="M607.762 402.614L608.31 415.931C608.31 415.931 604.948 419.352 599.72 417.087L598.424 402.704C598.424 402.704 604.068 400.698 607.762 402.614Z" fill="#FCB38F"></path>
  <path d="M610.857 329.038C606.641 307.091 609.981 272.387 610.302 256.406L574.921 261.838L573.873 283.646C573.888 283.567 576.506 283.826 576.521 283.747C576.521 283.747 578.049 283.075 579.843 283.145C582.362 283.242 583.126 287.409 583.46 288.603C584.699 304.357 584.766 323.65 586.185 335.678C588.994 359.476 597.909 412.312 597.909 412.312C602.213 413.252 604.727 413.017 609.052 411.411C609.052 411.411 613.514 342.868 610.857 329.038Z" fill="#51557C"></path>
  <path d="M606.895 410.687C606.892 410.687 606.889 410.687 606.886 410.687C606.507 410.682 606.204 410.371 606.21 409.994C606.241 407.557 607.002 350.26 607.455 345.944C607.916 341.54 606.485 325.721 605.077 317.13C604.08 311.042 604.789 282.414 604.819 281.198C604.828 280.827 605.134 280.532 605.504 280.532C605.51 280.532 605.516 280.532 605.522 280.532C605.899 280.541 606.199 280.856 606.189 281.232C606.182 281.529 605.453 310.947 606.429 316.909C607.849 325.578 609.289 341.591 608.817 346.087C608.371 350.342 607.587 409.416 607.58 410.012C607.574 410.386 607.27 410.687 606.895 410.687Z" fill="#252B3D"></path>
  <path d="M596.814 407.995C596.814 407.995 604.359 408.796 610.071 407.293C610.511 409.534 610.269 411.888 609.745 413.163C609.745 413.163 602.93 414.93 597.448 413.594C596.812 411.922 596.33 409.953 596.814 407.995Z" fill="#6B749B"></path>
  <path d="M577.607 403.524C578.983 403.977 579.972 405.216 580.189 406.672C580.377 407.946 580.528 409.766 580.453 412.183C580.287 417.573 580.22 419.772 580.22 419.772C580.22 419.772 578.591 422.614 573.907 423.386L572.53 423.58C572.53 423.58 561.928 429.941 556.978 430.431C550.517 431.069 543.915 428.104 549.259 421.831C554.305 415.906 561.727 413.531 563.919 408.784C564.174 408.23 565.829 407.05 566.251 406.615C569.829 402.917 572.582 401.872 577.607 403.524Z" fill="#BD63D4"></path>
  <path d="M566.785 414.912C566.55 414.912 566.328 414.775 566.231 414.547C566.224 414.529 565.406 412.68 563.883 412.175C562.425 411.69 560.86 412.957 560.845 412.969C560.588 413.181 560.209 413.144 559.997 412.889C559.785 412.634 559.82 412.256 560.075 412.044C560.158 411.974 562.164 410.335 564.264 411.034C566.304 411.713 567.297 413.978 567.337 414.073C567.468 414.379 567.326 414.732 567.02 414.863C566.944 414.896 566.864 414.912 566.785 414.912Z" fill="white"></path>
  <path d="M564.676 416.415C564.441 416.415 564.219 416.278 564.122 416.05C564.115 416.032 563.297 414.183 561.775 413.678C560.317 413.193 558.751 414.461 558.736 414.472C558.479 414.684 558.1 414.647 557.888 414.392C557.676 414.137 557.711 413.759 557.966 413.547C558.05 413.477 560.055 411.838 562.157 412.537C564.197 413.216 565.189 415.48 565.229 415.576C565.361 415.882 565.219 416.235 564.913 416.366C564.835 416.399 564.755 416.415 564.676 416.415Z" fill="white"></path>
  <path d="M562.271 417.76C562.037 417.76 561.815 417.623 561.718 417.395C561.71 417.378 560.892 415.529 559.37 415.024C557.912 414.538 556.347 415.806 556.332 415.818C556.075 416.029 555.696 415.992 555.484 415.737C555.272 415.482 555.306 415.104 555.562 414.893C555.645 414.822 557.651 413.182 559.751 413.882C561.791 414.562 562.783 416.825 562.824 416.922C562.955 417.227 562.813 417.58 562.507 417.711C562.431 417.744 562.351 417.76 562.271 417.76Z" fill="white"></path>
  <path d="M576.925 393.038L577.473 406.356C577.473 406.356 574.11 409.776 568.883 407.512L567.587 393.129C567.587 393.129 573.231 391.123 576.925 393.038Z" fill="#FCB38F"></path>
  <path d="M552.556 280.446C553.79 296.123 556.336 313.846 557.75 325.819C560.558 349.618 567.069 402.737 567.069 402.737C571.374 403.677 573.887 403.442 578.212 401.836C578.212 401.836 582.908 333.063 581.356 319.065C578.81 296.092 578.803 272.956 579.123 256.974L550.882 252.957L552.556 280.446Z" fill="#51557C"></path>
  <path d="M574.492 279.979C574.876 279.979 575.185 280.291 575.179 280.674C575.042 289.927 574.963 303.495 575.592 307.334C577.012 316.003 578.452 332.016 577.98 336.512C577.534 340.767 576.75 399.841 576.743 400.437C576.738 400.812 576.433 401.112 576.058 401.112H576.049C575.67 401.107 575.367 400.796 575.373 400.419C575.404 397.982 576.165 340.685 576.618 336.369C577.08 331.965 575.648 316.146 574.24 307.554C573.588 303.572 573.666 289.942 573.806 280.651C573.81 280.277 574.116 279.979 574.492 279.979Z" fill="#252B3D"></path>
  <path d="M565.977 398.42C565.977 398.42 573.522 399.221 579.234 397.718C579.674 399.959 579.432 402.312 578.908 403.588C578.908 403.588 572.093 405.355 566.611 404.018C565.974 402.347 565.492 400.377 565.977 398.42Z" fill="#6B749B"></path>
  <path d="M557.933 135.856C566.662 134.043 577.246 131.053 585.097 133.784C596.16 137.631 601.466 141.304 608.995 146.66C609.256 151.003 610.526 171.822 610.586 176.419C610.599 177.528 610.604 178.624 610.596 179.697C610.596 180.148 610.592 180.592 610.583 181.033C610.374 195.088 612.124 226.397 612.439 233.959C613.006 247.559 613.5 254.636 613.172 255.488C611.286 260.396 598.936 264.923 580.604 263.863C562.273 262.799 553.301 262.394 551.305 255.666C549.31 248.941 550.349 243.798 552.438 223.803C554.205 206.943 558.288 150.494 557.933 135.856Z" fill="#DC56FF"></path>
  <path d="M562.055 222.318C561.715 222.413 561.347 222.243 561.207 221.909C561.055 221.549 561.225 221.133 561.588 220.981C561.897 220.852 592.57 207.819 594.304 191.732C594.346 191.343 594.696 191.061 595.086 191.102C595.475 191.143 595.759 191.493 595.716 191.882C594.945 199.024 589.037 206.323 578.155 213.571C570.129 218.916 562.214 222.255 562.135 222.288C562.11 222.3 562.083 222.309 562.055 222.318Z" fill="#BD63D4"></path>
  <path d="M566.587 225.047C566.214 225.151 565.826 224.94 565.714 224.569C565.601 224.193 565.814 223.799 566.19 223.685C566.289 223.656 576.168 220.648 585.012 214.395C585.332 214.168 585.776 214.244 586.003 214.563C586.23 214.884 586.154 215.326 585.835 215.552C576.795 221.944 566.702 225.014 566.601 225.044C566.595 225.046 566.59 225.046 566.587 225.047Z" fill="#BD63D4"></path>
  <path d="M574.094 129.547L574.756 135.858L574.982 137.988C582.02 139.754 587.448 134.971 587.448 134.971L588.083 125.225C587.957 125.136 587.821 125.063 587.674 125.005C583.879 123.345 574.094 129.547 574.094 129.547Z" fill="#FCB38F"></path>
  <path d="M574.094 129.547L574.756 135.858C581.962 133.331 585.913 128.044 587.674 125.006C583.879 123.345 574.094 129.547 574.094 129.547Z" fill="#FD8471"></path>
  <path d="M562.858 108.894C562.858 108.894 559.727 105.166 557.73 108.498C555.733 111.829 559.319 121.153 564.508 118.549L562.858 108.894Z" fill="#FD8471"></path>
  <path d="M563.189 115.678C562.992 115.689 562.805 115.57 562.738 115.374C561.755 112.489 558.649 111.465 558.618 111.456C558.382 111.38 558.251 111.128 558.327 110.892C558.401 110.656 558.655 110.525 558.891 110.6C559.036 110.646 562.458 111.762 563.59 115.085C563.67 115.321 563.544 115.575 563.31 115.654C563.27 115.669 563.229 115.677 563.189 115.678Z" fill="#D6615D"></path>
  <path d="M560.039 114.369C559.955 114.373 559.87 114.355 559.792 114.311C559.576 114.189 559.501 113.913 559.624 113.698C559.645 113.663 560.137 112.813 561.235 112.25C561.455 112.137 561.728 112.224 561.841 112.444C561.955 112.665 561.868 112.936 561.647 113.049C560.798 113.485 560.409 114.136 560.406 114.142C560.327 114.281 560.186 114.361 560.039 114.369Z" fill="#D6615D"></path>
  <path d="M560.727 113.733C560.792 114.668 560.888 115.544 561.016 116.338C562.185 123.488 568.441 138.014 581.053 130.65C584.078 128.881 586.328 127.134 588.085 125.225C589.412 123.787 590.461 122.259 591.358 120.566C591.704 119.912 591.864 119.178 592.089 118.475C592.131 118.351 592.168 118.224 592.205 118.101C592.228 118.029 592.25 117.962 592.271 117.892C592.902 115.842 593.382 113.773 593.756 111.8C594.222 109.338 594.52 107.042 594.704 105.153C595.044 101.68 593.519 98.2908 590.697 96.2304C583.059 90.6465 574.225 91.3602 568.286 92.8798C564.162 93.9331 561.183 97.5041 560.895 101.737C560.755 103.745 560.64 106.033 560.601 108.308C560.574 110.179 560.601 112.051 560.727 113.733Z" fill="#FCB38F"></path>
  <path d="M587.079 117.883C587.079 117.883 588.382 120.414 591.358 120.566C591.622 119.877 591.864 119.178 592.089 118.475C590.65 118.728 588.449 118.887 587.079 117.883Z" fill="#FD8471"></path>
  <path d="M572.997 119.99C572.997 119.99 566.199 120.17 564.339 122.296C562.48 124.421 566.678 131.911 569.914 133.404C573.149 134.897 576.055 135.727 581.611 132.47C587.167 129.215 585.763 121.03 584.902 119.719C584.04 118.408 575.452 119.086 572.997 119.99Z" fill="#252B3D"></path>
  <path d="M582.597 119.042C582.597 119.042 585.812 115.938 586.803 112.809L588.852 112.764C588.852 112.764 588.904 121.198 585.543 126.292L582.597 119.042Z" fill="#252B3D"></path>
  <path d="M560.658 112.581C560.658 112.581 562.722 122.041 565.741 123.428L564.632 126.853C564.632 126.853 562.286 123.756 561.483 120.872C560.153 116.101 560.658 112.581 560.658 112.581Z" fill="#252B3D"></path>
  <path d="M588.085 125.225C589.412 123.787 590.461 122.259 591.358 120.566C591.704 119.912 591.864 119.178 592.089 118.475C592.131 118.351 592.168 118.224 592.205 118.101C591.901 118.114 591.403 118.211 590.586 118.472C590.586 118.472 587.203 122.317 588.085 125.225Z" fill="#252B3D"></path>
  <path d="M569.053 122.907C569.597 124.51 571.084 127.396 574.755 126.914C578.434 126.432 579.101 123.53 579.205 121.575L569.053 122.907Z" fill="white"></path>
  <path d="M578.114 111.446C578.169 112.453 578.734 113.242 579.375 113.207C580.017 113.172 580.493 112.326 580.438 111.319C580.383 110.312 579.819 109.522 579.177 109.558C578.535 109.594 578.059 110.439 578.114 111.446Z" fill="#252B3D"></path>
  <path d="M565.45 111.849C565.505 112.857 566.069 113.646 566.711 113.61C567.353 113.576 567.829 112.731 567.774 111.723C567.718 110.716 567.154 109.926 566.512 109.962C565.871 109.996 565.395 110.841 565.45 111.849Z" fill="#252B3D"></path>
  <path d="M584.749 106.37C584.749 106.37 580.575 104.018 576.973 105.014L577.05 106.95C577.05 106.95 582.099 107.218 584.472 108.582C584.799 107.887 584.933 107.157 584.749 106.37Z" fill="#252B3D"></path>
  <path d="M561.288 107.277C561.288 107.277 565.217 104.538 568.9 105.186L569.008 107.119C569.008 107.119 564.008 107.869 561.776 109.452C561.385 108.789 561.18 108.077 561.288 107.277Z" fill="#252B3D"></path>
  <path d="M572.231 119.467C572.99 119.437 573.73 119.112 573.845 119.06C574.07 118.957 574.17 118.691 574.067 118.466C573.964 118.241 573.697 118.141 573.472 118.244C573.072 118.424 572.108 118.722 571.676 118.487C571.593 118.442 571.478 118.35 571.439 118.078C571.214 116.517 571.431 111.249 571.434 111.196C571.445 110.948 571.252 110.738 571.003 110.728C570.754 110.717 570.545 110.909 570.535 111.158C570.526 111.379 570.311 116.565 570.548 118.207C570.638 118.825 570.976 119.129 571.245 119.276C571.54 119.434 571.888 119.48 572.231 119.467Z" fill="#FD8471"></path>
  <path d="M591.262 108.836C591.262 108.836 594.672 105.361 596.405 108.836C598.136 112.311 594.633 121.039 588.591 118.522L591.262 108.836Z" fill="#FCB38F"></path>
  <path d="M590.406 115.574C590.601 115.599 590.797 115.495 590.877 115.306C592.082 112.505 595.257 111.724 595.289 111.717C595.531 111.66 595.68 111.417 595.623 111.178C595.566 110.936 595.325 110.787 595.083 110.842C594.935 110.877 591.437 111.726 590.051 114.951C589.952 115.179 590.058 115.443 590.286 115.541C590.327 115.558 590.365 115.57 590.406 115.574Z" fill="#FD8471"></path>
  <path d="M593.649 114.512C593.731 114.522 593.817 114.51 593.899 114.473C594.125 114.367 594.22 114.099 594.114 113.876C594.096 113.838 593.671 112.955 592.619 112.307C592.408 112.176 592.131 112.243 592 112.453C591.87 112.664 591.935 112.94 592.146 113.071C592.959 113.572 593.296 114.251 593.299 114.258C593.368 114.402 593.501 114.492 593.649 114.512Z" fill="#FD8471"></path>
  <path d="M594.472 107.213C594.472 107.213 591.741 106.041 590.577 108.658C589.413 111.276 588.851 112.764 588.851 112.764L586.802 112.809C586.802 112.809 588.419 109.035 587.951 106.766C587.482 104.497 585.739 103.951 586.188 101.54C586.637 99.1295 585.461 96.0739 582.957 95.6597C580.453 95.2455 569.59 94.4961 565.765 96.2243C561.94 97.9525 562.664 101.957 561.688 103.419C560.71 104.882 560.6 108.308 560.6 108.308C560 107.472 559.673 106.474 559.654 105.446C559.63 104.204 559.673 102.301 559.962 99.8431C560.506 95.2262 567.193 89.7243 577.395 89.7228C587.598 89.7198 593.686 94.5289 594.995 99.5049C596.307 104.478 594.472 107.213 594.472 107.213Z" fill="#252B3D"></path>
  <path d="M560.838 97.8631C560.838 97.8631 555.503 86.8906 560.124 83.3628C564.744 79.8364 566.12 85.4425 572.271 84.9002C578.423 84.358 590.816 89.2162 591.398 94.0999C591.981 98.9835 560.838 97.8631 560.838 97.8631Z" fill="#252B3D"></path>
  <path d="M569.223 261.711L601.676 243.215C603.373 242.248 603.364 239.802 601.66 238.849L563.526 217.491C562.781 217.074 561.876 217.063 561.122 217.461L528.557 234.653C526.821 235.57 526.761 238.029 528.449 239.029L566.693 261.691C567.472 262.151 568.438 262.16 569.223 261.711Z" fill="#86A0C8"></path>
  <path d="M569.223 257.893L601.676 239.397C603.373 238.43 603.364 235.984 601.66 235.03L563.526 213.672C562.781 213.255 561.876 213.245 561.122 213.643L528.557 230.835C526.821 231.751 526.761 234.211 528.449 235.211L566.693 257.872C567.472 258.333 568.438 258.34 569.223 257.893Z" fill="#3A4059"></path>
  <path d="M602.918 240.921V237.337L569.363 255.792V261.711L601.522 243.324C602.385 242.831 602.918 241.913 602.918 240.921Z" fill="#51557C"></path>
  <path d="M569.363 218.242V259.571C569.363 261.726 567.581 263.255 565.654 263.237H558.509V259.661L506.398 229.636C505.264 228.971 504.562 227.767 504.562 226.455V187.355H501.197V181.461H508.253C508.271 181.461 508.271 181.461 508.289 181.461C508.883 181.461 509.494 181.604 510.071 181.947L567.527 215.064C568.66 215.707 569.363 216.929 569.363 218.242Z" fill="#51557C"></path>
  <path d="M503.044 181.947L560.497 215.059C561.634 215.715 562.334 216.926 562.334 218.236V259.563C562.334 262.386 559.271 264.152 556.822 262.739L499.37 229.627C498.233 228.971 497.533 227.76 497.533 226.451V185.123C497.533 182.3 500.594 180.536 503.044 181.947Z" fill="#6B749B"></path>
  <path d="M531.488 224.01C531.503 227.246 529.604 229.879 527.248 229.889C524.891 229.899 522.969 227.285 522.954 224.047C522.939 220.812 524.838 218.179 527.194 218.169C529.551 218.158 531.473 220.774 531.488 224.01Z" fill="#9CA6C8"></path>
  <path d="M503.577 232.562C503.577 232.562 508.831 225.807 510.287 227.712C510.788 228.369 507.45 233.986 507.45 233.986L508.42 234.424C508.42 234.424 512.5 228.629 514.62 228.846C516.74 229.064 511.476 235.802 511.476 235.802L512.704 236.355C512.704 236.355 515.874 231.706 517.751 231.733C519.629 231.76 515.105 238.494 515.105 238.494L516.061 238.925C516.061 238.925 518.277 236.429 520.178 236.221C522.079 236.012 518.63 240.502 516.714 242.016C514.798 243.53 513.565 242.263 513.037 241.615C513.037 241.615 510.049 241.137 509.384 239.156C509.384 239.156 506.738 239.193 506.169 237.092C506.169 237.092 501.287 236.052 503.577 232.562Z" fill="#FCB38F"></path>
  <path d="M503.492 234.652C504.393 235.09 505.587 234.337 506.447 233.402L498.864 229.084C498.77 229.759 499.921 231.194 500.959 232.061C502.328 233.193 503.492 234.652 503.492 234.652Z" fill="#FCB38F"></path>
  <path d="M615.704 200.379C611.329 199.757 606.402 197.962 602.077 197.021C602.18 196.492 602.283 195.921 602.383 195.318C602.421 195.108 602.453 194.892 602.491 194.671C602.531 194.396 602.576 194.115 602.616 193.829C605.147 176.84 604.877 143.769 604.877 143.769C604.877 143.769 615.861 146.917 618.018 159.281C619.677 168.799 617.827 189.667 615.704 200.379Z" fill="#BD63D4"></path>
  <path d="M615.705 200.379C611.384 213.459 581.629 244.526 581.629 244.526L573.982 235.222C593.901 208.771 600.66 197.797 602.148 195.267C602.386 194.859 602.491 194.671 602.491 194.671L608.772 197.386L615.705 200.379Z" fill="#BD63D4"></path>
  <path d="M608.856 197.275C608.831 197.316 608.801 197.353 608.771 197.386C608.726 197.43 608.678 197.471 608.628 197.503C608.389 197.654 608.071 197.666 607.813 197.5C605.994 196.331 604.015 195.68 602.383 195.319C602.303 195.301 602.225 195.282 602.148 195.267C602.386 194.859 602.491 194.671 602.491 194.671C602.531 194.396 602.576 194.116 602.616 193.829C604.403 194.212 606.588 194.926 608.628 196.234C608.978 196.462 609.084 196.925 608.856 197.275Z" fill="#BD63D4"></path>
  <path d="M573.98 235.222C573.98 235.222 567.371 235.973 566.905 238.455V242.685V252.558C566.905 252.558 576.195 251.797 581.632 244.529L573.98 235.222Z" fill="#FCB38F"></path>
  <path d="M524.366 156.55L519.226 167.776V159.512L524.366 156.55Z" fill="#BD63D4"></path>
  <path d="M519.231 167.776L516.683 166.307V160.978L519.226 159.512L519.231 167.776Z" fill="#BD63D4"></path>
  <path d="M495.35 128.558V165.881L501.815 169.607L501.252 131.987L495.35 128.558Z" fill="#BD63D4"></path>
  <path d="M534.731 112.691V150.635L501.815 169.607L501.252 131.987L534.731 112.691Z" fill="#DC56FF"></path>
  <path d="M495.35 128.558L528.828 109.263L534.731 112.691L501.252 131.987L495.35 128.558Z" fill="#BD63D4"></path>
  <path d="M507.704 141.926L511.155 139.639L511.238 152.447C511.248 154.118 512.448 154.683 513.916 153.71C515.385 152.737 516.567 150.594 516.556 148.922L516.473 136.114L519.925 133.827L516.846 132.449L513.769 131.07L510.736 136.498L507.704 141.926Z" fill="#BD63D4"></path>
  <path d="M518.537 146.918L521.988 144.631L521.905 131.823C521.894 130.152 523.076 128.008 524.545 127.035C526.013 126.062 527.213 126.627 527.224 128.299L527.307 141.106L530.759 138.82L527.725 144.248L524.693 149.677L521.615 148.298L518.537 146.918Z" fill="#BD63D4"></path>
  <path d="M296.837 498.405L341.864 524.748L442.457 466.771L397.43 440.428L296.837 498.405Z" fill="#E5E5E5"></path>
  <path d="M447.138 375.019V463.104L357.08 520.601L348.942 525.796C348.893 525.825 348.845 525.857 348.796 525.887C348.101 526.284 347.132 526.542 346.199 526.581C345.419 526.617 344.661 526.497 344.098 526.18L331.174 518.466C329.879 517.693 329.088 516.3 329.088 514.793V457.048C329.088 455.804 329.625 454.636 330.546 453.835C330.759 453.647 330.989 453.479 331.238 453.337L389.581 419.883L399.54 392.967C400.31 390.886 401.788 389.14 403.711 388.027L436.711 369.008C441.348 366.336 447.138 369.68 447.138 375.019Z" fill="#A200CB"></path>
  <path d="M329.179 456.174C329.119 456.458 329.086 456.752 329.086 457.048V514.796C329.086 516.301 329.877 517.694 331.171 518.466L344.097 526.182C345.391 526.904 347.692 526.594 348.941 525.796L357.079 520.599L346.447 469.524C341.046 467.005 331.331 459.715 329.179 456.174Z" fill="#BD63D4"></path>
  <path d="M414.746 409.867L358.004 442.923C356.198 443.975 355.09 445.904 355.09 447.99V485.977C355.09 490.506 360.011 493.327 363.929 491.044L425.375 455.247C426.066 454.845 426.491 454.106 426.491 453.306V416.601C426.491 410.584 419.952 406.834 414.746 409.867Z" fill="#E5E5E5"></path>
  <path d="M420.604 411.354L362.798 445.03C360.992 446.082 359.883 448.011 359.883 450.097V488.084C359.883 492.613 364.805 495.433 368.722 493.151L420.598 462.93C424.247 460.804 426.491 456.902 426.491 452.684V414.728C426.491 411.713 423.214 409.834 420.604 411.354Z" fill="white"></path>
  <path d="M370.751 485.839C369.778 485.839 368.988 484.951 368.988 483.856V453.633C368.988 452.538 369.778 451.65 370.751 451.65C371.724 451.65 372.512 452.538 372.512 453.633V483.856C372.513 484.951 371.724 485.839 370.751 485.839Z" fill="#E5E5E5"></path>
  <path d="M380.054 479.568C379.081 479.568 378.292 478.68 378.292 477.585V447.363C378.292 446.268 379.081 445.38 380.054 445.38C381.028 445.38 381.816 446.268 381.816 447.363V477.585C381.816 478.682 381.028 479.568 380.054 479.568Z" fill="#E5E5E5"></path>
  <path d="M389.356 473.299C388.383 473.299 387.594 472.411 387.594 471.316V441.094C387.594 439.999 388.383 439.111 389.356 439.111C390.329 439.111 391.117 439.999 391.117 441.094V471.316C391.119 472.411 390.329 473.299 389.356 473.299Z" fill="#E5E5E5"></path>
  <path d="M398.66 467.028C397.687 467.028 396.897 466.14 396.897 465.045V434.823C396.897 433.728 397.687 432.84 398.66 432.84C399.633 432.84 400.422 433.728 400.422 434.823V465.045C400.421 466.14 399.631 467.028 398.66 467.028Z" fill="#E5E5E5"></path>
  <path d="M407.962 460.759C406.989 460.759 406.201 459.871 406.201 458.776V428.554C406.201 427.459 406.99 426.571 407.962 426.571C408.935 426.571 409.724 427.459 409.724 428.554V458.776C409.723 459.871 408.935 460.759 407.962 460.759Z" fill="#E5E5E5"></path>
  <path d="M417.264 454.489C416.291 454.489 415.501 453.601 415.501 452.506V422.283C415.501 421.188 416.291 420.3 417.264 420.3C418.237 420.3 419.025 421.188 419.025 422.283V452.506C419.027 453.601 418.237 454.489 417.264 454.489Z" fill="#E5E5E5"></path>
  <path d="M452.314 389.685C452.319 387.587 450.044 386.273 448.223 387.322L447.138 387.948L415.1 406.414L412.354 413.83L411.814 415.292L409.01 422.876L407.922 425.816L403.947 436.553L402.646 437.299L399.427 439.145L394.151 442.171L390.935 444.014L385.657 447.043L382.441 448.886L377.165 451.911L373.949 453.754L368.67 456.783L365.454 458.626L357.142 463.395L352.763 465.907L346.447 469.527C346.292 469.615 346.198 469.779 346.198 469.958V526.584C347.131 526.545 348.099 526.286 348.795 525.89L449.187 469.116C451.032 468.073 452.172 466.123 452.177 464.007L452.314 389.685Z" fill="#BD63D4"></path>
  <path d="M450.284 487.137L401.279 459.121V462.872L448.664 489.961C448.919 490.107 449.198 490.177 449.472 490.177C450.038 490.177 450.587 489.882 450.889 489.358C451.336 488.579 451.066 487.583 450.284 487.137Z" fill="#BD63D4"></path>
  <path d="M381.815 542.459L426.842 568.802L527.436 510.823L482.409 484.482L381.815 542.459Z" fill="#E5E5E5"></path>
  <path d="M532.116 419.073V507.158L442.058 564.655L433.92 569.85C433.871 569.879 433.823 569.911 433.774 569.94C433.079 570.338 432.11 570.596 431.177 570.635C430.397 570.67 429.639 570.551 429.076 570.234L416.152 562.52C414.857 561.746 414.067 560.353 414.067 558.847V501.102C414.067 499.858 414.604 498.69 415.525 497.889C415.739 497.701 415.968 497.532 416.218 497.391L474.561 463.937L484.52 437.021C485.29 434.939 486.767 433.193 488.691 432.08L521.691 413.061C526.326 410.389 532.116 413.732 532.116 419.073Z" fill="#A200CB"></path>
  <path d="M414.158 500.228C414.099 500.512 414.066 500.806 414.066 501.102V558.85C414.066 560.355 414.857 561.748 416.151 562.52L429.076 570.235C430.37 570.959 432.671 570.648 433.92 569.85L442.058 564.653L431.427 513.578C426.026 511.058 416.31 503.767 414.158 500.228Z" fill="#BD63D4"></path>
  <path d="M499.724 453.92L442.982 486.976C441.178 488.027 440.067 489.957 440.067 492.043V530.03C440.067 534.559 444.989 537.379 448.907 535.097L510.353 499.299C511.044 498.897 511.469 498.158 511.469 497.358V460.651C511.471 454.636 504.931 450.888 499.724 453.92Z" fill="#E5E5E5"></path>
  <path d="M505.583 455.407L447.777 489.082C445.971 490.134 444.862 492.063 444.862 494.149V532.136C444.862 536.665 449.784 539.486 453.702 537.203L505.577 506.982C509.226 504.856 511.47 500.956 511.47 496.737V458.781C511.47 455.766 508.192 453.887 505.583 455.407Z" fill="white"></path>
  <path d="M455.73 529.891C454.757 529.891 453.968 529.003 453.968 527.908V497.686C453.968 496.591 454.757 495.703 455.73 495.703C456.703 495.703 457.491 496.591 457.491 497.686V527.908C457.491 529.003 456.703 529.891 455.73 529.891Z" fill="#E5E5E5"></path>
  <path d="M465.032 523.622C464.059 523.622 463.271 522.734 463.271 521.639V491.417C463.271 490.322 464.061 489.434 465.032 489.434C466.005 489.434 466.795 490.322 466.795 491.417V521.639C466.795 522.734 466.005 523.622 465.032 523.622Z" fill="#E5E5E5"></path>
  <path d="M474.336 517.351C473.363 517.351 472.573 516.463 472.573 515.368V485.146C472.573 484.051 473.363 483.163 474.336 483.163C475.309 483.163 476.098 484.051 476.098 485.146V515.368C476.097 516.463 475.309 517.351 474.336 517.351Z" fill="#E5E5E5"></path>
  <path d="M483.638 511.082C482.665 511.082 481.875 510.194 481.875 509.099V478.877C481.875 477.782 482.665 476.894 483.638 476.894C484.611 476.894 485.399 477.782 485.399 478.877V509.099C485.4 510.194 484.611 511.082 483.638 511.082Z" fill="#E5E5E5"></path>
  <path d="M492.94 504.812C491.967 504.812 491.179 503.924 491.179 502.829V472.606C491.179 471.511 491.968 470.623 492.94 470.623C493.913 470.623 494.702 471.511 494.702 472.606V502.829C494.702 503.924 493.913 504.812 492.94 504.812Z" fill="#E5E5E5"></path>
  <path d="M502.243 498.542C501.27 498.542 500.481 497.655 500.481 496.56V466.337C500.481 465.242 501.27 464.354 502.243 464.354C503.216 464.354 504.004 465.242 504.004 466.337V496.56C504.004 497.655 503.216 498.542 502.243 498.542Z" fill="#E5E5E5"></path>
  <path d="M537.293 433.739C537.298 431.641 535.023 430.327 533.203 431.376L532.116 432.001L500.078 450.468L497.332 457.884L496.791 459.346L493.987 466.93L492.899 469.87L488.925 480.607L487.624 481.353L484.405 483.199L479.129 486.225L475.913 488.068L470.634 491.096L467.418 492.939L462.143 495.965L458.927 497.808L453.648 500.837L450.432 502.68L442.119 507.449L437.741 509.96L431.427 513.581C431.271 513.669 431.177 513.832 431.177 514.011V570.638C432.11 570.599 433.079 570.34 433.774 569.943L534.167 513.17C536.011 512.127 537.151 510.176 537.156 508.061L537.293 433.739Z" fill="#BD63D4"></path>
  <path d="M388.409 391.905C387.903 391.614 387.28 391.616 386.776 391.908L303.541 440.183C303.04 440.474 302.731 441.009 302.729 441.588L302.508 555.255L287.474 563.92L272.423 555.129V489.496C272.423 488.915 272.113 488.379 271.61 488.088L180.148 435.157C179.643 434.865 179.021 434.865 178.517 435.155C178.011 435.446 177.7 435.984 177.7 436.566V466.944C178.787 467.58 179.876 468.208 180.961 468.845V439.392L269.161 490.436V556.064C269.161 556.642 269.468 557.177 269.968 557.469L286.644 567.211C286.899 567.36 287.183 567.434 287.468 567.434C287.75 567.434 288.031 567.361 288.283 567.217L304.951 557.609C305.454 557.319 305.766 556.782 305.766 556.203L305.987 442.533L385.962 396.148L385.997 429.064C387.077 428.42 388.134 427.852 389.223 427.225V393.315C389.225 392.733 388.913 392.195 388.409 391.905Z" fill="#DC56FF"></path>
  <path d="M180.097 443.358C182.874 443.358 185.125 441.111 185.125 438.339C185.125 435.567 182.874 433.32 180.097 433.32C177.32 433.32 175.069 435.567 175.069 438.339C175.069 441.111 177.32 443.358 180.097 443.358Z" fill="#A200CB"></path>
  <path d="M271.185 494.517C273.961 494.517 276.211 492.27 276.211 489.499C276.211 486.728 273.961 484.482 271.185 484.482C268.409 484.482 266.158 486.728 266.158 489.499C266.158 492.27 268.409 494.517 271.185 494.517Z" fill="#A200CB"></path>
  <path d="M271.185 560.799C273.961 560.799 276.211 558.552 276.211 555.781C276.211 553.01 273.961 550.763 271.185 550.763C268.409 550.763 266.158 553.01 266.158 555.781C266.158 558.552 268.409 560.799 271.185 560.799Z" fill="#A200CB"></path>
  <path d="M304.486 560.799C307.262 560.799 309.512 558.552 309.512 555.781C309.512 553.01 307.262 550.763 304.486 550.763C301.71 550.763 299.459 553.01 299.459 555.781C299.459 558.552 301.71 560.799 304.486 560.799Z" fill="#A200CB"></path>
  <path d="M304.486 446.798C307.262 446.798 309.512 444.552 309.512 441.781C309.512 439.009 307.262 436.763 304.486 436.763C301.71 436.763 299.459 439.009 299.459 441.781C299.459 444.552 301.71 446.798 304.486 446.798Z" fill="#A200CB"></path>
  <path d="M388.112 399.452C390.888 399.452 393.138 397.205 393.138 394.434C393.138 391.663 390.888 389.417 388.112 389.417C385.336 389.417 383.085 391.663 383.085 394.434C383.085 397.205 385.336 399.452 388.112 399.452Z" fill="#A200CB"></path>
</svg>
