<?xml version="1.0" encoding="UTF-8"?>
<!-- Generator: Adobe Illustrator 19.0.0, SVG Export Plug-In . SVG Version: 6.00 Build 0)  -->
<svg xmlns="http://www.w3.org/2000/svg" xmlns:xlink="http://www.w3.org/1999/xlink" version="1.1" id="Layer_1" x="0px" y="0px" width="135px" height="117px" viewBox="0 0 110 95" style="enable-background:new 0 0 110 95;" xml:space="preserve">
<style type="text/css">
	.st0{fill-rule:evenodd;clip-rule:evenodd;fill:#E2F0FF;}
	.st1{fill-rule:evenodd;clip-rule:evenodd;fill:url(#XMLID_119_);}
	.st2{fill-rule:evenodd;clip-rule:evenodd;fill:#22043D;}
	.st3{fill-rule:evenodd;clip-rule:evenodd;fill:url(#XMLID_120_);}
	.st4{fill-rule:evenodd;clip-rule:evenodd;fill:#0C2B63;}
	.st5{fill-rule:evenodd;clip-rule:evenodd;fill:url(#XMLID_121_);}
	.st6{fill-rule:evenodd;clip-rule:evenodd;fill:url(#XMLID_122_);}
	.st7{fill-rule:evenodd;clip-rule:evenodd;fill:url(#XMLID_123_);}
	.st8{fill-rule:evenodd;clip-rule:evenodd;fill:url(#XMLID_124_);}
	.st9{opacity:0.5;fill-rule:evenodd;clip-rule:evenodd;fill:#EC49A0;}
	.st10{fill-rule:evenodd;clip-rule:evenodd;fill:url(#XMLID_125_);}
	.st11{fill-rule:evenodd;clip-rule:evenodd;fill:url(#XMLID_126_);}
	.st12{fill-rule:evenodd;clip-rule:evenodd;fill:#FFA698;}
	.st13{fill-rule:evenodd;clip-rule:evenodd;fill:url(#XMLID_127_);}
	.st14{fill-rule:evenodd;clip-rule:evenodd;fill:url(#XMLID_128_);}
	.st15{fill-rule:evenodd;clip-rule:evenodd;fill:url(#XMLID_129_);}
	.st16{fill-rule:evenodd;clip-rule:evenodd;fill:url(#XMLID_130_);}
	.st17{fill-rule:evenodd;clip-rule:evenodd;fill:#0E306C;}
	.st18{fill-rule:evenodd;clip-rule:evenodd;fill:#0E2E63;}
	.st19{fill-rule:evenodd;clip-rule:evenodd;fill:url(#XMLID_131_);}
	.st20{opacity:0.5;fill-rule:evenodd;clip-rule:evenodd;fill:url(#XMLID_132_);}
	.st21{fill-rule:evenodd;clip-rule:evenodd;fill:url(#XMLID_133_);}
	.st22{fill-rule:evenodd;clip-rule:evenodd;fill:url(#XMLID_134_);}
	.st23{fill-rule:evenodd;clip-rule:evenodd;fill:url(#XMLID_135_);}
	.st24{opacity:0.5;fill-rule:evenodd;clip-rule:evenodd;fill:url(#XMLID_136_);}
	.st25{fill-rule:evenodd;clip-rule:evenodd;fill:url(#XMLID_137_);}
	.st26{fill-rule:evenodd;clip-rule:evenodd;fill:url(#XMLID_138_);}
	.st27{fill-rule:evenodd;clip-rule:evenodd;fill:#00CEDC;}
	.st28{fill-rule:evenodd;clip-rule:evenodd;fill:url(#XMLID_139_);}
	.st29{fill-rule:evenodd;clip-rule:evenodd;fill:url(#XMLID_140_);}
	.st30{fill-rule:evenodd;clip-rule:evenodd;fill:url(#XMLID_141_);}
	.st31{fill-rule:evenodd;clip-rule:evenodd;fill:url(#XMLID_142_);}
	.st32{fill-rule:evenodd;clip-rule:evenodd;fill:url(#XMLID_143_);}
	.st33{fill-rule:evenodd;clip-rule:evenodd;fill:#FF8978;}
	.st34{fill-rule:evenodd;clip-rule:evenodd;fill:#1C8DF3;}
	.st35{fill-rule:evenodd;clip-rule:evenodd;fill:#149FED;}
	.st36{fill-rule:evenodd;clip-rule:evenodd;fill:#F1920E;}
	.st37{fill-rule:evenodd;clip-rule:evenodd;fill:url(#XMLID_144_);}
	.st38{fill-rule:evenodd;clip-rule:evenodd;fill:#FFD463;}
	.st39{fill-rule:evenodd;clip-rule:evenodd;fill:#FFC426;}
	.st40{fill-rule:evenodd;clip-rule:evenodd;fill:#783C18;}
	.st41{fill-rule:evenodd;clip-rule:evenodd;fill:#0FACE8;}
	.st42{fill-rule:evenodd;clip-rule:evenodd;fill:url(#XMLID_145_);}
	.st43{fill-rule:evenodd;clip-rule:evenodd;fill:url(#XMLID_146_);}
	.st44{fill-rule:evenodd;clip-rule:evenodd;fill:url(#XMLID_147_);}
	.st45{fill-rule:evenodd;clip-rule:evenodd;fill:url(#XMLID_148_);}
	.st46{fill-rule:evenodd;clip-rule:evenodd;fill:url(#XMLID_149_);}
	.st47{fill-rule:evenodd;clip-rule:evenodd;fill:#092356;}
	.st48{fill-rule:evenodd;clip-rule:evenodd;fill:url(#XMLID_150_);}
	.st49{opacity:0.5;fill-rule:evenodd;clip-rule:evenodd;fill:url(#XMLID_151_);}
	.st50{fill-rule:evenodd;clip-rule:evenodd;fill:url(#XMLID_152_);}
	.st51{fill-rule:evenodd;clip-rule:evenodd;fill:url(#XMLID_153_);}
	.st52{fill-rule:evenodd;clip-rule:evenodd;fill:url(#XMLID_154_);}
	.st53{fill-rule:evenodd;clip-rule:evenodd;fill:url(#XMLID_155_);}
	.st54{opacity:0.5;fill-rule:evenodd;clip-rule:evenodd;fill:url(#XMLID_156_);}
	.st55{fill-rule:evenodd;clip-rule:evenodd;fill:url(#XMLID_157_);}
	.st56{opacity:0.5;fill-rule:evenodd;clip-rule:evenodd;fill:url(#XMLID_158_);}
	.st57{fill-rule:evenodd;clip-rule:evenodd;fill:url(#XMLID_159_);}
	.st58{fill-rule:evenodd;clip-rule:evenodd;fill:url(#XMLID_160_);}
	.st59{fill-rule:evenodd;clip-rule:evenodd;fill:url(#XMLID_161_);}
	.st60{fill-rule:evenodd;clip-rule:evenodd;fill:url(#XMLID_162_);}
	.st61{fill-rule:evenodd;clip-rule:evenodd;fill:#FF8F7F;}
	.st62{fill-rule:evenodd;clip-rule:evenodd;fill:url(#XMLID_163_);}
	.st63{fill-rule:evenodd;clip-rule:evenodd;fill:url(#XMLID_164_);}
	.st64{fill-rule:evenodd;clip-rule:evenodd;fill:url(#XMLID_165_);}
	.st65{fill-rule:evenodd;clip-rule:evenodd;fill:#FF9D8D;}
	.st66{fill-rule:evenodd;clip-rule:evenodd;fill:url(#XMLID_166_);}
	.st67{fill-rule:evenodd;clip-rule:evenodd;fill:url(#XMLID_167_);}
	.st68{fill-rule:evenodd;clip-rule:evenodd;fill:url(#XMLID_168_);}
	.st69{opacity:0.5;fill-rule:evenodd;clip-rule:evenodd;fill:url(#XMLID_169_);}
	.st70{fill-rule:evenodd;clip-rule:evenodd;fill:url(#XMLID_170_);}
	.st71{fill-rule:evenodd;clip-rule:evenodd;fill:url(#XMLID_171_);}
	.st72{opacity:0.5;fill-rule:evenodd;clip-rule:evenodd;fill:url(#XMLID_172_);}
	.st73{fill-rule:evenodd;clip-rule:evenodd;fill:url(#XMLID_173_);}
	.st74{fill-rule:evenodd;clip-rule:evenodd;fill:url(#XMLID_174_);}
	.st75{opacity:0.5;fill-rule:evenodd;clip-rule:evenodd;fill:url(#XMLID_175_);}
	.st76{fill-rule:evenodd;clip-rule:evenodd;fill:url(#XMLID_176_);}
	.st77{fill-rule:evenodd;clip-rule:evenodd;fill:url(#XMLID_177_);}
	.st78{fill-rule:evenodd;clip-rule:evenodd;fill:#3FAFF6;}
	.st79{fill-rule:evenodd;clip-rule:evenodd;fill:#38251B;}
	.st80{fill-rule:evenodd;clip-rule:evenodd;fill:url(#XMLID_178_);}
	.st81{fill-rule:evenodd;clip-rule:evenodd;fill:url(#XMLID_179_);}
	.st82{fill-rule:evenodd;clip-rule:evenodd;fill:#FFAD9A;}
	.st83{fill-rule:evenodd;clip-rule:evenodd;fill:url(#XMLID_180_);}
	.st84{fill-rule:evenodd;clip-rule:evenodd;fill:url(#XMLID_181_);}
	.st85{fill-rule:evenodd;clip-rule:evenodd;fill:url(#XMLID_182_);}
	.st86{fill-rule:evenodd;clip-rule:evenodd;fill:url(#XMLID_183_);}
	.st87{fill-rule:evenodd;clip-rule:evenodd;fill:#FFB09B;}
</style>
<g>
	<g>
		<g>
			<path id="XMLID_117_" class="st0" d="M83.6,91L75,86.1c-0.9-0.4-2.3-0.8-3.2-0.3c-0.9,0.5-2.3,1.4-2.9,1.7     c-0.5,0.3-2.2,1.3-1.1,1.8c3.1,1.7,6.1,3.5,9.2,5.2c0.6,0.3,1.4,0.4,2.4,0.4c0.9-0.1,1.8-0.3,2.5-0.8c0.5-0.3,1-0.6,1.5-0.9     c0.7-0.4,1-0.9,1.1-1.3C84.5,91.6,84.2,91.2,83.6,91z"></path>
			<g>
				<g>
					<linearGradient id="XMLID_119_" gradientUnits="userSpaceOnUse" x1="77.2756" y1="50.5834" x2="77.8567" y2="62.1843">
						<stop offset="0" style="stop-color:#5A2D68"></stop>
						<stop offset="1" style="stop-color:#22043D"></stop>
					</linearGradient>
					<path id="XMLID_116_" class="st1" d="M71.2,55.4c-1.1-3.5,1.2-3.3,1-4.3c-0.3-1.2,0.3-2.2,0.9-2.7c1.3-0.9,3.9-1.1,4.9,0.7       c0.5,1,0.6,1.4,1.2,1.8c1.3,0.9,2.7,0.5,3.7,2c0.6,0.9,0.5,2-0.2,2.7c1.8,0.8,1.8,2.2,0.4,4c-1.5,2-4.8,3.3-1.5,5       c-4.6,1.7-9.4-1.7-10-5.8C71.5,57.7,71.6,56.5,71.2,55.4z"></path>
					<path id="XMLID_115_" class="st2" d="M73.5,49.2c-0.2,1.2,1.6,1.9,1.8,3.3c0.3-0.3,0.9-0.3,1.1,0.1c0.3,0.7-0.4,1.2,0.5,1.9       c0.3,0.3,1,0.7,2,1.6c0.4,0.4,1.4,1.4,1.2,2.8c-0.1,1.2-2.2,4-0.7,5.5c-4.4,0.5-5.7-4.2-7.3-7.7c-1-2.2-0.5-2.8,0.2-3.6       c0.5-0.6,0.4-1.1,0.4-1.7C72.7,50.5,72.8,50,73.5,49.2z"></path>
				</g>
				<g>
					<linearGradient id="XMLID_120_" gradientUnits="userSpaceOnUse" x1="72.5267" y1="77.6799" x2="74.121" y2="77.2803">
						<stop offset="0" style="stop-color:#FFB89E"></stop>
						<stop offset="1" style="stop-color:#FFA799"></stop>
					</linearGradient>
					<path id="XMLID_114_" class="st3" d="M71.5,65.2c0,0.4,0,1.1,0,2.7c0,1.1,0.1,3.1,0.2,4.8c0,0.7,0.1,1.3,0.2,1.9       c0,0.4,0.2,0.8,0.3,1.2c0.4,2.9,1,5.5,1.3,9c0.1,0.8,0.2,1.2,0,2c0,0.2-0.1,0.3-0.1,0.5c-0.1,0.8-0.2,1.5-0.5,2.2       c0,0.1-0.1,0.3-0.2,0.4c0,0,0.7,0.2,0.8,0.3c0.1,0,1.2-0.3,1.2-0.3s0.4-1.9,0.4-2c-0.1-1.2,0.8-1,0-1.9       c-0.1-0.1-0.1-0.1-0.1-0.3c0-1.2,0.2-3,0.4-4.5c0.4-4.5-0.3-4.2-0.5-6.3c0.3-2.6,0.9-6.2,0.9-9.4L71.5,65.2z"></path>
					<path id="XMLID_113_" class="st4" d="M73.1,89.1c-0.1,0.2-0.2,0.5-0.4,0.8c-0.1,0.3-0.2,0.5-0.3,0.7c0,0.1,0,0.2,0,0.3       c0.3,0.4,1.6-0.3,2.1-0.7c0.3-0.3,0.3-0.6,0.4-0.9c0.1-0.6,0.1-0.6,0.3-1.2l0.2,1.6l0.1,0.1c0-0.6,0.1-1.5,0.2-2       c0-0.2,0.1-0.5,0.1-0.6c0.1-0.7-0.3-1.1-0.6-1.3c0.1,0.4-0.2,1.1-0.3,2c-0.1,0.9-0.7,1.9-1.1,2c-0.2,0-0.5-0.2-0.7-0.3       C73,89.5,73.1,89.3,73.1,89.1z"></path>
				</g>
				<g>
					<linearGradient id="XMLID_121_" gradientUnits="userSpaceOnUse" x1="76.7014" y1="77.5539" x2="78.0014" y2="77.0973">
						<stop offset="0" style="stop-color:#FFB89E"></stop>
						<stop offset="1" style="stop-color:#FFA799"></stop>
					</linearGradient>
					<path id="XMLID_112_" class="st5" d="M77,63.9c0.5,1.5,1.4,2.8,1.5,4c0.2,1.2,0.1,2.3-0.1,4c-0.2,1.2-0.8,3.9-0.6,4.9       c0.2,1.5,0.7,2.4,0.9,4.1c0.1,1.4-0.1,3.5-0.2,5.4c0,0.7,0,0.8,0.2,1.4c0.1,0.2,0.1,0.4,0.1,0.7c0.1,0.6,0.1,1.3,0,2.1       c0,0.3-0.1,0.4-0.2,0.8L77.1,92c0-0.4,0.1-0.9,0.1-1.5c0-0.5,0-1.1,0-1.6c0-0.8,0.1-1.2-0.1-1.9c-0.4-2.4-1.1-4.5-1.6-6.4       c-0.2-1-0.3-1.9-0.7-3.4c-0.1-0.6-0.3-1.2-0.3-1.8c-0.1-1.6-0.4-3.6-0.4-5.2c-1.3-1.9-2.2-2.9-2.6-3.9       c-0.1-0.7,0.2-1.5,0.2-1.5L77,63.9z"></path>
					<path id="XMLID_111_" class="st4" d="M78.6,87.2c0.1,0.3,0.3,0.5,0.4,1c0.1,0.5,0,1.2,0,1.8l0.1,0.9c0.1,0.5,0,0.9-0.6,1.4       c-0.5,0.5-1,0.7-1.3,0.6c-0.2-0.1-0.4-0.4-0.2-1.5c0.2-0.9,0.2-1.7,0.2-2.6c0.1,0.9,0.1,1.2,0,2.1c0,0.3,0,0.7,0.2,0.7       c1.2,0,1.2-0.3,1.3-0.7C78.9,89.9,78.8,88.1,78.6,87.2z"></path>
				</g>
				<linearGradient id="XMLID_122_" gradientUnits="userSpaceOnUse" x1="71.2784" y1="69.449" x2="77.8207" y2="71.0494">
					<stop offset="0" style="stop-color:#235DA3"></stop>
					<stop offset="1" style="stop-color:#123A76"></stop>
				</linearGradient>
				<path id="XMLID_110_" class="st6" d="M77,63.9c0.5,1.5,1.4,2.8,1.5,4c0.3,1.8,0,3.1-0.5,6.9c-0.1,0.5,0,1,0.1,1.4      c0.3,1.3-1,1.7-2.6,1.2c-1.9-0.6-3.6-2-3.7-2.7c-0.2-1.9-0.7-5.4-0.7-7c0-1.6,0.4-2.1,0.4-2.6l0-0.4C71.6,64.5,76.3,64,77,63.9z      "></path>
				<g>
					<linearGradient id="XMLID_123_" gradientUnits="userSpaceOnUse" x1="71.3339" y1="58.1623" x2="70.1356" y2="54.5855">
						<stop offset="0" style="stop-color:#FA5DB1"></stop>
						<stop offset="1" style="stop-color:#FEBFBF"></stop>
					</linearGradient>
					<path id="XMLID_109_" class="st7" d="M71.3,59.6c0.9-1.1,2.1-2.7,2.3-3.1c0.5-1.1,0.8-1.7,0.3-2.1c-0.5-0.4-1.2-0.4-1.6,0       c-0.6,0.5-1,1.6-1.3,2c-0.6,0.8-1.1,1.3-1.6,2c-0.5,0.5-0.9,1.2-1.1,1.7c-0.1,0.4-0.1,0.9,0.2,1.1       C69.3,61.9,70.9,60.2,71.3,59.6z"></path>
					<linearGradient id="XMLID_124_" gradientUnits="userSpaceOnUse" x1="77.4631" y1="65.1069" x2="71.7071" y2="54.7276">
						<stop offset="0" style="stop-color:#FA5DB1"></stop>
						<stop offset="1" style="stop-color:#FEBFBF"></stop>
					</linearGradient>
					<path id="XMLID_108_" class="st8" d="M77.8,62.1c-0.6,1.5,0.4,2.3,0,3.4l0.2,0.4c-1.2,0.8-5.3,0.7-6.4-1l0-0.8       c-0.2-0.4-0.1-1,0-1.3c0.2-0.8,0.1-1.3,0.2-2.3c0-0.3,0.1-0.5,0.1-0.8c0-0.1,0-0.1,0-0.2c-0.3-0.2-0.5-0.5-0.6-0.9       c-0.1-0.6,0-1.1,0.3-1.6c0.3-0.5,0.7-0.8,0.9-1.3c0.3-1.1,1.2-1.6,1.8-1.4c0.3,0.1,1.3,0.2,2.1,0.6c0.5,0.3,1,0.7,1.5,1.1       c0.5,0.4,1,0.3,1.2,1c0.1,0.2-0.1,0.3-0.1,0.5C78.9,59,78.3,60.9,77.8,62.1z"></path>
					<path id="XMLID_107_" class="st9" d="M77.8,62.1c-0.2,0.4-0.2,0.7-0.2,1.1c-1,1-2,2-2.5,2.1c-0.9,0.2-1.9-0.4-3.6-1.5       c0-0.3,0-0.7,0.1-0.9c0.2-0.8,0.1-1.3,0.2-2.3c0-0.3,0.1-0.5,0.1-0.8c0-0.1,0-0.1,0-0.2c-0.3-0.2-0.5-0.5-0.6-0.9       c-0.1-0.3-0.1-0.5,0-0.7c0.5,0.3,1.1,1,1.2,1.1c0.3,0.1,2.1,0.5,2.6,0.2c1.1-0.6,1.7-2.9,3.7-2.3c0.1,0,0.2,0.1,0.3,0.1       c0,0.1,0,0.1,0.1,0.2c0.1,0.2-0.1,0.3-0.1,0.5C78.9,59,78.3,60.9,77.8,62.1z"></path>
					<linearGradient id="XMLID_125_" gradientUnits="userSpaceOnUse" x1="74.6796" y1="61.3022" x2="73.8042" y2="61.0296">
						<stop offset="0" style="stop-color:#FFB89E"></stop>
						<stop offset="1" style="stop-color:#FFA799"></stop>
					</linearGradient>
					<path id="XMLID_106_" class="st10" d="M73.7,60.1c0.2,0,0.6,0,0.8,0.1c0.3,0.1,0.7,0.4,0.9,0.6l-1,1.6       c-0.4-0.5-0.8-0.9-1.3-1.3l0-0.3L73.7,60.1z"></path>
					<linearGradient id="XMLID_126_" gradientUnits="userSpaceOnUse" x1="73.6343" y1="63.6207" x2="76.2627" y2="55.5893">
						<stop offset="0" style="stop-color:#FA5DB1"></stop>
						<stop offset="1" style="stop-color:#FEBFBF"></stop>
					</linearGradient>
					<path id="XMLID_105_" class="st11" d="M79.2,58.8c-0.3,0.8-3.6,6.1-5.2,5.7c-0.2,0-0.4-0.2-0.6-0.3c-1.7-1.2-1.6-1.7-2.7-4       c0.2-0.4,0.5-0.6,1-0.6c0.4,0.5,1.6,1.6,2.6,2.6c0.7-1.3,2.3-4,2.8-4.7C78.3,55.9,79.7,57.2,79.2,58.8z"></path>
					<path id="XMLID_104_" class="st12" d="M71.7,59.5c-0.3-0.5-0.7-0.8-0.9-0.8c-0.3,0-0.7,0.4-0.9,0.7l0,0c0.3,0,0.9,0.1,1.5,0.2       C71.5,59.6,71.6,59.5,71.7,59.5z"></path>
					<linearGradient id="XMLID_127_" gradientUnits="userSpaceOnUse" x1="70.0488" y1="58.8161" x2="69.9911" y2="59.5144">
						<stop offset="0" style="stop-color:#FFB89E"></stop>
						<stop offset="1" style="stop-color:#FFA799"></stop>
					</linearGradient>
					<path id="XMLID_103_" class="st13" d="M69.1,58.7c-0.3,0.2-0.5,0.6-0.5,0.7c0.5-0.1,0.8,0,1.2,0c0.1,0,0.2,0,0.3,0l1.1-0.3       l0.2,0c-0.2-0.3-0.5-0.5-0.7-0.6C70.4,58.4,70,58.5,69.1,58.7z"></path>
					<linearGradient id="XMLID_128_" gradientUnits="userSpaceOnUse" x1="71.1379" y1="61.3368" x2="70.8476" y2="59.1968">
						<stop offset="0" style="stop-color:#FA5DB1"></stop>
						<stop offset="1" style="stop-color:#FEBFBF"></stop>
					</linearGradient>
					<path id="XMLID_102_" class="st14" d="M73.8,60.1c-0.3,0.1-0.5,0.7-0.5,1.1c-1.4,0.2-3.9,0.5-4.7,0.3c-0.4-0.1-0.5-0.5-0.5-1.1       c0.1-0.4,0.7-0.9,1.7-0.9C70.8,59.5,73,59.9,73.8,60.1z"></path>
				</g>
				<g>
					<linearGradient id="XMLID_129_" gradientUnits="userSpaceOnUse" x1="75.3655" y1="54.0339" x2="75.0357" y2="55.4107">
						<stop offset="0" style="stop-color:#FF8A78"></stop>
						<stop offset="1" style="stop-color:#FFA799"></stop>
					</linearGradient>
					<path id="XMLID_101_" class="st15" d="M76,53c-0.1,0.8-0.1,1.5,0.2,2.3c-0.6,0.6-1.8,0.3-2.1-0.2c0.1-0.3,0.1-0.7,0.2-1L76,53z       "></path>
					<linearGradient id="XMLID_130_" gradientUnits="userSpaceOnUse" x1="73.2692" y1="52.0788" x2="75.0746" y2="52.4531">
						<stop offset="0" style="stop-color:#FFB89E"></stop>
						<stop offset="1" style="stop-color:#FFA799"></stop>
					</linearGradient>
					<path id="XMLID_100_" class="st16" d="M73.3,49.7c-0.3,0.5-0.5,1-0.4,1.7c0,0.2,0,0.3-0.1,0.4c-0.3,0.7-0.3,0.9-0.1,1.4       c0.1,0.5,0.1,0.8,0.3,1c0.2,0.2,0.5,0.2,0.7,0.2c0.5,0,1.3-0.3,1.8-0.5c0.4-0.2,0.3-0.3,0.5-0.7c0.5-0.4,0.2-0.8,0-0.8       c-0.5-0.1-0.6,0.5-0.8,0.6C75.2,52.1,73.3,50.5,73.3,49.7z"></path>
				</g>
			</g>
		</g>
		<g>
			<path id="XMLID_99_" class="st0" d="M31.4,63.4l-10.2-5.8c-1.1-0.5-2.7-0.9-3.8-0.3c-1,0.5-2.7,1.6-3.5,2.1     c-0.6,0.3-2.6,1.5-1.3,2.2c3.6,2,7.2,4.2,10.9,6.2c0.7,0.4,1.7,0.5,2.8,0.4c1.1-0.1,2.2-0.4,3-0.9c0.6-0.4,1.2-0.7,1.8-1.1     c0.8-0.5,1.2-1,1.3-1.5C32.4,64.2,32,63.7,31.4,63.4z"></path>
			<g>
				<path id="XMLID_98_" class="st17" d="M15.4,31.7c-0.5-0.2-0.9-0.6-0.8-1.2c0.2-0.8,1.5-3.1,2-4.4c0.2-0.6,0.7-2.3,1.4-3.3      c0.6-0.9,1.4-1.2,2.3-0.8c1.6,0.7-0.5,5.2-2.1,7.7C17.7,30.6,16.7,32.2,15.4,31.7z"></path>
				<g>
					<path id="XMLID_97_" class="st18" d="M26.8,60.2c0.1,0.2,0,0.4,0.1,0.6c0.1,0.3,0.2,0.5,0.3,1c0.2,0.7-0.1,1.6,0.2,2.6       c0.1,0.4,0.1,0.7-0.2,1.1c-0.3,0.3-0.7,0.9-1.4,0.9c-0.1,0-0.4-0.1-0.7-0.3c-0.2-0.3-0.4-0.7-0.4-1.2c0-0.2,0.1-0.8,0.1-1.3       c0-0.5-0.1-0.7-0.1-1.3c0-0.6,0.1-1.3,0.1-1.7L26.8,60.2z"></path>
					<path id="XMLID_96_" class="st18" d="M21.2,57.3c0.2,0.5,0.3,0.7,0.3,1.4c-0.1,0.4-0.4,0.5-0.7,0.8l-0.2,0       c-0.5,0.3-0.7,1.2-1.1,1.7c-0.3,0.3-1,0.5-1.6,0.6c-0.7,0.1-1.4-0.1-1.2-0.6c0.4-1.4,2.4-2.9,2.4-4.4L21.2,57.3z"></path>
					<linearGradient id="XMLID_131_" gradientUnits="userSpaceOnUse" x1="13.8614" y1="42.562" x2="20.6843" y2="46.2273">
						<stop offset="0" style="stop-color:#235DA3"></stop>
						<stop offset="1" style="stop-color:#123A76"></stop>
					</linearGradient>
					<path id="XMLID_95_" class="st19" d="M18.3,47.7c0,2.6,0.8,7.3,0.7,9.9c0.8,0.5,1.8,0.4,2.3-0.3c0.3-2.4,0.6-5.5,0.6-6.8       c0-1.1-0.1-2.1-0.3-3c0.4-2.8,2-6.7,1.6-9.4c-0.2-1.2-0.9-2.4-1.2-3.4c-1.9,2.4-3.4,1.2-4.2,1c0,0.8-0.1,0.7,0,1.6       c0.1,2.9,0.2,6,0.4,9.1C18.1,46.8,18.2,47.3,18.3,47.7z"></path>
					<linearGradient id="XMLID_132_" gradientUnits="userSpaceOnUse" x1="15.8368" y1="42.1409" x2="21.2788" y2="45.7539">
						<stop offset="0" style="stop-color:#235DA3"></stop>
						<stop offset="1" style="stop-color:#123A76"></stop>
					</linearGradient>
					<path id="XMLID_94_" class="st20" d="M19.5,47.1c0,0,0.9,4.1,1.8,10.1c0.3-2.4,0.6-5.5,0.6-6.8c0-1.1-0.1-2.1-0.3-3       c0.4-2.8,2-6.7,1.6-9.4c-0.2-1.2-0.9-2.4-1.2-3.4c-1.2,1.5-2.3,1.6-3.1,1.4L19.5,47.1z"></path>
					<linearGradient id="XMLID_133_" gradientUnits="userSpaceOnUse" x1="15.4049" y1="43.6669" x2="26.9971" y2="49.807">
						<stop offset="0" style="stop-color:#235DA3"></stop>
						<stop offset="1" style="stop-color:#123A76"></stop>
					</linearGradient>
					<path id="XMLID_93_" class="st21" d="M22.6,49.6c0.5,2.6,1.8,8.5,2.1,11.1c0.8,0.5,1.9,0.2,2.2-0.5c0-2.4,0-6.2-0.1-7.5       c-0.1-1.1-0.6-2.7-1.1-3.7c-0.1-2.8,0.8-6.8,0-9.5c-0.4-1.2-1.3-2.4-1.7-3.4c-0.5,0.8-1.1,1.1-2.9,1c-0.2,0-1.6-1-2.1-1.2       c0.6,3.6,2.3,8.3,3.2,12.2C22.3,48.7,22.4,49.2,22.6,49.6z"></path>
				</g>
				<linearGradient id="XMLID_134_" gradientUnits="userSpaceOnUse" x1="20.0853" y1="36.2623" x2="23.698" y2="22.4041">
					<stop offset="0" style="stop-color:#1C8EF4"></stop>
					<stop offset="1" style="stop-color:#00CFDD"></stop>
				</linearGradient>
				<path id="XMLID_92_" class="st22" d="M26,24.5c-0.6-0.3-2-1.3-3.2-2c-1.6-0.9-3.3-1.1-4.3,0.8c-0.6,1.1-1,2.6-0.9,4.7      c0,0.8,0.2,1.6,0.3,2.4c0.1,1.1-0.2,2-0.2,3c0,0.7,0.2,1.3,0.1,1.8c0,0.3,0,0.7,0,0.9c0.5,2.1,5.3,2.3,7.5,0.9      c-0.1-0.2,0-0.6-0.1-1.1c0.2-0.5,0.3-0.8,0.4-1.4c0.1-1.3-0.1-2.1,0.5-3.3c0.8-1.6,1.6-3.4,1.7-4.7C27.6,25.6,26.7,25,26,24.5z"></path>
				<linearGradient id="XMLID_135_" gradientUnits="userSpaceOnUse" x1="26.3327" y1="27.9175" x2="22.3221" y2="34.2758">
					<stop offset="0" style="stop-color:#235DA3"></stop>
					<stop offset="1" style="stop-color:#123A76"></stop>
				</linearGradient>
				<path id="XMLID_91_" class="st23" d="M17.7,36c-0.2-1.7-0.1-3.3-0.2-4.8c-0.1-1.4-0.2-2.9-0.1-4.4c0.2-1.8,0.6-3.9,1.9-4.6      c0.6-0.3,1.2-0.2,2.8,0.3l0,0.2c0.7,0.2,1.3,0.3,1.9,0.6c1.9,1.1,3.8,2.3,3.7,3.6C27.7,29,26,30.6,25.6,33      c-0.3,2,1.8,5.6,4.1,6.8c-0.4,1-1.8,2-2.8,1.7c-2.7-1.5-7.2-9.1-3.4-17.2c0.3-0.5-0.5-0.8-1.5-1.2c-3,0.9-3.9,3.9-4.2,7.1      C17.7,32.2,17.8,34.3,17.7,36z"></path>
				<linearGradient id="XMLID_136_" gradientUnits="userSpaceOnUse" x1="29.4253" y1="28.2583" x2="27.1408" y2="35.1395">
					<stop offset="0" style="stop-color:#235DA3"></stop>
					<stop offset="1" style="stop-color:#123A76"></stop>
				</linearGradient>
				<path id="XMLID_90_" class="st24" d="M27.4,25.6c0.3,0.4,0.5,0.8,0.5,1.2C27.7,29,26,30.6,25.6,33c-0.3,2,1.8,5.6,4.1,6.8      c-0.1,0.2-0.2,0.4-0.3,0.6c-4.6,0.7-5.1-8.6-4.1-11.8C25.8,26.6,26.6,25.5,27.4,25.6z"></path>
				<g>
					<linearGradient id="XMLID_137_" gradientUnits="userSpaceOnUse" x1="24.7972" y1="24.6591" x2="10.4939" y2="37.2987">
						<stop offset="0" style="stop-color:#235DA3"></stop>
						<stop offset="1" style="stop-color:#123A76"></stop>
					</linearGradient>
					<path id="XMLID_89_" class="st25" d="M20.4,25c-1.2,1.8-0.8,2.7-0.4,4.2c0.5,1.6-0.2,3.3-0.7,5.1c-0.5,0.5-1.3,1-2,1.2       c0.1-1.2,0-1.7-0.1-2.4c0.7-0.8,1.1-2,1.1-2.8c0-1.7-0.6-3.3,1.7-5.5c0-0.7,0.1-0.8,0.3-0.9c0.2-0.1,0.1-0.1,0.5,0.1       c0.3,0.1,0.6,0.3,0.4,0.6C21.2,24.8,21,24.9,20.4,25z"></path>
					<linearGradient id="XMLID_138_" gradientUnits="userSpaceOnUse" x1="22.2474" y1="22.2192" x2="22.0866" y2="24.0507">
						<stop offset="0" style="stop-color:#FF8A78"></stop>
						<stop offset="1" style="stop-color:#FFA799"></stop>
					</linearGradient>
					<path id="XMLID_88_" class="st26" d="M20.8,23.1c0-0.1,0-0.2-0.1-0.3c-0.1-0.3,0-0.9-0.1-1.6l2.6-0.5l0.6-0.2       c-0.3,0.9-0.2,1.7,0,2.5c-0.1,0.9-2,0.9-2.9,0.9C20.8,23.8,20.9,23.4,20.8,23.1z"></path>
					<path id="XMLID_87_" class="st27" d="M20.9,24c0-0.1,0-0.4,0-0.7c0-0.2-0.1-0.8,0-0.9c-0.2,0-0.7,1.1-1,1.6       C20.3,23.9,20.5,23.9,20.9,24z"></path>
					<path id="XMLID_86_" class="st27" d="M23.8,22.9c-0.3,0.9-1.9,1.1-2.9,1.1c0.2,0.4,0.4,0.8,0.3,1.1c0.7,0,2,0,2.7-0.8       C24.3,23.8,24.1,23.2,23.8,22.9z"></path>
					<linearGradient id="XMLID_139_" gradientUnits="userSpaceOnUse" x1="20.4162" y1="19.4633" x2="22.3118" y2="19.9316">
						<stop offset="0" style="stop-color:#FFB89E"></stop>
						<stop offset="1" style="stop-color:#FFA799"></stop>
					</linearGradient>
					<path id="XMLID_85_" class="st28" d="M20.8,22.6c0.3-0.1,1.4-0.3,1.7-0.4c0.5-0.2,0.4-0.7,1-1.4c0.6-0.2,0.9-0.4,1-0.7       c0.3-0.7,0.2-1.7-0.3-2.3c-0.4-0.5-0.9-0.8-1.6-0.9c-1.4-0.1-2.1,0.4-2.5,1.5c0,0.1-0.1,0.5-0.1,0.6c0,0.2,0.1,0.3,0,0.5       c0,0.1,0,0.2-0.2,0.3c-0.1,0.1-0.2,0.6-0.2,1.1c0,0.6,0.1,1.2,0.2,1.4C19.8,22.5,20.3,22.7,20.8,22.6z"></path>
					<linearGradient id="XMLID_140_" gradientUnits="userSpaceOnUse" x1="23.5142" y1="17.4912" x2="22.89" y2="19.8062">
						<stop offset="0" style="stop-color:#5A2D68"></stop>
						<stop offset="1" style="stop-color:#22043D"></stop>
					</linearGradient>
					<path id="XMLID_84_" class="st29" d="M21.2,18.5c0.4-0.1,1.7-0.4,2.2-0.6c0.6-0.2,1.2-0.4,1.6,0.1c0.3,0.6,0.2,1.4,0,1.9       c-0.3,0.7-0.8,1.1-1.6,1.6c-0.3,0.2,0-0.8-0.1-1c-0.2,0.3-0.3,0.4-0.5,0.4c-0.1,0-0.2,0-0.1-0.4c0.1-0.7-0.2-0.8,0.1-1.2       c0.2-0.3,0-0.3-0.1-0.5C22.3,18.6,21.8,18.8,21.2,18.5z"></path>
					<path id="XMLID_83_" class="st12" d="M23.7,20.1c0.5-0.1,0.4,0.5,0.3,0.9c-0.1,0.2-0.3,0.2-0.4,0.4c-0.1,0.2-0.3,0.3-0.5,0.2       c-0.3-0.1,0-0.5,0.1-0.7C23.1,20.6,23.3,20.1,23.7,20.1z"></path>
					<linearGradient id="XMLID_141_" gradientUnits="userSpaceOnUse" x1="22.8573" y1="16.9008" x2="22.3062" y2="18.4541">
						<stop offset="0" style="stop-color:#5A2D68"></stop>
						<stop offset="1" style="stop-color:#22043D"></stop>
					</linearGradient>
					<path id="XMLID_82_" class="st30" d="M25,18c-0.4,0-1,0.3-1.6,0.5c-0.9,0.3-1.8,0.4-2.4,0c-0.4-0.2-0.7-0.6-0.7-0.7       C19.9,15.1,24.9,15.6,25,18z"></path>
				</g>
				<g>
					<linearGradient id="XMLID_142_" gradientUnits="userSpaceOnUse" x1="17.0965" y1="22.8563" x2="17.4245" y2="25.6385">
						<stop offset="0" style="stop-color:#FFB89E"></stop>
						<stop offset="1" style="stop-color:#FFA799"></stop>
					</linearGradient>
					<path id="XMLID_81_" class="st31" d="M14.7,29.7c0.3-0.9,1.3-2.9,2.2-4.1l0,0c0.5-0.8,0.6-1.1,0.5-1.4c0-0.3-0.3-0.6,0.2-1.7       c0.4-0.2,0.8-0.4,1.3-0.6c0.2-0.1,0.4-0.1,0.8,0.2c0.5,0.2,0.7,0.3,0.6,0.4l0,0l-0.6,0.7c-0.1,0.1-0.1,0.2-0.3,0.2       c0,0.1-0.1,0.1-0.1,0.2c-0.1,0.3,0.1,0.8-0.2,1.2l-0.7,0.7c-0.7,1.2-0.8,2.7-1.2,4C17.1,30,16.6,30.8,16,31       C15.1,31.3,14.6,30.6,14.7,29.7z"></path>
					<linearGradient id="XMLID_143_" gradientUnits="userSpaceOnUse" x1="18.0852" y1="26.8194" x2="15.2943" y2="29.9771">
						<stop offset="0" style="stop-color:#235DA3"></stop>
						<stop offset="1" style="stop-color:#123A76"></stop>
					</linearGradient>
					<path id="XMLID_80_" class="st32" d="M14.9,28.6c0.3-0.8,0.8-1.7,1.3-2.4c0.4-0.6,0.6-0.9,1-1.4c0.1,0.4,0.9,0.8,1.4,0.7       c-0.1,0.2-0.2,0.9-0.3,1.1c-0.2,1.2-0.7,4.5-2,5c-0.3,0.1-0.9,0.3-1.3-0.1C14.2,31,14.6,29.3,14.9,28.6z"></path>
					<path id="XMLID_79_" class="st33" d="M18.4,25.4c0.7-0.8,0.4-1.4,0.9-1.8c0-0.1,0.1-0.2,0.1-0.3l-0.6,0.4       c-0.1,0-0.1,0.1-0.2,0.1c0,0,0,0,0,0c-0.2-0.1,0-0.5-0.1-0.6c-0.3,0-0.4,0-0.5-0.1C18,23.9,18.8,24.6,18.4,25.4z"></path>
				</g>
				<g>
					<g>
						<path id="XMLID_78_" class="st34" d="M23.2,45c0-0.2,0.1-0.2,0.2-0.3c0,0,0,0,0.1,0l1.7-1.1c1.1-0.6,1.7,1.5,2,3.1l-1.4,1        l-2.2-1L23.2,45z"></path>
						<path id="XMLID_77_" class="st34" d="M25.5,51.3l-0.3-3.7l-0.1-1.2l7-4.9l0.4,4.9c0,0.1,0,0.2,0,0.3c0,0.1,0,0.1-0.1,0.2        c0,0,0,0.1,0,0.1c0,0-0.1,0.1-0.1,0.1l-7,4.9C25.5,51.9,25.6,51.7,25.5,51.3z"></path>
						<path id="XMLID_76_" class="st35" d="M22.9,45.3l2.3,1.1l0.4,4.9c0.1,0.7-0.4,1-1,0.7l0,0c-0.6-0.3-1.2-1.1-1.2-1.7L22.9,45.3        z"></path>
						<polygon id="XMLID_75_" class="st36" points="29,47.5 28.7,47.3 28.8,48.5 29.1,48.7 29.1,48       "></polygon>
						<linearGradient id="XMLID_144_" gradientUnits="userSpaceOnUse" x1="29.6167" y1="47.1505" x2="28.0419" y2="43.2364">
							<stop offset="0" style="stop-color:#1C8EF4"></stop>
							<stop offset="1" style="stop-color:#00CFDD"></stop>
						</linearGradient>
						<path id="XMLID_74_" class="st37" d="M30.2,39.6c0.1-0.1,0.2-0.1,0.3-0.1c0.3,0,0.7,0.2,1,0.3c0.2,0.2,0.4,0.4,0.6,0.6        c0.3,0.3,0.5,0.8,0.5,1.2c0,0,0,0.1,0,0.1l0.1,1.5l-3,3.9l-0.6,0.4l-3.4,0.5l0,0l-0.1-0.7c0-0.4-0.3-1.6-0.5-1.9        c-0.3-0.5-1.4-1.4-2-1L30.2,39.6z"></path>
						<path id="XMLID_73_" class="st35" d="M23.7,44.4c-0.5,0-0.8,0.3-0.8,1l0.2,1.8l0.5,0.2l-0.2-1.8c0-0.3,0.1-0.5,0.2-0.6        c0.4-0.3,1.1,0.3,1.4,0.6c0.2,0.2,0.3,0.5,0.3,0.7l0.1,1.5l0.5,0.2l-0.1-1.5c-0.1-0.5-0.3-1.1-0.7-1.6        C24.7,44.7,24.2,44.4,23.7,44.4z"></path>
						<polygon id="XMLID_72_" class="st36" points="29,47.5 28.9,47.4 29,48.7 29.1,48.7 29.1,48       "></polygon>
						<polygon id="XMLID_71_" class="st38" points="29.9,46.8 29.4,47.3 29,47.5 28.9,47.4 29.8,46.8       "></polygon>
						<polygon id="XMLID_70_" class="st39" points="29.9,46.8 29,47.5 29.1,48.7 30,48.1       "></polygon>
					</g>
					<g>
						<path id="XMLID_69_" class="st40" d="M28.5,41.1C28.5,41.1,28.5,41,28.5,41.1C28.5,41,28.5,41,28.5,41.1        C28.4,41,28.4,41,28.5,41.1c0-0.1,0-0.1,0-0.1c0,0,0,0,0,0c0,0,0,0,0,0c0,0,0,0,0,0c0,0,0,0,0,0c0,0,0,0,0,0c0,0,0,0,0,0        l0.5,0.2c0,0,0,0,0,0c0,0,0,0,0,0c0,0,0,0,0,0c0,0,0,0,0,0c0,0,0,0,0,0c0,0,0,0,0,0c0,0,0,0,0,0c0,0,0,0,0,0c0,0,0,0,0,0        c0,0,0,0,0,0c0,0,0,0,0,0c0,0,0,0,0,0c0,0,0,0,0,0c0,0,0,0,0,0c0,0,0,0,0,0c0,0,0,0,0,0c0,0,0,0,0,0c0,0,0,0,0,0c0,0,0,0,0,0        c0,0,0,0,0,0c0,0,0,0,0,0c0,0,0,0,0,0l0,0.3l-0.5-0.2L28.5,41.1C28.5,41.1,28.5,41.1,28.5,41.1C28.5,41.1,28.5,41.1,28.5,41.1        z"></path>
						<path id="XMLID_68_" class="st27" d="M27.9,40.5C27.9,40.5,27.9,40.5,27.9,40.5C27.9,40.5,28,40.5,27.9,40.5        C28,40.5,28,40.5,27.9,40.5C28,40.5,28,40.5,27.9,40.5C28,40.5,28,40.5,27.9,40.5c0.1-0.1,0.1-0.1,0.1-0.1c0,0,0,0,0,0        c0,0,0,0,0,0c0,0,0,0,0,0c0,0,0,0,0,0c0,0,0,0,0,0c0,0,0,0,0,0c0,0,0,0,0,0c0,0,0,0,0,0c0,0,0,0,0,0c0,0,0,0,0,0c0,0,0,0,0,0        c0,0,0,0,0,0c0,0,0,0,0,0c0,0,0,0,0,0c0,0,0,0,0,0c0,0,0,0,0,0c0,0,0,0,0,0c0,0,0,0,0,0c0,0,0,0,0,0c0,0,0,0,0,0        c0,0,0,0,0.1,0l0.5,0.2c-0.2,0-0.4,0-0.6,0.2l0,0l-1,0.7l0,0c-0.4,0.3-0.6,0.8-0.7,1.3c0,0,0,0,0,0l0,0l0,0l0,0l0,0l0,0l0,0        l0,0l0,0v0l0,0l0,0l0,0h0l0,0l0,0l0,0l0,0l0,0l0,0l0,0l0,0l0,0l0,0l0,0l0,0l0,0l0,0h0v0l0,0l0,0l0,0l0,0l0,0l0,0v0l0,0l0,0        l0,0l0,0l0,0l0,0l0,0l0,0l0,0v0l0,0l0,0l0,0l0,0l0,0l0,0v0l0,0l0,0l0,0l0,0v0l0,0l0,0l0,0l0,0v0l0,0l0,0l0,0v0l0,0v0l0,0v0v0        h0v0v0v0l0,0l0,0v0v0l0,0l0,0v0l0,0v0v0v0v0v0l0,0h0l0,0l0,0v0l0,0v0v0v0l0,0v0v0v0l0,0v0v0v0l0,0v0l0,0v0l0,0v0l0,0v0v0v0        l0,0v0v0l0,0v0l0,0v0v0l0,0l0,0v0h0l0,0h0l0,0h0l0,0l0,0v0l0,0v0l0,0v0l0,0v0v0v0v0v0l0,0v0l0,0v0v0v0v0v0v0l0,0v0l0,0h0l0,0        l0,0v0l0,0l0,0h0l0,0v0l0,0l0,0v0l0,0h0l0,0l0,0v0l0,0l0,0h0l0,0l0,0v0l0,0l0,0l0,0v0l0,0l0,0l0,0v0l0,0l0,0l0,0l0,0h0l0,0        l0,0l0,0l0,0l0,0l0,0l0,0l0,0l0,0l0,0l0,0l0,0l0,0l0,0l0,0l0,0l0,0l0,0l0,0l0,0l0,0l0,0l0,0l0,0l0,0l0,0l0,0l0,0l0,0l0,0l0,0        l0,0l0,0l0,0l0,0l0,0l0,0.3L26.2,43l0-0.3v0l0,0l0,0v0l0,0v0l0,0v0v0l0,0l0,0v0l0,0v0l0,0l0,0v0v0l0,0v0l0,0v0l0,0v0v0l0,0v0        l0,0v0l0,0v0l0,0v0v0l0,0v0l0,0l0,0v0l0,0v0l0,0l0,0v0l0,0l0,0v0l0,0v0l0,0l0,0v0l0,0l0,0v0l0,0l0,0v0l0,0v0l0,0v0l0,0v0l0,0        v0l0,0v0l0,0l0,0v0l0,0v0l0,0v0l0,0v0l0,0v0l0,0v0v0l0,0v0v0l0,0v0v0l0,0v0v0v0l0,0v0l0,0v0v0l0,0v0v0v0l0,0v0l0,0l0,0l0,0v0        v0l0,0l0,0v0v0v0v0v0v0v0v0v0v0v0v0v0v0v0c0,0,0,0,0,0v0v0v0v0v0v0v0v0v0v0v0c0,0,0,0,0,0l0,0c0,0,0-0.1,0-0.1c0,0,0,0,0,0        c0,0,0,0,0,0c0,0,0,0,0,0c0-0.1,0-0.2,0.1-0.3c0.1-0.1,0.1-0.3,0.2-0.4c0,0,0,0,0-0.1c0,0,0,0,0,0c0-0.1,0.3-0.3,0.4-0.4        c0,0,0,0,0,0L27.9,40.5C27.9,40.5,27.9,40.5,27.9,40.5z"></path>
						<path id="XMLID_67_" class="st41" d="M27.4,41.5l1-0.7c0.4-0.3,0.8-0.1,0.9,0.4l0,0.3L29,41.7l0-0.3c0-0.3-0.3-0.5-0.6-0.3        l-1,0.7c-0.3,0.2-0.5,0.6-0.4,1l0,0.3l-0.3,0.2l0-0.3C26.7,42.5,27,41.8,27.4,41.5z"></path>
					</g>
					<linearGradient id="XMLID_145_" gradientUnits="userSpaceOnUse" x1="27.5516" y1="42.087" x2="28.1121" y2="39.2792">
						<stop offset="0" style="stop-color:#FFB89E"></stop>
						<stop offset="1" style="stop-color:#FFA799"></stop>
					</linearGradient>
					<path id="XMLID_66_" class="st42" d="M29.1,39.4c-0.2,1.3,0,1.9-0.1,2.2c-0.1,0.2-1.3,1.2-1.6,1.4C27.3,43,27,42.9,27,42.8       c-0.2-0.3,0.1-0.6,0.1-1.2c0-0.3-0.3-0.3-0.4-0.2c-0.2,0.1-0.3,0.4-0.4,0.6c0.1-0.7-0.1-1.3,0.5-1.8c0.2-0.2,0.5-0.4,0.7-0.8       L29.1,39.4z"></path>
				</g>
				<linearGradient id="XMLID_146_" gradientUnits="userSpaceOnUse" x1="29.6105" y1="30.974" x2="22.7825" y2="37.4147">
					<stop offset="0" style="stop-color:#235DA3"></stop>
					<stop offset="1" style="stop-color:#123A76"></stop>
				</linearGradient>
				<path id="XMLID_65_" class="st43" d="M27.2,25.5c0.1,0,0.1,0.1,0.2,0.1c1.2,0.9,1.8,4.8,2.3,7.4c-0.1,2.2-0.1,4.1-0.3,6.3      c-0.4,0.5-2,1-2.3,0.2c0-1.9-0.2-4.2,0.2-6.1c-0.6-1-1-2.1-1.3-3.2c-0.2-0.6-0.5-1.4-0.6-2C25.6,27.2,26,25.9,27.2,25.5z"></path>
			</g>
		</g>
		<g>
			<path id="XMLID_64_" class="st0" d="M33.2,71.2l7.3-4.1c0.8-0.4,1.9-0.7,2.7-0.2c0.7,0.4,1.9,1.2,2.5,1.5     c0.4,0.2,1.8,1.1,0.9,1.6c-2.6,1.4-5.2,3-7.8,4.4c-0.5,0.3-1.2,0.4-2,0.3c-0.8-0.1-1.5-0.3-2.2-0.6c-0.4-0.3-0.9-0.5-1.3-0.8     c-0.6-0.3-0.9-0.7-0.9-1.1C32.5,71.8,32.8,71.4,33.2,71.2z"></path>
			<g>
				<g>
					<linearGradient id="XMLID_147_" gradientUnits="userSpaceOnUse" x1="32.7253" y1="50.8294" x2="33.7453" y2="48.1364">
						<stop offset="0" style="stop-color:#FFB89E"></stop>
						<stop offset="1" style="stop-color:#FFA799"></stop>
					</linearGradient>
					<path id="XMLID_63_" class="st44" d="M33.9,50.9c-0.4,0.1-0.4-0.4-0.4-0.6c0-0.2,0.2-0.4,0.2-0.5c0,0-0.1,0.1-0.1,0.1       c-0.2,0.2-0.3,0.4-0.4,0.6l-0.2,1c-0.1,0.3-0.2,0.4-0.3,0.4c-0.1,0-0.7-0.3-0.8-0.6l0,0c-0.1-0.1-0.1-0.3,0-0.6l0.1-1.5l0.1,0       c0.8-0.6,1-0.9,1.2-1.2l0.2-0.9l1.1,0.1c0,0.3,0,0.5,0,0.8c0,0.1,0,0.2,0,0.3c0,0,0,0.1,0,0.1c0.1,0.6,0,1.1,0,1.2       C34.2,50.3,34.1,50,33.9,50.9z"></path>
					<linearGradient id="XMLID_148_" gradientUnits="userSpaceOnUse" x1="36.146" y1="34.2861" x2="34.5943" y2="45.063">
						<stop offset="0" style="stop-color:#FD90DA"></stop>
						<stop offset="1" style="stop-color:#8E6DFD"></stop>
					</linearGradient>
					<path id="XMLID_62_" class="st45" d="M36.3,42.7c0.4-1.5,1-4.3,0.9-5.7c0-0.9-0.2-2.1-1.2-2.2c-1.9-0.3-1.7,1.1-1.7,2.6       c0,1.3,0,3.1-0.1,4.5c0,0.1,0,0.2,0,0.4c-0.5,1-0.6,3.1-0.8,4.3c0,0.2,0,0.4,0,0.6c0,0.2-0.1,0.3-0.1,0.4       c0,0.1,0.9,0.5,1.3,0.4c0-0.1,0.1-0.3,0.1-0.4c0-0.1,0.2-0.2,0.2-0.4c0.2-0.5,1.1-2.8,1.3-3.9C36.2,43.1,36.2,42.9,36.3,42.7       C36.3,42.7,36.3,42.7,36.3,42.7z"></path>
				</g>
				<g>
					<linearGradient id="XMLID_149_" gradientUnits="userSpaceOnUse" x1="40.1725" y1="66.1561" x2="39.9119" y2="68.4287">
						<stop offset="0" style="stop-color:#FF8A78"></stop>
						<stop offset="1" style="stop-color:#FFA799"></stop>
					</linearGradient>
					<path id="XMLID_61_" class="st46" d="M41,64.4c0,0.2,0.1,0.5,0.1,0.5c0.5,0.7-0.1,0.7-0.1,1.7c0,0.1-0.4,1.8-0.4,1.8       s-1,0.2-1.1,0.2c-0.1,0-0.7-0.3-0.7-0.3c0.1-0.1,0.1-0.3,0.2-0.4c0.3-0.6,0.4-1.3,0.6-1.9c0.1-0.5,0.2-1.2,0.1-1.6L41,64.4z"></path>
					<path id="XMLID_60_" class="st47" d="M38.8,68.4c-0.1,0.3-0.2,0.5-0.3,0.7c0,0.1,0,0.2,0,0.3c0.2,0.3,1.5-0.2,1.9-0.6       c0.3-0.2,0.3-0.5,0.4-0.8c0.1-0.5,0.1-0.6,0.3-1.1l0.1,1.4l0.1,0.1c0-0.6,0.1-1.3,0.2-1.8c0-0.2,0.1-0.4,0.1-0.5       c0.1-0.6-0.2-1-0.5-1.1c0.1,0.4-0.3,1-0.4,1.8C40.5,67.6,39.7,68.4,38.8,68.4z"></path>
					<linearGradient id="XMLID_150_" gradientUnits="userSpaceOnUse" x1="33.1189" y1="48.6539" x2="40.2199" y2="56.8147">
						<stop offset="0" style="stop-color:#235DA3"></stop>
						<stop offset="1" style="stop-color:#123A76"></stop>
					</linearGradient>
					<path id="XMLID_59_" class="st48" d="M34.3,45c0.1,0.4-0.3,1.9-0.2,2.5c0.1,1.9,0.4,3.5,1.7,7.3c0,0,1.2,2.4,1.2,2.6       c0.8,2.5,1.8,5.1,2.6,7.6c0.3,0.2,1.3,0.2,1.4-0.4c-0.3-2.5,0-4.9-0.4-6.6c-0.3-1.3-0.8-1.9-1.4-2.9c-0.2-2.4-0.4-7.4-0.9-9.2       L34.3,45z"></path>
					<linearGradient id="XMLID_151_" gradientUnits="userSpaceOnUse" x1="34.8188" y1="46.4244" x2="38.9473" y2="55.3131">
						<stop offset="0" style="stop-color:#235DA3"></stop>
						<stop offset="1" style="stop-color:#123A76"></stop>
					</linearGradient>
					<path id="XMLID_58_" class="st49" d="M34.3,45c0.1,0.4,0.2,1.6,0.3,2.1c1.3,2.5,1.3,4.3,2.2,7.9l1.2,5.1       c0.6,1.6,1.2,3.3,1.7,4.9c0.3,0.2,1.3,0.2,1.4-0.4c-0.3-2.5,0-4.9-0.4-6.6c-0.3-1.3-0.8-1.9-1.4-2.9c-0.2-2.4-0.4-7.4-0.9-9.2       L34.3,45z"></path>
					<linearGradient id="XMLID_152_" gradientUnits="userSpaceOnUse" x1="38.9139" y1="70.0431" x2="39.7247" y2="68.016">
						<stop offset="0" style="stop-color:#FFB89E"></stop>
						<stop offset="1" style="stop-color:#FFA799"></stop>
					</linearGradient>
					<path id="XMLID_57_" class="st50" d="M40,66.9c0,0.2,0.1,0.5,0.1,0.7c0,0.3,0.1,0.7,0.1,1.2c0,0.6-0.1,1.3-0.3,2.2       c-0.1,0.3-0.2,0.4-0.3,0.9l-1.8,0.3c0.2-0.7,0.4-2.1,0.6-3.2l0.3-2.2L40,66.9z"></path>
					<path id="XMLID_56_" class="st47" d="M40.1,67.5c0.1,0.4,0.2,0.6,0.2,1s-0.2,1.3-0.2,1.9l0,1c0,0.6-0.1,1-0.8,1.4       c-0.6,0.4-1.1,0.6-1.5,0.4c-0.2-0.1-0.4-0.5-0.1-1.6c0.3-0.9,0.4-1.7,0.5-2.7c-0.1,0.9-0.1,1.3-0.3,2.2       c-0.1,0.3-0.1,0.7,0.2,0.7c1.3,0.2,1.3-0.2,1.4-0.5C40,70.3,40.2,68.4,40.1,67.5z"></path>
					<linearGradient id="XMLID_153_" gradientUnits="userSpaceOnUse" x1="32.5737" y1="48.9468" x2="39.4076" y2="56.8007">
						<stop offset="0" style="stop-color:#235DA3"></stop>
						<stop offset="1" style="stop-color:#123A76"></stop>
					</linearGradient>
					<path id="XMLID_55_" class="st51" d="M40.6,46.5c1.4,1.8,1.4,2.7,1.1,4.8c-0.2,1.4-0.6,3.1-0.7,5.6c0.1,1.3,0.4,2.7,0.2,4.7       c-0.1,1.5-0.5,4-0.8,5.7c-0.3,0.5-1.7,0.3-1.9,0c0.1-2.5,0-4.3-0.1-6.3c-0.1-2-0.4-3.8-0.5-5.8c-0.1-1.6-0.6-3.8-0.7-5.6       c-0.3-0.8-2.7-3.6-2.2-3.5L40.6,46.5z"></path>
				</g>
				<g>
					<linearGradient id="XMLID_154_" gradientUnits="userSpaceOnUse" x1="41.4846" y1="32.0763" x2="40.2293" y2="39.8502">
						<stop offset="0" style="stop-color:#5A2D68"></stop>
						<stop offset="1" style="stop-color:#22043D"></stop>
					</linearGradient>
					<path id="XMLID_54_" class="st52" d="M36.6,29c-0.7-0.1-1.3,0.4-1.6,1.1c-0.3,0.8-0.3,1.8-0.2,2.3c0.5,1.7-0.4,2.5-0.7,3.3       c-0.1,0.4-0.2,0.8-0.2,1.3c0,0.6,0.4,0.9,0.7,1.5c0.1,0.6,0.2,1.1,0.4,1.5c0.8,1.7,3.6,2.5,6.3,2.3c2.1-0.1,4.2-0.9,5.1-1.7       c1-1,1.2-3.4-0.6-3.6c-0.4-0.1-0.9-0.1-1.2-0.6c-0.2-0.3,0-1,0-2c0.1-1-0.2-2-1.6-2.3c-0.5-0.1-1.1-0.2-1.5-0.5       c-1-0.6-0.6-1.8-1.7-2.6c-0.6-0.4-1.7-0.5-2.8-0.2C37,29,36.8,29,36.6,29z"></path>
					<path id="XMLID_53_" class="st2" d="M36,29.9c-0.1,0.5,0.1,0.9,0.4,1.3c0.7,0.9,1,0.9,1.4,2c0.6-0.4,1-0.5,1.2-0.1       c0.3,0.6,0.1,1,0.2,1.6c0.1,1,1.4-0.4,2.3,0.4c1,0.8,0.3,1.3,0.7,2.5c0.1,0.4,0.2,1,0.6,1.2c1.2,0.6,1.7,2-0.5,2.7       c-1.3,0.4-3.3,0.3-4.9-0.2c-2.1-0.7-3.5-3.9-2.9-5.4c0.2-0.6,0.8-1.1,0.8-1.6C35.2,32.7,34.9,31.7,36,29.9z"></path>
				</g>
				<linearGradient id="XMLID_155_" gradientUnits="userSpaceOnUse" x1="38.8843" y1="38.035" x2="36.401" y2="44.561">
					<stop offset="0" style="stop-color:#FD90DA"></stop>
					<stop offset="1" style="stop-color:#8E6DFD"></stop>
				</linearGradient>
				<path id="XMLID_52_" class="st53" d="M40.4,42.5c-0.6,1.5,0.4,2.3,0.1,3.3l0.1,0.7c-1.1,0.8-5.3,0.9-6.3-0.7l0-0.8      c-0.2-0.4-0.1-1.4,0-1.6c0.2-0.8,0.1-1.3,0.2-2.2c0-0.2,0.1-0.4,0.1-0.6c-0.9-0.7-0.9-2-0.3-2.8c0.3-0.5,0.5-0.9,0.7-1.3      c0.1-0.3,0.1-0.6,0.2-0.7c0-0.1,0.1-0.3,0.2-0.4c0.3-0.4,0.7-0.4,1.5-0.2c1.7,0.4,3.5,1.3,4.3,2.1c0.6,0.6,0.5,1.3,0.2,2.7      C41.1,40.8,40.7,41.8,40.4,42.5z"></path>
				<linearGradient id="XMLID_156_" gradientUnits="userSpaceOnUse" x1="36.8392" y1="38.802" x2="39.0161" y2="44.9685">
					<stop offset="0" style="stop-color:#FD90DA"></stop>
					<stop offset="1" style="stop-color:#8E6DFD"></stop>
				</linearGradient>
				<path id="XMLID_51_" class="st54" d="M40.4,42.5c-0.6,1.5,0.4,2.3,0.1,3.3l0.1,0.7c-1.1,0.8-5.3,0.9-6.3-0.7l0-0.8l0-1.6      l3.4-0.5c1.6-0.2,1.1-0.5,1.4-2.3c0.3-2.1,0.6-3.6,2.2-3.2c0.4,0.6,0.4,1.2,0.1,2.6C41.1,40.8,40.7,41.8,40.4,42.5z"></path>
				<g>
					<linearGradient id="XMLID_157_" gradientUnits="userSpaceOnUse" x1="37.2733" y1="45.8312" x2="34.8842" y2="41.0288">
						<stop offset="0" style="stop-color:#1C8EF4"></stop>
						<stop offset="1" style="stop-color:#00CFDD"></stop>
					</linearGradient>
					<path id="XMLID_50_" class="st55" d="M33.5,41l4.1-0.8c0.2,0,0.4,0.1,0.4,0.3l1.1,5.5c0,0.2-0.1,0.4-0.3,0.4l-4.1,0.8       c-0.2,0-0.4-0.1-0.4-0.3l-1.1-5.5C33.2,41.2,33.4,41,33.5,41z"></path>
					<linearGradient id="XMLID_158_" gradientUnits="userSpaceOnUse" x1="35.5873" y1="46.4514" x2="37.2802" y2="43.7303">
						<stop offset="0" style="stop-color:#1C8EF4"></stop>
						<stop offset="1" style="stop-color:#00CFDD"></stop>
					</linearGradient>
					<path id="XMLID_49_" class="st56" d="M38.6,43.4l0.5,2.6c-0.8,0.1-1.4,0.2-2.2,0.2c-0.1,0-0.3-0.1-0.5-0.1       c-0.8,0.5-0.7,0.5-2.3,0.2l-0.4-2.1c1.2,0,1.4,0.2,2.4,0.3C36.5,44.1,37.6,43.6,38.6,43.4z"></path>
					<linearGradient id="XMLID_159_" gradientUnits="userSpaceOnUse" x1="34.2259" y1="45.0145" x2="35.957" y2="45.5792">
						<stop offset="0" style="stop-color:#FFB89E"></stop>
						<stop offset="1" style="stop-color:#FFA799"></stop>
					</linearGradient>
					<path id="XMLID_48_" class="st57" d="M33.8,44.4c-0.2,0.1,0,0.5,0,0.8c0.1,0.3,0.1,0.6,0.2,0.7c0.2,0.2,1,0.2,1.4,0.2       c0.4,0,0.7-0.4,1-0.3c0.2-0.4,0-0.8-0.2-1.2C35.5,44.8,34.3,44.2,33.8,44.4z"></path>
					<linearGradient id="XMLID_160_" gradientUnits="userSpaceOnUse" x1="37.8368" y1="38.2758" x2="39.631" y2="43.7977">
						<stop offset="0" style="stop-color:#FD90DA"></stop>
						<stop offset="1" style="stop-color:#8E6DFD"></stop>
					</linearGradient>
					<path id="XMLID_47_" class="st58" d="M41.8,38.1c0.5,1.5,0.2,3.9,0.1,6.1c0,0.4-0.2,0.7-0.5,0.8c-0.1,0.1-0.3,0.1-0.5,0.2       c-1.1,0.3-2,0.6-3.8,0.7c-0.1,0-0.2,0-0.4-0.1c-0.1,0-0.3,0-0.4,0c0.2,0,0.1-1.1-0.2-1.2c0.1,0,0.3-0.1,0.4-0.1       c0.1-0.1,0.1-0.1,0.3-0.2c1-0.3,2.3-0.9,3.3-1c-0.3-1.2-0.6-2.2-0.6-3.3c0-1.2,0.3-2.6,1.1-2.8C41.2,37.1,41.6,37.5,41.8,38.1z       "></path>
				</g>
				<g>
					<linearGradient id="XMLID_161_" gradientUnits="userSpaceOnUse" x1="37.7919" y1="34.7568" x2="37.4794" y2="36.0611">
						<stop offset="0" style="stop-color:#FF8A78"></stop>
						<stop offset="1" style="stop-color:#FFA799"></stop>
					</linearGradient>
					<path id="XMLID_46_" class="st59" d="M38.4,33.8c-0.1,0.7-0.1,1.5,0.2,2.2c-0.6,0.6-1.7,0.3-1.9-0.2c0.1-0.3,0.1-0.6,0.2-1       L38.4,33.8z"></path>
					<linearGradient id="XMLID_162_" gradientUnits="userSpaceOnUse" x1="35.806" y1="32.9046" x2="37.5163" y2="33.2592">
						<stop offset="0" style="stop-color:#FFB89E"></stop>
						<stop offset="1" style="stop-color:#FFA799"></stop>
					</linearGradient>
					<path id="XMLID_45_" class="st60" d="M35.8,30.7c-0.3,0.5-0.5,1-0.4,1.7c0,0.2,0,0.3-0.1,0.4c-0.3,0.6-0.3,0.8-0.1,1.4       c0.1,0.5,0.1,0.8,0.3,0.9c0.2,0.2,0.4,0.2,0.7,0.2c0.5,0,1.2-0.3,1.7-0.5c0.3-0.2,0.3-0.3,0.5-0.6c0.5-0.4,0.2-0.7,0-0.7       c-0.5-0.1-0.5,0.4-0.8,0.6C37.6,33,35.9,31.4,35.8,30.7z"></path>
				</g>
			</g>
		</g>
		<g>
			<path id="XMLID_44_" class="st0" d="M63.1,81.8l-9.4-5.3c-1-0.5-2.5-0.8-3.6-0.3c-1,0.5-2.5,1.5-3.2,1.9c-0.5,0.3-2.4,1.4-1.2,2     c3.4,1.8,6.7,3.9,10.1,5.7c0.6,0.3,1.6,0.5,2.6,0.4c1-0.1,2-0.4,2.8-0.8c0.6-0.3,1.1-0.7,1.7-1c0.7-0.4,1.1-0.9,1.2-1.4     C64,82.5,63.7,82.1,63.1,81.8z"></path>
			<g>
				<g>
					<g>
						<path id="XMLID_43_" class="st61" d="M53.1,11.6c-5.5,5.3-8.2,5.5-4.2,9.9l5.2-5.9l0.4-2.5L53.1,11.6z"></path>
						<linearGradient id="XMLID_163_" gradientUnits="userSpaceOnUse" x1="56.4088" y1="20.2771" x2="70.1827" y2="15.697">
							<stop offset="0" style="stop-color:#FFB89E"></stop>
							<stop offset="1" style="stop-color:#FFA799"></stop>
						</linearGradient>
						<path id="XMLID_42_" class="st62" d="M77.3,3.7c-5.2,0.5-7,0.5-10.8,2.6c-2.7,1.4-5.1,2.2-7.1,2.7c-2.9,0.7-5,1-5.9,2        c-1.5,1.8-2.5,4.1-5,8.6c-0.9,1.5-0.7,1.7,0,3.7c0.5,1.3,0.8,2.6,1.3,4.2l3,4.2c1.6-1.4,1.5-2.6,0.6-5.7        c0.8-1.6,0.8-2.2,1.2-3.9c1.3-1.3,1.8-2.1,2.9-3.6c1.6-1.2,2.9,0.4,3.2,1.9c0.3,1.1,0.1,2.1-1.3,4.2c-1.8,1.1-6.2,4.7-3,6.7        l5.4-2.9c1.2-1.4,2.4-2.5,3.5-3.5c1.2-1.1,2.5-1.9,3.8-2.8c1.5-1,1.9-1.2,3-2.8c2.2-3.3,0.1-3.3,5.7-6.3L77.3,3.7z"></path>
					</g>
					<linearGradient id="XMLID_164_" gradientUnits="userSpaceOnUse" x1="85.9753" y1="2.5181" x2="85.128" y2="12.8586">
						<stop offset="0" style="stop-color:#94E69A"></stop>
						<stop offset="1" style="stop-color:#17ADC9"></stop>
					</linearGradient>
					<path id="XMLID_41_" class="st63" d="M75.8,3.4c-0.7,0.2-2.7,0.4-3.5,0.7c2.8,2.6,3.1,7.7,2.3,11.1c0.9-0.1,2.6-0.1,2.9-0.1       c0.9,0,2.7,1.4,3.5,1.8c3.4,1.8,9.4,3.6,16.9,4.8V0c-7.6,0.2-14.5,0.8-18.3,1.7C77.7,2.1,76.8,3.1,75.8,3.4z"></path>
				</g>
				<g>
					<linearGradient id="XMLID_165_" gradientUnits="userSpaceOnUse" x1="44.9119" y1="22.2818" x2="47.2088" y2="28.1443">
						<stop offset="0" style="stop-color:#FFB89E"></stop>
						<stop offset="1" style="stop-color:#FFA799"></stop>
					</linearGradient>
					<path id="XMLID_40_" class="st64" d="M45.5,22.2c-0.1-0.3-0.1-0.4-0.1-0.6c0-0.2,0.1-0.2,0.2-0.5c0.1-0.2,0.1-0.6,0.2-0.8       c0.1-0.3,0-0.5,0-0.8c0-0.2-0.1-0.4-0.4-0.4c-0.1,0-0.2,0-0.4,0.1c-0.2-0.2-0.2-0.2-0.5-0.4c-0.2-0.1-0.3-0.1-0.5,0       c-0.3,0.2-0.5,0.4-0.6,0.5c-0.1,0.1-0.2,0.6-0.4,0.9c-0.1,0.3-0.1,0.5,0,0.7c0.3,0.5,0.4,0.6,0.6,0.9c0.1,0.2,0.3,0.5,0.5,0.9       c0.7,2.4,0.7,4.7,1.8,6.8c0.1,0.2,0.3,0.4,0.5,0.4c0.3,0.1,0.9-0.3,1.3-0.4l0-2.2C47.5,26.3,46.4,24,45.5,22.2z"></path>
					<g>
						<path id="XMLID_39_" class="st65" d="M44.2,23c0.2,0,0.4,0,0.6-0.1c-0.1-0.2-0.1-0.3-0.4-0.9c-0.1-0.4-0.4-0.8-0.8-1        c0.2-0.1,0.1,0,0.3-0.1c0.1,0.2,0.3,0.3,0.3,0.2c0.1-0.1,0.1-0.2,0.1-0.3c0-0.2-0.2-0.4-0.4-0.4c-0.1,0-0.5,0.2-1,0.4        c0,0.1,0,0.1,0.1,0.2c0.3,0.5,0.4,0.6,0.6,0.9C43.8,22.1,44,22.5,44.2,23z"></path>
						<linearGradient id="XMLID_166_" gradientUnits="userSpaceOnUse" x1="44.201" y1="19.4945" x2="43.6122" y2="20.658">
							<stop offset="0" style="stop-color:#FFB89E"></stop>
							<stop offset="1" style="stop-color:#FFA799"></stop>
						</linearGradient>
						<path id="XMLID_38_" class="st66" d="M45.3,19.1c-0.1,0-0.2,0-0.3,0.1c-0.2-0.2-0.2-0.2-0.5-0.4c-0.2-0.1-0.3-0.1-0.5,0        c-0.3,0.2-0.5,0.4-0.6,0.5c-0.1,0.1-0.2,0.6-0.4,0.9c-0.1,0.2-0.1,0.4-0.1,0.5c0.3-0.1,0.7-0.3,1-0.4c0.1,0.1,0.6,0.4,0.3,0.7        c0.2-0.2,0.4-0.6,0.6-1c0.2-0.4,0.4-0.8,0.4-1L45.3,19.1z"></path>
						<path id="XMLID_37_" class="st65" d="M45.3,19.1c-0.1,0-0.2,0-0.3,0.1c-0.2-0.2-0.2-0.2-0.5-0.4c-0.1,0-0.1-0.1-0.2-0.1        l-0.4,1.7c0.1,0.1,0.6,0.4,0.3,0.7c0.2-0.2,0.4-0.6,0.6-1c0.2-0.4,0.4-0.8,0.4-1L45.3,19.1z"></path>
						<linearGradient id="XMLID_167_" gradientUnits="userSpaceOnUse" x1="45.2736" y1="19.6062" x2="45.5269" y2="21.0551">
							<stop offset="0" style="stop-color:#FFB89E"></stop>
							<stop offset="1" style="stop-color:#FFA799"></stop>
						</linearGradient>
						<path id="XMLID_36_" class="st67" d="M45.8,20.3c0.1-0.3,0-0.5,0-0.8c0-0.2-0.1-0.4-0.4-0.4c-0.1,0-0.2,0-0.4,0.1        c-0.2,0-0.2,0-0.2,0.1c0,0,0,0.2,0.1,0.3C45.1,19.9,45.7,20.2,45.8,20.3z"></path>
						<path id="XMLID_35_" class="st65" d="M44.7,19.3c0.1,0.3,0.4,0.5,0.9,0.4c-0.2,0.2-0.4,0.3-0.5,0.2        C44.8,19.8,44.6,19.5,44.7,19.3z"></path>
					</g>
					<g>
						<path id="XMLID_34_" class="st18" d="M61.4,68.3c0.1,0.2,0,0.4,0.2,0.6c0.1,0.3,0.2,0.6,0.4,1c0.2,0.7,0,1.7,0.3,2.7        c0.1,0.4,0.1,0.7-0.1,1.1c-0.2,0.3-0.7,0.9-1.4,0.9c-0.1,0-0.4-0.1-0.7-0.3c-0.3-0.3-0.5-0.7-0.5-1.2c0-0.2,0.1-0.8,0-1.4        c0-0.5-0.1-0.8-0.2-1.3c0-0.6,0-1.3,0-1.7L61.4,68.3z"></path>
						<path id="XMLID_33_" class="st18" d="M56.2,65.4c0.2,0.5,0.3,0.7,0.4,1.4c-0.1,0.4-0.4,0.5-0.6,0.8l-0.2,0        c-0.5,0.3-0.6,1.2-1.1,1.7c-0.3,0.3-1,0.5-1.6,0.6c-0.7,0.1-1.4-0.1-1.2-0.6c0.4-1.4,2.3-2.9,2.3-4.5L56.2,65.4z"></path>
						<linearGradient id="XMLID_168_" gradientUnits="userSpaceOnUse" x1="50.2926" y1="47.0578" x2="58.8744" y2="59.6838">
							<stop offset="0" style="stop-color:#235DA3"></stop>
							<stop offset="1" style="stop-color:#123A76"></stop>
						</linearGradient>
						<path id="XMLID_32_" class="st68" d="M52.8,55.6c0.2,2.6,1.1,7.4,1.1,10c0.8,0.6,1.9,0.4,2.3-0.3c0.2-2.4,0.4-5.6,0.3-6.9        c0-1.1-0.2-2.1-0.5-3.1c0.3-2.9,1.8-6.8,1.3-9.5c-0.2-1.2-1.1-2.5-1.3-3.4c-0.9,1.1-3.3,1.3-4.5,1c0,0.7-0.1,0.5-0.1,1.3        c0.3,3.1,0.8,6.4,1.2,9.6C52.6,54.7,52.7,55.2,52.8,55.6z"></path>
						<linearGradient id="XMLID_169_" gradientUnits="userSpaceOnUse" x1="51.0693" y1="46.4558" x2="59.6945" y2="58.9909">
							<stop offset="0" style="stop-color:#235DA3"></stop>
							<stop offset="1" style="stop-color:#123A76"></stop>
						</linearGradient>
						<path id="XMLID_31_" class="st69" d="M54,55.7c0.9,3.6,1.6,7.2,2.3,9.7c0.2-2.4,0.4-5.6,0.3-6.9c0-1.1-0.2-2.1-0.5-3.1        c0.3-2.9,1.8-6.8,1.3-9.5c-0.2-1.2-1.1-2.5-1.3-3.4c-0.9,1.1-3.3,1.3-4.5,1c0,0.7,0.9,0.1,1,0.8C52.8,47.2,53.7,52.4,54,55.7z        "></path>
						<linearGradient id="XMLID_170_" gradientUnits="userSpaceOnUse" x1="51.1698" y1="45.6603" x2="60.3949" y2="59.233">
							<stop offset="0" style="stop-color:#235DA3"></stop>
							<stop offset="1" style="stop-color:#123A76"></stop>
						</linearGradient>
						<path id="XMLID_30_" class="st70" d="M56.7,57.5c0.6,2.6,2.2,8.6,2.6,11.2c0.9,0.5,2,0.2,2.2-0.5c-0.1-2.4-0.2-6.3-0.5-7.6        c-0.2-1.1-0.8-2.7-1.3-3.7c-0.2-2.9,0.5-6.9-0.4-9.6c-0.4-1.2-1.5-2.5-1.9-3.4c-0.5,0.8-1.1,1.1-2.9,1c-0.2,0-1.7-1-2.2-1.2        c0.8,3.7,2.7,8.4,3.8,12.4C56.3,56.6,56.5,57.1,56.7,57.5z"></path>
					</g>
					<g>
						<linearGradient id="XMLID_171_" gradientUnits="userSpaceOnUse" x1="47.9243" y1="23.3722" x2="50.3937" y2="34.2272">
							<stop offset="0" style="stop-color:#235DA3"></stop>
							<stop offset="1" style="stop-color:#123A76"></stop>
						</linearGradient>
						<path id="XMLID_29_" class="st71" d="M46.2,30.2c0.6,0.8,3.4,3,6,4.1c0.7,0.3,1.5-0.7,1.8-1.4c0.2-0.7-0.1-1.3-0.3-1.5        c-0.4-0.4-1.1-0.9-2.3-1.3c-0.7-0.2-1.7-1.1-2.4-1.4c-0.2-0.2-0.5-0.3-0.7-0.4c-0.2-1.1-1-2.9-1.3-3.5c-0.3-0.7-0.6-1.5-1-2.3        c-0.1-0.1-0.2-0.1-0.3-0.3c0-0.1-0.2-0.4-0.2-0.4c-0.5,0.4-1,0.6-1.5,0.6c0,0.1,0.1,0.4,0.2,0.5c0,0.1,0,0.3,0,0.4        c-0.1,1.2,0.6,4.1,1.7,6.2C45.9,29.8,46,30,46.2,30.2z"></path>
						<linearGradient id="XMLID_172_" gradientUnits="userSpaceOnUse" x1="47.9362" y1="23.6086" x2="50.4242" y2="34.1778">
							<stop offset="0" style="stop-color:#235DA3"></stop>
							<stop offset="1" style="stop-color:#123A76"></stop>
						</linearGradient>
						<path id="XMLID_28_" class="st72" d="M46.2,30.2c0.6,0.8,3.4,3,6,4.1c0.7,0.3,1.5-0.7,1.8-1.4c0.2-0.7-0.1-1.3-0.3-1.5        c-0.2-0.2-0.5-0.5-1-0.7c-1.3-0.5-1.7,0.3-3,0.3c-1,0-1.8-0.6-2.8-1.6c-0.6-1.3-1.8-4.6-2-7.1c-0.3,0.1-0.6,0.2-0.9,0.2        c0,0.1,0.1,0.4,0.2,0.5c0,0.1,0,0.3,0,0.4c-0.1,1.2,0.6,4.1,1.7,6.2C45.9,29.8,46,30,46.2,30.2z"></path>
					</g>
					<linearGradient id="XMLID_173_" gradientUnits="userSpaceOnUse" x1="56.76" y1="39.767" x2="50.5848" y2="37.4568">
						<stop offset="0" style="stop-color:#6D6AFE"></stop>
						<stop offset="1" style="stop-color:#3FB0F7"></stop>
					</linearGradient>
					<path id="XMLID_27_" class="st73" d="M57.9,32.8c-1-0.4-4.3-2.1-5.2-1.9c-1,0.2-1.8,0.8-2.2,1.6c-0.4,1.1-0.6,2.6-0.3,4.5       c0.1,0.7,0.4,1.5,0.5,2.3c0.2,1,0.4,4.7,0.7,5.7c1.1,1.6,5.3,1.3,7.1-0.2c-0.3-0.6-0.1-5,0-5.5c0.5-1.6,1.2-3.4,1-4.6       C59.6,33.7,58.7,33.2,57.9,32.8z"></path>
					<linearGradient id="XMLID_174_" gradientUnits="userSpaceOnUse" x1="59.074" y1="36.9338" x2="54.7324" y2="42.7884">
						<stop offset="0" style="stop-color:#235DA3"></stop>
						<stop offset="1" style="stop-color:#123A76"></stop>
					</linearGradient>
					<path id="XMLID_26_" class="st74" d="M51.4,44.6c-0.4-1.6-0.5-3.1-0.7-4.6c-0.2-1.4-0.6-3.2-0.6-4.7c0-1.8,0.3-3.4,1.4-4.2       c0.4-0.3,0.7-0.3,1.4-0.3c0,0,0,0,0.1,0c0.9,0,2.7,0.6,3.3,0.8c2,0.8,4,1.8,4,3c0.1,2.1-1.4,3.9-1.5,6.2       c-0.1,2,2.3,5.2,4.7,6.1c-0.3,1-1.6,2.1-2.5,1.9c-2.8-1.1-8-8-5.2-16.3c0.2-0.6-0.6-0.8-1.6-1c-2.8,1.2-3.4,4.2-3.3,7.3       C50.9,41,51.3,43,51.4,44.6z"></path>
					<linearGradient id="XMLID_175_" gradientUnits="userSpaceOnUse" x1="62.3097" y1="36.8512" x2="59.7186" y2="42.6817">
						<stop offset="0" style="stop-color:#235DA3"></stop>
						<stop offset="1" style="stop-color:#123A76"></stop>
					</linearGradient>
					<path id="XMLID_25_" class="st75" d="M59.5,33.5c0.5,0.4,0.7,0.7,0.7,1.2c0.1,2.1-1.4,3.9-1.5,6.2c0,0.9,0.5,2.2,1.3,3.3       c0.2,0.3,1.2,1.8,3.4,2.9c-0.5,0.8-1.3,0.8-2.2,0.4c-2.8-1.4-4.1-5.1-4.2-8.1c0-1.6,0.1-3.2,0.4-4.4       C57.8,33.8,58.7,33.2,59.5,33.5z"></path>
					<g>
						<linearGradient id="XMLID_176_" gradientUnits="userSpaceOnUse" x1="56.8682" y1="32.796" x2="45.4404" y2="47.0563">
							<stop offset="0" style="stop-color:#235DA3"></stop>
							<stop offset="1" style="stop-color:#123A76"></stop>
						</linearGradient>
						<path id="XMLID_24_" class="st76" d="M52.7,33.9c-0.9,1.9-0.3,2.7,0.3,4c0.7,1.4,0.4,3.2,0.2,5c-0.4,0.5-1.1,1.1-1.7,1.5        c-0.1-1.2-0.3-1.6-0.5-2.3c0.5-0.9,0.7-2.1,0.6-2.9c-0.3-1.6-1.1-3.1,0.7-5.6c-0.1-0.7,0-0.8,0.1-0.9c0.2-0.1,0-0.1,0.5,0        c0.3,0.1,0.6,0.2,0.5,0.5C53.4,33.6,53.2,33.7,52.7,33.9z"></path>
						<linearGradient id="XMLID_177_" gradientUnits="userSpaceOnUse" x1="54.4462" y1="30.6523" x2="54.7156" y2="32.573">
							<stop offset="0" style="stop-color:#FF8A78"></stop>
							<stop offset="1" style="stop-color:#FFA799"></stop>
						</linearGradient>
						<path id="XMLID_23_" class="st77" d="M55.8,31.6c0.1,0.8-2.4,2.1-2.7,1.2c-0.2-0.6,0-2.3-0.3-3.1l2.2-1.1l0.8-0.3        C55.5,29.6,55.3,30.5,55.8,31.6z"></path>
						<path id="XMLID_22_" class="st78" d="M53.1,32.8c-0.1-0.3-0.1-0.9-0.1-1.3c-0.3,0-0.7,1.1-1,1.6        C52.4,32.8,52.6,32.7,53.1,32.8z"></path>
						<path id="XMLID_21_" class="st78" d="M55.6,31c0,0.7-1.6,1.5-2.7,1.7c0.3,0.3,0.6,0.7,0.6,1c0.7-0.2,2.1-0.6,2.6-1.6        C56.5,31.5,56,31.3,55.6,31z"></path>
						<path id="XMLID_20_" class="st79" d="M53.2,25.7c-0.5,0.2-0.6,0.6-0.7,1.2c0.3-0.3,0.3-0.5,0.6-0.7L53.2,25.7z"></path>
						<linearGradient id="XMLID_178_" gradientUnits="userSpaceOnUse" x1="54.8939" y1="27.3315" x2="53.4192" y2="30.2633">
							<stop offset="0" style="stop-color:#FFB89E"></stop>
							<stop offset="1" style="stop-color:#FFA799"></stop>
						</linearGradient>
						<path id="XMLID_19_" class="st80" d="M53.2,30.9c0.3-0.1,1.1-0.2,1.4-0.3c0.7-0.2,0.8-0.7,1.2-1.4c0.6-0.2,0.9-0.4,1-0.7        c0.4-0.7,0.3-1.6-0.1-2.3c-0.3-0.6-0.9-0.9-1.6-1c-1.3-0.2-2.1,0.2-2.6,1.3c0,0.1-0.1,0.5-0.2,0.6c0,0.2,0,0.3,0,0.5        c0,0.1-0.1,0.2-0.2,0.4c-0.3,0.3-0.4,2.1-0.3,2.4C52.2,30.7,52.6,31,53.2,30.9z"></path>
						<linearGradient id="XMLID_179_" gradientUnits="userSpaceOnUse" x1="55.8316" y1="26.0796" x2="55.513" y2="28.3349">
							<stop offset="0" style="stop-color:#5A2D68"></stop>
							<stop offset="1" style="stop-color:#22043D"></stop>
						</linearGradient>
						<path id="XMLID_18_" class="st81" d="M53.7,26.9c0.4-0.1,1.7-0.3,2.2-0.5c0.6-0.1,1.2-0.3,1.6,0.2c0.2,0.6,0.1,1.4-0.1,1.8        c-0.3,0.6-0.9,1.1-1.7,1.5c-0.3,0.2,0-0.8,0-1c-0.2,0.3-0.4,0.4-0.5,0.4c-0.1,0-0.2,0-0.1-0.4c0.2-0.6-0.1-0.8,0.2-1.2        c0.2-0.3,0-0.3-0.1-0.5C54.8,27.1,54.3,27.3,53.7,26.9z"></path>
						<path id="XMLID_17_" class="st82" d="M56.1,28.7c0.5,0,0.4,0.5,0.2,0.9c-0.1,0.2-0.3,0.2-0.4,0.3c-0.1,0.2-0.4,0.3-0.5,0.2        c-0.3-0.1,0-0.5,0.1-0.7C55.5,29.1,55.8,28.7,56.1,28.7z"></path>
						<linearGradient id="XMLID_180_" gradientUnits="userSpaceOnUse" x1="54.858" y1="24.998" x2="55.3099" y2="26.7006">
							<stop offset="0" style="stop-color:#5A2D68"></stop>
							<stop offset="1" style="stop-color:#22043D"></stop>
						</linearGradient>
						<path id="XMLID_16_" class="st83" d="M53.2,24.6c0.2,0.2,0.6,0,1.7,0c1.2-0.1,2.7,0.6,2.6,1.9c0,0,0,0.1,0,0.1        c-0.4,0-1,0.3-1.6,0.4c-0.9,0.2-1.8,0.2-2.4-0.1C52.7,26.5,52.3,25.2,53.2,24.6z"></path>
					</g>
					<g>
						<g>
							<path id="XMLID_15_" class="st34" d="M58.7,53c-0.1-0.2,0-0.2,0.1-0.3c0,0,0,0,0,0l1.4-1.4c0.9-0.8,1.9,1.2,2.4,2.6l-1.2,1.2         l-2.3-0.6L58.7,53z"></path>
							<path id="XMLID_14_" class="st34" d="M62,58.7l-0.9-3.5l-0.3-1.1l5.9-5.9l1.2,4.6c0,0.1,0,0.2,0,0.3c0,0.1,0,0.1,0,0.2         c0,0,0,0.1,0,0.1c0,0.1-0.1,0.1-0.1,0.1L62,59.4C62.1,59.3,62.1,59,62,58.7z"></path>
							<path id="XMLID_13_" class="st35" d="M58.5,53.4l2.4,0.6l1.2,4.6c0.2,0.6-0.2,1-0.9,0.8l0,0c-0.6-0.2-1.3-0.8-1.5-1.5         L58.5,53.4z"></path>
							<polygon id="XMLID_12_" class="st36" points="64.7,54.4 64.3,54.3 64.7,55.5 65,55.6 64.9,54.9        "></polygon>
							<linearGradient id="XMLID_181_" gradientUnits="userSpaceOnUse" x1="65.0623" y1="53.7808" x2="63.0991" y2="50.6367">
								<stop offset="0" style="stop-color:#1C8EF4"></stop>
								<stop offset="1" style="stop-color:#00CFDD"></stop>
							</linearGradient>
							<path id="XMLID_11_" class="st84" d="M64.5,46.7c0.1-0.1,0.2-0.1,0.3-0.2c0.3-0.1,0.7,0,1,0.2c0.3,0.1,0.5,0.3,0.7,0.5         c0.3,0.3,0.6,0.7,0.7,1c0,0,0,0.1,0,0.1l0.4,1.4L65.4,54l-0.5,0.5l-3.1,1.1l0,0L61.5,55c-0.1-0.4-0.6-1.5-0.8-1.8         c-0.4-0.4-1.5-1.1-2-0.6L64.5,46.7z"></path>
							<path id="XMLID_10_" class="st35" d="M59,52.4c-0.5,0.1-0.7,0.5-0.6,1.1l0.5,1.7l0.5,0.1L59,53.6c-0.1-0.2,0-0.4,0.1-0.6         c0.4-0.4,1.2,0.1,1.4,0.4c0.2,0.2,0.3,0.4,0.4,0.7l0.4,1.4l0.5,0.1l-0.4-1.4c-0.1-0.5-0.5-1-0.9-1.4         C60.1,52.5,59.5,52.4,59,52.4z"></path>
							<polygon id="XMLID_9_" class="st36" points="64.7,54.4 64.6,54.4 64.9,55.6 65,55.6 64.9,54.9        "></polygon>
							<polygon id="XMLID_8_" class="st38" points="65.5,53.7 65,54.2 64.7,54.4 64.6,54.4 65.3,53.6        "></polygon>
							<polygon id="XMLID_7_" class="st39" points="65.5,53.7 64.7,54.4 65,55.6 65.8,54.8        "></polygon>
						</g>
						<g>
							<path id="XMLID_6_" class="st40" d="M63.1,48.4C63.1,48.4,63.1,48.4,63.1,48.4C63.1,48.4,63.1,48.4,63.1,48.4         C63.1,48.3,63,48.3,63.1,48.4C63,48.3,63,48.3,63.1,48.4C63,48.3,63,48.3,63,48.3c0,0,0,0,0,0c0,0,0,0,0,0c0,0,0,0,0,0         c0,0,0,0,0,0c0,0,0,0-0.1,0l0.6,0.1c0,0,0,0,0.1,0c0,0,0,0,0,0c0,0,0,0,0,0c0,0,0,0,0,0c0,0,0,0,0,0c0,0,0,0,0,0c0,0,0,0,0,0         c0,0,0,0,0,0c0,0,0,0,0,0c0,0,0,0,0,0c0,0,0,0,0,0c0,0,0,0,0,0c0,0,0,0,0,0c0,0,0,0,0,0c0,0,0,0,0,0c0,0,0,0,0,0c0,0,0,0,0,0         c0,0,0,0,0,0c0,0,0,0,0,0c0,0,0,0,0,0c0,0,0,0,0,0c0,0,0,0,0,0l0.1,0.3l-0.6-0.1L63.1,48.4C63.1,48.4,63.1,48.4,63.1,48.4         C63.1,48.4,63.1,48.4,63.1,48.4z"></path>
							<path id="XMLID_5_" class="st27" d="M62.5,48C62.5,48,62.5,48,62.5,48C62.5,47.9,62.5,47.9,62.5,48         C62.5,47.9,62.5,47.9,62.5,48C62.5,47.9,62.5,47.9,62.5,48C62.5,47.9,62.5,47.9,62.5,48c0.1-0.1,0.1-0.1,0.1-0.1c0,0,0,0,0,0         c0,0,0,0,0,0c0,0,0,0,0,0c0,0,0,0,0,0c0,0,0,0,0,0c0,0,0,0,0,0c0,0,0,0,0,0c0,0,0,0,0,0c0,0,0,0,0,0c0,0,0,0,0,0c0,0,0,0,0,0         c0,0,0,0,0,0c0,0,0,0,0,0c0,0,0,0,0,0c0,0,0,0,0,0c0,0,0,0,0,0c0,0,0,0,0,0c0,0,0,0,0,0c0,0,0,0,0,0c0,0,0,0,0,0         c0,0,0,0,0.1,0l0.6,0.1c-0.2,0-0.4,0.1-0.5,0.3l0,0L62.2,49l0,0c-0.3,0.3-0.5,0.9-0.4,1.4c0,0,0,0,0,0l0,0l0,0l0,0l0,0l0,0         l0,0l0,0l0,0l0,0l0,0l0,0l0,0v0l0,0l0,0l0,0l0,0l0,0l0,0l0,0l0,0l0,0l0,0h0l0,0l0,0l0,0l0,0l0,0v0l0,0l0,0l0,0h0l0,0l0,0l0,0         l0,0l0,0h0l0,0l0,0l0,0l0,0h0l0,0l0,0l0,0l0,0l0,0l0,0l0,0l0,0l0,0l0,0l0,0l0,0l0,0l0,0l0,0l0,0v0l0,0l0,0l0,0l0,0l0,0l0,0         l0,0l0,0l0,0l0,0v0l0,0l0,0l0,0h0l0,0l0,0l0,0l0,0l0,0l0,0l0,0l0,0l0,0l0,0l0,0v0l0,0l0,0l0,0h0l0,0l0,0l0,0l0,0l0,0v0l0,0         l0,0l0,0l0,0l0,0v0l0,0l0,0v0l0,0l0,0l0,0v0v0l0,0l0,0l0,0l0,0v0l0,0l0,0v0l0,0l0,0v0l0,0l0,0l0,0v0v0l0,0l0,0l0,0v0l0,0l0,0         l0,0v0v0l0,0v0l0,0v0l0,0v0v0l0,0v0l0,0l0,0v0l0,0l0,0l0,0l0,0l0,0l0,0l0,0l0,0l0,0l0,0l0,0l0,0l0,0l0,0l0,0l0,0l0,0l0,0l0,0         l0,0l0,0l0,0l0,0l0,0h0l0,0l0,0l0,0l0,0l0,0l0,0l0,0l0,0l0,0l0,0l0,0l0,0l0,0l0,0l0,0l0,0l0,0l0,0l0,0l0,0l0,0l0,0l0,0l0,0         l0,0l0,0l0,0l0,0l0,0l0,0l0,0l0,0l0,0l0,0l0,0l0,0l0,0l0,0l0,0l0,0l0,0l0,0l0,0l0,0l0,0l0,0l0,0l0,0l0,0l0,0l0,0l0,0l0,0l0,0         l0.1,0.3l-0.6-0.1l-0.1-0.3l0,0l0,0l0,0l0,0l0,0l0,0l0,0l0,0l0,0l0,0l0,0l0,0l0,0l0,0l0,0l0,0l0,0l0,0l0,0l0,0l0,0l0,0l0,0         l0,0l0,0l0,0l0,0l0,0l0,0l0,0l0,0l0,0l0,0l0,0l0,0l0,0l0,0l0,0l0,0l0,0l0,0l0,0l0,0l0,0l0,0l0,0l0,0l0,0l0,0l0,0l0,0l0,0v0         l0,0l0,0l0,0l0,0l0,0l0,0l0,0l0,0l0,0l0,0l0,0l0,0l0,0l0,0l0,0l0,0l0,0l0,0l0,0l0,0l0,0l0,0l0,0l0,0l0,0l0,0l0,0l0,0l0,0l0,0         v0l0,0l0,0l0,0l0,0l0,0l0,0l0,0v0l0,0l0,0l0,0l0,0l0,0l0,0v0l0,0l0,0l0,0l0,0l0,0l0,0l0,0l0,0l0,0l0,0l0,0l0,0l0,0l0,0l0,0v0         l0,0l0,0v0l0,0l0,0v0l0,0v0l0,0v0c0,0,0,0,0,0v0l0,0v0h0v0v0l0,0v0l0,0v0l0,0c0,0,0,0,0,0h0c0,0,0-0.1,0-0.1c0,0,0,0,0,0         c0,0,0,0,0,0c0,0,0,0,0,0c0-0.1,0-0.2,0-0.3c0-0.1,0.1-0.3,0.1-0.4c0,0,0,0,0-0.1c0,0,0,0,0,0c0-0.1,0.2-0.3,0.3-0.4         c0,0,0,0,0,0L62.5,48C62.4,48,62.4,48,62.5,48z"></path>
							<path id="XMLID_4_" class="st41" d="M62.1,49l0.8-0.8c0.4-0.4,0.8-0.3,0.9,0.2l0.1,0.3l-0.2,0.2l-0.1-0.3         c-0.1-0.3-0.3-0.4-0.6-0.2l-0.8,0.8c-0.2,0.2-0.4,0.7-0.3,1l0.1,0.3l-0.2,0.2l-0.1-0.3C61.6,50,61.8,49.3,62.1,49z"></path>
						</g>
						<linearGradient id="XMLID_182_" gradientUnits="userSpaceOnUse" x1="62.3751" y1="49.6245" x2="62.4391" y2="46.6359">
							<stop offset="0" style="stop-color:#FFB89E"></stop>
							<stop offset="1" style="stop-color:#FFA799"></stop>
						</linearGradient>
						<path id="XMLID_3_" class="st85" d="M63.4,46.7c0,1.2,0.4,1.8,0.3,2.1c0,0.2-1,1.3-1.3,1.6c-0.1,0.1-0.4,0-0.4-0.1        c-0.2-0.2,0-0.6-0.1-1.1c-0.1-0.3-0.3-0.2-0.4-0.2c-0.2,0.1-0.2,0.4-0.3,0.6c0-0.7-0.3-1.3,0.1-1.8c0.2-0.3,0.4-0.5,0.5-0.9        L63.4,46.7z"></path>
					</g>
					<linearGradient id="XMLID_183_" gradientUnits="userSpaceOnUse" x1="62.5791" y1="38.2538" x2="57.6996" y2="44.8337">
						<stop offset="0" style="stop-color:#235DA3"></stop>
						<stop offset="1" style="stop-color:#123A76"></stop>
					</linearGradient>
					<path id="XMLID_2_" class="st86" d="M59.2,33.4c0.5,0,1.5,0.7,1.8,1.2c0.9,1.4,1.5,4.3,2.1,6.1c0.2,2.2,0.5,3.9,0.5,6.1       c-0.3,0.5-1.8,1.3-2.2,0.5c-0.3-1.8-0.7-4-0.6-5.9c-0.7-0.9-1.2-1.9-1.7-2.9C58.7,37.5,57.2,33.7,59.2,33.4z"></path>
				</g>
				<path id="XMLID_1_" class="st87" d="M60.8,20.4c0.3,1.1,0.1,2.1-1.3,4.2c-1.8,1.1-6.2,4.7-3,6.7l5.4-2.9      c1.2-1.4,2.4-2.5,3.5-3.5c1.2-1.1,2.5-1.9,3.8-2.8L60.8,20.4z"></path>
			</g>
		</g>
	</g>
</g>
</svg>
