<svg width="231" height="80" viewBox="0 0 231 80" fill="none" xmlns="http://www.w3.org/2000/svg">
<mask id="mask0_1_2" style="mask-type:luminance" maskUnits="userSpaceOnUse" x="92" y="13" width="129" height="54">
<path d="M221 13H92V67H221V13Z" fill="white"/>
</mask>
<g mask="url(#mask0_1_2)">
<path d="M104.413 15.0258L102.55 17.4415C101.588 16.9107 100.512 16.6236 99.416 16.6049C98.566 16.591 97.733 16.8445 97.033 17.3302C96.704 17.5464 96.438 17.8464 96.261 18.1999C96.084 18.5534 96.003 18.9478 96.026 19.343C96.02 19.7528 96.131 20.1556 96.346 20.5038C96.524 20.8077 96.757 21.0753 97.033 21.2924C97.354 21.513 97.704 21.6868 98.073 21.8085C98.416 21.9373 98.766 22.0449 99.122 22.1309C99.366 22.1846 99.713 22.2543 100.162 22.34C100.758 22.4475 101.099 22.5108 101.185 22.5319C103.04 22.9822 104.436 23.7657 105.374 24.8824C106.312 25.9991 106.693 27.3525 106.517 28.9425C106.461 29.6948 106.25 30.4271 105.897 31.0928C105.545 31.7584 105.059 32.3428 104.47 32.8088C103.231 33.8416 101.665 34.3906 100.057 34.3553C98.33 34.3553 96.624 33.8187 94.9405 32.7455L96.795 30.3605C97.747 30.8887 98.811 31.1764 99.897 31.1989C100.752 31.2114 101.59 30.9581 102.297 30.4737C102.634 30.2556 102.907 29.9506 103.088 29.5903C103.269 29.2299 103.351 28.8274 103.325 28.4244C103.334 28.0193 103.229 27.6199 103.02 27.2732C102.852 26.9834 102.636 26.7241 102.383 26.5057C102.094 26.2894 101.772 26.121 101.43 26.0068C101.119 25.8897 100.801 25.7929 100.478 25.7171C100.265 25.6748 99.955 25.6211 99.551 25.5559C98.868 25.428 98.185 25.2668 97.504 25.0724L97.024 24.9112C95.5727 24.3739 94.4695 23.5738 93.7141 22.5108C92.958 21.4537 92.6317 20.1453 92.8019 18.8537C92.8564 18.0963 93.0666 17.3587 93.419 16.6875C93.7714 16.0163 94.2584 15.4263 94.8491 14.9548C96.084 13.9237 97.566 13.4089 99.294 13.4102C100.937 13.414 102.643 13.9525 104.413 15.0258Z" fill="#AC4AFF"/>
<path d="M117.139 34.3593H113.876V16.7067H107.609V13.418H123.47V16.7029H117.139V34.3593Z" fill="#AC4AFF"/>
<path d="M125.1 34.3593H121.84L130.504 13.418L139.139 34.3593H135.901L130.497 21.375L125.1 34.3593Z" fill="#AC4AFF"/>
<path d="M152.091 25.5311H145.344V34.3573H142.082V13.418H154.841V16.7029H145.344V22.2442H152.091V25.5311Z" fill="#AC4AFF"/>
<path d="M168.015 25.5311H161.268V34.3573H158.006V13.418H170.765V16.7029H161.268V22.2442H168.015V25.5311Z" fill="#AC4AFF"/>
<path d="M173.93 34.3593V13.418H177.199V34.3593H173.93Z" fill="#AC4AFF"/>
<path d="M197.177 34.3286L185.25 21.826V34.3593H181.988V13.418L193.915 26.0146V13.418H197.177V34.3286Z" fill="#AC4AFF"/>
<path d="M210.991 16.7335C210.089 16.7222 209.196 16.9032 208.369 17.2647C207.542 17.6261 206.801 18.1599 206.194 18.8307C205.55 19.4948 205.043 20.2808 204.703 21.1434C204.363 22.0059 204.196 22.9279 204.211 23.856C204.179 25.7499 204.892 27.5797 206.194 28.9464C206.796 29.6251 207.536 30.1661 208.364 30.5331C209.191 30.9001 210.087 31.0846 210.991 31.0743C212.094 31.0699 213.178 30.7813 214.14 30.2358C215.151 29.6792 216.013 28.883 216.65 27.9161L217.387 26.8531L213.769 23.6622L215.911 21.1812L220.996 25.6596C220.293 28.2806 219.029 30.3861 217.206 31.9761C215.383 33.5662 213.31 34.3605 210.987 34.3592C208.215 34.3592 205.849 33.3359 203.887 31.2892C201.926 29.2426 200.945 26.7667 200.945 23.8617C200.945 20.9836 201.926 18.5244 203.887 16.4841C205.849 14.4438 208.215 13.4205 210.987 13.4141C212.93 13.4089 214.832 13.9801 216.456 15.0566L214.249 17.5701C213.254 17.0089 212.131 16.7204 210.991 16.7335Z" fill="#AC4AFF"/>
<path d="M109.214 66.9692L97.285 54.4666V67.0018H94.0176V46.0586L105.946 58.6552V46.0586H109.214V66.9692Z" fill="#AC4AFF"/>
<path d="M114.006 67.0018V46.0586H117.266V67.0018H114.006Z" fill="#AC4AFF"/>
<path d="M137.251 66.9692L125.325 54.4666V67.0018H122.062V46.0586L133.989 58.6552V46.0586H137.251V66.9692Z" fill="#AC4AFF"/>
<path d="M153.273 46.0586V57.5903C153.273 60.4915 152.617 62.7844 151.307 64.469C149.997 66.1537 148.212 66.9973 145.95 66.9999C144.758 67.0104 143.587 66.6776 142.576 66.0405C141.538 65.3803 140.694 64.453 140.131 63.3542L143.263 62.2586C143.968 63.2257 144.864 63.7092 145.95 63.7092C146.397 63.7135 146.841 63.6368 147.261 63.4828C147.731 63.2929 148.165 63.02 148.54 62.6769C148.987 62.2932 149.344 61.6651 149.611 60.7927C149.9 59.7497 150.035 58.6692 150.01 57.5865V46.0586H153.273Z" fill="#AC4AFF"/>
<path d="M158.198 67.0018H154.936L163.602 46.0586L172.236 67.0018H168.999L163.594 54.0157L158.198 67.0018Z" fill="#AC4AFF"/>
</g>
<mask id="mask1_1_2" style="mask-type:luminance" maskUnits="userSpaceOnUse" x="10" y="2" width="71" height="76">
<path d="M81 2H10V78H81V2Z" fill="white"/>
</mask>
<g mask="url(#mask1_1_2)">
<path fill-rule="evenodd" clip-rule="evenodd" d="M10.7443 35.3832L13.5875 34.017C13.9011 33.8681 14.2604 33.85 14.5871 33.9668C14.9139 34.0836 15.1815 34.3258 15.3318 34.6406L27.4185 59.5844L25.9903 60.2464L23.9927 61.2327L22.0388 62.3283L10.1254 37.1408C9.97761 36.8248 9.95971 36.4627 10.0756 36.1335C10.1916 35.8043 10.4319 35.5346 10.7443 35.3832Z" fill="url(#paint0_linear_1_2)"/>
<path fill-rule="evenodd" clip-rule="evenodd" d="M16.2753 60.7235L29.6398 54.3072C29.877 54.194 30.149 54.1801 30.3964 54.2685C30.6437 54.357 30.8462 54.5406 30.9595 54.7792C31.0166 54.8979 31.0499 55.0268 31.0574 55.1586C31.0649 55.2903 31.0464 55.4222 31.003 55.5467C30.9597 55.6712 30.8923 55.7859 30.8047 55.884C30.7171 55.9821 30.6112 56.0618 30.4929 56.1185L17.1265 62.5329C16.8898 62.6461 16.6182 62.6602 16.3712 62.5721C16.1242 62.484 15.922 62.3008 15.8087 62.0628C15.6963 61.824 15.6822 61.5501 15.7696 61.3009C15.8571 61.0517 16.0389 60.8475 16.2753 60.7331V60.7235Z" fill="url(#paint1_linear_1_2)"/>
<path fill-rule="evenodd" clip-rule="evenodd" d="M14.5115 35.687L24.4882 56.7933L25.0176 56.54L14.7895 34.9003C14.7081 34.7305 14.5633 34.5999 14.3868 34.537C14.2103 34.4741 14.0162 34.484 13.8469 34.5645L11.0038 35.9288C10.8513 36.0007 10.7292 36.1249 10.6595 36.2793C10.5897 36.4337 10.5767 36.608 10.6229 36.7711C10.6535 36.7496 10.686 36.731 10.72 36.7155L13.5613 35.3512C13.7305 35.2702 13.9247 35.26 14.1014 35.323C14.2781 35.3859 14.4228 35.5168 14.5039 35.687H14.5115Z" fill="url(#paint2_linear_1_2)"/>
<path fill-rule="evenodd" clip-rule="evenodd" d="M79.9857 34.5431L77.1121 33.246C76.795 33.1047 76.4353 33.0953 76.1114 33.22C75.7875 33.3448 75.5257 33.5934 75.383 33.9118L63.8828 59.1377L65.3263 59.7651L67.3468 60.7053L69.3253 61.753L80.6522 36.2872C80.7927 35.9668 80.8015 35.6033 80.6765 35.2764C80.5516 34.9495 80.3032 34.6858 79.9857 34.5431Z" fill="url(#paint3_linear_1_2)"/>
<path fill-rule="evenodd" clip-rule="evenodd" d="M75.0488 60.0144L61.5281 53.9185C61.2884 53.8109 61.0162 53.8034 60.771 53.8977C60.5258 53.9919 60.3276 54.1801 60.2199 54.4212C60.1137 54.6625 60.1066 54.9364 60.2001 55.183C60.2935 55.4296 60.48 55.6289 60.7188 55.7375L74.2394 61.8353C74.4792 61.9428 74.7514 61.9503 74.9966 61.8561C75.2418 61.7619 75.4399 61.5736 75.5477 61.3326C75.6545 61.091 75.6619 60.8167 75.5684 60.5697C75.4749 60.3226 75.288 60.123 75.0488 60.0144Z" fill="url(#paint4_linear_1_2)"/>
<path fill-rule="evenodd" clip-rule="evenodd" d="M76.2278 34.9393L66.75 56.2701L66.2168 56.0284L75.9288 34.1546C76.0058 33.9827 76.1471 33.8485 76.3219 33.7813C76.4968 33.7141 76.6909 33.7193 76.8619 33.7958L79.7355 35.0928C79.8884 35.1622 80.0119 35.2839 80.0841 35.4364C80.1563 35.5889 80.1724 35.7622 80.1297 35.9256C80.0986 35.9054 80.0662 35.8875 80.0326 35.8719L77.159 34.5748C76.9877 34.4982 76.7933 34.4929 76.6181 34.5602C76.443 34.6274 76.3013 34.7616 76.224 34.9336L76.2278 34.9393Z" fill="url(#paint5_linear_1_2)"/>
<path d="M53.8445 30.4062C51.9192 30.8399 49.8283 32.9313 48.7676 32.8469C49.3751 33.5684 50.0244 33.6144 50.7157 33.3439C50.5555 33.6221 50.4374 33.9228 50.3653 34.2361C51.0185 33.8715 51.6983 34.3339 53.0656 34.0845C54.5167 33.8178 54.5681 31.9585 55.4365 31.4347C54.8951 31.3182 54.3366 31.3071 53.7912 31.4021C54.65 30.9224 55.5526 30.6557 56.4972 31.049C55.8021 30.3851 54.7643 30.1952 53.8445 30.4062Z" fill="url(#paint6_linear_1_2)"/>
<path d="M38.7874 30.408C37.8676 30.2007 36.8279 30.3907 36.1328 31.0507C37.085 30.6574 37.98 30.9241 38.8388 31.4038C38.294 31.3089 37.7361 31.3199 37.1954 31.4364C38.0619 31.9602 38.1133 33.8195 39.5663 34.0862C40.9279 34.3357 41.6134 33.8732 42.2666 34.2378C42.1939 33.9244 42.0751 33.6237 41.9143 33.3456C42.6056 33.6142 43.2473 33.5701 43.8624 32.8486C42.8036 32.9292 40.7108 30.8378 38.7874 30.408Z" fill="url(#paint7_linear_1_2)"/>
<path d="M72.4634 69.9738C71.9282 67.2339 71.536 65.8063 70.4734 64.2866C68.4548 61.4085 65.1546 60.24 60.5138 58.6014C56.7661 57.2774 55.0979 57.2007 54.2048 55.5908C53.2812 53.9254 53.8563 51.8186 54.4733 50.3181C51.4264 52.469 47.8082 54.6756 46.1762 54.7044C45.7344 54.5893 45.2818 54.4613 44.8184 54.3206L44.7765 54.3072C43.7463 53.816 42.4057 52.8566 40.7641 51.4176C42.9465 52.9737 45.0279 54.1038 46.0467 54.1038C48.2729 54.1038 55.5797 48.6891 57.9087 45.2622C60.4509 41.5206 62.6695 35.7586 62.6695 29.9121C62.6801 26.2267 61.5381 22.6315 59.4055 19.6372C64.907 18.3324 69.5669 14.8557 71.1227 10.1394C70.1287 7.12883 68.4814 4.46944 66.3277 2C66.5181 9.50809 62.0906 14.257 57.9791 16.8838C59.3287 15.4246 60.256 13.621 60.6604 11.6686C60.6604 11.6686 59.396 8.98235 56.8784 7.16145C57.3812 9.71915 57.107 13.2477 55.8654 15.9877C53.0395 13.8227 49.5872 12.6506 46.0372 12.651C36.8527 12.651 29.4068 20.3817 29.4068 29.9198C29.4068 35.7701 31.633 41.5321 34.1676 45.2699C34.8684 46.3002 36.0205 47.511 37.3478 48.7006C37.8353 49.8519 38.6542 52.2138 37.9972 54.3149H38.0086C37.8729 54.7674 37.6755 55.1988 37.4221 55.5966C36.15 57.594 33.8039 57.8416 31.8177 58.6052C26.5027 60.6391 23.6672 61.7078 21.8581 64.2905C20.7936 65.8101 20.4013 67.2377 19.8662 69.9777C19.3497 72.6206 19.1268 75.3132 19.2016 78.0058C28.0109 77.7972 36.9955 77.686 46.1553 77.6719C55.3112 77.6821 64.2951 77.7934 73.107 78.0058C73.1899 75.3127 72.974 72.6187 72.4634 69.9738ZM58.5752 39.0147C57.7697 39.6498 56.4214 39.9108 55.1474 39.8244C53.7611 39.7304 52.5499 39.2219 50.8437 38.0534C48.9394 36.7487 47.8368 35.8564 46.5514 35.5015C49.1888 35.7202 51.693 39.0493 56.0729 38.5024C58.6437 38.1801 60.3976 35.9639 60.2243 33.2565C60.6757 34.7071 60.5195 37.4797 58.5752 39.0147ZM36.9727 37.3013C33.8781 36.9962 32.1128 33.4484 33.9124 30.0944C32.5699 30.3822 31.5739 32.3432 31.5434 32.3969C32.6156 28.4155 36.2814 27.7209 38.5666 28.3234C39.8691 28.663 40.6346 29.231 41.9181 29.9716C42.6133 30.3721 43.3503 30.6939 44.1157 30.931C45.5546 31.3762 47.093 31.3762 48.5318 30.931C49.2967 30.6939 50.033 30.3722 50.7275 29.9716C52.011 29.231 52.7785 28.663 54.081 28.3234C56.3662 27.7286 60.0225 28.4155 61.0946 32.4046C61.0641 32.3432 60.0701 30.3822 58.7275 30.1021C60.5271 33.4561 58.7599 37.0096 55.6673 37.3089C51.4283 37.7253 49.1488 34.4538 46.3228 34.4538C43.4968 34.4538 41.2098 37.7176 36.9727 37.3013Z" fill="url(#paint8_linear_1_2)"/>
</g>
<defs>
<linearGradient id="paint0_linear_1_2" x1="9.99975" y1="48.1122" x2="27.4185" y2="48.1122" gradientUnits="userSpaceOnUse">
<stop stop-color="#AC4AFF"/>
<stop offset="1" stop-color="#D195FF"/>
</linearGradient>
<linearGradient id="paint1_linear_1_2" x1="15.7116" y1="58.421" x2="31.0566" y2="58.421" gradientUnits="userSpaceOnUse">
<stop stop-color="#AC4AFF"/>
<stop offset="1" stop-color="#D195FF"/>
</linearGradient>
<linearGradient id="paint2_linear_1_2" x1="10.602" y1="45.6415" x2="25.0176" y2="45.6415" gradientUnits="userSpaceOnUse">
<stop stop-color="#AC4AFF"/>
<stop offset="1" stop-color="#D195FF"/>
</linearGradient>
<linearGradient id="paint3_linear_1_2" x1="63.8828" y1="47.4429" x2="80.7608" y2="47.4429" gradientUnits="userSpaceOnUse">
<stop stop-color="#AC4AFF"/>
<stop offset="1" stop-color="#D195FF"/>
</linearGradient>
<linearGradient id="paint4_linear_1_2" x1="60.1437" y1="57.8769" x2="75.6334" y2="57.8769" gradientUnits="userSpaceOnUse">
<stop stop-color="#AC4AFF"/>
<stop offset="1" stop-color="#D195FF"/>
</linearGradient>
<linearGradient id="paint5_linear_1_2" x1="66.213" y1="45.0051" x2="80.1564" y2="45.0051" gradientUnits="userSpaceOnUse">
<stop stop-color="#AC4AFF"/>
<stop offset="1" stop-color="#D195FF"/>
</linearGradient>
<linearGradient id="paint6_linear_1_2" x1="48.7676" y1="32.277" x2="56.4972" y2="32.277" gradientUnits="userSpaceOnUse">
<stop stop-color="#AC4AFF"/>
<stop offset="1" stop-color="#D195FF"/>
</linearGradient>
<linearGradient id="paint7_linear_1_2" x1="36.1328" y1="32.2787" x2="43.8624" y2="32.2787" gradientUnits="userSpaceOnUse">
<stop stop-color="#AC4AFF"/>
<stop offset="1" stop-color="#D195FF"/>
</linearGradient>
<linearGradient id="paint8_linear_1_2" x1="19.2054" y1="40.001" x2="73.1394" y2="40.001" gradientUnits="userSpaceOnUse">
<stop stop-color="#AC4AFF"/>
<stop offset="1" stop-color="#D195FF"/>
</linearGradient>
</defs>
</svg>
