<?xml version="1.0" encoding="UTF-8"?>
<!-- Generator: Adobe Illustrator 24.3.0, SVG Export Plug-In . SVG Version: 6.00 Build 0)  -->
<svg xmlns="http://www.w3.org/2000/svg" xmlns:xlink="http://www.w3.org/1999/xlink" version="1.1" id="Layer_1" x="0px" y="0px" width="117px" height="36px" viewBox="0 0 117 36" style="enable-background:new 0 0 117 36;" xml:space="preserve">
<style type="text/css">
	.st0{fill:#37A3DC;}
	.st1{fill:#214183;}
	.st2{fill:#F47826;}
	.st3{fill:#1A344E;}
</style>
<g>
	<path class="st0" d="M1.17,13.53l1.71,1.64l7.68-7.56l7.68,7.63l1.71-1.64l-9.4-9.42L1.17,13.53z"></path>
	<path class="st1" d="M1.17,17.95l1.71,1.64l7.68-7.56l7.68,7.63l1.71-1.64l-9.4-9.42L1.17,17.95z"></path>
	<path class="st2" d="M10.45,13.58l-9.28,9.2l9.28,9.04l9.51-9.04L10.45,13.58z"></path>
	<path class="st3" d="M33.47,14.68h7.03v1.38h-2.83v6.09H36.3v-6.09h-2.83V14.68z M43.33,22.14l3.84-7.47l3.84,7.47h-1.69   l-2.15-4.24l-2.22,4.24H43.33z M60.05,17.72c0.61,0,1.13,0.22,1.56,0.65c0.43,0.43,0.65,0.95,0.65,1.56c0,0.61-0.22,1.13-0.65,1.56   c-0.43,0.43-0.96,0.65-1.56,0.65H56.5v-1.37h3.55c0.23,0,0.43-0.08,0.59-0.24c0.16-0.17,0.24-0.36,0.24-0.6   c0-0.23-0.08-0.43-0.24-0.59c-0.16-0.16-0.36-0.24-0.59-0.24h-0.04h-1.64c-0.61,0-1.13-0.22-1.56-0.65   c-0.43-0.43-0.65-0.95-0.65-1.56s0.21-1.13,0.65-1.56c0.43-0.43,0.96-0.65,1.56-0.65h3.55v1.38h-3.55c-0.23,0-0.43,0.08-0.6,0.24   c-0.16,0.16-0.24,0.36-0.24,0.59s0.08,0.43,0.24,0.59c0.17,0.16,0.36,0.24,0.6,0.24h0.04H60.05z M71.3,17.72   c0.61,0,1.13,0.22,1.56,0.65c0.43,0.43,0.65,0.95,0.65,1.56c0,0.61-0.22,1.13-0.65,1.56c-0.43,0.43-0.96,0.65-1.56,0.65h-3.55   v-1.37h3.55c0.23,0,0.43-0.08,0.59-0.24c0.16-0.17,0.24-0.36,0.24-0.6c0-0.23-0.08-0.43-0.24-0.59c-0.16-0.16-0.36-0.24-0.59-0.24   h-0.04h-1.64c-0.61,0-1.13-0.22-1.56-0.65c-0.43-0.43-0.65-0.95-0.65-1.56s0.21-1.13,0.65-1.56c0.43-0.43,0.96-0.65,1.56-0.65h3.55   v1.38h-3.55c-0.23,0-0.43,0.08-0.6,0.24c-0.16,0.16-0.24,0.36-0.24,0.59s0.08,0.43,0.24,0.59c0.17,0.16,0.36,0.24,0.6,0.24h0.04   H71.3z M78.67,14.68l5.85,0.01v1.38h-4.48v1.67h4.48v1.37h-4.48v1.68h4.48v1.37h-5.85V14.68z M89.67,14.68h7.03v1.38h-2.83v6.09   h-1.37v-6.09h-2.83V14.68z M105.73,17.72c0.61,0,1.13,0.22,1.56,0.65c0.43,0.43,0.65,0.95,0.65,1.56c0,0.61-0.22,1.13-0.65,1.56   c-0.43,0.43-0.96,0.65-1.56,0.65h-3.55v-1.37h3.55c0.23,0,0.43-0.08,0.59-0.24c0.16-0.17,0.24-0.36,0.24-0.6   c0-0.23-0.08-0.43-0.24-0.59c-0.16-0.16-0.36-0.24-0.59-0.24h-0.04h-1.64c-0.61,0-1.13-0.22-1.56-0.65   c-0.43-0.43-0.65-0.95-0.65-1.56s0.22-1.13,0.65-1.56c0.43-0.43,0.96-0.65,1.56-0.65h3.55v1.38h-3.55c-0.23,0-0.43,0.08-0.59,0.24   c-0.16,0.16-0.24,0.36-0.24,0.59s0.08,0.43,0.24,0.59c0.17,0.16,0.36,0.24,0.59,0.24h0.04H105.73z"></path>
	<path class="st3" d="M109.59,14.94v-0.59h2.52v0.59h-0.96v2.08h-0.59v-2.08H109.59z M113.18,14.36l1.32,1.41l1.32-1.41v2.67h-0.59   v-1.2l-0.73,0.83l-0.73-0.83v1.2h-0.59V14.36z"></path>
</g>
</svg>
