<?xml version="1.0" encoding="UTF-8"?>
<!-- Generator: Adobe Illustrator 19.0.0, SVG Export Plug-In . SVG Version: 6.00 Build 0)  -->
<svg xmlns="http://www.w3.org/2000/svg" xmlns:xlink="http://www.w3.org/1999/xlink" version="1.1" id="Layer_1" x="0px" y="0px" width="135px" height="117px" viewBox="0 0 110 95" style="enable-background:new 0 0 110 95;" xml:space="preserve">
<style type="text/css">
	.st0{fill-rule:evenodd;clip-rule:evenodd;fill:#DCECFB;}
	.st1{fill-rule:evenodd;clip-rule:evenodd;fill:#6266D7;}
	.st2{fill-rule:evenodd;clip-rule:evenodd;fill:url(#XMLID_285_);}
	.st3{fill-rule:evenodd;clip-rule:evenodd;fill:#092356;}
	.st4{fill-rule:evenodd;clip-rule:evenodd;fill:#184684;}
	.st5{fill-rule:evenodd;clip-rule:evenodd;fill:url(#XMLID_286_);}
	.st6{opacity:0.5;fill-rule:evenodd;clip-rule:evenodd;fill:url(#XMLID_287_);}
	.st7{fill-rule:evenodd;clip-rule:evenodd;fill:url(#XMLID_288_);}
	.st8{fill-rule:evenodd;clip-rule:evenodd;fill:url(#XMLID_289_);}
	.st9{fill-rule:evenodd;clip-rule:evenodd;fill:url(#XMLID_290_);}
	.st10{fill-rule:evenodd;clip-rule:evenodd;fill:url(#XMLID_291_);}
	.st11{fill-rule:evenodd;clip-rule:evenodd;fill:url(#XMLID_292_);}
	.st12{fill-rule:evenodd;clip-rule:evenodd;fill:#AE89FF;}
	.st13{fill-rule:evenodd;clip-rule:evenodd;fill:url(#XMLID_293_);}
	.st14{fill-rule:evenodd;clip-rule:evenodd;fill:url(#XMLID_294_);}
	.st15{fill-rule:evenodd;clip-rule:evenodd;fill:#D2E3F4;}
	.st16{fill-rule:evenodd;clip-rule:evenodd;fill:#F4F8FF;}
	.st17{fill-rule:evenodd;clip-rule:evenodd;fill:#FFFFFF;}
	.st18{fill-rule:evenodd;clip-rule:evenodd;fill:url(#XMLID_295_);}
	.st19{fill-rule:evenodd;clip-rule:evenodd;fill:url(#XMLID_296_);}
	.st20{fill-rule:evenodd;clip-rule:evenodd;fill:url(#XMLID_297_);}
	.st21{fill-rule:evenodd;clip-rule:evenodd;fill:url(#XMLID_298_);}
	.st22{fill-rule:evenodd;clip-rule:evenodd;fill:url(#XMLID_299_);}
	.st23{fill-rule:evenodd;clip-rule:evenodd;fill:#6675FC;}
	.st24{opacity:0.5;fill-rule:evenodd;clip-rule:evenodd;fill:#C7D2E5;}
	.st25{fill-rule:evenodd;clip-rule:evenodd;fill:#E3E8F2;}
	.st26{fill-rule:evenodd;clip-rule:evenodd;fill:#0C2C63;}
	.st27{fill-rule:evenodd;clip-rule:evenodd;fill:#043150;}
	.st28{fill-rule:evenodd;clip-rule:evenodd;fill:#123A76;}
	.st29{fill-rule:evenodd;clip-rule:evenodd;fill:#235DA2;}
	.st30{opacity:0.5;fill-rule:evenodd;clip-rule:evenodd;fill:#123A76;}
	.st31{fill-rule:evenodd;clip-rule:evenodd;fill:url(#XMLID_300_);}
	.st32{opacity:0.5;fill-rule:evenodd;clip-rule:evenodd;fill:url(#XMLID_301_);}
	.st33{fill-rule:evenodd;clip-rule:evenodd;fill:url(#XMLID_302_);}
	.st34{fill-rule:evenodd;clip-rule:evenodd;fill:url(#XMLID_303_);}
	.st35{fill-rule:evenodd;clip-rule:evenodd;fill:#1C8DF3;}
	.st36{fill-rule:evenodd;clip-rule:evenodd;fill:url(#XMLID_304_);}
	.st37{fill-rule:evenodd;clip-rule:evenodd;fill:url(#XMLID_305_);}
	.st38{fill-rule:evenodd;clip-rule:evenodd;fill:url(#XMLID_306_);}
	.st39{fill-rule:evenodd;clip-rule:evenodd;fill:url(#XMLID_307_);}
	.st40{fill-rule:evenodd;clip-rule:evenodd;fill:#FFAB99;}
	.st41{fill-rule:evenodd;clip-rule:evenodd;fill:url(#XMLID_308_);}
	.st42{fill-rule:evenodd;clip-rule:evenodd;fill:#CDDFF2;}
	.st43{fill-rule:evenodd;clip-rule:evenodd;fill:#9CB3CB;}
	.st44{fill-rule:evenodd;clip-rule:evenodd;fill:url(#XMLID_309_);}
	.st45{fill-rule:evenodd;clip-rule:evenodd;fill:#00DCEC;}
	.st46{fill-rule:evenodd;clip-rule:evenodd;fill:url(#XMLID_310_);}
	.st47{fill-rule:evenodd;clip-rule:evenodd;fill:url(#XMLID_311_);}
	.st48{fill-rule:evenodd;clip-rule:evenodd;fill:#FFA698;}
	.st49{fill-rule:evenodd;clip-rule:evenodd;fill:url(#XMLID_312_);}
	.st50{fill-rule:evenodd;clip-rule:evenodd;fill:#6D6AFD;}
	.st51{fill-rule:evenodd;clip-rule:evenodd;fill:#42AAF7;}
	.st52{fill-rule:evenodd;clip-rule:evenodd;fill:url(#XMLID_313_);}
	.st53{opacity:0.5;fill-rule:evenodd;clip-rule:evenodd;fill:url(#XMLID_314_);}
	.st54{fill-rule:evenodd;clip-rule:evenodd;fill:#F0B186;}
	.st55{fill-rule:evenodd;clip-rule:evenodd;fill:url(#XMLID_315_);}
	.st56{fill-rule:evenodd;clip-rule:evenodd;fill:url(#XMLID_316_);}
	.st57{fill-rule:evenodd;clip-rule:evenodd;fill:#FFAD9A;}
	.st58{fill-rule:evenodd;clip-rule:evenodd;fill:url(#XMLID_317_);}
	.st59{fill-rule:evenodd;clip-rule:evenodd;fill:url(#XMLID_318_);}
	.st60{fill-rule:evenodd;clip-rule:evenodd;fill:url(#XMLID_319_);}
	.st61{fill-rule:evenodd;clip-rule:evenodd;fill:url(#XMLID_345_);}
	.st62{fill-rule:evenodd;clip-rule:evenodd;fill:url(#XMLID_346_);}
	.st63{fill-rule:evenodd;clip-rule:evenodd;fill:#FF9383;}
	.st64{fill-rule:evenodd;clip-rule:evenodd;fill:url(#XMLID_347_);}
	.st65{fill-rule:evenodd;clip-rule:evenodd;fill:url(#XMLID_348_);}
	.st66{fill-rule:evenodd;clip-rule:evenodd;fill:#3089EF;}
	.st67{fill-rule:evenodd;clip-rule:evenodd;fill:url(#XMLID_349_);}
	.st68{fill-rule:evenodd;clip-rule:evenodd;fill:#22043D;}
	.st69{fill-rule:evenodd;clip-rule:evenodd;fill:#DF996B;}
	.st70{fill-rule:evenodd;clip-rule:evenodd;fill:url(#XMLID_350_);}
	.st71{fill-rule:evenodd;clip-rule:evenodd;fill:#0D2E69;}
	.st72{fill-rule:evenodd;clip-rule:evenodd;fill:url(#XMLID_351_);}
	.st73{opacity:0.5;fill-rule:evenodd;clip-rule:evenodd;fill:url(#XMLID_352_);}
	.st74{fill-rule:evenodd;clip-rule:evenodd;fill:url(#XMLID_353_);}
	.st75{fill-rule:evenodd;clip-rule:evenodd;fill:url(#XMLID_354_);}
	.st76{fill-rule:evenodd;clip-rule:evenodd;fill:url(#XMLID_355_);}
	.st77{opacity:0.5;fill-rule:evenodd;clip-rule:evenodd;fill:url(#XMLID_356_);}
	.st78{fill-rule:evenodd;clip-rule:evenodd;fill:url(#XMLID_357_);}
	.st79{fill-rule:evenodd;clip-rule:evenodd;fill:url(#XMLID_358_);}
	.st80{fill-rule:evenodd;clip-rule:evenodd;fill:#15407E;}
	.st81{fill-rule:evenodd;clip-rule:evenodd;fill:url(#XMLID_359_);}
	.st82{fill-rule:evenodd;clip-rule:evenodd;fill:url(#XMLID_360_);}
	.st83{fill-rule:evenodd;clip-rule:evenodd;fill:url(#XMLID_361_);}
	.st84{fill-rule:evenodd;clip-rule:evenodd;fill:url(#XMLID_362_);}
	.st85{fill-rule:evenodd;clip-rule:evenodd;fill:url(#XMLID_363_);}
	.st86{fill-rule:evenodd;clip-rule:evenodd;fill:url(#XMLID_364_);}
	.st87{fill-rule:evenodd;clip-rule:evenodd;fill:#0F316B;}
	.st88{fill-rule:evenodd;clip-rule:evenodd;fill:url(#XMLID_365_);}
	.st89{opacity:0.3;fill-rule:evenodd;clip-rule:evenodd;fill:url(#XMLID_366_);}
	.st90{fill-rule:evenodd;clip-rule:evenodd;fill:url(#XMLID_367_);}
	.st91{fill-rule:evenodd;clip-rule:evenodd;fill:url(#XMLID_368_);}
	.st92{fill-rule:evenodd;clip-rule:evenodd;fill:url(#XMLID_369_);}
	.st93{fill-rule:evenodd;clip-rule:evenodd;fill:url(#XMLID_370_);}
	.st94{fill-rule:evenodd;clip-rule:evenodd;fill:url(#XMLID_371_);}
	.st95{fill-rule:evenodd;clip-rule:evenodd;fill:url(#XMLID_372_);}
	.st96{fill-rule:evenodd;clip-rule:evenodd;fill:#FF8F7F;}
	.st97{fill-rule:evenodd;clip-rule:evenodd;fill:url(#XMLID_373_);}
	.st98{fill-rule:evenodd;clip-rule:evenodd;fill:url(#XMLID_374_);}
	.st99{fill-rule:evenodd;clip-rule:evenodd;fill:url(#XMLID_375_);}
	.st100{fill-rule:evenodd;clip-rule:evenodd;fill:url(#XMLID_376_);}
	.st101{fill-rule:evenodd;clip-rule:evenodd;fill:url(#XMLID_377_);}
	.st102{fill-rule:evenodd;clip-rule:evenodd;fill:url(#XMLID_378_);}
	.st103{fill-rule:evenodd;clip-rule:evenodd;fill:url(#XMLID_379_);}
	.st104{fill-rule:evenodd;clip-rule:evenodd;fill:url(#XMLID_380_);}
	.st105{fill-rule:evenodd;clip-rule:evenodd;fill:url(#XMLID_381_);}
	.st106{fill-rule:evenodd;clip-rule:evenodd;fill:url(#XMLID_382_);}
	.st107{opacity:0.5;fill-rule:evenodd;clip-rule:evenodd;fill:url(#XMLID_383_);}
	.st108{fill-rule:evenodd;clip-rule:evenodd;fill:url(#XMLID_384_);}
	.st109{fill-rule:evenodd;clip-rule:evenodd;fill:url(#XMLID_385_);}
	.st110{fill-rule:evenodd;clip-rule:evenodd;fill:url(#XMLID_386_);}
	.st111{fill-rule:evenodd;clip-rule:evenodd;fill:url(#XMLID_387_);}
	.st112{fill-rule:evenodd;clip-rule:evenodd;fill:url(#XMLID_388_);}
	.st113{fill-rule:evenodd;clip-rule:evenodd;fill:#FFD757;}
	.st114{fill-rule:evenodd;clip-rule:evenodd;fill:url(#XMLID_389_);}
	.st115{fill-rule:evenodd;clip-rule:evenodd;fill:url(#XMLID_390_);}
	.st116{fill-rule:evenodd;clip-rule:evenodd;fill:url(#XMLID_391_);}
	.st117{fill-rule:evenodd;clip-rule:evenodd;fill:url(#XMLID_392_);}
	.st118{fill-rule:evenodd;clip-rule:evenodd;fill:#FF9A8A;}
	.st119{fill-rule:evenodd;clip-rule:evenodd;fill:url(#XMLID_393_);}
	.st120{opacity:0.3;fill-rule:evenodd;clip-rule:evenodd;fill:url(#XMLID_394_);}
	.st121{fill-rule:evenodd;clip-rule:evenodd;fill:#0E2E63;}
	.st122{fill-rule:evenodd;clip-rule:evenodd;fill:#091C40;}
	.st123{fill-rule:evenodd;clip-rule:evenodd;fill:url(#XMLID_395_);}
	.st124{fill-rule:evenodd;clip-rule:evenodd;fill:url(#XMLID_396_);}
	.st125{fill-rule:evenodd;clip-rule:evenodd;fill:url(#XMLID_397_);}
	.st126{fill-rule:evenodd;clip-rule:evenodd;fill:url(#XMLID_398_);}
	.st127{fill-rule:evenodd;clip-rule:evenodd;fill:url(#XMLID_399_);}
	.st128{fill-rule:evenodd;clip-rule:evenodd;fill:#FFB29C;}
	.st129{fill-rule:evenodd;clip-rule:evenodd;fill:#FF8978;}
	.st130{fill-rule:evenodd;clip-rule:evenodd;fill:url(#XMLID_400_);}
	.st131{fill-rule:evenodd;clip-rule:evenodd;fill:#00CEDC;}
	.st132{fill-rule:evenodd;clip-rule:evenodd;fill:#FF8979;}
	.st133{fill-rule:evenodd;clip-rule:evenodd;fill:url(#XMLID_401_);}
	.st134{fill-rule:evenodd;clip-rule:evenodd;fill:url(#XMLID_402_);}
	.st135{fill-rule:evenodd;clip-rule:evenodd;fill:url(#XMLID_403_);}
	.st136{fill-rule:evenodd;clip-rule:evenodd;fill:#FCD148;}
	.st137{fill-rule:evenodd;clip-rule:evenodd;fill:#5F7FFB;}
	.st138{fill-rule:evenodd;clip-rule:evenodd;fill:url(#XMLID_404_);}
	.st139{opacity:0.3;fill-rule:evenodd;clip-rule:evenodd;fill:url(#XMLID_405_);}
	.st140{fill-rule:evenodd;clip-rule:evenodd;fill:url(#XMLID_406_);}
	.st141{fill-rule:evenodd;clip-rule:evenodd;fill:url(#XMLID_407_);}
	.st142{fill-rule:evenodd;clip-rule:evenodd;fill:url(#XMLID_408_);}
	.st143{fill-rule:evenodd;clip-rule:evenodd;fill:url(#XMLID_409_);}
	.st144{fill-rule:evenodd;clip-rule:evenodd;fill:url(#XMLID_410_);}
	.st145{fill-rule:evenodd;clip-rule:evenodd;fill:url(#XMLID_411_);}
	.st146{fill-rule:evenodd;clip-rule:evenodd;fill:url(#XMLID_412_);}
</style>
<g id="XMLID_2_">
	<g id="XMLID_320_">
		<path id="XMLID_344_" class="st0" d="M19.1,80.7l5.6-3.2c0.6-0.3,1.5-0.5,2.1-0.2c0.6,0.3,1.5,0.9,1.9,1.1    c0.3,0.2,1.4,0.8,0.7,1.2c-2,1.1-4,2.3-6,3.4c-0.4,0.2-0.9,0.3-1.5,0.2c-0.6,0-1.2-0.2-1.7-0.5c-0.3-0.2-0.7-0.4-1-0.6    c-0.4-0.3-0.7-0.6-0.7-0.8C18.5,81.1,18.7,80.9,19.1,80.7z"></path>
		<g id="XMLID_321_">
			<path id="XMLID_343_" class="st1" d="M28.1,65.8c-0.2,0.1-0.4,0.1-0.5,0.1c-0.5-0.2-1.5-0.9-1.8-1.3c0,0-0.1-0.1-0.1-0.2     c0,0-0.1-0.1-0.1-0.1c0.1,0.1,0.5-0.3,0.5-0.4c0,0,0.1,0.1,0.1,0.1c0.1,0,0.2,0.1,0.3,0.1c0.5,0.2,1.2,0.6,1.5,0.9L28.1,65.8z"></path>
			<g id="XMLID_337_">
				<linearGradient id="XMLID_285_" gradientUnits="userSpaceOnUse" x1="22.8579" y1="76.136" x2="21.787" y2="79.1518">
					<stop offset="0" style="stop-color:#FF8A78"></stop>
					<stop offset="1" style="stop-color:#FFA799"></stop>
				</linearGradient>
				<path id="XMLID_342_" class="st2" d="M22.2,76.1c0,0.4-0.1,0.7-0.2,0.9c-0.1,0.1-0.1,0.1-0.2,0.2c-0.2,0.4-0.2,0.8-0.1,3l0.5,0      l0.1-0.8c0.1-0.3,0.2-0.8,0.3-1c0.2-0.6,0.2-0.9,0.3-1.4L22.2,76.1z"></path>
				<g id="XMLID_338_">
					<path id="XMLID_341_" class="st3" d="M21.1,78.7c-0.1,0-0.2,0-0.2,0c0,0-0.1-0.2,0-0.2C21,78.4,21.1,78.6,21.1,78.7z"></path>
					<path id="XMLID_340_" class="st3" d="M21.4,77.8c0.1,0.2,0,0.4-0.1,0.6c-0.2,0.7-0.3,0.7-0.2,1c0.1,0.2,0.2,0.4,0.3,0.6       c0.1,0.2,0.2,0.3,0.4,0.4c0.3,0.2,0.5,0.3,0.4-0.1c0-0.1-0.1-0.3-0.1-0.3c-0.2-0.4-0.4-0.6-0.3-1.2c0.1-0.4,0.2-0.7,0-0.9       L21.4,77.8z"></path>
					<path id="XMLID_339_" class="st4" d="M21.4,77.4c-0.1,0.4-0.2,0.7-0.5,1.1c0,0,0.1,0.1,0.2,0.2c0.4-0.5,0.6-0.7,0.8-0.5       c0,0.2-0.1,0.5-0.1,0.8c0,0.1,0,0.3,0,0.4c0.2,0.4,0.5,1,0.4,1.2c0-0.1,0.1-0.2,0.1-0.4c0-0.3,0-0.7-0.1-0.9       c0-0.3,0.1-0.6,0.1-1c0-0.1,0-0.2,0-0.4c0-0.3-0.1-0.7-0.3-0.8c-0.1,0-0.3,0-0.4,0C21.5,77.1,21.5,77.2,21.4,77.4z"></path>
				</g>
			</g>
			<linearGradient id="XMLID_286_" gradientUnits="userSpaceOnUse" x1="27.4137" y1="68.9448" x2="22.7221" y2="71.9848">
				<stop offset="0" style="stop-color:#235DA3"></stop>
				<stop offset="1" style="stop-color:#123A76"></stop>
			</linearGradient>
			<path id="XMLID_336_" class="st5" d="M24.4,71.9l1.5-4.5l0-1.2c0-0.2-0.1-0.3-0.2-0.5c-0.8,0.2-1.3,0.5-2.1,0.5     c-0.3,0.4-0.6,1.1-0.6,1.7c0,1.1,0.1,1.8-0.3,3.6c-1,3.3-0.5,3.2-0.8,5.3c0,0.2,0.7,0.4,0.9,0.3L24.4,71.9z"></path>
			<linearGradient id="XMLID_287_" gradientUnits="userSpaceOnUse" x1="26.9589" y1="68.9013" x2="23.3479" y2="71.9753">
				<stop offset="0" style="stop-color:#235DA3"></stop>
				<stop offset="1" style="stop-color:#123A76"></stop>
			</linearGradient>
			<path id="XMLID_335_" class="st6" d="M24.4,71.9l1.5-4.5l0-1.2c0-0.2-0.1-0.3-0.2-0.5c-0.8,0.2-0.7,0.8-1.5,0.8     c-0.8,1.2-0.3,2.3-0.6,4.9c-0.1,0.3-1,2.7-0.8,5.6L24.4,71.9z"></path>
			<g id="XMLID_330_">
				<linearGradient id="XMLID_288_" gradientUnits="userSpaceOnUse" x1="25.7728" y1="77.8419" x2="25.5179" y2="79.9946">
					<stop offset="0" style="stop-color:#FF8A78"></stop>
					<stop offset="1" style="stop-color:#FFA799"></stop>
				</linearGradient>
				<path id="XMLID_334_" class="st7" d="M25,77.9c0,0.3-0.3,0.7-0.4,0.9c-0.1,0.5,0.3,0.2,0.7,0.9c0.2,0,0.5,0.6,1,0.6      c0.1,0,0.3-0.3,0.1-0.5c-0.1-0.1-0.2,0-0.3-0.1c-0.2-0.2-0.4-1.4-0.3-1.8L25,77.9z"></path>
				<g id="XMLID_331_">
					<path id="XMLID_333_" class="st4" d="M24.8,78.4c0.4,0,0.8,1,1.1,1.5c0.2,0.2,0.5,0,0.3-0.1c0.1,0,0.3,0,0.5,0       c0.3,0,0.2,0.3,0,0.4c-0.4,0.3-0.7,0.4-1.1,0.2c-0.1,0-0.1-0.1-0.2-0.1c-0.1,0-0.1-0.1-0.1-0.1c-0.1-0.1-0.2-0.4-0.3-0.5       c0-0.1-0.1-0.1-0.1-0.1c0,0.1,0,0.9,0,1.1c0,0.1-0.2,0.1-0.2,0.1l-0.3-1.6c0-0.1,0-0.3,0-0.4C24.6,78.6,24.8,78.4,24.8,78.4z"></path>
					<path id="XMLID_332_" class="st3" d="M25.9,80.5c-0.1,0-0.1,0-0.2-0.1c-0.1,0-0.1-0.1-0.2-0.1c-0.1,0-0.1-0.1-0.1-0.1       c-0.1-0.1-0.2-0.4-0.3-0.6c0,0,0.2,0,0.3,0.2C25.4,80.1,25.6,80.3,25.9,80.5C25.8,80.5,25.8,80.5,25.9,80.5z"></path>
				</g>
			</g>
			<linearGradient id="XMLID_289_" gradientUnits="userSpaceOnUse" x1="28.9405" y1="69.9563" x2="24.8487" y2="72.8137">
				<stop offset="0" style="stop-color:#235DA3"></stop>
				<stop offset="1" style="stop-color:#123A76"></stop>
			</linearGradient>
			<path id="XMLID_329_" class="st8" d="M27.1,71c0.2-1.2,0.2-1.9,0.1-2.7c0-0.5,0-0.7-0.1-1.2c-0.1-0.2-0.2-0.3-0.2-0.5     c-0.8,0.2-1.3,0.5-2.2,0.4c-0.2,0.4-0.4,0.9-0.3,1.5c0.1,1.1,0.5,1.9,0.6,3.8c-0.3,2.1-0.1,3.6,0,5.6c0,0.2,0.7,0.4,1,0.3     C26.3,75.7,26.6,73.3,27.1,71z"></path>
			<linearGradient id="XMLID_290_" gradientUnits="userSpaceOnUse" x1="25.1326" y1="62.3054" x2="24.8409" y2="66.9706">
				<stop offset="0" style="stop-color:#A77EF7"></stop>
				<stop offset="1" style="stop-color:#5E65D6"></stop>
			</linearGradient>
			<path id="XMLID_328_" class="st9" d="M23.9,61c-0.9-0.1-0.9,1.4-0.6,2.1c0.8,1.8,0.3,2.1,0.4,2.9l0,0.3c0.8,1.2,3,1.1,3.3,0.2     c0-0.1,0-0.3,0-0.3c0.1-0.7-0.3-1.3-0.2-1.8c0.1-0.8,0.6-1.1,0.3-1.9c-0.2-0.2-0.7-0.6-1.2-0.9C25.1,61.3,24.3,61.1,23.9,61z"></path>
			<g id="XMLID_324_">
				<linearGradient id="XMLID_291_" gradientUnits="userSpaceOnUse" x1="25.043" y1="60.7317" x2="24.9229" y2="61.6714">
					<stop offset="0" style="stop-color:#FF8A78"></stop>
					<stop offset="1" style="stop-color:#FFA799"></stop>
				</linearGradient>
				<path id="XMLID_327_" class="st10" d="M24.2,61.5c-0.1,0.3,1,0.6,1.4,0.5l0-0.1c0.1-0.4,0.2-0.8,0.3-1.1c0.2,0.1,0.6,0.1,0.6,0      c-1.1-0.9-2.5-1.6-2.7-1.1c0.1,0.3,0.4,0.6,0.6,0.8c0,0.1,0.1,0.2,0.1,0.3h0C24.4,60.9,24.3,61.2,24.2,61.5z"></path>
				<linearGradient id="XMLID_292_" gradientUnits="userSpaceOnUse" x1="26.4088" y1="59.1596" x2="25.7892" y2="59.2298">
					<stop offset="0" style="stop-color:#FFB89E"></stop>
					<stop offset="1" style="stop-color:#FFA799"></stop>
				</linearGradient>
				<path id="XMLID_326_" class="st11" d="M26.4,60.8c-0.1,0.1-0.8-0.2-0.9-0.2c-0.5,0-1.1,0-1.2-0.2c-0.1-0.2-0.4-0.5-0.6-0.8      c-0.2-0.5-0.1-1.1,0.3-1.6c0.8-0.7,2.2-0.2,2.4,0.6c0.1,0.3,0,0.4,0,0.6c0,0.4,0.1,0.3,0,0.9C26.5,60.5,26.5,60.7,26.4,60.8z"></path>
				<path id="XMLID_325_" class="st12" d="M24.3,61.1c0,0.3,0.8,0.5,1.3,0.4c0,0,0.1,0,0.1-0.1c0.1,0,0.3,0.3,0.3,0.4      c-0.4,0.4-1.7,0.2-1.8-0.3C24.1,61.4,24.1,61.2,24.3,61.1z"></path>
			</g>
			<linearGradient id="XMLID_293_" gradientUnits="userSpaceOnUse" x1="26.7663" y1="63.1778" x2="28.0708" y2="65.5915">
				<stop offset="0" style="stop-color:#A77EF7"></stop>
				<stop offset="1" style="stop-color:#5E65D6"></stop>
			</linearGradient>
			<path id="XMLID_323_" class="st13" d="M26.1,63c0,0.3,0.1,0.7,0.3,1.1c0.3,0.6,0.7,1,1,1.6c0.1,0.2,0.5,0.3,0.7,0.1     c0.3-0.2,0.1-0.7,0.1-1c-0.1-0.5-0.3-1-0.5-1.5c-0.1-0.1-0.1-0.2-0.1-0.3c-0.2-0.4-0.4-0.6-0.7-0.7C26.4,62.2,26,62.6,26.1,63z"></path>
			<linearGradient id="XMLID_294_" gradientUnits="userSpaceOnUse" x1="24.2041" y1="58.8929" x2="23.5942" y2="64.9112">
				<stop offset="0" style="stop-color:#5A2D68"></stop>
				<stop offset="1" style="stop-color:#22043D"></stop>
			</linearGradient>
			<path id="XMLID_322_" class="st14" d="M22.2,60.2c-0.7,0.6-1.1,1.7-0.8,2.3c0.3,0.6,1,0.9,0.8,1.2c-0.2,0.3-0.6,0.6-0.1,1.1     c0.3,0.2,0.9,0.9,2.3,0.6c1.3-0.3,2.7-1.5,1.6-2.7c-1.2-1.3-0.5-1.6,0.2-2.6c0.3-0.5,0.7-1.6,0.4-2c-0.5-0.7-0.9-0.2-1.3-0.4     c-0.9-0.5-1.7-0.1-2.2,0.6C22.6,58.9,22.8,59.7,22.2,60.2z"></path>
		</g>
	</g>
	<g id="XMLID_137_">
		<g id="XMLID_167_">
			<path id="XMLID_284_" class="st0" d="M27.8,52.3c2.7-1.6-0.5,0.3,1.6-0.9c-0.3-0.2-0.6-0.3-0.8-0.5c-0.9-0.5,0.6-1.4,1-1.6     c0.6-0.3,1.8-1.1,2.6-1.6c0.9-0.4,2-0.1,2.9,0.2l7.7,4.4c0.5,0.2,0.8,0.6,0.7,1c0,0.4-0.4,0.8-1,1.1c-0.4,0.3-0.9,0.5-1.4,0.8     c-0.6,0.4-1.5,0.6-2.3,0.7c-0.2,0-0.5,0-0.7,0c0,0,0,0.1,0,0.1l-2,1.2c-0.1,0-0.2,0-0.2,0l-8.1-4.8     C27.7,52.4,27.7,52.3,27.8,52.3z"></path>
			<polygon id="XMLID_283_" class="st0" points="98.3,83.1 94.8,85.2 31.5,47.4 35.1,46    "></polygon>
			<g id="XMLID_272_">
				<path id="XMLID_282_" class="st15" d="M94.3,32.7c2.1,1.2,3.7,4.1,3.7,6.3l-0.1,39c0,1.2-0.4,2-1.1,2.4l-1.9,1.1      c-0.3-0.6-0.4-1.1-0.4-1.5l-0.2,0.1l-1-24l1.1-15l0,0l0,0c-0.9-1.6-4.5-3-3.7-6.3L45.5,9.7L35.1,2.6l0,0l0,0l-0.9-1.2      c0.6-0.4,1.2-0.7,1.8-1.1c0.8-0.5,1.9-0.2,2.6,0.3l0,0l0,0L94.3,32.7z"></path>
				<path id="XMLID_281_" class="st16" d="M33,3.8c0-2.3,1.7-3.3,3.7-2.1l55.6,32.2c2,1.2,3.7,4,3.7,6.3l-0.1,39      c0,2.3-1.7,3.3-3.7,2.1L36.6,49.2c-2-1.2-3.7-4-3.7-6.3L33,3.8z"></path>
				<g id="XMLID_273_">
					<path id="XMLID_280_" class="st17" d="M33.9,4.8c0-2.3,1.6-3.2,3.6-2l35.2,20.5c2,1.1,3.6,3.9,3.6,6.2l-0.1,38       c0,2.3-1.6,3.2-3.6,2L37.4,49c-2-1.1-3.6-3.9-3.6-6.2L33.9,4.8z"></path>
					<g id="XMLID_274_">
						<linearGradient id="XMLID_295_" gradientUnits="userSpaceOnUse" x1="45.298" y1="20.7074" x2="45.9155" y2="41.9694">
							<stop offset="0" style="stop-color:#94E69A"></stop>
							<stop offset="1" style="stop-color:#17ADC9"></stop>
						</linearGradient>
						<path id="XMLID_279_" class="st18" d="M42.2,15.4c-3,1.8-4.9,5.7-4.9,11.1c0,11,7.6,24.3,17.1,29.9c0-2.7,0-6.2-0.1-10.2        c-4.6-2.9-8.2-9.3-8.2-14.6c0-2.6,0.9-4.5,2.4-5.4C46,22,43.8,18.2,42.2,15.4z"></path>
						<linearGradient id="XMLID_296_" gradientUnits="userSpaceOnUse" x1="54.4209" y1="32.5719" x2="54.9306" y2="41.2479">
							<stop offset="0" style="stop-color:#FDD248"></stop>
							<stop offset="1" style="stop-color:#FABD23"></stop>
						</linearGradient>
						<path id="XMLID_278_" class="st19" d="M54.7,30.1c-3.1-1.8-5.6-0.3-5.7,3.2c0,3.6,2.5,7.9,5.6,9.7c3.1,1.8,5.6,0.3,5.7-3.2        C60.3,36.2,57.8,31.9,54.7,30.1z"></path>
						<linearGradient id="XMLID_297_" gradientUnits="userSpaceOnUse" x1="50.7575" y1="17.4304" x2="51.4802" y2="25.652">
							<stop offset="0" style="stop-color:#FDD248"></stop>
							<stop offset="1" style="stop-color:#FABD23"></stop>
						</linearGradient>
						<path id="XMLID_277_" class="st20" d="M54.7,16.5c-4.7-2.7-8.9-3-12.1-1.4c1.7,2.8,3.9,6.6,6.3,10.8c1.5-0.7,3.5-0.5,5.7,0.8        c0.7,0.4,1.3,0.8,1.9,1.4c0.9-3.3,1.6-6.3,2.2-8.6C57.5,18.3,56.1,17.4,54.7,16.5z"></path>
						<linearGradient id="XMLID_298_" gradientUnits="userSpaceOnUse" x1="66.3716" y1="51.8888" x2="60.0187" y2="42.6398">
							<stop offset="0" style="stop-color:#6D6AFE"></stop>
							<stop offset="1" style="stop-color:#3FB0F7"></stop>
						</linearGradient>
						<path id="XMLID_276_" class="st21" d="M69.9,35.6c-2,0.2-4.7,0.5-7.6,0.8c0.6,1.7,1,3.5,1,5.1c0,5.3-3.7,7.5-8.3,5.1        c0,4,0,7.5,0.1,10.2c9.4,5.2,17,0.7,17.1-10.2C72.1,43.1,71.3,39.3,69.9,35.6z"></path>
						<linearGradient id="XMLID_299_" gradientUnits="userSpaceOnUse" x1="63.378" y1="31.8479" x2="64.7676" y2="23.227">
							<stop offset="0" style="stop-color:#1C8EF4"></stop>
							<stop offset="1" style="stop-color:#00CFDD"></stop>
						</linearGradient>
						<path id="XMLID_275_" class="st22" d="M59.5,20.1c-0.6,2.2-1.3,5.2-2.2,8.6c2,1.8,3.6,4.3,4.7,6.9c3-0.3,5.7-0.6,7.6-0.8        C67.3,29.2,63.7,23.9,59.5,20.1z"></path>
					</g>
				</g>
			</g>
			<path id="XMLID_271_" class="st23" d="M34.7,8.9c0.1-0.7,0.1-1.3,0.1-1.9c0.1-1.2,0.1-2.2,0.4-2.8c0.3-0.8,0.9-1,2-0.5     c1.3,0.5,1.8,2.2,2.4,4c0.5,1.7,1.1,3.6,2.4,4.3c1.2,0.7,1.9-0.1,2.5-0.8c0.6-0.7,1.3-1.5,2.4-1.1c0.5,0.2,0.9,0.5,1.1,1     c0.3,0.4,0.5,0.9,0.7,1.4l-0.2,0.1c-0.2-0.5-0.4-1-0.6-1.3c-0.3-0.4-0.6-0.7-1-0.9c-1-0.4-1.5,0.3-2.1,1     c-0.7,0.8-1.4,1.7-2.8,0.9c-1.4-0.8-2-2.7-2.5-4.5c-0.5-1.7-1-3.4-2.2-3.8c-1-0.4-1.5-0.2-1.7,0.4c-0.2,0.6-0.3,1.6-0.3,2.7     c0,0.6-0.1,1.3-0.1,1.9L34.7,8.9z"></path>
			<g id="XMLID_168_">
				<g id="XMLID_206_">
					<g id="XMLID_240_">
						<g id="XMLID_262_">
							<path id="XMLID_266_" class="st24" d="M42.1,52.5l1.3-4.8L38.6,45l-1.2,4.8l-0.9-0.5l6.8-25.4l0.9,0.5l-0.6,2l4.8,2.7l0.6-2         l0.9,0.5l-6.9,25.5L42.1,52.5L42.1,52.5z M45,41.8l-4.8-2.7l-1.4,5l4.8,2.7L45,41.8L45,41.8z M46.6,36l-4.8-2.7l-1.4,5         l4.8,2.7L46.6,36L46.6,36z M48.2,30.1l-4.8-2.7l-1.4,5l4.8,2.7L48.2,30.1z"></path>
							<g id="XMLID_263_">
								<polygon id="XMLID_265_" class="st24" points="36.9,55.7 43.1,53.1 42.1,52.5 35.7,55.2         "></polygon>
								<polygon id="XMLID_264_" class="st25" points="31,52.4 37.4,49.8 36.5,49.3 29.9,51.9         "></polygon>
							</g>
						</g>
						<g id="XMLID_241_">
							<polygon id="XMLID_261_" class="st26" points="30.3,52.4 30.9,52.5 31.7,50.9 31,50.7        "></polygon>
							<polygon id="XMLID_260_" class="st27" points="31.5,49.8 32.1,50 34.4,45 33.8,44.8        "></polygon>
							<polygon id="XMLID_259_" class="st27" points="34.2,43.9 34.9,44 37.2,39 36.5,38.9        "></polygon>
							<polygon id="XMLID_258_" class="st26" points="37,37.9 37.6,38.1 39.9,33.1 39.3,32.9        "></polygon>
							<polygon id="XMLID_257_" class="st26" points="39.7,32 40.3,32.1 42.7,27.2 42,27        "></polygon>
							<polygon id="XMLID_256_" class="st26" points="42.4,26 43.1,26.2 44,24.1 43.4,24        "></polygon>
							<polygon id="XMLID_255_" class="st28" points="43.4,24 44,24.1 43.2,23.7 42.6,23.5        "></polygon>
							<polygon id="XMLID_254_" class="st28" points="36.5,52.7 37.1,52.9 32.1,50 31.5,49.8        "></polygon>
							<polygon id="XMLID_253_" class="st28" points="39.2,46.7 39.9,46.9 34.9,44 34.2,43.9        "></polygon>
							<polygon id="XMLID_252_" class="st28" points="42,40.8 42.6,41 37.6,38.1 37,37.9        "></polygon>
							<polygon id="XMLID_251_" class="st28" points="44.7,34.9 45.3,35 40.3,32.1 39.7,32        "></polygon>
							<polygon id="XMLID_250_" class="st28" points="47.5,28.9 48.1,29.1 43.1,26.2 42.4,26        "></polygon>
							<polygon id="XMLID_249_" class="st26" points="36.1,55.7 36.8,55.9 49.9,27.5 49.3,27.4        "></polygon>
							<path id="XMLID_243_" class="st29" d="M36.5,52.7l2.3-5l-5-2.9l-2.3,5L36.5,52.7L36.5,52.7z M41.5,41.8l-2.3,5l-5-2.9l2.3-5         L41.5,41.8L41.5,41.8z M44.3,35.8l-5-2.9l-2.3,5l5,2.9L44.3,35.8L44.3,35.8z M47,29.9l-2.3,5l-5-2.9l2.3-5L47,29.9L47,29.9z          M42.6,23.5l0.9,0.5l-1,2.1l5,2.9l1-2.1l0.9,0.5L36.1,55.7l-0.9-0.5l0.7-1.6l-5-2.9l-0.7,1.6l-0.9-0.5L42.6,23.5z"></path>
							<polygon id="XMLID_242_" class="st28" points="49.3,27.4 49.9,27.5 49,27 48.4,26.9        "></polygon>
						</g>
					</g>
					<g id="XMLID_207_">
						<path id="XMLID_239_" class="st30" d="M38.6,46.2c-0.3,0.3-0.9,0.5-1.4,0.6l-0.9-0.5c0.4,0.3-1.6,0.2-1.4,0.7        c0.3,0.7,2.7,2.2,3,2.7c0,0,0.3-0.8,0.3-0.7c0.4,0.2,0.7,0.5,0.8,0.8c0,0.3-0.1,0.8-0.6,1.1c-0.4,0.3-0.8,1.2-1.7,1.2l0.6-1.7        L35,47.9l-2.1-0.7l-0.3,3.1l0.6,0.4c0,0.1,0,0.1-0.1,0.2l0.2,1.3l-1.7-0.7l0-1.8l0.1-3.6l3.6-1.6L38.6,46.2z"></path>
						<path id="XMLID_238_" class="st3" d="M31.1,51.2c-0.1,0.3-0.1,0.5-0.2,0.7c-0.3,0.4-0.7,0.7-1.2,1.1c-0.3,0.2-0.3,0.4,0,0.6        c0.2,0.1,0.8,0,1.1-0.1c0.6-0.2,0.9-0.6,1.1-0.7l0.2,0c0.1,0,0.7-0.2,0.8-0.4c0-0.1,0.1-0.3,0.1-0.5c0-0.5-0.1-0.5-0.2-0.9        C32,51.2,31.5,51.2,31.1,51.2z"></path>
						<linearGradient id="XMLID_300_" gradientUnits="userSpaceOnUse" x1="32.1828" y1="46.5149" x2="32.994" y2="46.8361">
							<stop offset="0" style="stop-color:#235DA3"></stop>
							<stop offset="1" style="stop-color:#123A76"></stop>
						</linearGradient>
						<path id="XMLID_237_" class="st31" d="M35.5,42.4c0,0-0.1,0.1-0.1,0.2c-0.1,0.1-0.1,0.1-0.2,0.2l0,0c-1.1,0.6-2.9,2.5-3.8,3.3        c-0.1,0.1-0.1,0.1-0.2,0.2c-0.1,0.1-0.2,0.3-0.2,0.4c0.1,1.7,0,3.2,0,4.8c0.1,0.2,0.5,0.3,0.9,0.3c0.3,0,0.6-0.1,0.7-0.3        c0-1.1,0.7-3.3,0.2-4.2c1-0.6,2.6-1.7,3.4-2.3l0,0L36,43.8l-0.3-0.9L35.5,42.4C35.5,42.4,35.5,42.4,35.5,42.4L35.5,42.4z"></path>
						<linearGradient id="XMLID_301_" gradientUnits="userSpaceOnUse" x1="32.8374" y1="46.3409" x2="33.4559" y2="46.611">
							<stop offset="0" style="stop-color:#235DA3"></stop>
							<stop offset="1" style="stop-color:#123A76"></stop>
						</linearGradient>
						<path id="XMLID_236_" class="st32" d="M35.5,42.4c0,0-0.1,0.1-0.1,0.2c-0.1,0.1-0.1,0.1-0.2,0.2l0,0c-0.6,0.3-1.3,0.9-2,1.6        c0,0.1,0.1,0.3,0.3,0.6c-0.1,0.1-1.6,1.5-1.7,1.6c-0.1,0.1-0.2,0.3-0.2,0.4c0,0.3,0,3.1,1,4.6c0-1.1,0.7-3.3,0.2-4.2        c1-0.6,2.6-1.7,3.4-2.3l0,0L36,43.8l-0.3-0.9L35.5,42.4C35.5,42.4,35.5,42.4,35.5,42.4L35.5,42.4z"></path>
						<path id="XMLID_235_" class="st3" d="M36.9,50.2l0-0.1l0.4-0.4c0.4-0.4,0.7-0.2,1-0.1c0.2,0.1,0.3,0.3,0.3,0.5        c0,0.3-0.3,0.6-0.5,0.7c-0.2,0.1-0.4,0.2-0.4,0.4c-0.3,0.5-0.6,0.8-0.9,0.9c-0.3,0.1-0.9,0-1.1-0.2c-0.1-0.1,0.1-0.2,0.1-0.3        C36.4,51.1,36.6,50.7,36.9,50.2z"></path>
						<linearGradient id="XMLID_302_" gradientUnits="userSpaceOnUse" x1="33.3585" y1="46.6038" x2="36.6282" y2="46.8157">
							<stop offset="0" style="stop-color:#235DA3"></stop>
							<stop offset="1" style="stop-color:#123A76"></stop>
						</linearGradient>
						<path id="XMLID_234_" class="st33" d="M37.8,43.4C37.8,43.4,37.7,43.4,37.8,43.4l-1.9-0.1c-0.3,0.3-0.4,0.4-0.7,1.1        c-0.4,0.3-1.4,0.9-2,1.5c-0.4,0.4-0.6,0.7-0.5,1c0.1,0.5,0.6,0.8,0.9,1c1,0.7,2.5,1.9,3.4,2.6c0.7,0.5,1.5-0.6,1.1-1.1        c-0.5-0.5-1.3-1.3-1.7-1.8l0,0c-0.3-0.3-0.5-0.5-0.7-0.7c0.4-0.1,0.7-0.2,1.1-0.3c2.3-0.7,2.4-1.8,1.5-3.2L37.8,43.4z"></path>
						<linearGradient id="XMLID_303_" gradientUnits="userSpaceOnUse" x1="32.7087" y1="40.9714" x2="33.81" y2="40.4002">
							<stop offset="0" style="stop-color:#FFB89E"></stop>
							<stop offset="1" style="stop-color:#FFA799"></stop>
						</linearGradient>
						<path id="XMLID_233_" class="st34" d="M35.8,38.8c-0.6,0.2-1.7,1-2.4,1.3c0,0-0.1,0-0.1,0c-0.1,0-0.2,0.1-0.2,0.1        c-0.3,0.2-0.4,0.2-0.6,0.4l-0.3,0.5l0.1,0.5c0,0.1,0.1,0.3,0.2,0.3c0.1,0,0.1,0,0.2,0.1c0,0,0.1,0,0.1,0c0,0,0,0,0,0        c0,0,0,0,0-0.1c0.1-0.1,0.1-0.4,0.2-0.6c0.2-0.1,0.4-0.1,0.5-0.3c0.1-0.1,0.1-0.2,0.1-0.3c0.6-0.3,2.4-0.6,2.9-0.9        c0.1-0.1,0.2-0.1,0.2-0.3c0-0.1,0.2-0.6,0.2-0.7c0.1-0.6-0.7-0.2-1.1-0.7L35.8,38.8z"></path>
						<path id="XMLID_232_" class="st35" d="M35.8,38.8c-0.6,0.2-1.7,1-2.4,1.3c-0.1,0.3,0.2,0.7,0.3,0.7c0.6-0.3,2.3-0.6,2.8-0.9        c0.1-0.1,0.2-0.1,0.2-0.3c0-0.1,0.2-0.6,0.2-0.7c0.1-0.6-0.7-0.2-1.1-0.7L35.8,38.8z"></path>
						<linearGradient id="XMLID_304_" gradientUnits="userSpaceOnUse" x1="36.9063" y1="42.7751" x2="36.2867" y2="37.7021">
							<stop offset="0" style="stop-color:#1C8EF4"></stop>
							<stop offset="1" style="stop-color:#00CFDD"></stop>
						</linearGradient>
						<path id="XMLID_231_" class="st36" d="M37.8,37.6c-0.2-0.1-0.7-0.4-1.2-0.7c-0.6-0.3-1.2-0.4-1.5-0.4c-0.5,0.1-0.8,0.4-1,0.8        c-0.2,0.6,0.1,1.3,0.2,2.3c0,0.3,0.1,0.6,0.3,0.9c0.3,0.8,0.4,1.6,0.3,2.5c0.3,0.7,1.4,1.4,2.5,1.5l0,0c0,0,0.1,0,0.1,0        c0.2,0,0.4,0,0.6,0c0.2,0,0.3-0.1,0.5-0.2c0,0,0,0,0,0c0,0,0,0,0,0c0,0,0.1-0.1,0.1-0.1c0-0.1,0.1-0.1,0.1-0.2        c0.2-1,0.2-3.1,0.1-4.6C38.8,38.6,38.8,38.1,37.8,37.6z"></path>
						<g id="XMLID_227_">
							<path id="XMLID_230_" class="st3" d="M37.4,43.5L34.7,45c0,0-0.1,0-0.1-0.1L31,42.8c0-0.1,0-0.1,0.1-0.2l2.4-1.3         c0.2-0.1,0.3-0.1,0.4,0l3.6,2l0,0.1C37.6,43.3,37.5,43.4,37.4,43.5z"></path>
							<linearGradient id="XMLID_305_" gradientUnits="userSpaceOnUse" x1="32.2965" y1="41.6149" x2="34.3838" y2="42.9625">
								<stop offset="0" style="stop-color:#235DA3"></stop>
								<stop offset="1" style="stop-color:#123A76"></stop>
							</linearGradient>
							<path id="XMLID_229_" class="st37" d="M37.4,43.3l-2.7,1.5c0,0-0.1,0-0.1-0.1L31,42.6c0-0.1,0-0.1,0.1-0.2l2.4-1.3         c0.2-0.1,0.3-0.1,0.4,0l3.6,2.1C37.6,43.2,37.5,43.3,37.4,43.3z"></path>
							<path id="XMLID_228_" class="st3" d="M36.5,43.6l-2,1.2c0,0,0,0-0.1-0.1l-3.3-1.9c0,0,0-0.1,0.1-0.2l1.8-1         c0.1,0,0.2-0.1,0.3,0l3.2,1.9C36.7,43.5,36.6,43.5,36.5,43.6z"></path>
						</g>
						<linearGradient id="XMLID_306_" gradientUnits="userSpaceOnUse" x1="35.0423" y1="43.2293" x2="35.8702" y2="42.9736">
							<stop offset="0" style="stop-color:#FFB89E"></stop>
							<stop offset="1" style="stop-color:#FFA799"></stop>
						</linearGradient>
						<path id="XMLID_226_" class="st38" d="M37.6,41.7c0,0-1.6,0.5-1.7,0.6c-0.1,0-0.1,0.1-0.2,0.1c-0.4,0.1-0.8,0.2-0.9,0.2        c-0.1,0.1-0.6,0.4-0.6,0.5c-0.1,0.1-0.1,0.2-0.3,0.4c-0.1,0.1,0.1,0.2,0.1,0.2c0.1-0.1,0.2-0.3,0.4-0.4        c0.1-0.1,0.3-0.2,0.4-0.2c-0.2,0.1-0.2,0.2-0.3,0.3c0,0.1-0.1,0.2-0.2,0.4c-0.1,0.1,0.1,0.2,0.1,0.1c0.1-0.1,0.2-0.3,0.3-0.4        c0.2-0.1,0.2-0.1,0.4-0.2l-0.3,0.3l-0.2,0.4c-0.1,0.1,0.1,0.2,0.1,0.1c0.1-0.1,0.2-0.2,0.3-0.4c0.1-0.1,0.2-0.2,0.4-0.3        l-0.2,0.3c0,0-0.2,0.2-0.2,0.3c0,0.1,0,0.2,0.1,0.1c0.1-0.1,0.2-0.2,0.2-0.2c0.2-0.2,0.3-0.2,0.4-0.3c0.2-0.1,0.4-0.3,0.5-0.4        c0,0,1.8-0.3,1.9-0.3L37.6,41.7z"></path>
						<linearGradient id="XMLID_307_" gradientUnits="userSpaceOnUse" x1="39.2469" y1="42.1638" x2="37.3728" y2="40.4806">
							<stop offset="0" style="stop-color:#1C8EF4"></stop>
							<stop offset="1" style="stop-color:#00CFDD"></stop>
						</linearGradient>
						<path id="XMLID_225_" class="st39" d="M36.3,43c-0.2-0.2-0.4-0.5-0.3-0.8c0.3-0.2,2-0.8,2.4-0.8c-0.2-0.5-0.4-0.8-0.7-1.4        c-0.3-0.7-0.5-1.3,0.2-1.8c0.5-0.4,0.9-0.1,1.1,0.4c0.1,0.3,0.2,0.6,0.3,0.9c0.2,0.5,0.4,1.4,0.5,2c0,0.1,0.1,0.3,0.1,0.4        c0,0.4-0.2,0.5-0.7,0.7C38.6,42.8,36.6,42.9,36.3,43z"></path>
						<path id="XMLID_224_" class="st40" d="M33.4,40.5c0.1,0.3-0.1,0.3-0.3,0.5c0,0.1,0,0.2-0.1,0.3c0.1,0.3,0.1,0.4-0.1,0.5        c0-0.1-0.1-0.3-0.1-0.4c0-0.5-0.1-0.4,0.3-0.9C33.2,40.3,33.3,40.4,33.4,40.5z"></path>
						<g id="XMLID_216_">
							<path id="XMLID_223_" class="st3" d="M29.3,39.5c0,0,0.1-0.1,0.1-0.1c0,0,0.1,0,0.2,0.1l3.4,2c0.2,0.1,0.2,0.1,0.3,0.3         c0.5,0.9,0.9,1.9,1.4,2.8c0.1,0.1,0.1,0.2,0.1,0.2L34.7,45L29.3,39.5z"></path>
							<linearGradient id="XMLID_308_" gradientUnits="userSpaceOnUse" x1="28.8287" y1="39.9464" x2="32.3187" y2="42.427">
								<stop offset="0" style="stop-color:#235DA3"></stop>
								<stop offset="1" style="stop-color:#123A76"></stop>
							</linearGradient>
							<path id="XMLID_222_" class="st41" d="M33.2,41.9l1.4,2.8c0.1,0.3,0.1,0.3-0.1,0.1l-3.4-2.1c-0.2-0.1-0.2-0.1-0.3-0.3         l-1.5-2.9c-0.1-0.2,0-0.2,0.2-0.1l3.4,2C33.1,41.7,33.1,41.7,33.2,41.9z"></path>
							<g id="XMLID_217_">
								<path id="XMLID_221_" class="st42" d="M31.5,40.9c0,0,0.1,0,0.1,0.1c0,0,0,0.1,0,0.1c0,0-0.1,0-0.1-0.1          C31.5,41,31.4,40.9,31.5,40.9z"></path>
								<path id="XMLID_220_" class="st43" d="M31.5,40.9C31.5,40.9,31.6,41,31.5,40.9c0.1,0.1,0.1,0.1,0.1,0.1          C31.6,41.1,31.5,41,31.5,40.9C31.5,41,31.5,40.9,31.5,40.9z"></path>
								<path id="XMLID_219_" class="st17" d="M31.5,41C31.5,41,31.5,41,31.5,41C31.6,41,31.6,41,31.5,41C31.6,41,31.5,41,31.5,41          C31.5,41,31.5,41,31.5,41z"></path>
								<path id="XMLID_218_" class="st43" d="M31.5,41C31.5,41,31.5,41,31.5,41C31.6,41,31.6,41,31.5,41C31.6,41,31.5,41,31.5,41          C31.5,41,31.5,41,31.5,41z"></path>
							</g>
						</g>
						<g id="XMLID_208_">
							<linearGradient id="XMLID_309_" gradientUnits="userSpaceOnUse" x1="35.7184" y1="36.5739" x2="35.6574" y2="37.6572">
								<stop offset="0" style="stop-color:#FF8A78"></stop>
								<stop offset="1" style="stop-color:#FFA799"></stop>
							</linearGradient>
							<path id="XMLID_215_" class="st44" d="M35.1,37.3c0,0,0-0.1-0.1-0.1c-0.1-0.1-0.1-0.4-0.2-0.8l1.2-0.6l0.3-0.1         c0,0.5,0.1,0.9,0.3,1.2c0.1,0.5-0.9,0.7-1.3,0.8C35.2,37.6,35.2,37.5,35.1,37.3z"></path>
							<path id="XMLID_214_" class="st45" d="M35.3,37.7c0-0.1,0-0.2-0.1-0.3c0-0.1-0.1-0.4-0.1-0.4c-0.1,0-0.2,0.6-0.3,0.9         C35,37.8,35,37.7,35.3,37.7z"></path>
							<path id="XMLID_213_" class="st45" d="M36.6,36.9c0,0.5-0.8,0.8-1.3,0.9c0.1,0.2,0.3,0.3,0.3,0.5c0.4-0.1,1-0.3,1.2-0.7         C36.9,37.2,36.8,37,36.6,36.9z"></path>
							<linearGradient id="XMLID_310_" gradientUnits="userSpaceOnUse" x1="34.8623" y1="35.7063" x2="35.5286" y2="35.4586">
								<stop offset="0" style="stop-color:#FFB89E"></stop>
								<stop offset="1" style="stop-color:#FFA799"></stop>
							</linearGradient>
							<path id="XMLID_212_" class="st46" d="M35.2,37.1c0.1-0.1,0.5-0.3,0.6-0.4c0.3-0.2,0.2-0.5,0.3-0.9c0.3-0.2,0.3-0.4,0.3-0.5         c0-0.4-0.2-0.8-0.6-1c-0.3-0.2-0.6-0.2-0.9-0.1c-0.7,0.2-0.9,0.6-0.9,1.2c0,0.1,0,0.2,0.1,0.3c0,0.1,0.1,0.1,0.1,0.2         c0,0.1,0,0.1,0,0.2c0,0.2,0.3,1.1,0.4,1.2C34.7,37.3,35,37.3,35.2,37.1z"></path>
							<linearGradient id="XMLID_311_" gradientUnits="userSpaceOnUse" x1="35.5788" y1="34.8494" x2="35.9822" y2="35.6878">
								<stop offset="0" style="stop-color:#5A2D68"></stop>
								<stop offset="1" style="stop-color:#22043D"></stop>
							</linearGradient>
							<path id="XMLID_211_" class="st47" d="M34.6,35.1c0.1-0.1,0.7-0.5,0.9-0.7c0.2-0.2,0.5-0.4,0.8-0.3c0.2,0.2,0.4,0.6,0.4,0.9         c0,0.4-0.2,0.7-0.4,1.1c-0.1,0.1-0.2-0.4-0.2-0.5c0,0.2-0.1,0.3-0.1,0.3c0,0-0.1,0-0.1-0.2c-0.1-0.3-0.2-0.4-0.2-0.6         c0-0.2-0.1-0.1-0.1-0.2C35.2,35,35,35.2,34.6,35.1z"></path>
							<path id="XMLID_210_" class="st48" d="M36.1,35.4c0.2-0.1,0.3,0.2,0.3,0.4c0,0.1-0.1,0.1-0.1,0.2c0,0.1-0.1,0.2-0.2,0.2         c-0.2,0-0.1-0.2-0.1-0.3C35.9,35.8,35.9,35.5,36.1,35.4z"></path>
							<linearGradient id="XMLID_312_" gradientUnits="userSpaceOnUse" x1="34.8452" y1="34.036" x2="35.1269" y2="34.4882">
								<stop offset="0" style="stop-color:#5A2D68"></stop>
								<stop offset="1" style="stop-color:#22043D"></stop>
							</linearGradient>
							<path id="XMLID_209_" class="st49" d="M36.3,34.2c-0.2,0.1-0.4,0.3-0.7,0.5c-0.4,0.3-0.8,0.5-1.2,0.5c-0.2,0-0.4-0.1-0.5-0.2         C33.4,33.7,35.8,33.1,36.3,34.2z"></path>
						</g>
					</g>
				</g>
				<g id="XMLID_169_">
					<g id="XMLID_171_">
						<g id="XMLID_190_">
							<g id="XMLID_199_">
								<g id="XMLID_202_">
									<path id="XMLID_205_" class="st50" d="M42.6,31.2c-0.2-0.4-0.2-0.5-0.7-0.6c-0.1,0-0.2,0.1-0.3,0.1           c-0.4,0.1-0.4,0.5-0.3,0.9c0.1,0.4,0.2,0.4,0.2,0.6c0,0.1,0,0.1,0,0.2c-0.1,0.3,0.1,0.6,0.2,0.8c0.2,0.3,0.6,0.5,1,0.4           c0.1,0,0.1-0.3,0.1-0.4c0-0.4-0.1-0.5-0.1-0.7c0-0.3,0-0.5,0-0.8C42.6,31.6,42.7,31.3,42.6,31.2z"></path>
									<path id="XMLID_204_" class="st51" d="M41.7,30.7c-0.5,0-0.5,0.5-0.4,0.9c0.1,0.4,0.2,0.4,0.2,0.6c0,0.1,0,0.1,0,0.2           c-0.1,0.3,0.1,0.6,0.2,0.8c0.2,0.3,0.6,0.5,1,0.4c0,0,0.1,0,0.1-0.1c0-0.1-0.1-0.4-0.1-0.5c-0.1-0.2-0.2-0.4-0.3-0.7           c0-0.2,0-0.5,0-0.8C42.2,31.1,42.1,30.8,41.7,30.7z"></path>
									<path id="XMLID_203_" class="st3" d="M41.3,31c-0.1,0.2-0.1,0.4,0,0.7c0.1,0.4,0.2,0.4,0.2,0.6c0,0.1,0,0.1,0,0.2           c-0.1,0.3,0.1,0.6,0.2,0.8c0.2,0.3,0.6,0.5,1,0.4c0,0,0,0,0,0c0-0.1,0-0.1,0-0.2c-0.1-0.4-0.5-0.9-0.5-1.2           c0-0.2,0-0.3,0-0.4c0-0.3-0.1-0.5-0.2-0.7C41.7,30.9,41.5,30.8,41.3,31z"></path>
								</g>
								<linearGradient id="XMLID_313_" gradientUnits="userSpaceOnUse" x1="45.1865" y1="21.0875" x2="43.1895" y2="26.0232">
									<stop offset="0" style="stop-color:#235DA3"></stop>
									<stop offset="1" style="stop-color:#123A76"></stop>
								</linearGradient>
								<path id="XMLID_201_" class="st52" d="M44.2,19.8c-0.1,0.8-1.5,1.3-1.1,2.9c0.1,0.6,0.5,2.7,0.4,3.3          c-0.1,0.6-0.7,0.9-0.9,1.6c-0.4,1-0.4,2.1-0.7,2.9c0.4,0,0.8,0.4,0.8,0.9c0.3-1.3,1.1-2.7,1.7-3.9c0.3-0.7,0.5-0.8,0.5-1.1          c0.2-1.2,0.3-2.9,0.2-4.1L45,22l-0.3-1.4L44.2,19.8z"></path>
								<linearGradient id="XMLID_314_" gradientUnits="userSpaceOnUse" x1="45.2455" y1="21.162" x2="43.6808" y2="26.221">
									<stop offset="0" style="stop-color:#235DA3"></stop>
									<stop offset="1" style="stop-color:#123A76"></stop>
								</linearGradient>
								<path id="XMLID_200_" class="st53" d="M44.6,20c-0.1,0.8-1.1,1.2-0.7,2.9c0.1,0.3,0.8,1.6,0.7,2.1c0,0.1-0.2,0.3-1.1,0.4          c0,0.3,0,0.5,0,0.7c0,0.3-0.1,0.5-0.3,0.6c0.6,1.5-0.7,3.3-0.5,4.8c0.3-1.3,1.1-2.7,1.7-3.9c0.3-0.7,0.5-0.8,0.5-1.1          c0.2-1.2,0.3-2.9,0.2-4.1L45,22l-0.3-1.4L44.6,20z"></path>
							</g>
							<g id="XMLID_191_">
								<g id="XMLID_193_">
									<path id="XMLID_198_" class="st54" d="M43.4,25.5c-0.1,0-0.2-0.1-0.2-0.1c-0.2,0-0.7,0.5-0.6,0.7c0.2,0,0.4,0.1,0.6,0.1           L43.4,25.5z"></path>
									<g id="XMLID_194_">
										<path id="XMLID_197_" class="st50" d="M43,25.2C43,25,43,24.9,42.9,24.8c-0.1-0.1-0.3-0.2-0.5-0.2c-0.2,0-0.4,0.2-0.6,0.4            c-0.1,0.2-0.1,0.3-0.2,0.4c-0.1,0.3-1,0.3-1.1,1.1c0,0.2,0.1,0.5,0.4,0.5c0.2,0,0.4-0.3,0.8-0.4c0.1-0.1,0.4-0.1,0.6-0.2            c0.3-0.1,0.6-0.1,0.6-0.2c0,0,0-0.1-0.1-0.2c0-0.1,0-0.2,0.1-0.3c0-0.1,0.1-0.1,0.2-0.1c0.1,0,0.1-0.1,0.1-0.2            C43.1,25.3,43.1,25.2,43,25.2z"></path>
										<path id="XMLID_196_" class="st51" d="M43,25c0-0.1,0-0.1-0.1-0.2c-0.1-0.1-0.3-0.2-0.5-0.2c-0.2,0-0.4,0.2-0.6,0.4            c-0.1,0.2-0.1,0.3-0.2,0.4c-0.1,0.3-0.3,0.1-0.5,0.3c-0.2,0.2-0.6,0.5-0.6,0.8c0,0.1,0,0.3,0.1,0.4c0,0,0,0,0,0            c0.5,0,1.2-0.9,1.5-1.1c0,0,0.1-0.1,0.1-0.1C42.6,25.6,43,25.2,43,25z"></path>
										<path id="XMLID_195_" class="st3" d="M42.4,24.6c-0.2,0-0.4,0.2-0.6,0.4c-0.2,0.3-0.3,0.5-0.7,0.7            c-0.3,0.1-0.6,0.5-0.6,0.9c0,0.1,0,0.3,0.1,0.4c0.3,0,0.7-0.4,0.8-0.6c0.5-0.6,0.2-0.4,0.9-0.9            C42.8,25.1,43,24.5,42.4,24.6z"></path>
									</g>
								</g>
								<linearGradient id="XMLID_315_" gradientUnits="userSpaceOnUse" x1="47.6447" y1="21.9092" x2="45.3007" y2="24.5401">
									<stop offset="0" style="stop-color:#235DA3"></stop>
									<stop offset="1" style="stop-color:#123A76"></stop>
								</linearGradient>
								<path id="XMLID_192_" class="st55" d="M46.3,20.4c0.3,0.6,0.5,1.1,0.6,1.4c0.2,0.5,0.3,1.5,0.3,2.5c0,0.5,0.2,2.6,0.1,3.1          c0,0.1-0.1,0.1-0.1,0.2c-0.2,0.2-0.5,0.2-0.7,0.1c-1.4-0.6-2.2-1.1-3.9-1.4c0.2-0.1,0.5-0.7,0.5-1c0.6,0.3,1.6,0.1,2.4,0.3          c-0.4-1.2-0.6-1.5-1-2c-0.5-0.6-0.6-1.1-0.4-1.9c0.1-0.5,0.3-1,0.5-1.5L46.3,20.4z"></path>
							</g>
						</g>
						<g id="XMLID_184_">
							<linearGradient id="XMLID_316_" gradientUnits="userSpaceOnUse" x1="47.4188" y1="12.2403" x2="46.9429" y2="12.9325">
								<stop offset="0" style="stop-color:#FFB89E"></stop>
								<stop offset="1" style="stop-color:#FFA799"></stop>
							</linearGradient>
							<path id="XMLID_189_" class="st56" d="M45.3,14.9c0.4-0.6,0.8-1.1,1.1-1.8c0.1-0.3,0.2-0.5,0.3-0.8c0.1-0.2,0.2-0.2,0.4-0.3         c0.2-0.1,0.3-0.1,0.5-0.1c0.2,0,0.4,0.1,0.4,0.2c0.2,0.2-0.4,0.4-0.4,0.4c-0.1,0.2-0.1,0.3-0.2,0.5c-0.2,0.2-0.3,0.2-0.4,0.3         c-0.2,0.4-0.5,1.7-0.7,2c-0.2,0.2-1.8,1.8-2.1,1.3c-0.2-0.3-0.3-0.4-0.1-0.6C44.3,15.5,45.1,15.1,45.3,14.9z"></path>
							<path id="XMLID_188_" class="st23" d="M46.6,12.2c0.7,0.1,1.7,0.3,2.2,0.2c-0.3-0.2-1.4-0.3-2.1-0.4         C46.4,11.9,46.4,12.2,46.6,12.2z"></path>
							<path id="XMLID_187_" class="st48" d="M46.8,13.1c0.4,0,0.3-0.2,0.4-0.5c0.1,0,0.1-0.1,0.2-0.2c0.3-0.1,0.3-0.2,0.2-0.3         c-0.1,0-0.3,0-0.3,0.1c-0.4,0.2-0.6,0.3-0.8,0.9l0.2,0.2L46.8,13.1z"></path>
							<path id="XMLID_186_" class="st57" d="M47.6,11.9l0.3,0.2c-0.1,0.2-0.3,0.1-0.4,0l-0.2,0l-0.2-0.1c0.1,0,0.2,0,0.2,0         C47.5,11.9,47.6,11.9,47.6,11.9z"></path>
							<linearGradient id="XMLID_317_" gradientUnits="userSpaceOnUse" x1="45.0913" y1="16.4555" x2="45.5859" y2="13.5838">
								<stop offset="0" style="stop-color:#6D6AFE"></stop>
								<stop offset="1" style="stop-color:#3FB0F7"></stop>
							</linearGradient>
							<path id="XMLID_185_" class="st58" d="M45.3,14.9c0.3-0.6,0.6-1,0.8-1.5c0-0.1,0.1-0.1,0.1-0.2c0-0.1,0.1-0.1,0.1-0.2         c0.1,0.1,0.3,0.2,0.5,0.2c0,0.1,0,0.1-0.1,0.2c0,0.1,0,0.1,0,0.2c-0.2,0.6-0.5,1.5-0.6,1.7c-0.2,0.2-1.8,1.8-2.1,1.2         c-0.2-0.3-0.3-0.4-0.2-0.6C44.2,15.5,45.1,15.1,45.3,14.9z"></path>
						</g>
						<linearGradient id="XMLID_318_" gradientUnits="userSpaceOnUse" x1="44.2153" y1="19.2046" x2="45.1742" y2="16.5655">
							<stop offset="0" style="stop-color:#6D6AFE"></stop>
							<stop offset="1" style="stop-color:#3FB0F7"></stop>
						</linearGradient>
						<path id="XMLID_183_" class="st59" d="M46.4,20.5c-0.1-0.4-0.2-0.7-0.3-1c-0.1-0.6-0.2-0.8-0.2-1.3c0.4-0.3,0.4-0.7,0.3-0.8        c0-0.1-0.3-0.6-0.4-0.6c-0.5-0.6-2-1.2-2.6-1.3c-0.5-0.1-0.6,0.5-0.5,1c0.1,0.8,0.8,1.5,1.1,2.3c0.1,0.4,0.4,0.6,0.1,1.1        C43.9,20.6,46.4,21.1,46.4,20.5z"></path>
						<g id="XMLID_178_">
							<g id="XMLID_180_">
								<linearGradient id="XMLID_319_" gradientUnits="userSpaceOnUse" x1="44.5221" y1="15.1062" x2="44.5132" y2="16.25">
									<stop offset="0" style="stop-color:#FF8A78"></stop>
									<stop offset="1" style="stop-color:#FFA799"></stop>
								</linearGradient>
								<path id="XMLID_182_" class="st60" d="M45.6,15.4c-0.1,0-0.4,0-0.5,0c0,0.2,0,0.5,0,0.8c-0.1,0.1-0.4,0.3-1.3,0          c0-0.1,0.1-1.1,0.1-1.1c-0.1-0.2-0.4-0.4-0.5-0.7C43.6,13.8,45.7,15.4,45.6,15.4z"></path>
								<linearGradient id="XMLID_345_" gradientUnits="userSpaceOnUse" x1="45.6237" y1="14.0358" x2="45.1274" y2="14.0675">
									<stop offset="0" style="stop-color:#FFB89E"></stop>
									<stop offset="1" style="stop-color:#FFA799"></stop>
								</linearGradient>
								<path id="XMLID_181_" class="st61" d="M45.7,15.4c0,0.1-0.6-0.2-0.7-0.2c-0.5,0-1,0.1-1.1-0.1c-0.1-0.2-0.4-0.4-0.5-0.7          c-0.2-0.5-0.1-1,0.3-1.3c0.7-0.6,1.9-0.2,2,0.5c0.1,0.3,0,0.4,0,0.6C45.7,14.3,46,14.7,45.7,15.4z"></path>
							</g>
							<linearGradient id="XMLID_346_" gradientUnits="userSpaceOnUse" x1="41.1917" y1="14.3514" x2="41.9163" y2="17.4986">
								<stop offset="0" style="stop-color:#5A2D68"></stop>
								<stop offset="1" style="stop-color:#22043D"></stop>
							</linearGradient>
							<path id="XMLID_179_" class="st62" d="M45.4,14.9c0.5-0.9,0.5-2.6-0.8-2.6c-0.3-0.1-0.7-0.1-1.1-0.1c-0.4,0-0.7,0.1-1.1,0.5         c-0.7,0.7-0.4,1-1.1,1c-0.6,0.1-0.8,0.3-0.9,0.6c-0.3,0.6-0.5,0.6-0.7,0.7c-0.4,0-1-0.3-1.5-0.2c-0.4,0.1-0.8,0.2-1.1,0.2         c-0.8,0-0.4,0.8-0.2,1.6c0.4,1.3,1.9,2.2,3.2,2.1c1-0.1,0.8-0.8,2.5-0.3c1.1,0.4,1.9-0.6,2-1.5         C44.8,15.5,45.1,15.6,45.4,14.9z"></path>
						</g>
						<g id="XMLID_172_">
							<path id="XMLID_177_" class="st63" d="M47,21c0.1,0,0.1,0,0.2-0.1c0.1-0.1,0.1-0.4,0-0.5c0,0-0.1,0-0.3,0         c-0.3,0.1-0.5,0-0.5,0.6L47,21z"></path>
							<path id="XMLID_176_" class="st63" d="M47,21c0.1,0,0.1-0.1,0.1-0.2c0-0.1,0-0.1,0-0.1c0,0,0.2,0,0.2-0.1         c0,0-0.2-0.1-0.2-0.1c0,0-0.1,0-0.2,0c-0.3,0.1-0.5,0-0.5,0.6L47,21z"></path>
							<linearGradient id="XMLID_347_" gradientUnits="userSpaceOnUse" x1="47.002" y1="20.6243" x2="46.1179" y2="20.2613">
								<stop offset="0" style="stop-color:#FFB89E"></stop>
								<stop offset="1" style="stop-color:#FFA799"></stop>
							</linearGradient>
							<path id="XMLID_175_" class="st64" d="M45.8,20.5c0.3,0.2,0.5,0.5,0.6,0.5c0.2,0.1,0.4,0,0.6-0.1c0,0,0.1,0,0.1,0         c0.1,0,0.1,0,0.1-0.1c-0.1-0.1-0.2-0.1-0.4-0.3c-0.1-0.1-0.1-0.1,0-0.1c0.1,0,0.3,0.3,0.4,0.1c0,0-0.2-0.2-0.2-0.2         c-0.1-0.1-0.2-0.1-0.3-0.2c-0.1,0-0.1,0-0.2,0c-0.1,0-0.3,0-0.4,0c-0.9-0.3-1.3-0.9-1.9-1.3c-0.2-0.1-0.4-0.1-0.6,0         c-0.1,0.1-0.3,0.1-0.3,0.2c0,0.1,0,0.2,0.1,0.3C43.9,19.9,45.1,20,45.8,20.5z"></path>
							<path id="XMLID_174_" class="st54" d="M45.1,16.8c0.1-0.2,0.3-0.3,0.5-0.1c0.3,0.2,0.3,0.8,0.1,1.1c-0.3,0.4-0.8,0.9-1.4,1.3         c-0.4,0.3-0.7,0.4-0.8,0.3c-0.1-0.1-0.1-0.1-0.1-0.3c0-0.2,0.2-0.5,0.5-0.7C44.2,17.9,44.6,17.3,45.1,16.8z"></path>
							<linearGradient id="XMLID_348_" gradientUnits="userSpaceOnUse" x1="44.0276" y1="19.7187" x2="46.0277" y2="18.2064">
								<stop offset="0" style="stop-color:#6D6AFE"></stop>
								<stop offset="1" style="stop-color:#3FB0F7"></stop>
							</linearGradient>
							<path id="XMLID_173_" class="st65" d="M45.8,20.6c0.2,0,0.3-0.4,0.3-0.5C46,20,46,20,45.9,20c0-0.1,0-0.1-0.1-0.1         c-0.5-0.3-0.9-0.7-1.4-0.9c0.5-0.4,1-0.9,1.2-1.2c0.2-0.3,0.2-0.9-0.1-1.1c-0.2-0.1-0.5,0-0.6,0.1c-0.4,0.5-0.9,1.1-1.3,1.5         c-0.2,0.2-0.4,0.5-0.4,0.7c0,0,0,0,0,0c0,0.1,0,0.2,0.1,0.3c0.4,0.5,1.3,0.7,2,1.1c0.1,0,0.1,0,0.2,0         C45.6,20.5,45.7,20.5,45.8,20.6z"></path>
						</g>
					</g>
					<polygon id="XMLID_170_" class="st29" points="44.3,35.5 39.6,32.8 39.9,32.1 44.6,34.8      "></polygon>
				</g>
			</g>
		</g>
		<g id="XMLID_138_">
			<path id="XMLID_166_" class="st66" d="M71.4,28.6c-0.1-0.3-0.2-0.6-0.4-0.9c-0.1-0.2-0.2-0.4-0.3-0.6c0,0,0,0,0,0     c-0.5-1.1-1-2.1-1.5-3.1c0.1,0.7,0.1,1.5,0.2,2.1c0.1,0.1,0.3,0.2,0.3,0.5c0,0.1,0,0.2,0,0.3c0,0.3,0.1,0.7,0.2,1.1l-0.1,0     l-0.3-0.8c0,0.3,0,0.3,0,0.6c0,0.2,0.1,0.4-0.1,0.5c-0.2,0.3-0.8,0.8-1,0.6c0,0-0.1-0.1-0.1-0.1c0-0.1,0-0.2,0-0.4l-0.2-2.1     c-0.6-1.8-1.2-3.6-1.7-5.5c-0.2-0.3,0-0.7,0.4-1c0.6-0.4,1.8-1.1,2.5-1.5l3.7,2.1c-0.7,0.6-1.6,0.7-3.4,1.4     c0.3,0.6,0.6,1.1,0.8,1.7c0.3,0.8,0.6,2,0.9,3.1c0.1,0,0.3,0.1,0.4,0.4c0,0.1,0.1,0.2,0.1,0.3c0.1,0.3,0.3,0.7,0.5,1l-0.1,0     L72,27.5c0.1,0.3,0.1,0.3,0.2,0.6c0.1,0.2,0.2,0.3,0.1,0.5c-0.1,0.3-0.5,1-0.7,0.9c0,0-0.1-0.1-0.1-0.1c0-0.1-0.1-0.2-0.1-0.4     C71.4,28.9,71.4,28.7,71.4,28.6z"></path>
			<g id="XMLID_163_">
				<linearGradient id="XMLID_349_" gradientUnits="userSpaceOnUse" x1="72.0461" y1="10.0588" x2="73.0548" y2="14.4177">
					<stop offset="0" style="stop-color:#5A2D68"></stop>
					<stop offset="1" style="stop-color:#22043D"></stop>
				</linearGradient>
				<path id="XMLID_165_" class="st67" d="M70.7,8.7c-0.4-0.1-0.7,0.2-0.9,0.6c-0.2,0.4-0.2,1-0.1,1.3c0.3,0.9-0.2,1.4-0.4,1.8      c-0.1,0.2-0.1,0.4-0.1,0.7c0,0.3,0.2,0.5,0.4,0.8c0,0.3,0.1,0.6,0.2,0.8c0.4,0.9,2,1.3,3.4,1.3c1.2-0.1,2.3-0.5,2.8-0.9      c0.6-0.5,0.6-1.8-0.3-2c-0.2,0-0.5-0.1-0.7-0.3c-0.1-0.2,0-0.6,0-1.1c0-0.5-0.1-1.1-0.9-1.3c-0.3-0.1-0.6-0.1-0.8-0.3      c-0.5-0.4-0.3-1-0.9-1.4c-0.3-0.2-0.9-0.3-1.5-0.1C70.9,8.6,70.8,8.7,70.7,8.7z"></path>
				<path id="XMLID_164_" class="st68" d="M70.3,9.2c0,0.3,0.1,0.5,0.2,0.7c0.4,0.5,0.5,0.5,0.7,1.1c0.3-0.2,0.5-0.2,0.6,0      c0.1,0.3,0.1,0.5,0.1,0.9c0.1,0.6,0.7-0.2,1.3,0.2c0.5,0.4,0.2,0.7,0.4,1.3c0.1,0.2,0.1,0.5,0.3,0.6c0.7,0.3,0.9,1.1-0.3,1.5      c-0.7,0.2-1.8,0.2-2.7-0.1c-1.2-0.4-1.9-2.1-1.6-2.9c0.1-0.3,0.5-0.6,0.5-0.9C69.9,10.7,69.8,10.1,70.3,9.2z"></path>
			</g>
			<path id="XMLID_162_" class="st50" d="M70.5,15.5c-0.5,0.4-1.1,0.8-2.2,1.2c-0.2,0.2-0.7-0.2-0.4-0.5c0,0,0.1-0.1,0.2-0.1     c0.7-0.4,1.3-1.1,2-1.4c0.4-0.1,0.7,0,0.7,0.2C70.9,15.1,70.9,15.3,70.5,15.5z"></path>
			<path id="XMLID_161_" class="st69" d="M68.2,21.4c-0.1-0.2-0.3-0.4-0.6-0.5l-0.4-0.8c-0.1,0.1-0.3,0.2-0.4,0.3     c-0.3,0.2-0.4,0.5-0.4,0.9c0.5,0.1,1,0,1.6-0.1L68.2,21.4z"></path>
			<g id="XMLID_158_">
				<linearGradient id="XMLID_350_" gradientUnits="userSpaceOnUse" x1="68.1226" y1="27.5393" x2="68.6265" y2="26.4878">
					<stop offset="0" style="stop-color:#FFB89E"></stop>
					<stop offset="1" style="stop-color:#FFA799"></stop>
				</linearGradient>
				<path id="XMLID_160_" class="st70" d="M68.7,25.8c0.5,0.4,0.1,0.4,0.3,1c0,0.1,0.1,1.1,0.1,1.1s-0.5,0.3-0.6,0.3      c0,0-0.4,0-0.4,0c0-0.1,0-0.2,0-0.2c0.1-0.4,0-0.8-0.1-1.2c0-0.3,0-0.5-0.1-0.8L68.7,25.8z"></path>
				<path id="XMLID_159_" class="st71" d="M68,28.1c0,0.2,0,0.3,0,0.4c0,0.1,0,0.1,0.1,0.1c0.2,0.1,0.8-0.4,1-0.6      c0.1-0.2,0.1-0.3,0.1-0.5c0-0.3,0-0.3,0-0.6l0.3,0.8l0.1,0c-0.1-0.3-0.2-0.8-0.2-1.1c0-0.1,0-0.2,0-0.3      c-0.1-0.4-0.3-0.5-0.5-0.6c0.1,0.2,0,0.6,0.1,1.1C68.8,27.4,68.5,28,68,28.1z"></path>
			</g>
			<linearGradient id="XMLID_351_" gradientUnits="userSpaceOnUse" x1="67.0783" y1="19.4868" x2="69.1419" y2="21.3722">
				<stop offset="0" style="stop-color:#235DA3"></stop>
				<stop offset="1" style="stop-color:#123A76"></stop>
			</linearGradient>
			<path id="XMLID_157_" class="st72" d="M70.7,16.9c-0.2,0.1-0.7,0.3-1.4,0.8c-0.7,0.4-2.1,1.3-2.9,1.9c-0.4,0.2-0.5,0.7-0.4,1     c0.5,1.8,1.1,3.6,1.7,5.5c0.2,0.2,0.7,0.1,1-0.2c-0.2-1-0.1-2.5-0.4-3.5c-0.2-0.6-0.4-1.1-0.7-1.7c1.2-0.5,2.6-1.3,3.8-2     L70.7,16.9z"></path>
			<linearGradient id="XMLID_352_" gradientUnits="userSpaceOnUse" x1="67.5789" y1="19.5459" x2="69.5104" y2="21.3106">
				<stop offset="0" style="stop-color:#235DA3"></stop>
				<stop offset="1" style="stop-color:#123A76"></stop>
			</linearGradient>
			<path id="XMLID_156_" class="st73" d="M70.7,16.9c-0.2,0.1-0.7,0.3-1.4,0.8c-0.2,0.1-0.4,0.2-0.6,0.3c0.1,0.1,0.2,0.3,0.3,0.5     c-1.5,1.3-2.2,1.6-2.4,2.1c-0.2,0.8,0.2,1.6,0.8,2.6c0.4,0.9,0.9,2,1.2,2.7c0.1,0,0.1-0.1,0.2-0.1c-0.2-1-0.1-2.5-0.4-3.5     c-0.2-0.6-0.4-1.1-0.7-1.7c1.2-0.5,2.6-1.3,3.8-2L70.7,16.9z"></path>
			<g id="XMLID_153_">
				<linearGradient id="XMLID_353_" gradientUnits="userSpaceOnUse" x1="70.821" y1="28.1073" x2="70.9974" y2="26.9704">
					<stop offset="0" style="stop-color:#FFB89E"></stop>
					<stop offset="1" style="stop-color:#FFA799"></stop>
				</linearGradient>
				<path id="XMLID_155_" class="st74" d="M70.8,26.3c0.6,0.2,0.2,0.4,0.5,0.9c0,0,0.4,1,0.4,1s-0.4,0.4-0.5,0.5      c0,0-0.4,0.1-0.4,0.1c0-0.1,0-0.2,0-0.2c0-0.4-0.2-0.7-0.4-1.1c-0.1-0.2-0.2-0.5-0.3-0.7L70.8,26.3z"></path>
				<path id="XMLID_154_" class="st71" d="M70.8,28.3c0,0.1,0,0.3,0.1,0.4c0,0.2,0,0.3,0.1,0.4c0,0.1,0.1,0.1,0.1,0.1      c0.2,0.1,0.6-0.6,0.7-0.9c0.1-0.2,0-0.3-0.1-0.5c-0.1-0.3-0.1-0.3-0.2-0.6l0.5,0.7l0.1,0c-0.2-0.3-0.4-0.7-0.5-1      c0-0.1-0.1-0.2-0.1-0.3c-0.2-0.3-0.4-0.4-0.6-0.4c0.2,0.2,0.2,0.6,0.4,1c0.2,0.5,0.2,1,0.1,1.2c-0.1,0.1-0.3,0.1-0.4,0.1      C70.9,28.6,70.8,28.4,70.8,28.3z"></path>
			</g>
			<linearGradient id="XMLID_354_" gradientUnits="userSpaceOnUse" x1="68.4534" y1="19.707" x2="70.8947" y2="21.8176">
				<stop offset="0" style="stop-color:#235DA3"></stop>
				<stop offset="1" style="stop-color:#123A76"></stop>
			</linearGradient>
			<path id="XMLID_152_" class="st75" d="M69.3,21.5c0.3,0.6,0.6,1.1,0.8,1.7c0.3,0.8,0.7,2,1,3.2c-0.2,0.2-0.7,0.5-0.9,0.4     c-0.6-1.4-1.5-2.5-2.1-3.5c-0.3-0.5-0.5-1-0.9-1.6c0,0,0-0.1,0-0.1C67,21.3,67,21,67.3,20.7c0.2-0.2,0.5-0.5,0.7-0.6     c0.7-0.5,1.3-1,2-1.4c-0.3-0.5-0.7-0.5-0.4-0.9c0,0,2.6,0.1,3.2,0.1c0.1,0.4,0.2,0.7,0.2,1c0.1,0.8-0.1,1.2-0.5,1.5     C71.8,20.9,71,20.8,69.3,21.5z"></path>
			<linearGradient id="XMLID_355_" gradientUnits="userSpaceOnUse" x1="70.5822" y1="17.4726" x2="71.709" y2="12.9364">
				<stop offset="0" style="stop-color:#6D6AFE"></stop>
				<stop offset="1" style="stop-color:#3FB0F7"></stop>
			</linearGradient>
			<path id="XMLID_151_" class="st76" d="M72.8,15.9c-0.4,0.8,0.1,1.2-0.1,1.7l0.1,0.2c-0.6,0.4-2.9,0.8-3.4-0.1l0-0.4     c-0.1-0.2,0-1,0-1.1c0.1-0.4,0-0.7,0.1-1.2c0-0.1,0-0.3,0-0.4c0,0,0-0.1,0-0.1c-0.2-0.1-0.3-0.3-0.3-0.5c-0.1-0.3,0-0.6,0.2-0.9     c0.2-0.3,0.3-0.5,0.4-0.7c0-0.2,0.1-0.3,0.1-0.4c0-0.1,0.1-0.1,0.1-0.2c0.1-0.2,0.4-0.3,0.8-0.1c0.4,0.2,0.9,0.4,1.4,0.7     c0.2,0.1,0.8,0.6,1,0.8c0.1,0.1,0.1,0.2,0.1,0.4C73.3,14.3,73.1,15.3,72.8,15.9z"></path>
			<linearGradient id="XMLID_356_" gradientUnits="userSpaceOnUse" x1="70.9359" y1="17.6795" x2="72.1032" y2="13.804">
				<stop offset="0" style="stop-color:#6D6AFE"></stop>
				<stop offset="1" style="stop-color:#3FB0F7"></stop>
			</linearGradient>
			<path id="XMLID_150_" class="st77" d="M72.8,15.9c-0.4,0.8,0.1,1.2-0.1,1.7l0.1,0.2c-0.6,0.4-2.9,0.8-3.4-0.1l0-0.4     c-0.1-0.2,0-0.7,0-1c0.7-0.1,2.2-0.1,2.2-0.6c0.1-2.2,0.7-2.9,1.4-2.7c0.1,0.1,0.1,0.1,0.2,0.2c0.1,0.1,0.1,0.2,0.1,0.4     C73.3,14.3,73.1,15.3,72.8,15.9z"></path>
			<g id="XMLID_147_">
				<linearGradient id="XMLID_357_" gradientUnits="userSpaceOnUse" x1="69.1061" y1="17.0783" x2="69.6397" y2="16.9516">
					<stop offset="0" style="stop-color:#FFB89E"></stop>
					<stop offset="1" style="stop-color:#FFA799"></stop>
				</linearGradient>
				<path id="XMLID_149_" class="st78" d="M70,16.8c-0.4,0-0.8-0.1-1,0c-0.2,0-0.5,0-0.7,0c-0.1,0-0.1,0.2,0,0.2c0.1,0,0.5,0,0.5,0      c0,0,0,0,0,0c0,0.1,0.1,0.3,0.1,0.4c0.1,0.1,0.5,0.1,0.7,0.2c0.1,0,0.4-0.2,0.6-0.2c0.1,0,0.2,0,0.2,0l-0.1-0.6      C70.2,16.7,70.1,16.8,70,16.8z"></path>
				<linearGradient id="XMLID_358_" gradientUnits="userSpaceOnUse" x1="72.1216" y1="16.7922" x2="71.3165" y2="14.1217">
					<stop offset="0" style="stop-color:#6D6AFE"></stop>
					<stop offset="1" style="stop-color:#3FB0F7"></stop>
				</linearGradient>
				<path id="XMLID_148_" class="st79" d="M70.2,17.4c0.1,0,0.1,0,0.2,0c0.1,0,0.2,0.1,0.3,0.1c0.8,0,1.4,0,1.9-0.2      c0.1,0,0.2-0.1,0.3-0.1c0.1,0,0.3-0.2,0.3-0.4c0.1-1.2,0.4-2.4,0.2-3.2c-0.1-0.3-0.3-0.5-0.6-0.5c-0.4,0.1-0.6,0.8-0.6,1.4      c0,0.6,0.1,1.2,0.1,1.9c-0.5,0-1.2,0.2-1.7,0.3c-0.1,0-0.1,0.1-0.2,0.1c-0.1,0-0.1,0-0.2,0C70.1,16.8,70.1,17.1,70.2,17.4z"></path>
			</g>
			<g id="XMLID_142_">
				<path id="XMLID_146_" class="st48" d="M67.3,16.2c-0.1,0-0.2,0-0.3,0c0,0.2,0.2,0.2,0.4,0.2L67.3,16.2z"></path>
				<path id="XMLID_145_" class="st80" d="M70.5,18.6C70.5,18.6,70.5,18.7,70.5,18.6l-0.2,0.1l-1.9-1.4L68.2,17l-2-2.1l-0.3-0.1      c0,0,0.1-0.1,0.2-0.1c0,0,0.1,0,0.2,0.1l1.8,1.3c0.1,0.1,0.2,0.1,0.2,0.2L70.5,18.6z"></path>
				<linearGradient id="XMLID_359_" gradientUnits="userSpaceOnUse" x1="68.2716" y1="16.4161" x2="68.1139" y2="16.8428">
					<stop offset="0" style="stop-color:#235DA3"></stop>
					<stop offset="1" style="stop-color:#123A76"></stop>
				</linearGradient>
				<path id="XMLID_144_" class="st81" d="M70.4,18.7L70.4,18.7l-2-1.4l-0.3-0.3L66,15l-0.2-0.1c0,0,0.1,0,0.1,0c0,0,0.1,0,0.2,0.1      l1.8,1.3c0.1,0.1,0.2,0.1,0.2,0.2L70.4,18.7C70.4,18.7,70.4,18.7,70.4,18.7z"></path>
				<path id="XMLID_143_" class="st48" d="M67.5,16.3c-0.1,0.1-0.1,0-0.1,0.1c0,0.1,0.3,0.5,0.5,0.6c0,0,0.1,0,0.1,0      c0,0,0-0.1-0.1-0.1l-0.2-0.4C67.6,16.3,67.5,16.3,67.5,16.3z"></path>
			</g>
			<g id="XMLID_139_">
				<linearGradient id="XMLID_360_" gradientUnits="userSpaceOnUse" x1="71.3803" y1="11.5935" x2="71.1265" y2="12.3565">
					<stop offset="0" style="stop-color:#FF8A78"></stop>
					<stop offset="1" style="stop-color:#FFA799"></stop>
				</linearGradient>
				<path id="XMLID_141_" class="st82" d="M71.6,11.1c-0.1,0.4,0,0.8,0.1,1.2c-0.3,0.3-0.9,0.2-1.1-0.1c0-0.2,0.1-0.4,0.1-0.5      L71.6,11.1z"></path>
				<linearGradient id="XMLID_361_" gradientUnits="userSpaceOnUse" x1="70.1907" y1="10.662" x2="71.4492" y2="10.6447">
					<stop offset="0" style="stop-color:#FFB89E"></stop>
					<stop offset="1" style="stop-color:#FFA799"></stop>
				</linearGradient>
				<path id="XMLID_140_" class="st83" d="M70.2,9.4C70.1,9.7,70,9.9,70,10.3c0,0.1,0,0.2,0,0.2c-0.2,0.4-0.1,0.5-0.1,0.8      c0.1,0.3,0.1,0.4,0.2,0.5c0.1,0.1,0.2,0.1,0.4,0.1c0.3,0,0.7-0.2,0.9-0.3c0.2-0.1,0.2-0.2,0.3-0.4c0.3-0.2,0.1-0.4,0-0.4      c-0.3,0-0.3,0.2-0.4,0.3C71.2,10.7,70.3,9.8,70.2,9.4z"></path>
			</g>
		</g>
	</g>
	<g id="XMLID_111_">
		<path id="XMLID_136_" class="st0" d="M74,73.4l-6.2-3.5c-0.7-0.3-1.6-0.6-2.3-0.2c-0.6,0.3-1.7,1-2.1,1.3    c-0.3,0.2-1.5,0.9-0.8,1.3c2.2,1.2,4.4,2.5,6.6,3.8c0.4,0.2,1,0.3,1.7,0.3c0.6-0.1,1.3-0.2,1.8-0.5c0.4-0.2,0.7-0.4,1.1-0.6    c0.5-0.3,0.7-0.6,0.8-0.9C74.6,73.9,74.4,73.6,74,73.4z"></path>
		<g id="XMLID_112_">
			<path id="XMLID_135_" class="st57" d="M62.7,49.8c-0.2,0-0.2,0.2-0.1,0.3c0.1,0.1,0.3,0.3,0.2,0.4c-0.1,0.1,0.5,0.6,0.5,0.6     c0-0.4-0.1-0.6-0.1-0.7C62.9,50.1,62.9,50.3,62.7,49.8z"></path>
			<linearGradient id="XMLID_362_" gradientUnits="userSpaceOnUse" x1="63.3477" y1="50.4171" x2="63.0226" y2="51.5413">
				<stop offset="0" style="stop-color:#FFB89E"></stop>
				<stop offset="1" style="stop-color:#FFA799"></stop>
			</linearGradient>
			<path id="XMLID_134_" class="st84" d="M62.7,51.4c0.2,0.7,0.2,1.8,0.4,2.4c0.1,0.2,0.2,0.5,0.4,0.5c1.2,0.2,0.3-0.6,0.5-0.9     c0-0.7-0.6-1.4-0.7-2.2c0-0.1,0-0.1,0-0.2c0-0.3-0.1-0.5-0.6-0.7c-0.1-0.1-0.2-0.2-0.2-0.3l-0.2-0.5c-0.1-0.1-0.2-0.2-0.2-0.2     c-0.1,0-0.3,0.2-0.4,0.4l0,0c0,0,0,0.2,0.1,0.3l0.2,0.8l0,0C62.4,51.2,62.6,51.3,62.7,51.4z"></path>
			<linearGradient id="XMLID_363_" gradientUnits="userSpaceOnUse" x1="63.4673" y1="51.1467" x2="65.6376" y2="55.8383">
				<stop offset="0" style="stop-color:#FD90DA"></stop>
				<stop offset="1" style="stop-color:#8E6DFD"></stop>
			</linearGradient>
			<path id="XMLID_133_" class="st85" d="M62.7,51.5c0,0,0,0.2,0.1,0.2c0,0.1,0,0.1,0,0.2c0,0.3,0.2,1.4,0.4,2     c0,0.1,0.1,0.2,0.1,0.3c0,0.1,0,0.1,0.1,0.2c0.3,0.2,3.2,1.8,3.5,1c0.1-0.4,0.2-0.5-0.1-0.8c-0.5-0.5-2.1-0.9-2.4-1.1     c0,0-0.1,0-0.1,0c0-0.5-0.3-1.1-0.5-1.6c0-0.1-0.1-0.2-0.1-0.2c0-0.1,0-0.1-0.1-0.2C63.3,51.3,62.8,51.3,62.7,51.5z"></path>
			<g id="XMLID_127_">
				<g id="XMLID_130_">
					<linearGradient id="XMLID_364_" gradientUnits="userSpaceOnUse" x1="67.4329" y1="72.9742" x2="66.871" y2="71.7596">
						<stop offset="0" style="stop-color:#FFB89E"></stop>
						<stop offset="1" style="stop-color:#FFA799"></stop>
					</linearGradient>
					<path id="XMLID_132_" class="st86" d="M67.8,71.4c0.4,0.5,0,0.4,0,1.1c0,0.1-0.2,1.1-0.2,1.1s-0.6,0.2-0.6,0.2       c0,0-0.4-0.1-0.4-0.1c0-0.1,0.1-0.2,0.1-0.2c0.1-0.3,0.2-0.8,0.2-1.2c0-0.3,0.1-0.5,0.1-0.8L67.8,71.4z"></path>
					<path id="XMLID_131_" class="st87" d="M66.8,73.2c-0.1,0.1-0.1,0.3-0.2,0.4c-0.1,0.2-0.1,0.3-0.1,0.4c0,0.1,0,0.1,0,0.2       c0.2,0.2,0.9-0.2,1.1-0.4c0.1-0.1,0.1-0.3,0.2-0.5c0-0.3,0-0.3,0.1-0.6l0.1,0.8l0.1,0c0-0.3,0-0.8,0-1.1c0-0.1,0-0.2,0-0.3       c0-0.4-0.2-0.6-0.4-0.7c0.1,0.2-0.1,0.6-0.1,1.1c-0.1,0.5-0.3,1-0.5,1.1c-0.1,0-0.3-0.1-0.4-0.2C66.7,73.4,66.7,73.3,66.8,73.2       z"></path>
				</g>
				<linearGradient id="XMLID_365_" gradientUnits="userSpaceOnUse" x1="62.9554" y1="64.2445" x2="67.3083" y2="66.1434">
					<stop offset="0" style="stop-color:#235DA3"></stop>
					<stop offset="1" style="stop-color:#123A76"></stop>
				</linearGradient>
				<path id="XMLID_129_" class="st88" d="M65.2,60.4c0,0.2,0,0.8,0,1.6c0,0.9,0.2,2.5,0.4,3.5c0.3,2,0.8,4,1.2,6      c0.2,0.2,0.6,0.2,1,0c0-0.6,0-1.5-0.1-2.4c-0.1-1.2-0.5-2.3-0.6-3.5c0.1-1.4,0.2-3.4,0-5.1L65.2,60.4z"></path>
				<linearGradient id="XMLID_366_" gradientUnits="userSpaceOnUse" x1="63.0113" y1="64.0484" x2="67.4093" y2="65.9369">
					<stop offset="0" style="stop-color:#235DA3"></stop>
					<stop offset="1" style="stop-color:#123A76"></stop>
				</linearGradient>
				<path id="XMLID_128_" class="st89" d="M65.2,60.4c0,0.1,0,0.3,0,0.5c0.1,0.2,0.3,0.7,0.6,1.2c0.3,0.6,0.2,1.3,0.2,2      c-0.1,0.9-0.2,2-0.1,2.6c0.1,0.2,0.2,0.4,0.3,0.6c0.3,0.6,1.3,2,1.7,4.2c0-0.6,0-1.5-0.1-2.4c-0.1-1.2-0.5-2.3-0.6-3.5      c0.1-1.4,0.2-3.4,0-5.1L65.2,60.4z"></path>
			</g>
			<g id="XMLID_124_">
				<linearGradient id="XMLID_367_" gradientUnits="userSpaceOnUse" x1="67.9549" y1="52.8319" x2="69.8304" y2="55.8428">
					<stop offset="0" style="stop-color:#5A2D68"></stop>
					<stop offset="1" style="stop-color:#22043D"></stop>
				</linearGradient>
				<path id="XMLID_126_" class="st90" d="M66.5,51.3c-0.9,0.4-1.1,1.1-0.9,2.2c0,0.2,0,0.3-0.1,0.4c0.1,0.2,0.2,0.3,0.2,0.4      c0.1,0.4,0.1,0.7,0.3,0.9c0.5,0.7,1,0.4,1.3,1c0.5,0.8,0.2,1.2,0.6,1.6c0.2,0.2,0.3,0.2,0.8,0.5c0,0,0.1,0,0.1,0.1      c0.2-0.1,0.5-0.2,0.8-0.2c0.5,0,1.3,0,1.8-0.4c0.4-0.3,0.3-0.9,0.4-1.1c0.2-0.3,0.4-0.4,0.6-0.6c0.5-0.4,0.5-1.3,0-1.8      c-0.4,0-0.9,0-0.9-0.3c0-0.6-0.1-1.2-0.7-1.4c-0.4-0.1-1,0-1.3-0.4c-0.3-0.4-0.6-0.7-0.9-1C68.1,51,67.4,50.9,66.5,51.3z"></path>
				<path id="XMLID_125_" class="st68" d="M66.1,52.1c-0.3,0.2-0.4,0.6-0.4,1c0,0.5-0.1,0.6-0.1,0.7c0,0,0,0.1-0.1,0.1c0,0,0,0,0,0      c0.1,0.2,0.2,0.3,0.2,0.5c0.1,0.4,0.1,0.7,0.3,0.9c0.5,0.7,1,0.4,1.3,1c0.4,0.7,0.3,1.1,0.5,1.4c0.5,0,0.7,0.9,1.7,0.4      c0.5-0.2,0.1-0.7,0.8-0.9c0.5-0.1,0.5-0.4,0.5-0.7c-0.2-0.9-0.6-0.4-0.8-1c-0.2-0.6-0.7-0.5-0.8-0.6c0-0.1,0-0.5-0.8-0.4      c-0.4,0-0.7-0.1-0.7-0.3c0-0.4-0.3-0.6-0.3-0.6c-0.2-0.1-0.3,0.1-0.4,0c0,0-0.5-0.7-0.6-0.8C66.3,52.5,66.2,52.3,66.1,52.1z"></path>
			</g>
			<g id="XMLID_120_">
				<linearGradient id="XMLID_368_" gradientUnits="userSpaceOnUse" x1="71.4365" y1="72.7391" x2="70.4539" y2="71.9061">
					<stop offset="0" style="stop-color:#FFB89E"></stop>
					<stop offset="1" style="stop-color:#FFA799"></stop>
				</linearGradient>
				<path id="XMLID_123_" class="st91" d="M70.8,71.2c0.6,0.2,0.2,0.4,0.7,0.8c0,0,0.5,1,0.5,1s-0.4,0.5-0.4,0.5      c0,0-0.4,0.1-0.4,0.1c0-0.1-0.1-0.2-0.1-0.2c-0.1-0.4-0.3-0.7-0.5-1.1c-0.1-0.2-0.3-0.5-0.4-0.7L70.8,71.2z"></path>
				<path id="XMLID_122_" class="st87" d="M71,73.2c0,0.1,0.1,0.3,0.1,0.4c0,0.2,0.1,0.3,0.1,0.4c0,0.1,0.1,0.1,0.1,0.1      c0.2,0.1,0.6-0.6,0.7-0.9c0-0.2-0.1-0.3-0.2-0.5c-0.1-0.3-0.2-0.3-0.3-0.6l0.6,0.6l0.1,0c-0.2-0.3-0.4-0.7-0.6-0.9      c-0.1-0.1-0.1-0.2-0.1-0.3c-0.2-0.3-0.5-0.4-0.7-0.3c0.2,0.1,0.3,0.5,0.5,1c0.2,0.4,0.4,1,0.2,1.2c-0.1,0.1-0.3,0.1-0.4,0.1      C71.1,73.4,71,73.3,71,73.2z"></path>
				<linearGradient id="XMLID_369_" gradientUnits="userSpaceOnUse" x1="61.4319" y1="63.8005" x2="68.5934" y2="65.8491">
					<stop offset="0" style="stop-color:#235DA3"></stop>
					<stop offset="1" style="stop-color:#123A76"></stop>
				</linearGradient>
				<path id="XMLID_121_" class="st92" d="M67.8,66.1c0.2,0.2,0.6,0.3,0.9,0.7c0.7,0.7,1.5,3.3,2.2,4.4c-0.1,0.3-0.5,0.6-0.8,0.6      c-0.7-0.9-1.9-2.6-2.6-3.5c-0.5-0.6-0.7-0.9-1.2-1.4c-0.1-0.1-0.2-0.3-0.1-0.6c0-0.1,0-0.2,0-0.2c0,0,0-0.1,0-0.1l0.5-3.2      c-0.4-0.5-1-1.3-1.4-2.1C65.2,60,66.7,60.2,67,60c0.6,0.5,1,0.8,1.6,0.7c0.3,0.5,0.6,1,0.6,1.7c0,0.8-1,2.6-1.4,3.5      C67.8,66,67.8,66,67.8,66.1z"></path>
			</g>
			<linearGradient id="XMLID_370_" gradientUnits="userSpaceOnUse" x1="65.9205" y1="54.68" x2="67.6298" y2="59.7547">
				<stop offset="0" style="stop-color:#FD90DA"></stop>
				<stop offset="1" style="stop-color:#8E6DFD"></stop>
			</linearGradient>
			<path id="XMLID_119_" class="st93" d="M68.5,58.7c-0.3,0.8,0.1,1.2-0.1,1.7l0.2,0.3c-0.5,0.7-2.8,1-3.4-0.1l0-0.4     c-0.1-0.2,0-1,0-1.1c0.1-0.5,0.1-0.4,0-0.9c0-0.3-0.1-0.4-0.1-0.6c-0.1-0.2-0.2-0.6-0.2-0.9c0-0.2,0.1-0.4,0.2-0.6     c0.2-0.3,0.3-0.7,0.4-0.9c0-0.2,0.1-0.3,0.1-0.4c0-0.1,0.1-0.2,0.1-0.2c0.1-0.2,0.4-0.3,0.8-0.1c0.4,0.2,1.1,0.4,1.6,0.8     c0.2,0.2,0.6,0.2,0.8,0.5c0.1,0.1,0.1,0.3,0.1,0.4C69.2,57.1,68.7,58.1,68.5,58.7z"></path>
			<linearGradient id="XMLID_371_" gradientUnits="userSpaceOnUse" x1="67.2234" y1="54.3803" x2="66.9696" y2="55.1433">
				<stop offset="0" style="stop-color:#FF8A78"></stop>
				<stop offset="1" style="stop-color:#FFA799"></stop>
			</linearGradient>
			<path id="XMLID_118_" class="st94" d="M67.5,53.9c-0.1,0.4,0,0.8,0.1,1.2c-0.3,0.3-0.9,0.2-1.1-0.1c0-0.2,0.1-0.4,0.1-0.5     L67.5,53.9z"></path>
			<linearGradient id="XMLID_372_" gradientUnits="userSpaceOnUse" x1="66.0338" y1="53.4487" x2="67.2923" y2="53.4315">
				<stop offset="0" style="stop-color:#FFB89E"></stop>
				<stop offset="1" style="stop-color:#FFA799"></stop>
			</linearGradient>
			<path id="XMLID_117_" class="st95" d="M66.1,52.2c-0.2,0.3-0.3,0.5-0.2,0.9c0,0.1,0,0.2,0,0.2c-0.2,0.4-0.1,0.5-0.1,0.8     c0.1,0.3,0.1,0.4,0.2,0.5c0.1,0.1,0.2,0.1,0.4,0.1c0.3,0,0.7-0.2,0.9-0.3c0.2-0.1,0.2-0.2,0.3-0.4c0.3-0.2,0.1-0.4,0-0.4     c-0.3,0-0.3,0.2-0.4,0.3C67.1,53.5,66.1,52.6,66.1,52.2z"></path>
			<g id="XMLID_113_">
				<path id="XMLID_116_" class="st96" d="M70.6,63.5l0.2-0.3c-0.3-0.2-0.4-0.3-0.5-0.3c-0.2,0.1-0.2,0.3-0.2,0.4      C70.1,63.4,70.6,63.5,70.6,63.5z"></path>
				<linearGradient id="XMLID_373_" gradientUnits="userSpaceOnUse" x1="71.2982" y1="62.9378" x2="70.7546" y2="61.8902">
					<stop offset="0" style="stop-color:#FFB89E"></stop>
					<stop offset="1" style="stop-color:#FFA799"></stop>
				</linearGradient>
				<path id="XMLID_115_" class="st97" d="M71.1,62.9c0,0.1-0.4,0.5-0.5,0.6c0,0-0.3,0-0.5-0.2c0.1,0,0.1-0.1,0.1-0.1      c0,0,0.1,0,0.1,0c0-0.1,0-0.2,0-0.3c0-0.1-0.1-0.1-0.1,0c0,0.1,0,0.3,0,0.4c0,0.1-0.2,0.1-0.2-0.1c0-0.3-0.1-0.5,0-0.7      c0.1-0.2,0.2-0.3,0.1-0.6c-0.1-0.2-0.2-0.7-0.4-1.1c-0.1-0.4-0.3-0.9-0.3-1.3c-0.3-0.5-0.9-1.7-1.1-2.2      c-0.2-0.7-0.1-1.1,0.2-1.2c0.2-0.1,0.4-0.1,0.6,0.1c0.5,0.7,0.9,2.2,1.3,3c0.1,0.4,0.3,1.8,0.3,2.5C70.7,62,71.1,62.6,71.1,62.9      z"></path>
				<linearGradient id="XMLID_374_" gradientUnits="userSpaceOnUse" x1="68.8602" y1="54.1212" x2="69.6901" y2="60.914">
					<stop offset="0" style="stop-color:#FD90DA"></stop>
					<stop offset="1" style="stop-color:#8E6DFD"></stop>
				</linearGradient>
				<path id="XMLID_114_" class="st98" d="M70.2,62c0-0.1,0-0.1-0.1-0.2c-0.1-0.1-0.1-0.1-0.2-0.2c-0.3-0.7-0.4-1.5-0.5-2.2      c-0.3-0.5-1-1.7-1.2-2.2c-0.2-0.7,0-1.2,0.3-1.3c0.2-0.1,0.6,0,0.8,0.3c0.5,0.7,0.8,1.9,1.1,2.9c0.1,0.3,0.3,1.4,0.4,2.2      c0,0.1,0,0.3,0,0.4c0,0.1,0,0.1,0,0.2C70.6,62,70.3,62,70.2,62z"></path>
			</g>
		</g>
	</g>
	<g id="XMLID_70_">
		<path id="XMLID_110_" class="st0" d="M52.7,79.9L41,73.6c-0.7-0.3-1.6-0.6-2.3-0.2c-0.6,0.3-0.6,0.3-1,0.6    c-0.3,0.2-1.5,0.9-0.8,1.3c2.2,1.2,9.9,5.3,12.1,6.5c0.4,0.2,1,0.3,1.7,0.3c0.6-0.1,1.3-0.2,1.8-0.5c0.4-0.2-0.4,0.2,0,0    c0.5-0.3,0.7-0.6,0.8-0.9C53.3,80.4,53.1,80.1,52.7,79.9z"></path>
		<g id="XMLID_107_">
			<linearGradient id="XMLID_375_" gradientUnits="userSpaceOnUse" x1="49.3787" y1="53.9569" x2="49.3855" y2="54.9873">
				<stop offset="0" style="stop-color:#FFB89E"></stop>
				<stop offset="1" style="stop-color:#FFA799"></stop>
			</linearGradient>
			<path id="XMLID_109_" class="st99" d="M48.9,53.4c0.3,0,0.7,0.1,0.9,0.2c0.3,0.2,0.3,0.6,0.3,0.9c0,0,0.1,0.5,0.1,0.5     c-0.2,0-0.9,0-0.9-0.1c0-0.2-0.2-0.3-0.3-0.4c-0.2-0.1-0.2-0.1-0.4-0.3c-0.1-0.1,0-0.8,0.1-0.9C48.7,53.4,48.6,53.4,48.9,53.4z"></path>
			<linearGradient id="XMLID_376_" gradientUnits="userSpaceOnUse" x1="51.4829" y1="58.3291" x2="50.4545" y2="59.7313">
				<stop offset="0" style="stop-color:#FDD248"></stop>
				<stop offset="1" style="stop-color:#FABD23"></stop>
			</linearGradient>
			<path id="XMLID_108_" class="st100" d="M51.2,57.9c-0.3-0.8-0.5-1.7-0.8-2.7c0-0.1-0.1-0.2-0.2-0.3c0-0.1-0.1-0.2-0.1-0.4     c-0.1,0.3-0.5,0.4-0.9,0.2c0,0.1,0,0.2,0,0.4c0,0.1-0.1,0.3-0.1,0.4c0.1,0.9,0.1,1.8,0.3,2.6c0.1,0.3,0,0.6,0.1,0.7     c0,0.1,0.1,0.2,0.2,0.2c0.6,0.4,1.4,1.1,2.1,1.7c0.8,0.6,1,1.2,1.5,1.1c0.5-0.1,0.8-1.4,0.6-1.8c-0.2-0.8-0.7-0.9-1.3-1.2     C52.2,58.7,51.6,58.4,51.2,57.9z"></path>
		</g>
		<path id="XMLID_106_" class="st0" d="M60.2,84.1L54,80.6c-0.7-0.3-1.6-0.6-2.3-0.2c-0.6,0.3-1.7,1-2.1,1.3    c-0.3,0.2-1.5,0.9-0.8,1.3c2.2,1.2,4.4,2.5,6.6,3.8c0.4,0.2,1,0.3,1.7,0.3c0.6-0.1,1.3-0.2,1.8-0.5c0.4-0.2,0.7-0.4,1.1-0.6    c0.5-0.3,0.7-0.6,0.8-0.9C60.8,84.5,60.6,84.3,60.2,84.1z"></path>
		<g id="XMLID_92_">
			<path id="XMLID_105_" class="st16" d="M37.4,50c0-1.3,0.9-1.8,2.1-1.2l11.5,6.1c1.1,0.7,2.1,2.3,2.1,3.6l0,21.9     c0,1.3-0.9,1.8-2.1,1.2l-11.5-6.1c-1.1-0.7-2.1-2.3-2.1-3.6L37.4,50z"></path>
			<g id="XMLID_99_">
				<linearGradient id="XMLID_377_" gradientUnits="userSpaceOnUse" x1="43.6024" y1="76.1787" x2="39.8152" y2="63.2529">
					<stop offset="0" style="stop-color:#1C8EF4"></stop>
					<stop offset="1" style="stop-color:#00CFDD"></stop>
				</linearGradient>
				<path id="XMLID_104_" class="st101" d="M41,63.9c-1,0.6-1.6,1.9-1.6,3.6c0,3.6,2.5,8,5.6,9.8c0-0.9,0-2,0-3.3      c-1.5-0.9-2.7-3-2.7-4.8c0-0.9,0.3-1.5,0.8-1.8C42.3,66.1,41.6,64.9,41,63.9z"></path>
				<linearGradient id="XMLID_378_" gradientUnits="userSpaceOnUse" x1="45.3495" y1="69.3401" x2="44.9378" y2="72.1289">
					<stop offset="0" style="stop-color:#FDD248"></stop>
					<stop offset="1" style="stop-color:#FABD23"></stop>
				</linearGradient>
				<path id="XMLID_103_" class="st102" d="M45.1,68.7c-1-0.6-1.9-0.1-1.9,1.1c0,1.2,0.8,2.6,1.8,3.2c1,0.6,1.9,0.1,1.9-1.1      C47,70.8,46.2,69.3,45.1,68.7z"></path>
				<linearGradient id="XMLID_379_" gradientUnits="userSpaceOnUse" x1="45.1474" y1="66.5649" x2="42.6466" y2="64.271">
					<stop offset="0" style="stop-color:#6D6AFE"></stop>
					<stop offset="1" style="stop-color:#3FB0F7"></stop>
				</linearGradient>
				<path id="XMLID_102_" class="st103" d="M45.1,64.3c-1.5-0.9-2.9-1-4-0.5c0.5,0.9,1.3,2.2,2.1,3.5c0.5-0.2,1.2-0.2,1.9,0.3      c0.2,0.1,0.4,0.3,0.6,0.4c0.3-1.1,0.5-2.1,0.7-2.8C46.1,64.9,45.6,64.6,45.1,64.3z"></path>
				<linearGradient id="XMLID_380_" gradientUnits="userSpaceOnUse" x1="48.1985" y1="71.9375" x2="47.773" y2="77.8365">
					<stop offset="0" style="stop-color:#A77EF7"></stop>
					<stop offset="1" style="stop-color:#5E65D6"></stop>
				</linearGradient>
				<path id="XMLID_101_" class="st104" d="M50.1,70.5c-0.7,0.1-1.5,0.2-2.5,0.3c0.2,0.6,0.3,1.1,0.3,1.7c0,1.7-1.2,2.5-2.7,1.7      c0,1.3,0,2.5,0,3.3c3.1,1.7,5.6,0.2,5.6-3.3C50.8,73,50.6,71.8,50.1,70.5z"></path>
				<linearGradient id="XMLID_381_" gradientUnits="userSpaceOnUse" x1="48.2447" y1="66.3193" x2="47.9443" y2="69.8928">
					<stop offset="0" style="stop-color:#94E69A"></stop>
					<stop offset="1" style="stop-color:#17ADC9"></stop>
				</linearGradient>
				<path id="XMLID_100_" class="st105" d="M46.7,65.5c-0.2,0.7-0.4,1.7-0.7,2.8c0.6,0.6,1.2,1.4,1.5,2.3c1-0.1,1.9-0.2,2.5-0.3      C49.3,68.4,48.1,66.7,46.7,65.5z"></path>
			</g>
			<path id="XMLID_93_" class="st15" d="M51.4,66l0-0.7l-4.5-2.3l0,0.7L51.4,66L51.4,66z M51.4,57.5L38.8,51l0,0.7l12.6,6.5     L51.4,57.5L51.4,57.5z M46.4,56.1l5,2.6l0,0.7l-5-2.6L46.4,56.1L46.4,56.1z M51.4,62.8l-12.6-6.5l0-3l12.6,6.5L51.4,62.8     L51.4,62.8z M51.4,64.4l-12.6-6.5l0-0.9l12.6,6.5L51.4,64.4z"></path>
		</g>
		<g id="XMLID_86_">
			<path id="XMLID_91_" class="st3" d="M57.9,81.3c0,0.1,0,0.2,0.1,0.4c0.1,0.2,0.1,0.3,0.2,0.6c0.1,0.4,0,1,0.1,1.5     c0.1,0.2,0.1,0.4-0.1,0.6c-0.2,0.2-0.4,0.5-0.8,0.5c-0.1,0-0.3,0-0.4-0.2c-0.1-0.2-0.3-0.4-0.2-0.7c0-0.1,0.1-0.5,0.1-0.8     c0-0.3-0.1-0.4-0.1-0.7c0-0.3,0-0.8,0-1L57.9,81.3z"></path>
			<path id="XMLID_90_" class="st3" d="M55,79.7c0.1,0.3,0.2,0.4,0.2,0.8c-0.1,0.2-0.2,0.3-0.4,0.4l-0.1,0c-0.3,0.2-0.4,0.7-0.7,1     c-0.2,0.2-0.6,0.3-1,0.3c-0.4,0.1-0.8,0-0.7-0.4c0.3-0.8,1.4-1.7,1.4-2.6L55,79.7z"></path>
			<linearGradient id="XMLID_382_" gradientUnits="userSpaceOnUse" x1="57.5171" y1="69.7526" x2="52.0752" y2="74.6679">
				<stop offset="0" style="stop-color:#235DA3"></stop>
				<stop offset="1" style="stop-color:#123A76"></stop>
			</linearGradient>
			<path id="XMLID_89_" class="st106" d="M53.3,74c0,1.5,0.4,4.3,0.4,5.8c0.5,0.3,1.1,0.2,1.3-0.2c0.2-1.4,0.3-3.2,0.4-4     c0-0.6,0-1.2-0.2-1.8c0.2-1.7,1.2-3.9,1-5.5c-0.1-0.7-0.5-1.4-0.7-2c-0.4,0.5-0.8,0.7-1.8,0.6c-0.1,0-0.7-0.5-1-0.5     c0,2.1,0.4,4.5,0.5,6.8C53.2,73.5,53.2,73.8,53.3,74z"></path>
			<linearGradient id="XMLID_383_" gradientUnits="userSpaceOnUse" x1="57.7433" y1="69.7416" x2="52.7821" y2="74.0643">
				<stop offset="0" style="stop-color:#235DA3"></stop>
				<stop offset="1" style="stop-color:#123A76"></stop>
			</linearGradient>
			<path id="XMLID_88_" class="st107" d="M55,79.6c0.2-1.4,0.3-3.2,0.4-4c0-0.6,0-1.2-0.2-1.8c0.2-1.7,1.2-3.9,1-5.5     c-0.1-0.7-0.5-1.4-0.7-2c-0.4,0.5-0.8,0.7-1.8,0.6c-0.1,0-0.8-0.3-1-0.3c0.1,1.9,0.8,5,1.3,7.3C54.2,74.9,54.8,78.7,55,79.6z"></path>
			<linearGradient id="XMLID_384_" gradientUnits="userSpaceOnUse" x1="58.637" y1="71.6135" x2="54.2713" y2="75.5568">
				<stop offset="0" style="stop-color:#235DA3"></stop>
				<stop offset="1" style="stop-color:#123A76"></stop>
			</linearGradient>
			<path id="XMLID_87_" class="st108" d="M55.5,75.1c0.3,1.5,1,5,1.2,6.5c0.5,0.3,1.1,0.1,1.3-0.3c0-1.4,0-3.6-0.1-4.4     c-0.1-0.6-0.4-1.6-0.6-2.1c0-1.7,0.5-4,0-5.5c-0.2-0.7-0.8-1.4-1-2c-0.3,0.5-0.7,0.7-1.7,0.6c-0.1,0-0.9-0.6-1.2-0.7     c0.3,2.1,1.4,4.9,1.8,7.2C55.3,74.6,55.3,74.9,55.5,75.1z"></path>
		</g>
		<linearGradient id="XMLID_385_" gradientUnits="userSpaceOnUse" x1="55.4415" y1="61.3623" x2="54.6539" y2="66.8847">
			<stop offset="0" style="stop-color:#FDD248"></stop>
			<stop offset="1" style="stop-color:#FABD23"></stop>
		</linearGradient>
		<path id="XMLID_85_" class="st109" d="M57.2,61.2c-0.5-0.3-2.3-1.5-2.8-1.4c-0.6,0.1-1.1,0.4-1.3,0.8c-0.3,0.6-0.5,1.5-0.5,2.6    c0,0.4,0.1,0.9,0.2,1.3c0.1,0.6-0.1,1.1-0.1,1.7c0,0.4,0.1,0.7,0.1,1c0,0.2,0,0.4,0,0.5c0.3,1.1,2.9,1.3,4.1,0.5    c0-0.1,0-0.3-0.1-0.6c0.1-0.3,0.2-0.4,0.2-0.8c0.1-0.7-0.1-1.1,0.3-1.8c0.4-0.9,0.9-1.9,0.9-2.6C58.1,61.8,57.6,61.5,57.2,61.2z"></path>
		<g id="XMLID_82_">
			<linearGradient id="XMLID_386_" gradientUnits="userSpaceOnUse" x1="56.545" y1="68.5356" x2="57.9462" y2="68.4934">
				<stop offset="0" style="stop-color:#FFB89E"></stop>
				<stop offset="1" style="stop-color:#FFA799"></stop>
			</linearGradient>
			<path id="XMLID_84_" class="st110" d="M57.5,67.5c-0.2,0.1-0.4,0.2-0.5,0.2c-0.1,0-0.5,0.3-0.7,0.4c-0.2,0.2-0.3,0.4-0.5,0.7     c-0.1,0.2-0.2,0.4-0.2,0.5c0,0.1,0.3,0.3,0.4,0.3c0.3-0.1,0.6-0.4,0.6-0.4c0.6-0.3,0.9-0.4,1.1-0.6c0.1-0.1,0.2-0.4,0.3-0.7     l-0.4-0.3L57.5,67.5z"></path>
			<linearGradient id="XMLID_387_" gradientUnits="userSpaceOnUse" x1="56.7849" y1="62.6891" x2="58.4691" y2="65.4596">
				<stop offset="0" style="stop-color:#FDD248"></stop>
				<stop offset="1" style="stop-color:#FABD23"></stop>
			</linearGradient>
			<path id="XMLID_83_" class="st111" d="M57.5,61.4c0.9,0.6,1.9,2.2,2.8,3.4c0.2,0.2,0.2,0.5,0.1,0.6c0,0.1-0.1,0.2-0.2,0.3     c-0.4,0.6-0.8,1.2-1.7,2c-0.1,0.1-0.1,0.1-0.2,0.1c-0.1,0-0.1,0.1-0.2,0.2c0.1-0.1-0.4-0.6-0.6-0.6c0.1-0.1,0.1-0.1,0.2-0.2     c0-0.1,0-0.1,0.1-0.2c0.4-0.6,0.7-1.3,1.2-1.8c-0.6-0.5-1.1-1-1.6-1.6c-0.1-0.1-0.2-0.2-0.3-0.4C56,62.2,56.9,61,57.5,61.4z"></path>
		</g>
		<linearGradient id="XMLID_388_" gradientUnits="userSpaceOnUse" x1="55.1094" y1="60.154" x2="55.2955" y2="60.8913">
			<stop offset="0" style="stop-color:#FF8A78"></stop>
			<stop offset="1" style="stop-color:#FFA799"></stop>
		</linearGradient>
		<path id="XMLID_81_" class="st112" d="M55.9,60.6c0,0.5-1.4,1.2-1.6,0.7c-0.1-0.3,0-1.4-0.1-1.8l1.2-0.6l0.5-0.2    C55.7,59.4,55.6,60,55.9,60.6z"></path>
		<path id="XMLID_80_" class="st113" d="M54.3,61.3c-0.1-0.1,0-0.5-0.1-0.7c-0.2,0-0.4,0.6-0.5,0.9C53.9,61.3,54,61.3,54.3,61.3z"></path>
		<path id="XMLID_79_" class="st113" d="M55.8,60.3c0,0.4-0.9,0.9-1.5,1c0.1,0.2,0.3,0.4,0.3,0.6c0.4-0.1,1.2-0.4,1.5-0.9    C56.2,60.6,55.9,60.4,55.8,60.3z"></path>
		<path id="XMLID_78_" class="st68" d="M54.4,57.2c-0.3,0.1-0.4,0.3-0.4,0.7c0.1-0.2,0.2-0.3,0.3-0.4L54.4,57.2z"></path>
		<linearGradient id="XMLID_389_" gradientUnits="userSpaceOnUse" x1="54.4071" y1="58.5118" x2="55.5633" y2="58.8086">
			<stop offset="0" style="stop-color:#FFB89E"></stop>
			<stop offset="1" style="stop-color:#FFA799"></stop>
		</linearGradient>
		<path id="XMLID_77_" class="st114" d="M54.3,60.2c0.2,0,0.6-0.1,0.8-0.1c0.4-0.1,0.5-0.4,0.7-0.8c0.4-0.1,0.5-0.2,0.6-0.4    c0.2-0.4,0.2-0.9-0.1-1.3c-0.2-0.3-0.5-0.5-0.9-0.6c-0.8-0.1-1.2,0.1-1.5,0.7c0,0.1-0.1,0.3-0.1,0.3c0,0.1,0,0.2,0,0.3    c0,0.1,0,0.1-0.1,0.2c-0.1,0.2-0.3,1.2-0.1,1.4C53.8,60.1,54,60.3,54.3,60.2z"></path>
		<linearGradient id="XMLID_390_" gradientUnits="userSpaceOnUse" x1="55.9317" y1="57.522" x2="55.6274" y2="58.6976">
			<stop offset="0" style="stop-color:#5A2D68"></stop>
			<stop offset="1" style="stop-color:#22043D"></stop>
		</linearGradient>
		<path id="XMLID_76_" class="st115" d="M54.7,57.9c0.2,0,1-0.2,1.3-0.3c0.3-0.1,0.7-0.2,0.9,0.1c0.1,0.3,0.1,0.8-0.1,1.1    c-0.2,0.4-0.5,0.6-0.9,0.9c-0.2,0.1,0-0.4,0-0.6c-0.1,0.2-0.2,0.2-0.3,0.2c0,0-0.1,0,0-0.2c0.1-0.4-0.1-0.5,0.1-0.7    c0.1-0.2,0-0.2,0-0.3C55.3,58,55,58.1,54.7,57.9z"></path>
		<path id="XMLID_75_" class="st48" d="M56,58.9c0.3,0,0.2,0.3,0.1,0.5c-0.1,0.1-0.2,0.1-0.3,0.2c-0.1,0.1-0.2,0.1-0.3,0.1    c-0.2-0.1,0-0.3,0.1-0.4C55.7,59.2,55.8,58.9,56,58.9z"></path>
		<linearGradient id="XMLID_391_" gradientUnits="userSpaceOnUse" x1="55.3596" y1="56.7917" x2="55.5062" y2="57.6377">
			<stop offset="0" style="stop-color:#5A2D68"></stop>
			<stop offset="1" style="stop-color:#22043D"></stop>
		</linearGradient>
		<path id="XMLID_74_" class="st116" d="M54.4,56.6c0.1,0.1,0.3,0,1,0c0.7,0,1.5,0.3,1.5,1.1c0,0,0,0,0,0.1c-0.2,0-0.6,0.1-0.9,0.2    c-0.5,0.1-1,0.1-1.4-0.1C54.1,57.6,53.8,56.9,54.4,56.6z"></path>
		<g id="XMLID_71_">
			<linearGradient id="XMLID_392_" gradientUnits="userSpaceOnUse" x1="48.7822" y1="53.7485" x2="48.9011" y2="53.4255">
				<stop offset="0" style="stop-color:#FFB89E"></stop>
				<stop offset="1" style="stop-color:#FFA799"></stop>
			</linearGradient>
			<path id="XMLID_73_" class="st117" d="M49.7,53.5c-0.2,0-0.4,0.3-0.4,0.5l-0.1,0.2l0,0l-1-0.4c-0.2-0.1-0.2-0.1-0.1-0.3     c0.1-0.3,0.2-0.4,0.5-0.3C48.8,53.2,49.3,53.4,49.7,53.5C49.7,53.5,49.7,53.5,49.7,53.5z"></path>
			<path id="XMLID_72_" class="st118" d="M49.9,53.8c0-0.1-0.2-0.3-0.4-0.3c-0.2,0-0.2,0.2-0.3,0.3c0,0.1-0.1,0.2-0.1,0.3     c0,0.1,0,0.1,0.1,0.1c0.1,0,0.1,0,0.1-0.1c0-0.1,0.1-0.2,0.1-0.2c0,0,0-0.1,0.1-0.1C49.6,53.6,49.8,53.8,49.9,53.8z"></path>
		</g>
	</g>
	<g id="XMLID_40_">
		<path id="XMLID_69_" class="st0" d="M4.3,62l7.4-4.2c0.8-0.4,2-0.7,2.8-0.2c0.7,0.4,2,1.2,2.5,1.5c0.4,0.2,1.8,1.1,1,1.6    c-2.6,1.4-5.2,3-7.9,4.5c-0.5,0.3-1.2,0.4-2,0.3c-0.8-0.1-1.6-0.3-2.2-0.7C5.4,64.5,5,64.3,4.5,64c-0.6-0.3-0.9-0.7-0.9-1.1    C3.6,62.5,3.8,62.2,4.3,62z"></path>
		<g id="XMLID_41_">
			<g id="XMLID_58_">
				<g id="XMLID_66_">
					<linearGradient id="XMLID_393_" gradientUnits="userSpaceOnUse" x1="6.5648" y1="52.8825" x2="11.4391" y2="53.7894">
						<stop offset="0" style="stop-color:#235DA3"></stop>
						<stop offset="1" style="stop-color:#123A76"></stop>
					</linearGradient>
					<path id="XMLID_68_" class="st119" d="M7.2,58.6c0.1-0.4,0.5-1.4,0.6-1.6c0.6-1.2,1.3-2.6,2-3.1c0.2-0.1,0.4-0.3,0.5-0.5       c0-0.2,0-0.4,0-0.6c0-1.3-0.4-2.4-0.4-3.5c0-0.6,0.2-1.1,0.5-1.4c0.4-0.5,2.4,0.6,2.4,0.7c0,0.7-0.4,3.6-0.5,4.4       c0,0.1,0,0.3-0.1,0.4c0.1,0.3,0.1,0.7-0.1,0.8c-0.1,0.1-0.1,0.1-0.2,0.2l0,0l0,0c-0.5,0.5-1,0.9-1.4,1.6       c-0.7,1.1-1.5,2.1-2.1,3.2C8.2,59.3,7.3,59,7.2,58.6z"></path>
					<linearGradient id="XMLID_394_" gradientUnits="userSpaceOnUse" x1="7.7104" y1="53.0591" x2="11.5176" y2="53.8426">
						<stop offset="0" style="stop-color:#235DA3"></stop>
						<stop offset="1" style="stop-color:#123A76"></stop>
					</linearGradient>
					<path id="XMLID_67_" class="st120" d="M11.2,51.7c-0.3-0.1-0.7-0.2-1-0.4c-0.1-0.7-0.2-1.3-0.2-2c0-0.6,0.2-1.1,0.5-1.4       c0.4-0.5,2.4,0.6,2.4,0.7c0,0.7-0.4,3.6-0.5,4.4c0,0.1,0,0.3-0.1,0.4c0.1,0.3,0.1,0.7-0.1,0.8c-0.1,0.1-0.1,0.1-0.2,0.2l0,0       l0,0c-0.5,0.5-1,0.9-1.4,1.6c-0.7,1.1-1.5,2.1-2.1,3.2c-0.2,0.1-0.5,0.1-0.8,0.1c1-2.7,3.1-4.4,3.7-5.8       C11.7,52.8,11.9,51.9,11.2,51.7z"></path>
				</g>
				<g id="XMLID_62_">
					<path id="XMLID_65_" class="st121" d="M8.5,61.3c0,0-0.4-0.2-0.4-0.2c0,0-0.1-0.5-0.1-0.5l0.2-0.2c0.4,0,0.8,0.2,0.6,0.7       C8.8,61.2,8.7,61.3,8.5,61.3z"></path>
					<path id="XMLID_64_" class="st121" d="M8.5,59.1l-0.1,0.4c-0.1,0.9-0.1,1,0.2,1.7c-0.4,0.2-1.2,0-1.6-0.3       c-0.3-0.2,0.1-0.5,0-0.9c-0.1-0.2-0.3-0.5-0.4-0.9c0-0.3,0-0.5,0.4-0.6c0.1-0.2,0.2-0.3,0.3-0.4C8.1,58.2,8.3,58.8,8.5,59.1z"></path>
					<path id="XMLID_63_" class="st122" d="M8.4,61.4C8,61.4,7.4,61.2,7,61c-0.3-0.2,0.1-0.5,0-0.9c-0.1-0.2-0.3-0.5-0.4-0.9       c-0.1-0.4,0.2-0.6,0.6-0.5c0.3,0.1,0.5,0.4,0.5,0.7c0.1,0.3,0,0.5,0,0.7c-0.1,0.5,0.3,1.4,1,1C8.7,61.3,8.5,61.3,8.4,61.4z"></path>
				</g>
				<g id="XMLID_59_">
					<path id="XMLID_61_" class="st121" d="M13.1,61c0.2,0,0.7-0.3,1.4-0.4c0.3,0,0.7,0,0.5,0.4c-0.2,0.5-0.6,0.9-1.1,1.1       c-0.2,0.1-0.4,0.1-0.6,0.2c-0.2,0.1-0.2,0.2-0.3,0.3c-0.3,0.2-0.5,0.2-0.8,0.1c-0.2-0.1-0.3-0.2-0.4-0.5       c-0.1-0.3-0.1-0.7,0-0.9c0,0,0-0.1,0-0.1c0-0.3,0-0.8-0.1-1.5l1.3-0.4C13.1,60.1,13,60.6,13.1,61z"></path>
					<linearGradient id="XMLID_395_" gradientUnits="userSpaceOnUse" x1="16.7304" y1="53.2441" x2="12.4689" y2="54.9079">
						<stop offset="0" style="stop-color:#235DA3"></stop>
						<stop offset="1" style="stop-color:#123A76"></stop>
					</linearGradient>
					<path id="XMLID_60_" class="st123" d="M11.8,61.4c-0.2-1.4-0.5-4.3,0-5.5c0.2-0.5,0.3-1.3,0.3-1.8c0-0.2-0.1-0.9-0.3-1.6       c-0.2-0.7-0.5-1.5-0.6-2.2c-0.1-0.9,0.2-1.5,0.2-1.6c0.5-1,2.8,0.1,2.8,0.3c0.2,0.8,0,2.8,0,3.3c0,0.1,0,0.2,0,0.3       c0,0.3,0,0.7,0,1.1c0,0,0,0.1,0,0.1l0,0c0,0,0,0,0,0l0,0c0,0,0,0,0,0l0,0c0,0,0,0,0,0l0,0c0,0,0,0,0,0l0,0l0,0l0,0l0,0l0,0       c0,0,0,0,0,0l0,0l0,0l0,0l0,0l0,0c0,0,0,0,0,0l0,0c0,0,0,0,0,0l0,0c0,0,0,0,0,0l0,0c0,0,0,0,0,0l0,0c0,0,0,0,0,0l0,0       c0,0,0,0.1,0,0.1l0,0c0,0,0,0,0,0c-0.1,0.6-0.3,1.9-0.5,3c-0.1,0.6-0.1,1.2-0.2,1.6c0,0.2-0.1,1.8-0.1,2       C13.3,61.6,12,61.8,11.8,61.4z"></path>
				</g>
			</g>
			<linearGradient id="XMLID_396_" gradientUnits="userSpaceOnUse" x1="11.2373" y1="44.7807" x2="12.3772" y2="42.6066">
				<stop offset="0" style="stop-color:#1C8EF4"></stop>
				<stop offset="1" style="stop-color:#00CFDD"></stop>
			</linearGradient>
			<path id="XMLID_57_" class="st124" d="M8,45.1c0.1,0.1,0.2,0.1,0.3,0.2c0.5,0.5,1.5,0.6,2.4,1c0.1,0,0.3,0.1,0.3,0.2     c0.1,0.1,0.3,0.5,0.4,0.6c0.2,0.3,0.3,0.5,0.6,0.5c0.3,0,1.6,0,1.5-0.3c-0.1-0.1-0.7-0.4-0.8-0.5c-0.2-0.2-0.2-0.7-0.5-0.8     c-0.3-0.2-0.6-0.2-0.7-0.3c-0.5-0.2-1-0.8-1.6-1.2c0-0.1,0-0.1,0-0.2c0.7-0.5,1.5-1,1.9-1.4c0.4-0.5,0.2-1.1-0.2-1.3     c-0.3-0.1-0.8-0.1-1.2,0.1c-0.7,0.4-1.4,1.4-1.8,1.8c-0.3,0.3-0.4,0.5-0.5,0.6c-0.1,0.1-0.1,0.1-0.1,0.2     c-0.1,0.1-0.1,0.2-0.1,0.3C7.8,44.8,7.8,44.9,8,45.1z"></path>
			<linearGradient id="XMLID_397_" gradientUnits="userSpaceOnUse" x1="11.2445" y1="48.2251" x2="13.9915" y2="41.8006">
				<stop offset="0" style="stop-color:#1C8EF4"></stop>
				<stop offset="1" style="stop-color:#00CFDD"></stop>
			</linearGradient>
			<path id="XMLID_56_" class="st125" d="M10.5,48c0,0.1-0.1,0.2-0.1,0.3c0.2,1,2.2,2.4,3.9,1.3c0-0.1,0-0.3,0-0.4     c0-0.8,0.1-0.6,0.2-1.4c0.1-0.4,0.5-1.4,0.6-2.4c0.1-0.6,0.1-1.4-0.2-2c-0.1-0.2-0.3-0.5-0.5-0.6c-0.4-0.3-2.6-1.3-3.2-1.4     c-0.7-0.1-1.1,0.2-1.2,1.1c-0.1,0.7,0.1,1.9,0.1,2.9C10.3,46.6,10.3,47.4,10.5,48z"></path>
			<g id="XMLID_48_">
				<linearGradient id="XMLID_398_" gradientUnits="userSpaceOnUse" x1="12.4581" y1="40.4252" x2="12.183" y2="41.4781">
					<stop offset="0" style="stop-color:#FF8A78"></stop>
					<stop offset="1" style="stop-color:#FFA799"></stop>
				</linearGradient>
				<path id="XMLID_55_" class="st126" d="M13.9,41.3c-0.1,0.1-0.7,0-0.7,0.1c0,0.3,0.1,0.4,0.1,0.8c-0.6,0-1.5-0.1-1.6-0.6      c0-0.3,0-0.5-0.1-0.7c-0.2-0.2-0.5-0.5-0.6-0.8c-0.2-0.6-0.1-1.2,0.4-1.6c0.9-0.8,2.2-0.3,2.5,0.8c0.1,0.2-0.1,0.3-0.1,0.5      c0,0,0.1,0.1,0.1,0.2C14,40.1,14.1,41.2,13.9,41.3z"></path>
				<linearGradient id="XMLID_399_" gradientUnits="userSpaceOnUse" x1="14.0322" y1="40.5965" x2="13.3404" y2="40.1661">
					<stop offset="0" style="stop-color:#FFB89E"></stop>
					<stop offset="1" style="stop-color:#FFA799"></stop>
				</linearGradient>
				<path id="XMLID_54_" class="st127" d="M13.9,41.3c-0.1,0-0.4,0-0.6,0c-0.1,0-0.2-0.1-0.2-0.2c-0.1,0-0.3-0.3,0-0.7      c0.1-0.1,0-0.3-0.2-0.2c-0.4,0.2-1.2,0.8-1.3,0.8c-0.2-0.2-0.5-0.5-0.6-0.8c-0.2-0.6-0.1-1.2,0.4-1.6c0.9-0.8,2.2-0.3,2.5,0.8      c0.1,0.2-0.1,0.3-0.1,0.5c0,0,0.1,0.1,0.1,0.2C14,40.1,14.1,41.2,13.9,41.3z"></path>
				<g id="XMLID_51_">
					<path id="XMLID_53_" class="st128" d="M13.2,40.5c0-0.1,0-0.2-0.1-0.2c-0.1,0-0.2,0.1-0.2,0.3c-0.1,0.2,0.1,0.5,0.3,0.4       c-0.2,0-0.2-0.2-0.1-0.4C13.1,40.6,13.2,40.5,13.2,40.5z"></path>
					<path id="XMLID_52_" class="st129" d="M13.1,40.6c0.1,0.1,0.1,0.2,0.1,0.2c0,0,0,0.1-0.1,0C13.1,40.7,13.1,40.7,13.1,40.6z"></path>
				</g>
				<linearGradient id="XMLID_400_" gradientUnits="userSpaceOnUse" x1="12.2978" y1="38.77" x2="12.7021" y2="40.2135">
					<stop offset="0" style="stop-color:#5A2D68"></stop>
					<stop offset="1" style="stop-color:#22043D"></stop>
				</linearGradient>
				<path id="XMLID_50_" class="st130" d="M11.7,41.2c-0.1-0.4-0.4-0.7-0.6-1.1c-0.1-0.4-0.1-0.7,0-1.1c-0.1-0.3,0.4-0.7,0.6-0.8      c0,0,0,0,0,0.1c0.5-0.3,0.7-0.3,1.3-0.2c-0.1,0-0.1,0-0.2,0c0.3,0,1.2,0.4,1.2,1c-0.1-0.3-0.3-0.2-0.4-0.2      c0.1,0.3,0,0.6-0.1,0.7c-0.2,0.3-0.2,0.3-0.2,0.8l-0.1,0.1c-0.1-0.3-0.2-0.3-0.4-0.2c-0.3,0.2-0.1,0.9-0.7,1      C12,41.3,11.8,41.3,11.7,41.2z"></path>
				<path id="XMLID_49_" class="st131" d="M11.7,41.6c-0.2,0.1-0.4,0.3-0.3,0.4c0.2,0.8,1.6,0.9,2.5,0.7c0,0-0.3-0.4-0.5-0.5      C12.8,42.2,11.9,42,11.7,41.6z"></path>
			</g>
			<g id="XMLID_42_">
				<g id="XMLID_44_">
					<path id="XMLID_47_" class="st132" d="M20.2,39c-0.1-0.2-0.1-0.2-0.1-0.2c-0.2-0.1-0.6,0-0.7,0.1c-0.1,0.1,0,0.2,0.1,0.5       c0.1,0.4,0.1,0.8,1,0.6L20.2,39z"></path>
					<path id="XMLID_46_" class="st132" d="M20.3,39.1C20.2,39,20.1,39,19.9,39c-0.1,0-0.1,0-0.2,0c0,0-0.1-0.3-0.2-0.3       c-0.1,0-0.1,0.3-0.1,0.3c0,0.1,0,0.2,0.1,0.2c0.1,0.4,0.1,0.8,1,0.6L20.3,39.1z"></path>
					<linearGradient id="XMLID_401_" gradientUnits="userSpaceOnUse" x1="19.8566" y1="39.2825" x2="19.6675" y2="40.5865">
						<stop offset="0" style="stop-color:#FFB89E"></stop>
						<stop offset="1" style="stop-color:#FFA799"></stop>
					</linearGradient>
					<path id="XMLID_45_" class="st133" d="M19.9,41.1c0.3-0.6,0.6-0.9,0.6-1c0-0.1-0.2-0.9-0.3-1.1c0-0.1-0.2-0.1-0.2-0.1       c-0.1,0.1-0.2,0.2-0.3,0.5c-0.1,0.1-0.1,0.1-0.1,0.1c0-0.1,0.4-0.4,0-0.6c0,0.1-0.2,0.3-0.3,0.4c-0.1,0.1-0.2,0.3-0.2,0.5       c0,0.1,0,0.2,0,0.4c0,0.2,0.1,0.4,0,0.6L19.9,41.1z"></path>
				</g>
				<linearGradient id="XMLID_402_" gradientUnits="userSpaceOnUse" x1="16.5507" y1="47.224" x2="16.8115" y2="41.2228">
					<stop offset="0" style="stop-color:#1C8EF4"></stop>
					<stop offset="1" style="stop-color:#00CFDD"></stop>
				</linearGradient>
				<path id="XMLID_43_" class="st134" d="M14.5,44.9c-1,0-1.2-1.1-0.8-1.6c0.2-0.3,0.6-0.4,1.1-0.3l2.6,0.3      c0.3-0.7,0.9-1.4,1.4-2.5c0,0,0.1-0.1,0.1-0.2l0.1-0.3c0.3,0,0.8,0.1,0.9,0.4l-0.1,0.2c0,0.1,0,0.2,0,0.3c-0.4,1-0.7,2.3-1.2,3      c0,0.1-0.1,0.2-0.2,0.3c-0.2,0.2-0.8,0.3-1.3,0.2C16.3,44.9,15.5,45,14.5,44.9z"></path>
			</g>
		</g>
	</g>
	<g id="XMLID_3_">
		<polygon id="XMLID_39_" class="st0" points="93.1,87.4 89.5,89.4 72,78.8 75.6,77.4   "></polygon>
		<linearGradient id="XMLID_403_" gradientUnits="userSpaceOnUse" x1="97.0973" y1="72.3275" x2="96.2162" y2="68.584">
			<stop offset="0" style="stop-color:#1C8EF4"></stop>
			<stop offset="1" style="stop-color:#00CFDD"></stop>
		</linearGradient>
		<path id="XMLID_38_" class="st135" d="M94.7,72.3c-0.5-0.7-0.8-2-1.2-3c0-0.1,0-0.2,0-0.3l-0.1-0.2c0.1-0.2,0.6-0.4,0.9-0.4    l0.1,0.3c0,0.1,0.1,0.1,0.1,0.2c0.5,1,1.1,1.8,1.4,2.5l2.6-0.3c0.5-0.1,0.9,0.1,1.1,0.3c0.4,0.5,0.2,1.6-0.8,1.6    c-0.9,0.1-1.8-0.1-2.6,0c-0.5,0-1.1-0.1-1.3-0.2C94.8,72.5,94.8,72.4,94.7,72.3z"></path>
		<g id="XMLID_30_">
			<path id="XMLID_37_" class="st17" d="M82.2,35.3c0.4-2.2,2.1-2.9,3.9-1.4l9.9,8c1.8,1.5,2.9,4.4,2.5,6.7l-6.3,37.5     c-0.4,2.2-2.1,2.9-3.9,1.4l-9.9-8c-1.8-1.5-2.9-4.4-2.5-6.7L82.2,35.3z"></path>
			<g id="XMLID_31_">
				<polygon id="XMLID_36_" class="st15" points="88.3,45.1 82.4,80.1 84.5,81.8 90.3,46.8     "></polygon>
				<polygon id="XMLID_35_" class="st136" points="93.1,57.9 88.6,85.1 90.6,86.8 95.2,59.6     "></polygon>
				<polygon id="XMLID_34_" class="st29" points="92.5,40.6 85.5,82.6 87.5,84.3 94.6,42.3     "></polygon>
				<polygon id="XMLID_33_" class="st137" points="83.8,50.6 79.3,77.8 81.3,79.5 85.9,52.3     "></polygon>
				<polygon id="XMLID_32_" class="st131" points="81.8,41.9 76.2,75.3 78.2,77 83.8,43.6     "></polygon>
			</g>
		</g>
		<path id="XMLID_29_" class="st0" d="M105.7,91.5l-7.4-4.2c-0.8-0.4-2-0.7-2.8-0.2c-0.7,0.4-2,1.2-2.5,1.5c-0.4,0.2-1.8,1.1-1,1.6    c2.6,1.4,5.2,3,7.9,4.5c0.5,0.3,1.2,0.4,2,0.3c0.8-0.1,1.6-0.3,2.2-0.7c0.4-0.3,0.9-0.5,1.3-0.8c0.6-0.3,0.9-0.7,0.9-1.1    C106.4,92.1,106.2,91.8,105.7,91.5z"></path>
		<g id="XMLID_4_">
			<g id="XMLID_8_">
				<g id="XMLID_18_">
					<g id="XMLID_26_">
						<linearGradient id="XMLID_404_" gradientUnits="userSpaceOnUse" x1="103.4352" y1="82.4414" x2="98.5609" y2="83.3483">
							<stop offset="0" style="stop-color:#235DA3"></stop>
							<stop offset="1" style="stop-color:#123A76"></stop>
						</linearGradient>
						<path id="XMLID_28_" class="st138" d="M102.8,88.2c-0.1-0.4-0.5-1.4-0.6-1.6c-0.6-1.2-1.3-2.6-2-3.1c-0.2-0.1-0.4-0.3-0.5-0.5        c0-0.2,0-0.4,0-0.6c0-1.3,0.4-2.4,0.4-3.5c0-0.6-0.2-1.1-0.5-1.4c-0.4-0.5-2.4,0.6-2.4,0.7c0,0.7,0.4,3.6,0.5,4.4        c0,0.1,0,0.3,0.1,0.4c-0.1,0.3-0.1,0.7,0.1,0.8c0.1,0.1,0.1,0.1,0.2,0.2l0,0l0,0c0.5,0.5,1,0.9,1.4,1.6        c0.7,1.1,1.5,2.1,2.1,3.2C101.8,88.9,102.7,88.6,102.8,88.2z"></path>
						<linearGradient id="XMLID_405_" gradientUnits="userSpaceOnUse" x1="102.2896" y1="82.6179" x2="98.4824" y2="83.4015">
							<stop offset="0" style="stop-color:#235DA3"></stop>
							<stop offset="1" style="stop-color:#123A76"></stop>
						</linearGradient>
						<path id="XMLID_27_" class="st139" d="M98.8,81.2c0.3-0.1,0.7-0.2,1-0.4c0.1-0.7,0.2-1.3,0.2-2c0-0.6-0.2-1.1-0.5-1.4        c-0.4-0.5-2.4,0.6-2.4,0.7c0,0.7,0.4,3.6,0.5,4.4c0,0.1,0,0.3,0.1,0.4c-0.1,0.3-0.1,0.7,0.1,0.8c0.1,0.1,0.1,0.1,0.2,0.2l0,0        l0,0c0.5,0.5,1,0.9,1.4,1.6c0.7,1.1,1.5,2.1,2.1,3.2c0.2,0.1,0.5,0.1,0.8,0.1c-1-2.7-3.1-4.4-3.7-5.8        C98.3,82.3,98.1,81.4,98.8,81.2z"></path>
					</g>
					<g id="XMLID_22_">
						<path id="XMLID_25_" class="st121" d="M101.5,90.9c0,0,0.4-0.2,0.4-0.2c0,0,0.1-0.5,0.1-0.5l-0.2-0.2c-0.4,0-0.8,0.2-0.6,0.7        C101.2,90.8,101.3,90.8,101.5,90.9z"></path>
						<path id="XMLID_24_" class="st121" d="M101.5,88.7l0.1,0.4c0.1,0.9,0.1,1-0.2,1.7c0.4,0.2,1.2,0,1.6-0.3        c0.3-0.2-0.1-0.5,0-0.9c0.1-0.2,0.3-0.5,0.4-0.9c0-0.3,0-0.5-0.4-0.6c-0.1-0.2-0.2-0.3-0.3-0.4        C101.9,87.7,101.7,88.4,101.5,88.7z"></path>
						<path id="XMLID_23_" class="st122" d="M101.6,90.9c0.4,0.1,1-0.1,1.4-0.4c0.3-0.2-0.1-0.5,0-0.9c0.1-0.2,0.3-0.5,0.4-0.9        c0.1-0.4-0.2-0.6-0.6-0.5c-0.3,0.1-0.5,0.4-0.5,0.7c-0.1,0.3,0,0.5,0,0.7c0.1,0.5-0.3,1.4-1,1        C101.3,90.8,101.5,90.9,101.6,90.9z"></path>
					</g>
					<g id="XMLID_19_">
						<path id="XMLID_21_" class="st121" d="M96.9,90.5c-0.2,0-0.7-0.3-1.4-0.4c-0.3,0-0.7,0-0.5,0.4c0.2,0.5,0.6,0.9,1.1,1.1        c0.2,0.1,0.4,0.1,0.6,0.2c0.2,0.1,0.2,0.2,0.3,0.3c0.3,0.2,0.5,0.2,0.8,0.1c0.2-0.1,0.3-0.2,0.4-0.5c0.1-0.3,0.1-0.7,0-0.9        c0,0,0-0.1,0-0.1c0-0.3,0-0.8,0.1-1.5l-1.3-0.4C96.9,89.6,97,90.1,96.9,90.5z"></path>
						<linearGradient id="XMLID_406_" gradientUnits="userSpaceOnUse" x1="93.2696" y1="82.803" x2="97.5311" y2="84.4667">
							<stop offset="0" style="stop-color:#235DA3"></stop>
							<stop offset="1" style="stop-color:#123A76"></stop>
						</linearGradient>
						<path id="XMLID_20_" class="st140" d="M98.2,91c0.2-1.4,0.5-4.3,0-5.5c-0.2-0.5-0.3-1.3-0.3-1.8c0-0.2,0.1-0.9,0.3-1.6        c0.2-0.7,0.5-1.5,0.6-2.2c0.1-0.9-0.2-1.5-0.2-1.6c-0.5-1-2.8,0.1-2.8,0.3c-0.2,0.8,0,2.8,0,3.3c0,0.1,0,0.2,0,0.3        c0,0.3,0,0.7,0,1.1c0,0,0,0.1,0,0.1l0,0c0,0,0,0,0,0l0,0c0,0,0,0,0,0l0,0c0,0,0,0,0,0l0,0c0,0,0,0,0,0l0,0l0,0l0,0l0,0l0,0        c0,0,0,0,0,0l0,0l0,0l0,0l0,0l0,0c0,0,0,0,0,0l0,0c0,0,0,0,0,0l0,0c0,0,0,0,0,0l0,0c0,0,0,0,0,0l0,0c0,0,0,0,0,0l0,0        c0,0,0,0.1,0,0.1l0,0c0,0,0,0,0,0c0.1,0.6,0.3,1.9,0.5,3c0.1,0.6,0.1,1.2,0.2,1.6c0,0.2,0.1,1.8,0.1,2        C96.7,91.1,98,91.4,98.2,91z"></path>
					</g>
				</g>
				<linearGradient id="XMLID_407_" gradientUnits="userSpaceOnUse" x1="98.7555" y1="77.7839" x2="96.0085" y2="71.3595">
					<stop offset="0" style="stop-color:#1C8EF4"></stop>
					<stop offset="1" style="stop-color:#00CFDD"></stop>
				</linearGradient>
				<path id="XMLID_17_" class="st141" d="M99.5,77.5c0,0.1,0.1,0.2,0.1,0.3c-0.2,1-2.2,2.4-3.9,1.3c0-0.1,0-0.3,0-0.4      c0-0.8-0.1-0.6-0.2-1.4c-0.1-0.4-0.5-1.4-0.6-2.4c-0.1-0.6-0.1-1.4,0.2-2c0.1-0.2,0.3-0.5,0.5-0.6c0.4-0.3,2.6-1.3,3.2-1.4      c0.7-0.1,1.1,0.2,1.2,1.1c0.1,0.7-0.1,1.9-0.1,2.9C99.7,76.1,99.7,77,99.5,77.5z"></path>
				<g id="XMLID_9_">
					<linearGradient id="XMLID_408_" gradientUnits="userSpaceOnUse" x1="97.5419" y1="69.9841" x2="97.817" y2="71.037">
						<stop offset="0" style="stop-color:#FF8A78"></stop>
						<stop offset="1" style="stop-color:#FFA799"></stop>
					</linearGradient>
					<path id="XMLID_16_" class="st142" d="M96.1,70.8c0.1,0.1,0.7,0,0.7,0.1c0,0.3-0.1,0.4-0.1,0.8c0.6,0,1.5-0.1,1.6-0.6       c0-0.3,0-0.5,0.1-0.7c0.2-0.2,0.5-0.5,0.6-0.8c0.2-0.6,0.1-1.2-0.4-1.6c-0.9-0.8-2.2-0.3-2.5,0.8c-0.1,0.2,0.1,0.3,0.1,0.5       c0,0-0.1,0.1-0.1,0.2C96,69.6,95.9,70.8,96.1,70.8z"></path>
					<linearGradient id="XMLID_409_" gradientUnits="userSpaceOnUse" x1="95.9678" y1="70.1554" x2="96.6596" y2="69.725">
						<stop offset="0" style="stop-color:#FFB89E"></stop>
						<stop offset="1" style="stop-color:#FFA799"></stop>
					</linearGradient>
					<path id="XMLID_15_" class="st143" d="M96.1,70.8c0.1,0,0.4,0,0.6,0c0.1,0,0.2-0.1,0.2-0.2c0.1,0,0.3-0.3,0-0.7       c-0.1-0.1,0-0.3,0.2-0.2c0.4,0.2,1.2,0.8,1.3,0.8c0.2-0.2,0.5-0.5,0.6-0.8c0.2-0.6,0.1-1.2-0.4-1.6c-0.9-0.8-2.2-0.3-2.5,0.8       c-0.1,0.2,0.1,0.3,0.1,0.5c0,0-0.1,0.1-0.1,0.2C96,69.6,95.9,70.8,96.1,70.8z"></path>
					<g id="XMLID_12_">
						<path id="XMLID_14_" class="st128" d="M96.8,70.1c0-0.1,0-0.2,0.1-0.2c0.1,0,0.2,0.1,0.2,0.3c0.1,0.2-0.1,0.5-0.3,0.4        c0.2,0,0.2-0.2,0.1-0.4C96.9,70.1,96.8,70.1,96.8,70.1z"></path>
						<path id="XMLID_13_" class="st129" d="M96.9,70.2c-0.1,0.1-0.1,0.2-0.1,0.2c0,0,0,0.1,0.1,0C96.9,70.3,96.9,70.2,96.9,70.2z"></path>
					</g>
					<linearGradient id="XMLID_410_" gradientUnits="userSpaceOnUse" x1="97.7022" y1="68.3289" x2="97.2979" y2="69.7723">
						<stop offset="0" style="stop-color:#5A2D68"></stop>
						<stop offset="1" style="stop-color:#22043D"></stop>
					</linearGradient>
					<path id="XMLID_11_" class="st144" d="M98.3,70.7c0.1-0.4,0.4-0.7,0.6-1.1c0.1-0.4,0.1-0.7,0-1.1c0.1-0.3-0.4-0.7-0.6-0.8       c0,0,0,0,0,0.1c-0.5-0.3-0.7-0.3-1.3-0.2c0.1,0,0.1,0,0.2,0c-0.3,0-1.2,0.4-1.2,1c0.1-0.3,0.3-0.2,0.4-0.2       c-0.1,0.3,0,0.6,0.1,0.7c0.2,0.3,0.2,0.3,0.2,0.8l0.1,0.1c0.1-0.3,0.2-0.3,0.4-0.2c0.3,0.2,0.1,0.9,0.7,1       C98,70.9,98.2,70.8,98.3,70.7z"></path>
					<path id="XMLID_10_" class="st131" d="M98.3,71.1c0.2,0.1,0.4,0.3,0.3,0.4c-0.2,0.8-1.6,0.9-2.5,0.7c0,0,0.3-0.4,0.5-0.5       C97.2,71.8,98.1,71.6,98.3,71.1z"></path>
				</g>
			</g>
			<g id="XMLID_5_">
				<linearGradient id="XMLID_411_" gradientUnits="userSpaceOnUse" x1="89.4911" y1="67.7806" x2="90.4153" y2="68.8796">
					<stop offset="0" style="stop-color:#FFB89E"></stop>
					<stop offset="1" style="stop-color:#FFA799"></stop>
				</linearGradient>
				<path id="XMLID_7_" class="st145" d="M91.2,68.9c-0.3-0.4-0.6-1-0.9-1.2c-0.3-0.3-0.6-0.6-0.9-0.8c-0.2-0.2-0.6,0.3-0.5,0.4      c0.1,0.2,0.2,0.6,0.3,0.9c0.2,0.4,0.3,0.7,0.6,0.9c0.2,0.2,0.6,0.3,0.8,0.5C90.9,69.5,91,69.2,91.2,68.9z"></path>
				<linearGradient id="XMLID_412_" gradientUnits="userSpaceOnUse" x1="94.7968" y1="78.1655" x2="93.1944" y2="69.8036">
					<stop offset="0" style="stop-color:#1C8EF4"></stop>
					<stop offset="1" style="stop-color:#00CFDD"></stop>
				</linearGradient>
				<path id="XMLID_6_" class="st146" d="M96.1,72.6c-0.3-0.2-0.7-0.3-1.1-0.4c-0.5-0.2-1-0.3-1.5-0.5c-0.1,0-0.3-0.1-0.4-0.1      c-0.1-0.4-1.6-2.3-1.9-2.7c-0.2,0-0.5,0.3-0.7,0.5c0.4,0.8,0.8,2.2,1.3,2.8c0.1,0.1,0.1,0.3,0.3,0.5c0.4,0.5,2.5,1.5,3,1.7      c0.6,0.2,1.1,0.1,1.3-0.1C96.8,73.8,96.6,72.9,96.1,72.6z"></path>
			</g>
		</g>
	</g>
</g>
</svg>
