<?xml version="1.0" encoding="UTF-8"?>
<!-- Generator: Adobe Illustrator 24.3.0, SVG Export Plug-In . SVG Version: 6.00 Build 0)  -->
<svg xmlns="http://www.w3.org/2000/svg" xmlns:xlink="http://www.w3.org/1999/xlink" version="1.1" id="Layer_1" x="0px" y="0px" width="117px" height="36px" viewBox="0 0 117 36" style="enable-background:new 0 0 117 36;" xml:space="preserve">
<style type="text/css">
	.st0{fill:#414141;}
	.st1{fill:#F37C23;}
</style>
<g id="Layer_1-2">
	<g>
		<g>
			<path class="st0" d="M32.01,27.61c-0.02-0.38-0.03-0.84-0.03-1.3h-0.02c-0.11,0.4-0.25,0.85-0.37,1.23l-0.41,1.23h-0.6     l-0.36-1.23c-0.11-0.37-0.22-0.82-0.3-1.23h-0.01c-0.02,0.43-0.04,0.91-0.06,1.31l-0.06,1.2h-0.7l0.22-3.16h1.02l0.33,1.06     c0.11,0.37,0.21,0.76,0.29,1.13h0.02c0.09-0.37,0.21-0.78,0.32-1.13l0.36-1.05h0.99l0.19,3.16h-0.74l-0.05-1.21L32.01,27.61     L32.01,27.61z"></path>
			<path class="st0" d="M34.86,28.01l-0.24,0.81h-0.79l1.03-3.16h1l1.05,3.16h-0.82l-0.26-0.81H34.86z M35.71,27.47L35.5,26.8     c-0.06-0.19-0.12-0.42-0.17-0.61h-0.01c-0.05,0.19-0.1,0.43-0.15,0.61l-0.2,0.67H35.71z"></path>
			<path class="st0" d="M38.05,25.66h0.75v1.4h0.02c0.08-0.12,0.15-0.23,0.23-0.34l0.77-1.05h0.93l-1.11,1.34l1.17,1.82h-0.89     l-0.82-1.37l-0.29,0.33v1.03h-0.75L38.05,25.66L38.05,25.66L38.05,25.66z"></path>
			<path class="st0" d="M42.58,25.66v3.16h-0.77v-3.16H42.58z"></path>
			<path class="st0" d="M43.93,28.82v-3.16h0.89l0.7,1.16c0.2,0.33,0.4,0.72,0.55,1.08h0.02c-0.05-0.41-0.06-0.84-0.06-1.32v-0.92     h0.7v3.16h-0.8l-0.72-1.22c-0.2-0.34-0.42-0.75-0.58-1.12h-0.02c0.02,0.42,0.03,0.87,0.03,1.38v0.95L43.93,28.82L43.93,28.82     L43.93,28.82z"></path>
			<path class="st0" d="M50.89,28.68c-0.23,0.08-0.68,0.18-1.12,0.18c-0.61,0-1.06-0.15-1.37-0.43c-0.31-0.27-0.48-0.68-0.47-1.15     c0-1.05,0.82-1.65,1.92-1.65c0.43,0,0.77,0.08,0.93,0.15l-0.16,0.57c-0.19-0.08-0.41-0.13-0.78-0.13c-0.63,0-1.11,0.34-1.11,1.02     c0,0.68,0.43,1.03,1.06,1.03c0.18,0,0.32-0.02,0.37-0.05v-0.66h-0.52v-0.56h1.25L50.89,28.68L50.89,28.68L50.89,28.68z"></path>
			<path class="st0" d="M54.34,26.26h-0.91v-0.6h2.59v0.6h-0.92v2.56h-0.77V26.26z"></path>
			<path class="st0" d="M57.89,25.66v1.22h1.25v-1.22h0.76v3.16h-0.76V27.5h-1.25v1.32h-0.77v-3.16H57.89z"></path>
			<path class="st0" d="M62.03,25.66v3.16h-0.77v-3.16H62.03z"></path>
			<path class="st0" d="M63.38,28.82v-3.16h0.89l0.7,1.16c0.2,0.33,0.4,0.72,0.55,1.08h0.02c-0.05-0.41-0.06-0.84-0.06-1.32v-0.92     h0.7v3.16h-0.8l-0.72-1.22c-0.2-0.34-0.42-0.75-0.58-1.12h-0.02c0.02,0.42,0.03,0.87,0.03,1.38v0.95L63.38,28.82L63.38,28.82     L63.38,28.82z"></path>
			<path class="st0" d="M70.34,28.68c-0.23,0.08-0.68,0.18-1.12,0.18c-0.61,0-1.06-0.15-1.37-0.43c-0.31-0.27-0.48-0.68-0.47-1.15     c0.01-1.05,0.82-1.65,1.92-1.65c0.43,0,0.77,0.08,0.93,0.15l-0.16,0.57c-0.19-0.08-0.41-0.13-0.78-0.13     c-0.64,0-1.12,0.34-1.12,1.02c0,0.68,0.43,1.03,1.06,1.03c0.18,0,0.32-0.02,0.37-0.05v-0.66h-0.52v-0.56h1.25V28.68L70.34,28.68     L70.34,28.68z"></path>
			<path class="st0" d="M71.65,28.09c0.2,0.1,0.52,0.2,0.84,0.2c0.35,0,0.53-0.13,0.53-0.34c0-0.21-0.16-0.31-0.56-0.44     c-0.56-0.18-0.92-0.47-0.92-0.93c0-0.54,0.48-0.95,1.27-0.95c0.38,0,0.66,0.08,0.86,0.16l-0.17,0.58     c-0.13-0.06-0.37-0.15-0.71-0.15c-0.33,0-0.49,0.14-0.49,0.3c0,0.2,0.19,0.29,0.63,0.44c0.6,0.2,0.87,0.5,0.87,0.94     c0,0.53-0.43,0.98-1.36,0.98c-0.39,0-0.77-0.09-0.95-0.19L71.65,28.09L71.65,28.09L71.65,28.09z"></path>
			<path class="st1" d="M78.73,27.49h-1.24v0.75h1.38v0.58h-2.14v-3.16h2.07v0.58h-1.31v0.65h1.24V27.49L78.73,27.49L78.73,27.49z"></path>
			<path class="st1" d="M80.88,28.01l-0.24,0.81h-0.79l1.03-3.16h1l1.05,3.16H82.1l-0.26-0.81H80.88z M81.73,27.47l-0.21-0.67     c-0.06-0.19-0.12-0.42-0.17-0.61h-0.01c-0.05,0.19-0.1,0.43-0.16,0.61l-0.2,0.67H81.73z"></path>
			<path class="st1" d="M84.09,28.09c0.2,0.1,0.52,0.2,0.85,0.2c0.35,0,0.53-0.13,0.53-0.34c0-0.21-0.16-0.31-0.56-0.44     c-0.56-0.18-0.92-0.47-0.92-0.93c0-0.54,0.48-0.95,1.27-0.95c0.38,0,0.66,0.08,0.86,0.16l-0.17,0.58     c-0.13-0.06-0.37-0.15-0.71-0.15s-0.49,0.14-0.49,0.3c0,0.2,0.19,0.29,0.63,0.44c0.6,0.2,0.87,0.5,0.87,0.94     c0,0.53-0.43,0.98-1.36,0.98c-0.39,0-0.77-0.09-0.95-0.19L84.09,28.09L84.09,28.09L84.09,28.09z"></path>
			<path class="st1" d="M88.25,28.82v-1.3l-1.06-1.86h0.87l0.34,0.76c0.11,0.23,0.18,0.4,0.26,0.6h0.01c0.08-0.2,0.16-0.38,0.26-0.6     l0.34-0.76h0.85L89,27.5v1.32H88.25L88.25,28.82z"></path>
			<path class="st0" d="M92.88,25.66h2.06v0.58h-1.29v0.72h1.21v0.58h-1.21v1.27h-0.77V25.66L92.88,25.66L92.88,25.66z"></path>
			<path class="st0" d="M99.29,27.21c0,1.03-0.67,1.67-1.65,1.67c-0.98,0-1.58-0.71-1.58-1.61c0-0.95,0.64-1.65,1.64-1.65     C98.68,25.62,99.28,26.34,99.29,27.21L99.29,27.21L99.29,27.21z M96.86,27.25c0,0.62,0.31,1.06,0.82,1.06     c0.51,0,0.81-0.46,0.81-1.08c0-0.57-0.29-1.06-0.81-1.06C97.15,26.18,96.86,26.64,96.86,27.25z"></path>
			<path class="st0" d="M100.49,25.7c0.25-0.04,0.61-0.06,1.01-0.06c0.5,0,0.85,0.07,1.09,0.25c0.2,0.15,0.31,0.37,0.31,0.66     c0,0.4-0.3,0.68-0.6,0.78v0.01c0.23,0.09,0.36,0.3,0.45,0.59c0.11,0.36,0.21,0.77,0.27,0.89h-0.78     c-0.05-0.09-0.13-0.34-0.23-0.74c-0.09-0.39-0.23-0.5-0.54-0.51h-0.23v1.24h-0.75L100.49,25.7L100.49,25.7L100.49,25.7z      M101.24,27.06h0.3c0.38,0,0.6-0.18,0.6-0.46c0-0.29-0.21-0.44-0.56-0.44c-0.19,0-0.29,0.01-0.34,0.02L101.24,27.06L101.24,27.06     L101.24,27.06z"></path>
			<path class="st0" d="M106.43,28.82v-1.3l-1.06-1.86h0.87l0.34,0.76c0.11,0.23,0.18,0.4,0.26,0.6h0.01     c0.08-0.2,0.15-0.38,0.26-0.6l0.34-0.76h0.85l-1.11,1.84v1.32H106.43L106.43,28.82z"></path>
			<path class="st0" d="M112.21,27.21c0,1.03-0.67,1.67-1.65,1.67c-0.98,0-1.58-0.71-1.58-1.61c0-0.95,0.64-1.65,1.64-1.65     C111.6,25.62,112.2,26.34,112.21,27.21L112.21,27.21L112.21,27.21z M109.78,27.25c0,0.62,0.31,1.06,0.82,1.06     c0.51,0,0.81-0.46,0.81-1.08c0-0.57-0.29-1.06-0.81-1.06C110.07,26.18,109.78,26.64,109.78,27.25z"></path>
			<path class="st0" d="M114.16,25.66v1.82c0,0.54,0.22,0.82,0.61,0.82s0.62-0.26,0.62-0.82v-1.82h0.76v1.77     c0,0.98-0.53,1.44-1.4,1.44c-0.88,0-1.35-0.44-1.35-1.45v-1.76L114.16,25.66L114.16,25.66z"></path>
		</g>
		<path class="st1" d="M34.91,10.27h-3.38v12.82h-2.68V10.27h-3.36V7.39h9.41L34.91,10.27C34.9,10.27,34.91,10.27,34.91,10.27z"></path>
		<path class="st1" d="M54.53,22.53c-0.86,0.56-1.99,0.83-3.38,0.83c-1.82,0-3.24-0.71-4.28-2.12c-1.04-1.41-1.56-3.3-1.56-5.66    c0-2.51,0.58-4.55,1.75-6.11s2.69-2.34,4.55-2.34c1.16,0,2.13,0.19,2.92,0.58v3.41c-0.79-0.63-1.69-0.94-2.71-0.94    c-1.11,0-2.01,0.46-2.69,1.39c-0.68,0.93-1.02,2.18-1.02,3.77s0.32,2.73,0.96,3.63c0.64,0.9,1.51,1.35,2.6,1.35    c1.09,0,1.99-0.33,2.86-1V22.53L54.53,22.53L54.53,22.53z"></path>
		<path class="st1" d="M65.85,23.09h-2.68v-6.39h-4.9v6.39h-2.66V7.39h2.66v6.26h4.9V7.39h2.68C65.85,7.39,65.85,23.09,65.85,23.09z    "></path>
		<path class="st1" d="M73.92,10.27h-4.18v3.85h3.84v2.87h-3.84v6.1h-2.66V7.39h6.84C73.92,7.39,73.92,10.27,73.92,10.27z"></path>
		<path class="st1" d="M80.38,23.36c-1.69,0-3.08-0.73-4.14-2.2c-1.07-1.46-1.6-3.37-1.6-5.72c0-2.48,0.54-4.49,1.62-6.02    c1.08-1.54,2.52-2.3,4.31-2.3c1.69,0,3.06,0.74,4.1,2.2c1.04,1.47,1.57,3.4,1.57,5.8s-0.54,4.46-1.62,5.97    C83.53,22.6,82.12,23.36,80.38,23.36z M80.5,10.17c-0.93,0-1.68,0.47-2.23,1.4c-0.55,0.93-0.82,2.16-0.82,3.69    s0.27,2.79,0.82,3.69c0.55,0.91,1.27,1.36,2.16,1.36s1.65-0.44,2.19-1.32s0.81-2.1,0.81-3.66c0-1.57-0.26-2.89-0.78-3.8    C82.12,10.61,81.4,10.16,80.5,10.17L80.5,10.17L80.5,10.17z"></path>
		<path class="st1" d="M97.14,23.09h-3.06l-1.84-4.04c-0.14-0.3-0.27-0.58-0.4-0.82s-0.26-0.44-0.39-0.62    c-0.13-0.17-0.26-0.3-0.4-0.39c-0.14-0.09-0.29-0.13-0.46-0.13h-0.72v6.01h-2.66V7.39h4.22c2.87,0,4.31,1.43,4.31,4.27    c0,0.55-0.06,1.05-0.19,1.52c-0.13,0.46-0.3,0.88-0.54,1.25c-0.23,0.37-0.51,0.7-0.84,0.96c-0.33,0.27-0.7,0.48-1.09,0.64v0.04    c0.18,0.07,0.34,0.19,0.51,0.36c0.16,0.16,0.32,0.36,0.48,0.57c0.15,0.22,0.3,0.46,0.44,0.71c0.14,0.25,0.27,0.5,0.39,0.74    l2.24,4.64L97.14,23.09L97.14,23.09z M89.88,10.03v4.37h1.16c0.57,0,1.03-0.22,1.38-0.65c0.35-0.44,0.53-1,0.53-1.65    c0-1.37-0.62-2.06-1.86-2.06L89.88,10.03L89.88,10.03z"></path>
		<path class="st1" d="M105.74,22.53c-0.86,0.56-1.99,0.83-3.38,0.83c-1.82,0-3.24-0.71-4.28-2.12c-1.04-1.41-1.56-3.3-1.56-5.66    c0-2.51,0.58-4.55,1.75-6.11s2.69-2.34,4.55-2.34c1.16,0,2.13,0.19,2.92,0.58v3.41c-0.79-0.63-1.69-0.94-2.71-0.94    c-1.11,0-2.01,0.46-2.69,1.39c-0.68,0.93-1.02,2.18-1.02,3.77s0.32,2.73,0.96,3.63c0.64,0.9,1.51,1.35,2.6,1.35    c1.09,0,1.99-0.33,2.86-1L105.74,22.53L105.74,22.53L105.74,22.53z"></path>
		<g>
			<polygon class="st1" points="44.78,23.15 44.78,21.13 44.78,20.45 38.33,20.45 38.33,16.15 43.72,16.15 43.72,13.24 35.82,13.24      35.82,23.15    "></polygon>
			<rect x="35.82" y="7.33" class="st0" width="8.96" height="3.05"></rect>
		</g>
		<g>
			<polygon class="st1" points="115.92,23.15 115.92,21.13 115.92,20.45 109.46,20.45 109.46,16.15 114.85,16.15 114.85,13.24      106.96,13.24 106.96,23.15    "></polygon>
			<rect x="106.96" y="7.33" class="st0" width="8.96" height="3.05"></rect>
		</g>
		<g>
			<path class="st1" d="M3.54,7.55c-1.48,0-2.69,1.2-2.69,2.69v7.03l13.32-9.73H3.54z"></path>
			<path class="st1" d="M0.85,26.01c0,1.49,1.21,2.69,2.69,2.69h2.22V17.66l-4.91,3.6V26.01z"></path>
			<path class="st1" d="M18.06,7.51l0.01,1.15v20.05h1.23c1.49,0,2.69-1.2,2.69-2.69V10.24C21.99,8.84,22.26,7.04,18.06,7.51     L18.06,7.51L18.06,7.51z"></path>
			<polygon class="st1" points="11.62,19.98 11.64,16.61 14.67,14.31 14.67,11.17 8.85,15.47 8.85,28.7 11.56,28.7 11.6,22.67      14.67,20.59 14.67,17.73    "></polygon>
		</g>
	</g>
</g>
</svg>
