<?xml version="1.0" encoding="UTF-8"?>
<svg xmlns="http://www.w3.org/2000/svg" xmlns:xlink="http://www.w3.org/1999/xlink" id="Layer_1" x="0px" y="0px" width="117px" height="36px" viewBox="0 0 117 36" style="enable-background:new 0 0 117 36;" xml:space="preserve">
  <style type="text/css">	.st0{fill:#0A0A0A;}	.st1{fill:#61FF00;}</style>
  <g>	<path class="st0" d="M49.92,8.35l-7.38,19.23H55l7.34-19.23C62.34,8.35,49.92,8.35,49.92,8.35z"></path>	<path class="st0" d="M12.39,8.35l1.6,3.4h16.69L6.4,27.62h36.13l-1.68-3.49H25.19L49.92,8.35H12.39z"></path>	<path class="st0" d="M98.39,8.38l-10.7,9.76l4.96,9.43h12.22l-4.68-9.43l10.41-9.76C110.6,8.38,98.39,8.38,98.39,8.38z"></path>	<g>		<path class="st1" d="M88.5,8.35h-9.39l-1.6,1.47l3.94,7.59l-9.1,7.91l1.11,2.34h9.68l9.96-9.47L88.5,8.35z"></path>	</g>	<g>		<path class="st0" d="M66.98,8.35l-10.67,9.8l4.96,9.43l12.22,0.08l-4.68-9.51l10.39-9.8H66.98z"></path>	</g></g>
</svg>
